<?xml version="1.0" encoding="utf-8"?>
<!-- Generator: Adobe Illustrator 28.3.0, SVG Export Plug-In . SVG Version: 6.00 Build 0)  -->
<svg version="1.1" id="Calque_1" xmlns="http://www.w3.org/2000/svg" xmlns:xlink="http://www.w3.org/1999/xlink" x="0px" y="0px"
	 viewBox="0 0 425.4 78" style="enable-background:new 0 0 425.4 78;" xml:space="preserve">
<style type="text/css">
	.st0{fill:#FFFFFF;stroke:#020203;stroke-width:0.5;stroke-linecap:round;stroke-linejoin:round;}
	.st1{fill:#FCEB5E;stroke:#020203;stroke-width:0.5;stroke-linecap:round;stroke-linejoin:round;}
	.st2{fill:#20386C;stroke:#020203;stroke-width:0.5;stroke-linecap:round;stroke-linejoin:round;}
	.st3{fill:#485D64;stroke:#020203;stroke-width:0.5;stroke-linecap:round;stroke-linejoin:round;}
	.st4{fill:#819EA9;stroke:#020203;stroke-width:0.5;stroke-linecap:round;stroke-linejoin:round;}
	.st5{fill:#D93120;stroke:#020203;stroke-width:0.5;stroke-linecap:round;stroke-linejoin:round;}
	.st6{fill:#B6B6B5;stroke:#020203;stroke-width:0.4982;stroke-linecap:round;stroke-linejoin:round;}
	.st7{fill:#B6B6B5;stroke:#020203;stroke-width:0.4985;stroke-linecap:round;stroke-linejoin:round;}
	.st8{fill:#B6B6B5;stroke:#020203;stroke-width:0.4992;stroke-linecap:round;stroke-linejoin:round;}
	.st9{fill:#B6B6B5;stroke:#020203;stroke-width:0.4984;stroke-linecap:round;stroke-linejoin:round;}
	.st10{fill:none;stroke:#020203;stroke-width:0.5;stroke-linecap:round;stroke-linejoin:round;}
	.st11{fill:#888989;}
	.st12{font-family:'ArialMT';}
	.st13{font-size:4.13px;}
	.st14{font-size:7.66px;}
	.st15{fill:#777778;stroke:#020203;stroke-width:0.5;stroke-linecap:round;stroke-linejoin:round;}
	.st16{fill:#B3B2B2;stroke:#020203;stroke-width:0.5;stroke-linecap:round;stroke-linejoin:round;}
	.st17{fill:#161617;stroke:#020203;stroke-width:0.5;stroke-linecap:round;stroke-linejoin:round;}
	.st18{fill:#4A4A4A;stroke:#020203;stroke-width:0.5;stroke-linecap:round;stroke-linejoin:round;}
	.st19{fill:#A8A8A8;stroke:#020203;stroke-width:0.5;stroke-linecap:round;stroke-linejoin:round;}
	.st20{fill:#282929;stroke:#020203;stroke-width:0.5;stroke-linecap:round;stroke-linejoin:round;}
	.st21{fill:#888989;stroke:#020203;stroke-width:0.5;stroke-linecap:round;stroke-linejoin:round;}
	.st22{fill:#353535;stroke:#020203;stroke-width:0.5;stroke-linecap:round;stroke-linejoin:round;}
	.st23{fill:none;}
</style>
<g id="Tête_00000116919111388871123890000008948830009904388278_">
	<path class="st0" d="M1.85,66.75c1.9,0.1,423.2,0,423.2,0v-47H34.65c0,0,0-7.7,0-8.7C-7.05,20.05,0.15,63.55,1.85,66.75z"/>
	<path class="st1" d="M34.65,19.75c-19.3,2.4-27.8,24.1-28,26.3c-1.7,0.3-3.6,0.6-6.4,0.6c1-4.2,3.2-28.5,34.4-35.7
		C34.65,14.25,34.65,19.05,34.65,19.75L34.65,19.75z"/>
	<path class="st2" d="M0.65,60.85c1.5,0,424.5,0,424.5,0v6.1H1.95C1.85,66.95,0.95,64.75,0.65,60.85z"/>
	<path class="st3" d="M13.85,42.95c0,0,10.3-16,18.7-15.9s16.6-0.1,18.8,0s-2.8,9.9-2.8,9.9L13.85,42.95z"/>
	<polygon class="st4" points="62.85,31.45 62.85,47.85 94.25,47.85 94.25,31.45 	"/>
	<polygon class="st5" points="108.95,64.45 109.05,27.05 121.65,27.05 121.65,64.45 	"/>
	<polygon class="st5" points="121.65,64.45 121.75,27.05 134.25,27.05 134.25,64.45 	"/>
	<polygon class="st6" points="111.35,31.45 111.35,48.95 119.05,48.95 119.05,31.45 	"/>
	<polygon class="st7" points="124.25,31.45 124.25,48.95 131.95,48.95 131.95,31.45 	"/>
	<polygon class="st5" points="298.85,64.45 298.95,27.05 311.45,27.05 311.45,64.45 	"/>
	<polygon class="st5" points="311.45,64.45 311.55,27.05 324.15,27.05 324.15,64.45 	"/>
	<polygon class="st8" points="301.25,31.45 301.25,48.95 308.95,48.95 308.95,31.45 	"/>
	<polygon class="st9" points="314.15,31.45 314.15,48.95 321.75,48.95 321.75,31.45 	"/>
	<polygon class="st4" points="147.65,36.15 147.65,51.95 285.45,51.95 285.45,36.15 	"/>
	<rect x="212.75" y="36.15" class="st3" width="7.5" height="15.8"/>
	<polygon class="st3" points="247.15,36.15 254.75,36.15 254.65,51.95 247.15,51.95 	"/>
	<rect x="372.05" y="32.05" class="st10" width="7.5" height="15.8"/>
	<rect x="178.55" y="36.15" class="st3" width="7.5" height="15.8"/>
	<polygon class="st4" points="340.05,31.45 411.55,31.45 411.55,47.85 340.05,47.85 	"/>
	<text transform="matrix(1 0 0 1 20.283 59.4189)" class="st11 st12 st13">88888</text>
	<text transform="matrix(1 0 0 1 136.816 39.3288)" class="st11 st12 st14">2</text>
	<text transform="matrix(1 0 0 1 102.833 39.3288)" class="st11 st12 st14">1</text>
	<text transform="matrix(1 0 0 1 291.6953 39.3255)" class="st11 st12 st14">2</text>
	<text transform="matrix(1 0 0 1 326.6884 39.327)" class="st11 st12 st14">2</text>
	<rect x="54.15" y="27.05" class="st1" width="52.7" height="1.5"/>
	<path class="st15" d="M34.65,12.05h13c4.6,0,7.1,7.7,7.1,7.7h-20.1V12.05z"/>
	<rect x="81.05" y="10.25" class="st15" width="8.1" height="9.5"/>
	<polyline class="st16" points="89.15,12.25 98.55,12.25 98.55,19.75 89.15,19.75 89.15,12.25 	"/>
	<circle class="st17" cx="383.85" cy="72.95" r="4.8"/>
	<circle class="st17" cx="354.05" cy="72.95" r="4.8"/>
	<circle class="st17" cx="78.95" cy="72.85" r="4.8"/>
	<circle class="st17" cx="49.15" cy="72.85" r="4.8"/>
	<polygon class="st18" points="169.35,19.75 169.35,12.65 98.55,12.65 98.55,19.75 	"/>
	<polygon class="st19" points="253.15,19.75 253.15,9.85 184.75,9.85 184.75,19.75 	"/>
	<polygon class="st19" points="308.95,19.75 308.95,11.35 261.05,11.35 261.05,19.75 	"/>
	<polygon class="st15" points="332.75,19.75 332.75,7.75 312.35,7.75 312.35,19.75 	"/>
	<polygon class="st19" points="354.25,19.75 354.25,11.35 336.55,11.35 336.55,19.75 	"/>
	<rect x="372.05" y="31.45" class="st3" width="7.5" height="16.5"/>
	<polygon class="st15" points="363.25,19.75 363.25,14.75 355.55,14.75 355.55,19.75 	"/>
	<polygon class="st20" points="256.45,66.95 256.45,69.95 221.05,69.95 221.05,66.95 	"/>
	<polygon class="st20" points="285.85,66.95 285.85,72.05 263.45,72.05 263.45,66.95 	"/>
	<path class="st21" d="M310.25,66.95c0,0,0.3,3.6,3.8,3.8c2.9,0,9.1,0,9.1,0v-3.8H310.25z"/>
	<path class="st21" d="M406.05,66.95c0,0,0.4,3.8,5,3.8c4.7,0,14.1,0,14.1,0v-3.8H406.05z"/>
	<path class="st21" d="M9.05,66.95v5.2c0,0,4.5-2.7,5.1-5.1C8.85,66.95,9.05,66.95,9.05,66.95L9.05,66.95z"/>
	<path class="st18" d="M28.35,66.95c0,0,0.1,4.3,12.1,4.4c12,0.1,60.5,0,60.5,0l-4.7-4.4H28.35z"/>
	<path class="st18" d="M335.45,66.95c0,0,0.1,5.6,12.1,5.8s45.6,1.4,48.6,0c3-1.4,7.2-5.8,7.2-5.8H335.45z"/>
	<rect x="165.85" y="66.95" class="st20" width="31.8" height="3"/>
	<polygon class="st22" points="293.35,11.35 293.35,7.75 277.35,7.75 277.35,11.35 	"/>
	<polyline class="st10" points="285.05,7.75 301.25,5.45 282.65,0.75 282.55,1.15 282.65,0.25 	"/>
	<rect x="147.65" y="38.95" class="st23" width="68.8" height="7.5"/>
</g>
</svg>
