<?xml version="1.0" encoding="utf-8"?>
<!-- Generator: Adobe Illustrator 28.3.0, SVG Export Plug-In . SVG Version: 6.00 Build 0)  -->
<svg version="1.1" id="Calque_1" xmlns="http://www.w3.org/2000/svg" xmlns:xlink="http://www.w3.org/1999/xlink" x="0px" y="0px"
	 viewBox="0 0 437.7 77.9" style="enable-background:new 0 0 437.7 77.9;" xml:space="preserve">
<style type="text/css">
	.st0{fill:#FFFFFF;stroke:#020203;stroke-width:0.5;stroke-linecap:round;stroke-linejoin:round;}
	.st1{fill:#FCEB5E;stroke:#020203;stroke-width:0.5;stroke-linecap:round;stroke-linejoin:round;}
	.st2{fill:#20386C;stroke:#020203;stroke-width:0.5;stroke-linecap:round;stroke-linejoin:round;}
	.st3{fill:#485D64;stroke:#020203;stroke-width:0.5;stroke-linecap:round;stroke-linejoin:round;}
	.st4{fill:#819EA9;stroke:#020203;stroke-width:0.5;stroke-linecap:round;stroke-linejoin:round;}
	.st5{fill:#D93120;stroke:#020203;stroke-width:0.5;stroke-linecap:round;stroke-linejoin:round;}
	.st6{fill:#B6B6B5;stroke:#020203;stroke-width:0.4982;stroke-linecap:round;stroke-linejoin:round;}
	.st7{fill:#B6B6B5;stroke:#020203;stroke-width:0.4985;stroke-linecap:round;stroke-linejoin:round;}
	.st8{fill:#B6B6B5;stroke:#020203;stroke-width:0.4992;stroke-linecap:round;stroke-linejoin:round;}
	.st9{fill:#B6B6B5;stroke:#020203;stroke-width:0.4984;stroke-linecap:round;stroke-linejoin:round;}
	.st10{fill:none;stroke:#020203;stroke-width:0.5;stroke-linecap:round;stroke-linejoin:round;}
	.st11{fill:#888989;}
	.st12{font-family:'ArialMT';}
	.st13{font-size:4.13px;}
	.st14{font-size:7.66px;}
	.st15{fill:#777778;stroke:#020203;stroke-width:0.5;stroke-linecap:round;stroke-linejoin:round;}
	.st16{fill:#B3B2B2;stroke:#020203;stroke-width:0.5;stroke-linecap:round;stroke-linejoin:round;}
	.st17{fill:#161617;stroke:#020203;stroke-width:0.5;stroke-linecap:round;stroke-linejoin:round;}
	.st18{fill:#4A4A4A;stroke:#020203;stroke-width:0.5;stroke-linecap:round;stroke-linejoin:round;}
	.st19{fill:#A8A8A8;stroke:#020203;stroke-width:0.5;stroke-linecap:round;stroke-linejoin:round;}
	.st20{fill:#282929;stroke:#020203;stroke-width:0.5;stroke-linecap:round;stroke-linejoin:round;}
	.st21{fill:#888989;stroke:#020203;stroke-width:0.5;stroke-linecap:round;stroke-linejoin:round;}
	.st22{fill:#353535;stroke:#020203;stroke-width:0.5;stroke-linecap:round;stroke-linejoin:round;}
	.st23{fill:none;}
	.st24{fill:#383938;stroke:#020203;stroke-width:0.5;stroke-linecap:round;stroke-linejoin:round;}
</style>
<g id="Tête_00000092418235006871492980000011624360030941628037_">
	<path class="st0" d="M403.05,11.05c0,1,0,8.7,0,8.7H12.65v47c0,0,421.4,0.1,423.2,0C437.55,63.55,444.85,19.95,403.05,11.05z"/>
	<path class="st1" d="M403.05,19.75c0-0.7,0-5.5,0-8.7c31.2,7.1,33.3,31.5,34.4,35.7c-2.8,0.1-4.8-0.3-6.4-0.6
		C430.95,43.85,422.35,22.15,403.05,19.75L403.05,19.75z"/>
	<path class="st2" d="M435.85,66.95H12.65v-6.1c0,0,423,0,424.5,0C436.75,64.75,435.85,66.95,435.85,66.95z"/>
	<path class="st3" d="M389.15,36.85c0,0-5-9.8-2.8-9.9s10.4,0.1,18.8,0c8.4-0.1,18.7,15.9,18.7,15.9
		C423.85,42.95,389.15,36.85,389.15,36.85z"/>
	<polygon class="st4" points="343.55,31.45 343.55,47.85 374.85,47.85 374.85,31.45 	"/>
	<polygon class="st5" points="316.15,64.45 316.15,27.05 328.65,27.05 328.75,64.45 	"/>
	<polygon class="st5" points="303.45,64.45 303.45,27.05 316.05,27.05 316.15,64.45 	"/>
	<polygon class="st6" points="318.75,31.45 318.75,48.95 326.35,48.95 326.35,31.45 	"/>
	<polygon class="st7" points="305.85,31.45 305.85,48.95 313.45,48.95 313.45,31.45 	"/>
	<polygon class="st5" points="126.25,64.45 126.25,27.05 138.85,27.05 138.85,64.45 	"/>
	<polygon class="st5" points="113.65,64.45 113.65,27.05 126.15,27.05 126.25,64.45 	"/>
	<polygon class="st8" points="128.85,31.45 128.85,48.95 136.45,48.95 136.45,31.45 	"/>
	<polygon class="st9" points="115.95,31.45 115.95,48.95 123.65,48.95 123.65,31.45 	"/>
	<polygon class="st4" points="152.35,36.15 152.35,51.95 290.15,51.95 290.15,36.15 	"/>
	<rect x="217.45" y="36.15" class="st3" width="7.5" height="15.8"/>
	<polygon class="st3" points="190.55,51.95 183.05,51.95 183.05,36.15 190.55,36.15 	"/>
	<rect x="58.25" y="32.05" class="st10" width="7.5" height="15.8"/>
	<rect x="251.75" y="36.15" class="st3" width="7.5" height="15.8"/>
	<polygon class="st4" points="97.75,47.85 26.25,47.85 26.25,31.45 97.75,31.45 	"/>
	<text transform="matrix(-1 0 0 1 417.4197 59.3702)" class="st11 st12 st13">88888</text>
	<text transform="matrix(1 0 0 1 296.3062 39.2802)" class="st11 st12 st14">2</text>
	<text transform="matrix(1 0 0 1 330.5444 39.2802)" class="st11 st12 st14">1</text>
	<text transform="matrix(1 0 0 1 141.4272 39.277)" class="st11 st12 st14">2</text>
	<text transform="matrix(1 0 0 1 106.4339 39.2783)" class="st11 st12 st14">2</text>
	<rect x="330.85" y="27.05" class="st1" width="52.7" height="1.5"/>
	<path class="st15" d="M403.05,19.75h-20.1c0,0,2.5-7.7,7.1-7.7h13V19.75z"/>
	<rect x="348.65" y="10.15" class="st15" width="8.1" height="9.5"/>
	<polyline class="st16" points="348.65,12.25 348.65,19.75 339.15,19.75 339.15,12.25 348.65,12.25 	"/>
	<circle class="st17" cx="53.95" cy="72.85" r="4.8"/>
	<circle class="st17" cx="83.75" cy="72.85" r="4.8"/>
	<circle class="st17" cx="358.75" cy="72.85" r="4.8"/>
	<circle class="st17" cx="388.55" cy="72.85" r="4.8"/>
	<polygon class="st18" points="339.15,19.75 339.15,12.65 268.35,12.65 268.35,19.75 	"/>
	<polygon class="st19" points="253.05,19.75 253.05,9.85 184.55,9.85 184.55,19.75 	"/>
	<polygon class="st19" points="176.65,19.75 176.65,11.35 128.75,11.35 128.75,19.75 	"/>
	<polygon class="st15" points="125.45,19.75 125.45,7.65 104.95,7.65 104.95,19.75 	"/>
	<polygon class="st19" points="101.25,19.75 101.25,11.35 83.55,11.35 83.55,19.75 	"/>
	<rect x="58.25" y="31.45" class="st3" width="7.5" height="16.5"/>
	<polygon class="st15" points="82.15,19.75 82.15,14.65 74.55,14.65 74.55,19.75 	"/>
	<polygon class="st20" points="216.75,66.95 216.75,69.95 181.35,69.95 181.35,66.95 	"/>
	<polygon class="st20" points="174.25,66.95 174.25,72.05 151.95,72.05 151.95,66.95 	"/>
	<path class="st21" d="M114.75,66.95v3.8c0,0,6.2,0,9.1,0c3.4-0.1,3.8-3.8,3.8-3.8H114.75z"/>
	<path class="st21" d="M12.65,66.95v3.8c0,0,9.4,0,14,0c4.7,0,5-3.8,5-3.8H12.65z"/>
	<path class="st21" d="M428.75,66.95c0,0,0.1,0-5.1,0c0.6,2.4,5.1,5.1,5.1,5.1V66.95L428.75,66.95z"/>
	<path class="st18" d="M341.55,66.95l-4.7,4.4c0,0,48.5,0.2,60.5,0s12.1-4.4,12.1-4.4H341.55z"/>
	<path class="st18" d="M34.45,66.95c0,0,4.2,4.4,7.2,5.8s36.6,0.1,48.6,0c12-0.2,12.1-5.8,12.1-5.8H34.45z"/>
	<rect x="240.05" y="66.95" class="st20" width="31.8" height="3"/>
	<polygon class="st22" points="160.35,11.35 160.35,7.65 144.35,7.65 144.35,11.35 	"/>
	<polyline class="st10" points="155.05,0.25 155.15,1.15 155.15,0.75 136.45,5.35 152.65,7.65 	"/>
	<rect x="221.15" y="38.95" class="st23" width="68.8" height="7.5"/>
	<rect x="0.25" y="24.95" class="st24" width="12.4" height="41.7"/>
	<g>
		<rect x="0.25" y="24.95" class="st10" width="12.4" height="41.7"/>
		<line class="st10" x1="10.55" y1="24.95" x2="10.55" y2="66.55"/>
		<line class="st10" x1="8.45" y1="24.95" x2="8.45" y2="66.55"/>
		<line class="st10" x1="6.45" y1="24.95" x2="6.45" y2="66.55"/>
		<line class="st10" x1="4.35" y1="24.95" x2="4.35" y2="66.55"/>
		<line class="st10" x1="2.25" y1="24.95" x2="2.25" y2="66.55"/>
	</g>
</g>
</svg>
