<?xml version="1.0" encoding="utf-8"?>
<!-- Generator: Adobe Illustrator 28.3.0, SVG Export Plug-In . SVG Version: 6.00 Build 0)  -->
<svg version="1.1" id="Calque_1" xmlns="http://www.w3.org/2000/svg" xmlns:xlink="http://www.w3.org/1999/xlink" x="0px" y="0px"
	 viewBox="0 0 1417.32 569.33" style="enable-background:new 0 0 1417.32 569.33;" xml:space="preserve">
<style type="text/css">
	.st0{fill:#61B3E5;}
	.st1{fill:#0C83C5;}
	.st2{fill:#064D7C;}
	.st3{fill:#123550;}
</style>
<path class="st0" d="M1065.72,481.15h-6.01v-5.27h-16.65v-30.18h-13.29v-14.54h-52.85V212.77h-8.93v-57.11
	c0-0.92-0.74-1.66-1.66-1.66h-6.95v-8.26h-1.26v-14.22h-0.16v-18.49v-3.36v-2.84h-12.8v-0.95v-1.54v-1.66v-2.96v-1.24v-0.18v-1.07
	V75.06v-0.83v-1.13v-0.53H901.3v1.24v0.42v0.83v22.16v1.07v0.89v0.53v2.96v1.66v1.54v0.95h-12.8v2.84v3.36v32.71h-1.11v2.17V154
	h-6.91c-0.92,0-1.66,0.74-1.66,1.66v57.11h-9.28v218.38h-83.6v14.54h-18.65v30.18h-12.25v5.27h-6.4c-1.14,0-2.07,0.93-2.07,2.07
	v89.49h8.47h0.14h16.22h2.21h13.67h2.21h13.91h2.21h13.91h2.21h13.91h2.21h13.91h2.21h15.57h3.12h1.28h11.12h0.2h1.46h0.99h4.19
	h0.99h1.58h0.54h11.32h0.54H909h0.99h4.19h0.99h1.86h0.62h11.32h0.46h2.33h0.51h4.19h1.46h1.7h0.54h11.32h0.54h1.54h0.99h4.19h0.99
	h1.65h0.41h10.91h1.49h2.73h15.57h2.21h13.91h2.21h13.91h2.21h13.91h2.21h13.91h2.21h0.53h8.08v-89.49
	C1067.79,482.08,1066.86,481.15,1065.72,481.15z"/>
<g>
	<path class="st0" d="M584.34,182.77"/>
	<rect x="584.34" y="152.24" class="st0" width="267.2" height="51.54"/>
	<polygon class="st0" points="789.02,222.88 789.02,183 572.93,183 572.93,233.88 636.77,233.88 636.77,273.25 851.54,273.25 
		851.54,222.88 	"/>
	<polygon class="st0" points="789.02,354.87 789.02,311.46 572.93,311.46 572.93,406.88 632.14,406.88 632.14,448.71 851.54,448.71 
		851.54,354.87 	"/>
	<polygon class="st0" points="789.02,534.53 789.02,486.15 572.93,486.15 572.93,549.96 789.02,549.96 851.54,549.96 851.54,534.53 
			"/>
	<rect x="794.16" y="200.41" class="st0" width="5.51" height="341.93"/>
	<rect x="804.9" y="196.35" class="st0" width="5.51" height="343.78"/>
	<rect x="816.53" y="190.91" class="st0" width="5.51" height="350.8"/>
	<rect x="828.5" y="194.25" class="st0" width="5.51" height="345.88"/>
	<rect x="840.23" y="194.25" class="st0" width="5.51" height="344.38"/>
	<rect x="578.16" y="229.59" class="st0" width="5.51" height="285.85"/>
	<rect x="590.16" y="227.37" class="st0" width="5.51" height="263.45"/>
	<rect x="601.98" y="229.97" class="st0" width="5.51" height="274.32"/>
	<rect x="614.4" y="229.97" class="st0" width="5.51" height="270.44"/>
	<rect x="625.93" y="231.8" class="st0" width="5.51" height="261.54"/>
	<rect x="638.04" y="234.45" class="st0" width="5.51" height="267.06"/>
	<rect x="648.94" y="234.45" class="st0" width="5.51" height="269.84"/>
	<rect x="659.84" y="233.45" class="st0" width="5.51" height="266.96"/>
	<rect x="671.03" y="233.45" class="st0" width="5.51" height="270.85"/>
	<rect x="681.99" y="228.18" class="st0" width="5.51" height="280.03"/>
	<rect x="693.39" y="229.97" class="st0" width="5.51" height="278.24"/>
	<rect x="704.91" y="238.68" class="st0" width="5.51" height="260.37"/>
	<rect x="716.16" y="238.68" class="st0" width="5.51" height="251.83"/>
	<rect x="726.96" y="240.14" class="st0" width="5.51" height="258.92"/>
	<rect x="738.14" y="236.45" class="st0" width="5.51" height="257.26"/>
	<rect x="749.09" y="240.14" class="st0" width="5.51" height="253.57"/>
	<rect x="760.8" y="235.62" class="st0" width="5.51" height="263.44"/>
	<rect x="782.88" y="238" class="st0" width="5.51" height="255.72"/>
	<rect x="771.84" y="250.84" class="st0" width="5.51" height="239.68"/>
	<rect x="572.75" y="547.95" class="st0" width="8.17" height="23.52"/>
	<rect x="590.06" y="547.95" class="st0" width="8.17" height="23.52"/>
	<rect x="607.5" y="547.95" class="st0" width="8.17" height="23.52"/>
	<rect x="625.43" y="547.95" class="st0" width="8.17" height="23.52"/>
	<rect x="659.84" y="547.95" class="st0" width="8.17" height="23.52"/>
	<rect x="699.49" y="547.95" class="st0" width="8.17" height="23.52"/>
	<rect x="740.89" y="547.95" class="st0" width="8.17" height="23.52"/>
	<rect x="790.69" y="547.95" class="st0" width="8.17" height="23.52"/>
	<rect x="808" y="547.95" class="st0" width="8.17" height="23.52"/>
	<rect x="825.44" y="547.95" class="st0" width="8.17" height="23.52"/>
	<rect x="843.37" y="547.95" class="st0" width="8.17" height="23.52"/>
	<rect x="773.27" y="548.6" class="st0" width="8.17" height="23.52"/>
</g>
<g>
	<path class="st0" d="M1222.22,547.76v-2.68h-1.64l-3.05-17.64v-7.19h0.27v-2.27h-0.27h-0.39c0.06-0.13,0.1-0.28,0.1-0.44v-0.71
		h0.16c0.18,0,0.32-0.17,0.32-0.38v-0.24c0-0.21-0.15-0.38-0.32-0.38h-0.16v-0.86h0.16c0.18,0,0.32-0.17,0.32-0.38v-0.24
		c0-0.21-0.15-0.38-0.32-0.38h-0.16v-0.86h0.16c0.18,0,0.32-0.17,0.32-0.38v-0.24c0-0.21-0.15-0.38-0.32-0.38h-0.16v-0.86h0.16
		c0.18,0,0.32-0.17,0.32-0.38v-0.24c0-0.21-0.15-0.38-0.32-0.38h-0.16v-0.71c0-0.34-0.15-0.63-0.38-0.8v-4.24h0.08v-0.31h0.16v-0.95
		h-0.16v-4.6h0.16v-0.95h-0.16v-0.95h0c0.09-0.12,0.14-0.28,0.15-0.46h0.31c0.18,0,0.33-0.19,0.33-0.42c0-0.23-0.15-0.42-0.33-0.42
		h-0.3v-0.3h0.07c0.12,0,0.23-0.13,0.23-0.29c0-0.16-0.1-0.29-0.23-0.29h-0.07v-0.29c0-0.19-0.05-0.35-0.14-0.49
		c0.1-0.15,0.17-0.34,0.17-0.56c0-0.46-0.29-0.84-0.66-0.84c-0.36,0-0.66,0.37-0.66,0.84c0,0.21,0.07,0.41,0.17,0.56
		c-0.08,0.14-0.14,0.3-0.14,0.49v0.29h-0.07c-0.12,0-0.23,0.13-0.23,0.29c0,0.16,0.1,0.29,0.23,0.29h0.07v0.3h-0.3
		c-0.18,0-0.33,0.19-0.33,0.42c0,0.23,0.15,0.42,0.33,0.42h0.31c0.01,0.17,0.07,0.33,0.15,0.46h0v0.95h-0.16v0.95h0.16v4.6h-0.16
		v0.95h0.16v0.31h0.08v4.2c-0.26,0.16-0.44,0.47-0.44,0.84v0.71h-0.16c-0.18,0-0.32,0.17-0.32,0.38v0.24c0,0.21,0.15,0.38,0.32,0.38
		h0.16v0.86h-0.16c-0.18,0-0.32,0.17-0.32,0.38v0.24c0,0.21,0.15,0.38,0.32,0.38h0.16v0.86h-0.16c-0.18,0-0.32,0.17-0.32,0.38v0.24
		c0,0.21,0.15,0.38,0.32,0.38h0.16v0.86h-0.16c-0.18,0-0.32,0.17-0.32,0.38v0.24c0,0.21,0.15,0.38,0.32,0.38h0.16v0.71
		c0,0.16,0.04,0.31,0.1,0.44h-0.32h-0.27v2.27h0.27v4.52h-2.16v-19.18h-2.02v-3.14h-0.79v-18.47h0.79v-2.68h-0.79l-1.14-6.62h0.01
		v-2.27h-0.26v-15.95h0.27v-2.27h-0.27h-0.39c0.06-0.13,0.1-0.28,0.1-0.44v-0.71h0.16c0.18,0,0.32-0.17,0.32-0.38v-0.24
		c0-0.21-0.15-0.38-0.32-0.38h-0.16v-0.86h0.16c0.18,0,0.32-0.17,0.32-0.38v-0.24c0-0.21-0.15-0.38-0.32-0.38h-0.16v-0.86h0.16
		c0.18,0,0.32-0.17,0.32-0.38v-0.24c0-0.21-0.15-0.38-0.32-0.38h-0.16v-0.86h0.16c0.18,0,0.32-0.17,0.32-0.38v-0.24
		c0-0.21-0.15-0.38-0.32-0.38h-0.16v-0.71c0-0.34-0.15-0.63-0.38-0.8v-4.24h0.08v-0.31h0.16v-0.95h-0.16v-4.6h0.16v-0.95h-0.16
		v-0.95h0c0.09-0.12,0.14-0.28,0.15-0.46h0.31c0.18,0,0.33-0.19,0.33-0.43s-0.15-0.42-0.33-0.42h-0.3v-0.3h0.07
		c0.12,0,0.23-0.13,0.23-0.29c0-0.16-0.1-0.29-0.23-0.29h-0.07v-0.29c0-0.19-0.05-0.35-0.14-0.49c0.1-0.15,0.17-0.34,0.17-0.56
		c0-0.46-0.29-0.84-0.66-0.84c-0.36,0-0.66,0.37-0.66,0.84c0,0.21,0.07,0.41,0.17,0.56c-0.08,0.14-0.14,0.3-0.14,0.49v0.29h-0.07
		c-0.12,0-0.22,0.13-0.22,0.29c0,0.16,0.1,0.29,0.22,0.29h0.07v0.3h-0.3c-0.18,0-0.33,0.19-0.33,0.42s0.15,0.43,0.33,0.43h0.31
		c0.01,0.17,0.07,0.33,0.15,0.46h0v0.95h-0.16v0.95h0.16v4.6h-0.16v0.95h0.16v0.31h0.08v4.2c-0.26,0.16-0.44,0.47-0.44,0.84v0.71
		h-0.16c-0.18,0-0.33,0.17-0.33,0.38v0.24c0,0.21,0.15,0.38,0.33,0.38h0.16v0.86h-0.16c-0.18,0-0.33,0.17-0.33,0.38v0.24
		c0,0.21,0.15,0.38,0.33,0.38h0.16v0.86h-0.16c-0.18,0-0.33,0.17-0.33,0.38v0.24c0,0.21,0.15,0.38,0.33,0.38h0.16v0.86h-0.16
		c-0.18,0-0.33,0.17-0.33,0.38v0.24c0,0.21,0.15,0.38,0.33,0.38h0.16v0.71c0,0.16,0.04,0.31,0.1,0.44h-0.32h-0.27v2.27h0.27v4.52
		h-0.58v-37.43h0.45v-1.38h-0.45v-0.59h-1.45v-2.46c0.13-0.07,0.22-0.23,0.22-0.42c0-0.19-0.09-0.35-0.22-0.42v-1.76h0.69v-8.75
		h-1.04v-0.72h-0.83v-26.67l-1.45-9.98v-9.34h0.28v-2.27h-0.28h-0.41c0.06-0.13,0.1-0.28,0.1-0.44v-0.71h0.16
		c0.19,0,0.34-0.17,0.34-0.38v-0.24c0-0.21-0.15-0.38-0.34-0.38h-0.16v-0.86h0.16c0.19,0,0.34-0.17,0.34-0.38v-0.24
		c0-0.21-0.15-0.38-0.34-0.38h-0.16v-0.86h0.16c0.19,0,0.34-0.17,0.34-0.38v-0.24c0-0.21-0.15-0.38-0.34-0.38h-0.16v-0.86h0.16
		c0.19,0,0.34-0.17,0.34-0.38v-0.24c0-0.21-0.15-0.38-0.34-0.38h-0.16v-0.71c0-0.34-0.16-0.63-0.4-0.8v-4.24h0.08v-0.31h0.16v-0.95
		h-0.16v-4.6h0.16v-0.95h-0.16v-0.95h0c0.09-0.12,0.15-0.28,0.16-0.46h0.32c0.19,0,0.35-0.19,0.35-0.43c0-0.23-0.16-0.42-0.35-0.42
		h-0.32v-0.3h0.08c0.13,0,0.23-0.13,0.23-0.29c0-0.16-0.11-0.29-0.23-0.29h-0.08v-0.29c0-0.19-0.06-0.35-0.14-0.49
		c0.11-0.15,0.18-0.34,0.18-0.56c0-0.46-0.31-0.84-0.69-0.84c-0.38,0-0.69,0.37-0.69,0.84c0,0.21,0.07,0.41,0.18,0.56
		c-0.09,0.14-0.14,0.3-0.14,0.49v0.29h-0.08c-0.13,0-0.24,0.13-0.24,0.29c0,0.16,0.11,0.29,0.24,0.29h0.08v0.3h-0.32
		c-0.19,0-0.35,0.19-0.35,0.42c0,0.23,0.16,0.43,0.35,0.43h0.32c0.01,0.17,0.07,0.33,0.16,0.46h0v0.95h-0.16v0.95h0.16v4.6h-0.16
		v0.95h0.16v0.31h0.08v1.28l-1.1-2c0.21-0.14,0.35-0.37,0.35-0.64c0-0.42-0.34-0.76-0.76-0.76s-0.76,0.34-0.76,0.76
		c0,0.29,0.16,0.54,0.4,0.67l-0.88,1.86v-1.48h0.08v-0.95h-0.08v-4.6h0.08v-0.95h-0.16v-0.95h0c0.09-0.12,0.15-0.28,0.16-0.46h0.32
		c0.19,0,0.35-0.19,0.35-0.43c0-0.23-0.16-0.42-0.35-0.42h-0.32v-0.3h0.08c0.13,0,0.24-0.13,0.24-0.29c0-0.16-0.11-0.29-0.24-0.29
		h-0.08v-0.29c0-0.19-0.06-0.35-0.14-0.49c0.11-0.15,0.18-0.34,0.18-0.56c0-0.46-0.31-0.84-0.69-0.84c-0.04,0-0.07,0.01-0.1,0.01
		v-0.6h-0.54v-1.92l-1.19-2.16c0.21-0.14,0.35-0.37,0.35-0.64c0-0.42-0.34-0.76-0.76-0.76c-0.42,0-0.76,0.34-0.76,0.76
		c0,0.29,0.16,0.54,0.4,0.67l-1.01,2.13v1.92h-0.56v0.73c-0.11-0.09-0.24-0.15-0.39-0.15c-0.09,0-0.18,0.02-0.27,0.07l-12.9-17.22
		v-11.7v-1.66v-1.09h0.84v-1.42h-0.51l-3.78-5.89l-4.96-38.1h-0.05v-2.06h-0.46v-2.93h-0.14v-5.5h0.23v-0.9
		c0.56-0.17,1.01-0.61,1.17-1.17h0.9v-0.23h2.85v-0.53h-2.85v-0.23h-0.9c-0.17-0.56-0.61-1-1.17-1.17v-0.9h-0.23v-4.66h-0.53v4.66
		h-0.23v0.9c-0.56,0.17-1.01,0.61-1.17,1.17h-0.9v0.23h-2.85v0.53h2.85v0.23h0.9c0.17,0.56,0.61,1.01,1.17,1.17v0.9h0.23v5.5h-0.15
		v2.93h-0.46v2.06h-0.06l-4.96,38.1l-3.78,5.89h-0.51v1.42h0.44v1.09v1.66v11.77l-0.16-0.14l-12.95,17.29
		c-0.08-0.04-0.17-0.07-0.27-0.07c-0.21,0-0.39,0.11-0.52,0.29v-0.88h-0.54v-1.92l-1.19-2.16c0.21-0.14,0.35-0.37,0.35-0.64
		c0-0.42-0.34-0.76-0.76-0.76c-0.42,0-0.76,0.34-0.76,0.76c0,0.29,0.16,0.54,0.4,0.67l-1.01,2.13v1.92h-0.56v0.59
		c-0.37,0.02-0.66,0.38-0.66,0.83c0,0.21,0.07,0.41,0.18,0.56c-0.09,0.14-0.14,0.3-0.14,0.49v0.29h-0.08
		c-0.13,0-0.23,0.13-0.23,0.29c0,0.16,0.11,0.29,0.23,0.29h0.08v0.3h-0.32c-0.19,0-0.35,0.19-0.35,0.42c0,0.23,0.16,0.43,0.35,0.43
		h0.32c0.01,0.17,0.07,0.33,0.16,0.46h0v0.95h-0.16v0.84h-0.02v6.04l-0.42-0.77c0.21-0.14,0.35-0.37,0.35-0.64
		c0-0.42-0.34-0.76-0.76-0.76c-0.42,0-0.76,0.34-0.76,0.76c0,0.29,0.16,0.54,0.4,0.67l-1.01,2.13v1.92h-0.56v0.9
		c-0.01-0.01-0.01-0.01-0.02-0.02v-4.24h0.08v-0.31h0.16v-0.95h-0.16v-4.6h0.16v-0.95h-0.16v-0.95h0c0.09-0.12,0.15-0.28,0.16-0.46
		h0.32c0.19,0,0.35-0.19,0.35-0.43c0-0.23-0.16-0.42-0.35-0.42h-0.32v-0.3h0.08c0.13,0,0.23-0.13,0.23-0.29
		c0-0.16-0.11-0.29-0.23-0.29h-0.08v-0.29c0-0.19-0.05-0.35-0.14-0.49c0.11-0.15,0.18-0.34,0.18-0.56c0-0.46-0.31-0.84-0.69-0.84
		c-0.38,0-0.69,0.37-0.69,0.84c0,0.21,0.07,0.41,0.18,0.56c-0.09,0.14-0.14,0.3-0.14,0.49v0.29h-0.08c-0.13,0-0.24,0.13-0.24,0.29
		c0,0.16,0.11,0.29,0.24,0.29h0.08v0.3h-0.32c-0.19,0-0.35,0.19-0.35,0.42c0,0.23,0.16,0.43,0.35,0.43h0.32
		c0.01,0.17,0.07,0.33,0.16,0.46h0v0.95h-0.16v0.95h0.16v4.6h-0.16v0.95h0.16v0.31h0.08v4.2c-0.27,0.16-0.46,0.47-0.46,0.84v0.71
		h-0.16c-0.19,0-0.34,0.17-0.34,0.38v0.24c0,0.21,0.15,0.38,0.34,0.38h0.16v0.86h-0.16c-0.19,0-0.34,0.17-0.34,0.38v0.24
		c0,0.21,0.15,0.38,0.34,0.38h0.16v0.86h-0.16c-0.19,0-0.34,0.17-0.34,0.38v0.24c0,0.21,0.15,0.38,0.34,0.38h0.16v0.86h-0.16
		c-0.19,0-0.34,0.17-0.34,0.38v0.24c0,0.21,0.15,0.38,0.34,0.38h0.16v0.71c0,0.16,0.04,0.31,0.1,0.44h-0.33h-0.28v2.27h0.28v10.62
		l-1.17,8.7v26.67h-0.83v0.72h-0.68v0.3l-8.03-13.85l1.88-1.88c1.02-1.02,1.02-2.68,0-3.7l0,0c-1.02-1.02-2.68-1.02-3.7,0l-0.9,0.9
		l-6.84-11.79l1.89-1.89c1.02-1.02,1.02-2.68,0-3.7l0,0c-1.02-1.02-2.68-1.02-3.7,0l-0.91,0.91l-6.56-11.31l2.01-2.01
		c1.02-1.02,1.02-2.68,0-3.7l0,0c-1.02-1.02-2.68-1.02-3.7,0l-1.03,1.03l-3.94-6.79v-7.02h1.12v-1.44h-1.13
		c-0.02-0.79-0.4-1.49-0.97-1.95v-1.01c0.22-0.32,0.35-0.71,0.35-1.12v-2.86h2.86c1.1,0,1.99-0.9,1.99-1.99
		c0-1.1-0.9-1.99-1.99-1.99h-2.86v-2.86c0-1.1-0.9-1.99-1.99-1.99c-1.1,0-1.99,0.9-1.99,1.99v2.86h-2.86c-1.1,0-1.99,0.9-1.99,1.99
		c0,1.1,0.9,1.99,1.99,1.99h2.86v2.86c0,0.42,0.13,0.8,0.35,1.12v1.01c-0.57,0.47-0.95,1.17-0.97,1.95h-1.13v1.44h1.12v7.02
		l-4.03,6.95l-1.18-1.18c-1.02-1.02-2.68-1.02-3.7,0l0,0c-1.02,1.02-1.02,2.68,0,3.7l2.17,2.17l-6.56,11.31l-1.07-1.07
		c-1.02-1.02-2.68-1.02-3.7,0l0,0c-1.02,1.02-1.02,2.68,0,3.7l2.05,2.05l-6.84,11.79l-1.05-1.05c-1.02-1.02-2.68-1.02-3.7,0l0,0
		c-1.02,1.02-1.02,2.68,0,3.7l2.04,2.04l-5.96,10.28v-16.08h0.83v-2.68h-0.83l-1.1-6.62h0.23v-2.27h-0.3v-15.95h0.28v-2.27h-0.28
		h-0.33c0.06-0.13,0.1-0.28,0.1-0.44v-0.71h0.16c0.19,0,0.34-0.17,0.34-0.38v-0.24c0-0.21-0.15-0.38-0.34-0.38h-0.16v-0.86h0.16
		c0.19,0,0.34-0.17,0.34-0.38v-0.24c0-0.21-0.15-0.38-0.34-0.38h-0.16v-0.86h0.16c0.19,0,0.34-0.17,0.34-0.38v-0.24
		c0-0.21-0.15-0.38-0.34-0.38h-0.16v-0.86h0.16c0.19,0,0.34-0.17,0.34-0.38v-0.24c0-0.21-0.15-0.38-0.34-0.38h-0.16v-0.71
		c0-0.37-0.19-0.68-0.46-0.84v-4.2h0.08v-0.31h0.16v-0.95h-0.16v-4.6h0.16v-0.95h-0.16v-0.95h0c0.09-0.12,0.15-0.28,0.16-0.46h0.32
		c0.19,0,0.35-0.19,0.35-0.42c0-0.23-0.16-0.43-0.35-0.43h-0.32v-0.3h0.08c0.13,0,0.24-0.13,0.24-0.29c0-0.16-0.11-0.29-0.24-0.29
		h-0.08v-0.29c0-0.19-0.06-0.35-0.14-0.49c0.11-0.15,0.18-0.34,0.18-0.56c0-0.46-0.31-0.84-0.69-0.84c-0.38,0-0.69,0.37-0.69,0.84
		c0,0.21,0.07,0.41,0.18,0.56c-0.09,0.14-0.14,0.3-0.14,0.49v0.29h-0.08c-0.13,0-0.23,0.13-0.23,0.29c0,0.16,0.11,0.29,0.23,0.29
		h0.08v0.3h-0.32c-0.19,0-0.35,0.19-0.35,0.43c0,0.23,0.16,0.42,0.35,0.42h0.32c0.01,0.17,0.07,0.33,0.16,0.46h0v0.95h-0.16v0.95
		h0.16v4.6h-0.16v0.95h0.16v0.31h0.08v4.24c-0.24,0.17-0.4,0.46-0.4,0.8v0.71h-0.16c-0.19,0-0.34,0.17-0.34,0.38v0.24
		c0,0.21,0.15,0.38,0.34,0.38h0.16v0.86h-0.16c-0.19,0-0.34,0.17-0.34,0.38v0.24c0,0.21,0.15,0.38,0.34,0.38h0.16v0.86h-0.16
		c-0.19,0-0.34,0.17-0.34,0.38v0.24c0,0.21,0.15,0.38,0.34,0.38h0.16v0.86h-0.16c-0.19,0-0.34,0.17-0.34,0.38v0.24
		c0,0.21,0.15,0.38,0.34,0.38h0.16v0.71c0,0.16,0.04,0.31,0.1,0.44h-0.41h-0.28v2.27h0.28v4.52h-1.46v-4.52h0.1v-2.27h-0.1v-1.28
		c0.06-0.07,0.09-0.16,0.09-0.26v-0.24c0-0.1-0.04-0.19-0.09-0.26v-1.11c0.06-0.07,0.09-0.16,0.09-0.26v-0.24
		c0-0.1-0.04-0.19-0.09-0.26v-1.11c0.06-0.07,0.09-0.16,0.09-0.26v-0.24c0-0.1-0.04-0.19-0.09-0.26v-1.11
		c0.06-0.07,0.09-0.16,0.09-0.26v-0.24c0-0.1-0.04-0.19-0.09-0.26v-14.36c0.02-0.05,0.03-0.11,0.03-0.18c0-0.06-0.01-0.12-0.03-0.18
		v-27.36h0.55v0.74h0.16v0.27h0.98v-0.27h0.16v-0.85h-0.16v-4.09h0.16v-0.85h-0.16v-0.84h0c0.09-0.11,0.15-0.25,0.16-0.41h0.32
		c0.19,0,0.35-0.17,0.35-0.38c0-0.21-0.16-0.38-0.35-0.38h-0.32v-0.27h0.08c0.13,0,0.23-0.11,0.23-0.25c0-0.14-0.11-0.25-0.23-0.25
		h-0.08v-0.26c0-0.16-0.05-0.31-0.14-0.43c0.11-0.13,0.18-0.3,0.18-0.49c0-0.41-0.31-0.74-0.69-0.74c-0.38,0-0.69,0.33-0.69,0.74
		c0,0.19,0.07,0.36,0.18,0.49c-0.09,0.12-0.14,0.27-0.14,0.43v0.26h-0.08c-0.13,0-0.24,0.11-0.24,0.25c0,0.14,0.11,0.25,0.24,0.25
		h0.08v0.27h-0.32c-0.19,0-0.35,0.17-0.35,0.38c0,0.21,0.16,0.38,0.35,0.38h0.32c0.01,0.15,0.07,0.29,0.16,0.41h0v0.76h-1.42v-1.55
		h0.16v-0.85h-0.16v-0.84h0c0.09-0.11,0.15-0.25,0.16-0.41h0.32c0.19,0,0.35-0.17,0.35-0.38c0-0.21-0.16-0.38-0.35-0.38h-0.32v-0.27
		h0.08c0.13,0,0.24-0.11,0.24-0.25c0-0.14-0.11-0.25-0.24-0.25h-0.08v-0.26c0-0.16-0.06-0.31-0.14-0.43
		c0.11-0.13,0.18-0.3,0.18-0.49c0-0.41-0.31-0.74-0.69-0.74c-0.32,0-0.6,0.24-0.67,0.57v-2.04h0.05v-16.07h1.48v-20.97h0.54V257
		h0.79v-0.27h0.18v-0.85h-0.18v-4.09h0.18v-0.85h-0.18v-0.84h0c0.1-0.11,0.16-0.25,0.17-0.41h0.35c0.21,0,0.38-0.17,0.38-0.38
		c0-0.21-0.17-0.38-0.38-0.38h-0.35v-0.27h0.08c0.14,0,0.26-0.11,0.26-0.25c0-0.14-0.12-0.25-0.26-0.25h-0.08v-0.26
		c0-0.16-0.06-0.31-0.16-0.43c0.12-0.13,0.19-0.3,0.19-0.49c0-0.41-0.34-0.74-0.75-0.74c-0.42,0-0.75,0.33-0.75,0.74
		c0,0.19,0.07,0.36,0.19,0.49c-0.1,0.12-0.16,0.27-0.16,0.43v0.26h-0.08c-0.14,0-0.26,0.11-0.26,0.25c0,0.14,0.12,0.25,0.26,0.25
		h0.08v0.27h-0.35c-0.21,0-0.38,0.17-0.38,0.38c0,0.04,0.01,0.09,0.03,0.12h-0.85v-0.76h0.32v-2.27h-0.32h-0.06v-1.15
		c0.2-0.01,0.36-0.17,0.36-0.38v-0.24c0-0.2-0.16-0.37-0.36-0.38v-0.71h-0.2v-0.15h0.18c0.21,0,0.38-0.17,0.38-0.38v-0.24
		c0-0.21-0.17-0.38-0.38-0.38h-0.18v-0.86h0.18c0.21,0,0.38-0.17,0.38-0.38v-0.24c0-0.21-0.17-0.38-0.38-0.38h-0.18v-0.86h0.18
		c0.21,0,0.38-0.17,0.38-0.38v-0.24c0-0.21-0.17-0.38-0.38-0.38h-0.18v-0.71c0-0.37-0.21-0.68-0.52-0.84v-4.2h0.09v-0.31h0.18v-0.95
		h-0.18v-4.6h0.18v-0.95h-0.18v-0.95h0c0.1-0.12,0.17-0.28,0.18-0.46h0.36c0.22,0,0.39-0.19,0.39-0.42c0-0.23-0.18-0.43-0.39-0.43
		h-0.36v-0.3h0.09c0.15,0,0.26-0.13,0.26-0.29c0-0.16-0.12-0.29-0.26-0.29h-0.09v-0.29c0-0.19-0.06-0.35-0.16-0.49
		c0.12-0.15,0.2-0.34,0.2-0.56c0-0.46-0.34-0.84-0.77-0.84c-0.18,0-0.34,0.07-0.47,0.18v-3.5h-1.11v-0.22h0.18v-0.85h-0.18v-4.09
		h0.18v-0.85h-0.18v-0.84h0c0.1-0.11,0.16-0.25,0.17-0.41h0.35c0.21,0,0.38-0.17,0.38-0.38c0-0.21-0.17-0.38-0.38-0.38h-0.35v-0.27
		h0.08c0.14,0,0.26-0.11,0.26-0.25c0-0.14-0.12-0.25-0.26-0.25h-0.08v-0.26c0-0.16-0.06-0.31-0.16-0.43c0.12-0.13,0.2-0.3,0.2-0.49
		c0-0.41-0.34-0.74-0.75-0.74c-0.42,0-0.75,0.33-0.75,0.74c0,0.19,0.07,0.36,0.2,0.49c-0.1,0.12-0.16,0.27-0.16,0.43v0.26h-0.08
		c-0.14,0-0.26,0.11-0.26,0.25c0,0.14,0.12,0.25,0.26,0.25h0.08v0.27h-0.35c-0.13,0-0.24,0.07-0.31,0.17v-18.26h2.09v-3.33h0.11
		v0.25h0.98v-0.25h0.16v-0.22h0.62v-1.11h-0.24c0.15-0.14,0.24-0.34,0.24-0.56c0-0.13-0.03-0.25-0.09-0.35h0.08
		c0-0.04,0.01-0.07,0.01-0.11c0-0.27-0.14-0.5-0.34-0.65c0.18-0.13,0.31-0.33,0.34-0.56h-0.23c0.15-0.14,0.24-0.34,0.24-0.56
		c0-0.27-0.14-0.51-0.36-0.66h0.36v-1.11h-0.6v-0.6h0.3c0.19,0,0.35-0.16,0.35-0.35c0-0.19-0.16-0.35-0.35-0.35h-0.3v-0.25h0.06
		c0.13,0,0.23-0.11,0.23-0.23s-0.11-0.23-0.23-0.23h-0.06v-0.95c0.01-0.05,0.02-0.1,0.02-0.15c0-0.05-0.01-0.1-0.02-0.15v-13.65
		h0.66v-1.4h-0.29v-2.01h-0.27v-14.16h0.28v-2.01h-0.28h-0.41c0.06-0.12,0.1-0.25,0.1-0.39v-0.63h0.16c0.19,0,0.34-0.15,0.34-0.34
		v-0.22c0-0.19-0.15-0.34-0.34-0.34h-0.16v-0.76h0.16c0.19,0,0.34-0.15,0.34-0.34v-0.22c0-0.19-0.15-0.34-0.34-0.34h-0.16v-0.76
		h0.16c0.19,0,0.34-0.15,0.34-0.34v-0.22c0-0.19-0.15-0.34-0.34-0.34h-0.16v-0.76h0.16c0.19,0,0.34-0.15,0.34-0.34v-0.22
		c0-0.19-0.15-0.34-0.34-0.34h-0.16v-0.63c0-0.34-0.21-0.64-0.51-0.77v-3.78h0.69v-0.81v-1.25h0.49v-2.19h-1.26v-0.61v-1.36h0.21
		v-1.35h-0.2v-0.8h-0.01v-0.01h0.57v-1.38h-1.05v-0.01v-0.92v-0.56h0.4v-0.96h-0.54v-0.67h-0.31l-0.16-0.86h0.13v-0.67h-0.34
		c0.04-0.09,0.07-0.2,0.07-0.31c0-0.43-0.35-0.77-0.77-0.77c-0.43,0-0.77,0.35-0.77,0.77c0,0.11,0.02,0.21,0.07,0.31h-0.34v0.67
		h0.28l-0.16,0.86h-0.31v0.67h-0.42v-4.89h0.28v-2.01h-0.28h-0.41c0.06-0.12,0.1-0.25,0.1-0.39v-0.63h0.16
		c0.19,0,0.34-0.15,0.34-0.34v-0.22c0-0.19-0.15-0.34-0.34-0.34h-0.16v-0.76h0.16c0.19,0,0.34-0.15,0.34-0.34v-0.22
		c0-0.19-0.15-0.34-0.34-0.34h-0.16v-0.76h0.16c0.19,0,0.34-0.15,0.34-0.34v-0.22c0-0.19-0.15-0.34-0.34-0.34h-0.16v-0.76h0.16
		c0.19,0,0.34-0.15,0.34-0.34v-0.22c0-0.19-0.15-0.34-0.34-0.34h-0.16v-0.63c0-0.46-0.38-0.84-0.84-0.84c-0.03,0-0.07,0.01-0.1,0.01
		v-7.4v-1.83v-0.02h1.21v-2.61h-9.47v2.61h1.21v0.02v1.83h-1.07c-0.52-0.64-1.13-1.19-1.66-1.6v-2.69l1.08-8.91l-1.13-0.14
		l-0.54,4.41c-0.19-0.56-0.49-1.13-0.86-1.68l0.73-1.15c0.22-0.35,0.12-0.83-0.23-1.05c-0.35-0.22-0.82-0.12-1.05,0.23l-0.47,0.74
		c-0.43-0.42-0.92-0.8-1.44-1.1v-1.07c0-0.42-0.34-0.76-0.76-0.76c-0.42,0-0.76,0.34-0.76,0.76v0.46c-0.36-0.08-0.74-0.14-1.12-0.14
		v1.42c0.37,0,0.75,0.07,1.12,0.2v0.42c0,0.42,0.34,0.76,0.76,0.76c0.29,0,0.54-0.16,0.67-0.4c0.26,0.2,0.51,0.43,0.74,0.68l0,0.01
		c-0.22,0.35-0.12,0.82,0.23,1.05c0.18,0.11,0.39,0.14,0.58,0.1c0.33,0.62,0.53,1.3,0.53,1.97c0,0.07-0.01,0.14-0.01,0.21
		l-0.58-0.05v5.75c-1.05,0.84-2.39,2.18-2.68,3.72v-2.18h-0.07v-1.85v-2.61v-2.39h-1.29v-12.5h0.35v-4.24
		c0.37-0.03,0.67-0.34,0.67-0.73c0-0.11-0.03-0.22-0.07-0.31h0.1v-0.38h0.31v-0.61h0.52v-1.08h-0.52v-6.66h0.34v-0.53h-0.34v-0.27
		h-0.35v-0.74h0.55c0-0.36-0.2-0.7-0.55-0.95V62.8h0.13l0,0c0-0.14-0.05-0.28-0.13-0.4v-0.47h-0.32v-0.5h-0.29v-0.88h-0.23v0.88
		h-0.29v0.26h-0.19v-0.5h-0.29v-0.88h-0.23v0.88h-0.25v-0.26h-1.46v-0.39V58.7h0.18v-0.41h0.35v-0.42h0.46v0.42h0.35v0.41h0.21v0.26
		h0.07c-0.03,0.06-0.05,0.13-0.05,0.21c0,0.27,0.22,0.49,0.49,0.49c0.27,0,0.49-0.22,0.49-0.49c0-0.08-0.02-0.15-0.05-0.21h0.07
		V58.7h0.21v-0.41h0.35v-0.72h-0.35v-3.15h0.7c0-0.47-0.3-0.91-0.81-1.2c-0.08-0.04-0.16-0.07-0.25-0.1v-0.01h0.5
		c0-0.28-0.18-0.55-0.49-0.72c0,0-0.01,0-0.01,0v-0.85h-0.7v0.85c0,0-0.01,0-0.01,0c-0.31,0.17-0.49,0.44-0.49,0.72h0.5v0.01
		c-0.09,0.02-0.17,0.05-0.25,0.1c-0.23,0.13-0.41,0.28-0.55,0.46h-0.3c-0.14-0.18-0.32-0.33-0.55-0.46
		c-0.02-0.01-0.04-0.01-0.06-0.02v-0.08h0.31c0-0.22-0.11-0.43-0.31-0.59V50.1v-0.73h1.88v-1.17h0.63v-1.17h0.96l-0.97-2.31h-0.62
		v-1.65l-1.16-3.08l-1.15-0.93v-2.16h-0.76v-3.96h0.3v-0.42c1.1-0.34,1.94-1.26,2.18-2.4h0.36c0.14,0.53,0.62,0.92,1.19,0.92
		c0.68,0,1.24-0.56,1.24-1.24v-0.65c0-0.68-0.56-1.24-1.24-1.24c-0.57,0-1.05,0.39-1.19,0.92h-0.36c-0.26-1.24-1.24-2.22-2.48-2.48
		v-0.82h-0.27v-4.04c0.01-0.03,0.03-0.05,0.04-0.08c0.1,0.29,0.36,0.5,0.68,0.5c0.4,0,0.72-0.33,0.72-0.72v-1.82
		c0-0.4-0.33-0.72-0.72-0.72c-0.25,0-0.47,0.13-0.6,0.33v-0.6c0-0.26-0.1-0.5-0.26-0.69v-5.17h-0.46v4.86
		c-0.1-0.03-0.21-0.06-0.32-0.06c-0.03,0-0.06,0.01-0.09,0.01v-0.5c0-0.4-0.33-0.72-0.72-0.72c-0.4,0-0.72,0.33-0.72,0.72v1.82
		c0,0.31,0.2,0.58,0.49,0.68v1.69c0,0.58,0.47,1.05,1.05,1.05c0.06,0,0.12-0.01,0.18-0.02v3.48h-0.27v0.82
		c-1.24,0.26-2.22,1.24-2.48,2.48H1027c-0.14-0.53-0.62-0.92-1.19-0.92c-0.68,0-1.24,0.56-1.24,1.24v0.65
		c0,0.68,0.56,1.24,1.24,1.24c0.57,0,1.05-0.39,1.19-0.92h0.21c0.24,1.14,1.08,2.06,2.18,2.4v0.42h0.3v3.96h-0.76v2.16l-1.15,0.93
		l-1.16,3.08v1.65h-0.62l-0.97,2.31h0.96v1.17h0.63v1.17h1.88v0.73v2.42c-0.19,0.16-0.31,0.37-0.31,0.59h0.31v0.08
		c-0.02,0.01-0.04,0.01-0.06,0.02c-0.23,0.13-0.41,0.28-0.55,0.46h-0.3c-0.14-0.18-0.32-0.33-0.55-0.46
		c-0.08-0.04-0.16-0.07-0.25-0.1v-0.01h0.5c0-0.28-0.18-0.55-0.49-0.72c0,0-0.01,0-0.01,0v-0.85h-0.7v0.85c0,0-0.01,0-0.01,0
		c-0.31,0.17-0.49,0.44-0.49,0.72h0.5v0.01c-0.09,0.02-0.17,0.05-0.25,0.1c-0.51,0.29-0.81,0.73-0.81,1.2h0.7v3.15h-0.35v0.72h0.35
		v0.41h0.21v0.26h0.07c-0.03,0.06-0.05,0.13-0.05,0.21c0,0.27,0.22,0.49,0.49,0.49c0.27,0,0.49-0.22,0.49-0.49
		c0-0.08-0.02-0.15-0.05-0.21h0.07V58.7h0.21v-0.41h0.35v-0.42h0.46v0.42h0.35v0.41h0.18v1.84v0.39h-1.46v0.78h-0.02v-0.5h-0.29
		v-0.88h-0.23v0.88h-0.29v0.5h-0.19v-0.28h-0.29v-0.88h-0.23v0.88h-0.29v0.5h-0.31v0.47c-0.08,0.12-0.13,0.26-0.13,0.4l0,0h0.13
		v0.03c-0.35,0.25-0.55,0.59-0.55,0.95h0.55v0.74h-0.35v0.27h-0.34v0.53h0.34v6.66h-0.51v1.08h0.51v0.61h0.31v0.38h0.1
		c-0.05,0.1-0.07,0.2-0.07,0.31c0,0.4,0.33,0.73,0.73,0.73v4.24h0.35v5.68c-0.37,0-0.73,0.05-1.08,0.13v-0.45
		c0-0.42-0.34-0.76-0.76-0.76c-0.42,0-0.76,0.34-0.76,0.76v1.04c-0.53,0.3-1.02,0.67-1.45,1.09l-0.46-0.72
		c-0.22-0.35-0.7-0.46-1.05-0.23c-0.35,0.22-0.46,0.7-0.23,1.05l0.71,1.12c-0.38,0.55-0.68,1.12-0.87,1.69l-0.53-4.39l-1.13,0.14
		l1.07,8.83v2.77c-0.53,0.41-1.14,0.96-1.66,1.6h-1.16v-1.83v-0.02h1.21v-2.61h-9.47v2.61h1.21v0.02v1.83v7.4
		c-0.42,0.04-0.75,0.4-0.75,0.83v0.63h-0.16c-0.19,0-0.34,0.15-0.34,0.34v0.22c0,0.19,0.15,0.34,0.34,0.34h0.16v0.76h-0.16
		c-0.19,0-0.34,0.15-0.34,0.34v0.22c0,0.19,0.15,0.34,0.34,0.34h0.16v0.76h-0.16c-0.19,0-0.34,0.15-0.34,0.34v0.22
		c0,0.19,0.15,0.34,0.34,0.34h0.16v0.76h-0.16c-0.19,0-0.34,0.15-0.34,0.34v0.22c0,0.19,0.15,0.34,0.34,0.34h0.16v0.63
		c0,0.14,0.04,0.27,0.1,0.39h-0.41h-0.28v2.01h0.28v4.89h-0.42v-0.67h-0.31l-0.16-0.86h0.28v-0.67h-0.34
		c0.04-0.09,0.07-0.2,0.07-0.31c0-0.43-0.35-0.77-0.77-0.77s-0.77,0.35-0.77,0.77c0,0.11,0.02,0.21,0.07,0.31h-0.34v0.67h0.13
		l-0.16,0.86h-0.31v0.67h-0.54v0.96h0.4v0.56v0.92v0.01h-1.05v1.38h0.57v0.01h-0.01v0.8h-0.2v1.35h0.21v1.36v0.61h-1.26v2.19h0.49
		v1.25v0.81h0.69v3.78c-0.3,0.13-0.51,0.43-0.51,0.77v0.63h-0.16c-0.19,0-0.34,0.15-0.34,0.34v0.22c0,0.19,0.15,0.34,0.34,0.34h0.16
		v0.76h-0.16c-0.19,0-0.34,0.15-0.34,0.34v0.22c0,0.19,0.15,0.34,0.34,0.34h0.16v0.76h-0.16c-0.19,0-0.34,0.15-0.34,0.34v0.22
		c0,0.19,0.15,0.34,0.34,0.34h0.16v0.76h-0.16c-0.19,0-0.34,0.15-0.34,0.34v0.22c0,0.19,0.15,0.34,0.34,0.34h0.16v0.63
		c0,0.14,0.04,0.27,0.1,0.39h-0.41h-0.28v2.01h0.28v14.16h-0.27v2.01h-0.29v1.4h0.66v13.5c-0.05,0.09-0.08,0.2-0.08,0.31
		c0,0.11,0.03,0.21,0.08,0.31v0.33c-0.03,0.07-0.04,0.14-0.04,0.22v0.24h-0.08c-0.13,0-0.24,0.11-0.24,0.23s0.11,0.23,0.24,0.23
		h0.08v0.25h-0.32c-0.19,0-0.35,0.16-0.35,0.35c0,0.19,0.16,0.35,0.35,0.35h0.32c0,0.05,0.02,0.1,0.04,0.15v0.45h-0.66v1.11h0.36
		c-0.22,0.14-0.36,0.38-0.36,0.66c0,0.22,0.09,0.42,0.24,0.56h-0.23c0.03,0.23,0.15,0.43,0.34,0.56c-0.21,0.15-0.34,0.38-0.34,0.65
		c0,0.04,0,0.07,0.01,0.11h0.08c-0.05,0.11-0.09,0.23-0.09,0.35c0,0.22,0.09,0.42,0.24,0.56h-0.24v1.11h0.62v0.22h0.16v0.25h0.98
		v-0.25h0.16v-0.22h0.39v2.13l0,0v1.42h2.09v0.06v2.69v15.72v7.63h-0.91v-0.22h0.18v-0.85h-0.18v-4.09h0.18v-0.85h-0.18v-0.84h0
		c0.1-0.11,0.16-0.25,0.17-0.41h0.35c0.21,0,0.38-0.17,0.38-0.38c0-0.21-0.17-0.38-0.38-0.38h-0.35v-0.27h0.08
		c0.14,0,0.26-0.11,0.26-0.25c0-0.14-0.12-0.25-0.26-0.25h-0.08v-0.26c0-0.16-0.06-0.31-0.16-0.43c0.12-0.13,0.2-0.3,0.2-0.49
		c0-0.41-0.34-0.74-0.75-0.74c-0.42,0-0.75,0.33-0.75,0.74c0,0.19,0.08,0.36,0.2,0.49c-0.1,0.12-0.16,0.27-0.16,0.43v0.26h-0.08
		c-0.14,0-0.26,0.11-0.26,0.25c0,0.14,0.12,0.25,0.26,0.25h0.08v0.27h-0.35c-0.21,0-0.38,0.17-0.38,0.38c0,0.21,0.17,0.38,0.38,0.38
		h0.35c0.01,0.15,0.08,0.29,0.17,0.41h0v0.84h-0.18v0.85h0.18v4.09h-0.18v0.85h0.18v0.22h-1.04v5.51c-0.1,0.04-0.18,0.14-0.18,0.27
		c0,0.12,0.07,0.23,0.18,0.27v0.32h-0.18c-0.22,0-0.39,0.19-0.39,0.43c0,0.23,0.18,0.42,0.39,0.42h0.18v13.27v0.71h-0.18
		c-0.21,0-0.38,0.17-0.38,0.38v0.24c0,0.21,0.17,0.38,0.38,0.38h0.18v0.86h-0.18c-0.21,0-0.38,0.17-0.38,0.38v0.24
		c0,0.21,0.17,0.38,0.38,0.38h0.18v0.86h-0.18c-0.21,0-0.38,0.17-0.38,0.38v0.24c0,0.21,0.17,0.38,0.38,0.38h0.18v0.15h-1.65v5.54
		c-0.07-0.09-0.17-0.15-0.29-0.15h-0.35v-0.27h0.08c0.14,0,0.26-0.11,0.26-0.25c0-0.14-0.12-0.25-0.26-0.25h-0.08v-0.26
		c0-0.16-0.06-0.31-0.16-0.43c0.12-0.13,0.19-0.3,0.19-0.49c0-0.41-0.34-0.74-0.75-0.74c-0.42,0-0.75,0.33-0.75,0.74
		c0,0.19,0.07,0.36,0.19,0.49c-0.1,0.12-0.16,0.27-0.16,0.43v0.26h-0.08c-0.14,0-0.26,0.11-0.26,0.25c0,0.14,0.12,0.25,0.26,0.25
		h0.08v0.27h-0.35c-0.21,0-0.38,0.17-0.38,0.38c0,0.21,0.17,0.38,0.38,0.38h0.35c0.01,0.15,0.08,0.3,0.17,0.41h0v0.84h-0.18v0.85
		h0.18v4.09h-0.18v0.85h0.18V257h0.54v1.34h0.54v20.97h0.82v18.56h-0.01v0.93c-0.02,0-0.03-0.01-0.05-0.01h-0.08v-0.26
		c0-0.16-0.05-0.31-0.14-0.43c0.11-0.13,0.18-0.3,0.18-0.49c0-0.41-0.31-0.74-0.69-0.74c-0.38,0-0.69,0.33-0.69,0.74
		c0,0.19,0.07,0.36,0.18,0.49c-0.09,0.12-0.14,0.27-0.14,0.43v0.26h-0.08c-0.13,0-0.24,0.11-0.24,0.25c0,0.14,0.11,0.25,0.24,0.25
		h0.08v0.27h-0.32c-0.19,0-0.35,0.17-0.35,0.38c0,0.21,0.16,0.38,0.35,0.38h0.32c0.01,0.16,0.07,0.3,0.16,0.41h0v0.84h-0.16v0.85
		h0.16v1.55h-1.92v-0.76h0c0.09-0.11,0.15-0.25,0.16-0.41h0.32c0.19,0,0.35-0.17,0.35-0.38c0-0.21-0.16-0.38-0.35-0.38h-0.32v-0.27
		h0.08c0.13,0,0.23-0.11,0.23-0.25c0-0.14-0.11-0.25-0.23-0.25h-0.08v-0.26c0-0.16-0.05-0.31-0.14-0.43
		c0.11-0.13,0.18-0.3,0.18-0.49c0-0.41-0.31-0.74-0.69-0.74c-0.38,0-0.69,0.33-0.69,0.74c0,0.19,0.07,0.36,0.18,0.49
		c-0.09,0.12-0.14,0.27-0.14,0.43v0.26h-0.08c-0.13,0-0.23,0.11-0.23,0.25c0,0.14,0.11,0.25,0.23,0.25h0.08v0.27h-0.32
		c-0.19,0-0.35,0.17-0.35,0.38c0,0.21,0.16,0.38,0.35,0.38h0.32c0.01,0.15,0.07,0.29,0.16,0.41h0v0.84h-0.16v0.85h0.16v4.09h-0.16
		v0.85h0.16v0.27h0.98v-0.27h0.16v-0.74h0.67v24.43c-0.12-0.22-0.33-0.37-0.57-0.37c-0.38,0-0.69,0.37-0.69,0.84
		c0,0.21,0.07,0.41,0.18,0.56c-0.09,0.14-0.14,0.3-0.14,0.49v0.29h-0.08c-0.13,0-0.23,0.13-0.23,0.29c0,0.16,0.11,0.29,0.23,0.29
		h0.08v0.3h-0.32c-0.19,0-0.35,0.19-0.35,0.43c0,0.23,0.16,0.42,0.35,0.42h0.32c0.01,0.17,0.07,0.33,0.16,0.46h0v0.95h-0.16v0.95
		h0.16v4.6h-0.16v0.95h0.16v0.31h0.08v4.24c-0.24,0.17-0.4,0.46-0.4,0.8v0.71h-0.16c-0.19,0-0.34,0.17-0.34,0.38v0.24
		c0,0.21,0.15,0.38,0.34,0.38h0.16v0.86h-0.16c-0.19,0-0.34,0.17-0.34,0.38v0.24c0,0.21,0.15,0.38,0.34,0.38h0.16v0.86h-0.16
		c-0.19,0-0.34,0.17-0.34,0.38v0.24c0,0.21,0.15,0.38,0.34,0.38h0.16v0.86h-0.16c-0.19,0-0.34,0.17-0.34,0.38v0.24
		c0,0.21,0.15,0.38,0.34,0.38h0.16v0.71c0,0.16,0.04,0.31,0.1,0.44h-0.41h-0.28v2.27h0.28v15.95h-0.27v2.27h0.01l-1.19,6.62h-0.83
		v2.68h0.83v18.47h-0.83v0.72h-1.04v8.75h0.69v1.76c-0.13,0.07-0.22,0.23-0.22,0.42c0,0.19,0.09,0.35,0.22,0.42v2.46h-1.45v0.59
		h-0.45v1.38h0.45v37.43h-0.58v-4.52h0.27v-2.27h-0.27h-0.32c0.06-0.13,0.1-0.28,0.1-0.44v-0.71h0.16c0.18,0,0.33-0.17,0.33-0.38
		v-0.24c0-0.21-0.15-0.38-0.33-0.38h-0.16v-0.86h0.16c0.18,0,0.33-0.17,0.33-0.38v-0.24c0-0.21-0.15-0.38-0.33-0.38h-0.16v-0.86
		h0.16c0.18,0,0.33-0.17,0.33-0.38v-0.24c0-0.21-0.15-0.38-0.33-0.38h-0.16v-0.86h0.16c0.18,0,0.33-0.17,0.33-0.38v-0.24
		c0-0.21-0.15-0.38-0.33-0.38h-0.16v-0.71c0-0.37-0.18-0.68-0.44-0.84v-4.2h0.08v-0.31h0.16v-0.95h-0.16v-4.6h0.16v-0.95h-0.16
		v-0.95h0c0.09-0.12,0.14-0.28,0.15-0.46h0.31c0.18,0,0.33-0.19,0.33-0.43s-0.15-0.42-0.33-0.42h-0.3v-0.3h0.07
		c0.12,0,0.23-0.13,0.23-0.29c0-0.16-0.1-0.29-0.23-0.29h-0.07v-0.29c0-0.19-0.05-0.35-0.14-0.49c0.1-0.15,0.17-0.34,0.17-0.56
		c0-0.46-0.29-0.84-0.66-0.84c-0.36,0-0.66,0.37-0.66,0.84c0,0.21,0.07,0.41,0.17,0.56c-0.08,0.14-0.14,0.3-0.14,0.49v0.29h-0.07
		c-0.12,0-0.23,0.13-0.23,0.29c0,0.16,0.1,0.29,0.23,0.29h0.07v0.3h-0.3c-0.18,0-0.33,0.19-0.33,0.42s0.15,0.43,0.33,0.43h0.31
		c0.01,0.17,0.07,0.33,0.15,0.46h0v0.95h-0.16v0.95h0.16v4.6h-0.16v0.95h0.16v0.31h0.08v4.24c-0.23,0.17-0.38,0.46-0.38,0.8v0.71
		h-0.16c-0.18,0-0.32,0.17-0.32,0.38v0.24c0,0.21,0.15,0.38,0.32,0.38h0.16v0.86h-0.16c-0.18,0-0.32,0.17-0.32,0.38v0.24
		c0,0.21,0.15,0.38,0.32,0.38h0.16v0.86h-0.16c-0.18,0-0.32,0.17-0.32,0.38v0.24c0,0.21,0.15,0.38,0.32,0.38h0.16v0.86h-0.16
		c-0.18,0-0.32,0.17-0.32,0.38v0.24c0,0.21,0.15,0.38,0.32,0.38h0.16v0.71c0,0.16,0.04,0.31,0.1,0.44h-0.39H992v2.27h0.27v15.95
		h-0.26v2.27h0.01l-1.14,6.62h-0.79v2.68h0.79v18.47h-0.79v3.14h-2.02v19.19h-2.16v-4.52h0.27v-2.27h-0.27h-0.32
		c0.06-0.13,0.1-0.28,0.1-0.44v-0.71h0.16c0.18,0,0.33-0.17,0.33-0.38v-0.24c0-0.21-0.15-0.38-0.33-0.38h-0.16v-0.86h0.16
		c0.18,0,0.33-0.17,0.33-0.38v-0.24c0-0.21-0.15-0.38-0.33-0.38h-0.16v-0.86h0.16c0.18,0,0.33-0.17,0.33-0.38v-0.24
		c0-0.21-0.15-0.38-0.33-0.38h-0.16v-0.86h0.16c0.18,0,0.33-0.17,0.33-0.38v-0.24c0-0.21-0.15-0.38-0.33-0.38h-0.16v-0.71
		c0-0.37-0.18-0.68-0.44-0.84v-4.2h0.08v-0.31h0.16v-0.95h-0.16v-4.6h0.16v-0.95h-0.16v-0.95h0c0.09-0.12,0.14-0.28,0.15-0.46h0.31
		c0.18,0,0.33-0.19,0.33-0.42c0-0.23-0.15-0.42-0.33-0.42h-0.3v-0.3h0.07c0.12,0,0.23-0.13,0.23-0.29c0-0.16-0.1-0.29-0.23-0.29
		h-0.07v-0.29c0-0.19-0.05-0.35-0.14-0.49c0.1-0.15,0.17-0.34,0.17-0.56c0-0.46-0.29-0.84-0.66-0.84c-0.36,0-0.66,0.37-0.66,0.84
		c0,0.21,0.07,0.41,0.17,0.56c-0.08,0.14-0.14,0.3-0.14,0.49v0.29h-0.07c-0.12,0-0.23,0.13-0.23,0.29c0,0.16,0.1,0.29,0.23,0.29
		h0.07v0.3h-0.3c-0.18,0-0.33,0.19-0.33,0.42c0,0.23,0.15,0.42,0.33,0.42h0.31c0.01,0.17,0.07,0.33,0.15,0.46h0v0.95h-0.16v0.95
		h0.16v4.6h-0.16v0.95h0.16v0.31h0.08v4.24c-0.23,0.17-0.38,0.46-0.38,0.8v0.71h-0.16c-0.18,0-0.32,0.17-0.32,0.38v0.24
		c0,0.21,0.15,0.38,0.32,0.38h0.16v0.86h-0.16c-0.18,0-0.32,0.17-0.32,0.38v0.24c0,0.21,0.15,0.38,0.32,0.38h0.16v0.86h-0.16
		c-0.18,0-0.32,0.17-0.32,0.38v0.24c0,0.21,0.15,0.38,0.32,0.38h0.16v0.86h-0.16c-0.18,0-0.32,0.17-0.32,0.38v0.24
		c0,0.21,0.15,0.38,0.32,0.38h0.16v0.71c0,0.16,0.04,0.31,0.1,0.44h-0.39h-0.27v2.27h0.27v7.19l-3.05,17.64h-1.64v2.68h1.64v18.47
		h-0.79v3.14h2.8h3.95h1.37h6.29h0.83h3.33h3.31h3.33h1.2h3.73h3.22h15.93h4.09h6.22h0.29h2.9h5.62h0.29h7.72h0.62h0.06h3.27h1.48
		h1.83h0.97h2.36h1.4h4.95h4.06h2.65v0.2h3.51v0.02h32.88v-0.02h3.51v-0.2h2.65h10.43h0.27h1.14h3.33h1.83h1.48h0.94h2.33h0.06h0.62
		h7.72h0.13h2.9h5.62h0.45h6.22h4.09h15.93h3.22h3.73h1.2h3.33h3.31h3.33h0.83h6.29h1.37h3.95h2.8v-3.14h-0.79v-18.47H1222.22z
		 M1170.86,244.07v-0.5h0.5C1171.25,243.79,1171.07,243.96,1170.86,244.07z M1171.36,242.57h-0.5v-0.5
		C1171.07,242.18,1171.25,242.36,1171.36,242.57z M1169.86,242.07v0.5h-0.5C1169.47,242.36,1169.64,242.18,1169.86,242.07z
		 M1169.36,243.57h0.5v0.5C1169.64,243.96,1169.47,243.79,1169.36,243.57z M1031.29,31.25v-1.16h0.99
		C1032.1,30.59,1031.75,31.01,1031.29,31.25z M1032.27,28.8h-0.99v-1.16C1031.75,27.88,1032.1,28.29,1032.27,28.8z M1029.39,27.64
		v1.16h-0.99C1028.57,28.29,1028.92,27.88,1029.39,27.64z M1028.4,30.09h0.99v1.16C1028.92,31.01,1028.57,30.59,1028.4,30.09z
		 M1058.06,299.29L1058.06,299.29l0.01,0.27h-0.01V299.29z M1040.52,120.77c-0.42,0.2-0.88,0.31-1.36,0.31
		c-0.08,0-0.16-0.01-0.24-0.01c-0.36-0.04-0.71-0.14-1.03-0.3H1040.52z M1022.25,126.45h0.16v-1.8c0.06,0.04,0.12,0.08,0.18,0.13
		v4.69c-0.14-0.15-0.26-0.27-0.34-0.35V126.45z M1023.67,125.65c0.42,0.38,0.84,0.82,1.22,1.31v3.47c-0.28,0.4-0.55,0.88-0.76,1.41
		c-0.13-0.33-0.29-0.64-0.46-0.93V125.65z M1023.72,123.79h-0.05v-0.03C1023.69,123.77,1023.7,123.78,1023.72,123.79z
		 M1039.5,123.19c0.17,0.02,0.34,0.05,0.51,0.1v0.49h-1.41v-0.53c0.22-0.05,0.44-0.07,0.66-0.07
		C1039.34,123.18,1039.42,123.19,1039.5,123.19z M1021.52,150.54c0.26,0,0.51,0.03,0.76,0.08v0.63h-1.41v-0.65
		C1021.08,150.56,1021.3,150.54,1021.52,150.54z M1022.18,154.33v-2.09c0.03,0.02,0.06,0.04,0.1,0.07v4.91h-0.28v-2.89H1022.18z
		 M1038.78,126.44L1038.78,126.44l0.06,0.01v2.57c-0.05,0.04-0.13,0.12-0.24,0.23v-4.54c0.03-0.02,0.05-0.04,0.08-0.05v1.79H1038.78
		z M1037.45,145.99h0.08v1.5c-0.03-0.02-0.05-0.03-0.08-0.05V145.99z M1038.6,145.99h1.41v2.09c-0.15,0.02-0.3,0.03-0.45,0.03
		c-0.33,0-0.66-0.05-0.97-0.13V145.99z M1036.41,145.99v0.41c-0.09-0.13-0.17-0.27-0.24-0.41H1036.41z M1037.45,145.1v-7.82h0.08
		v7.82H1037.45z M1040.01,145.1h-1.41v-7.82h1.41V145.1z M1037.45,136.4v-2.77c0-0.25,0.03-0.49,0.08-0.72v3.49H1037.45z
		 M1036.41,133.61v2.78h-0.36v-4.41C1036.27,132.49,1036.41,133.04,1036.41,133.61z M1036.41,137.29v7.82h-0.36v-7.82H1036.41z
		 M1037.83,150.98v0.27h-0.44C1037.54,151.15,1037.68,151.06,1037.83,150.98z M1037.83,153.07v4.15h-1.78v-2.32
		C1036.6,154.18,1037.25,153.56,1037.83,153.07z M1023.35,158.05h1.53v1.1c-0.27,0.42-0.53,0.88-0.73,1.4
		c-0.22-0.56-0.51-1.07-0.8-1.51V158.05z M1041.66,165.84h-0.26v-4.72c0.16,0.47,0.26,0.98,0.26,1.5V165.84z M1041.66,175.91h-0.26
		v-9.05h0.26V175.91z M1037.83,166.86v9.05h-0.37v-9.05H1037.83z M1037.46,165.84v-3.21c0-0.63,0.15-1.23,0.37-1.78v4.99H1037.46z
		 M1040.32,179.03h-1.41v-2.1h1.41V179.03z M1037.83,179.03h-0.37v-2.1h0.37V179.03z M1038.91,175.91v-9.05h1.41v9.05H1038.91z
		 M1036.39,175.91h-0.33v-9.05h0.33V175.91z M1036.39,176.93v2.1h-0.33v-2.1H1036.39z M1041.4,178.39v-1.46h0.26v1.66
		C1041.59,178.51,1041.5,178.44,1041.4,178.39z M1040.32,165.84h-1.41v-6.83c0.24-0.32,0.48-0.58,0.65-0.76
		c0.2,0.21,0.47,0.51,0.76,0.89V165.84z M1037.83,158.89c-0.33,0.48-0.66,1.04-0.91,1.66c-0.24-0.6-0.55-1.15-0.87-1.61v-0.89h1.78
		V158.89z M1036.39,162.62v3.22h-0.33v-4.9C1036.26,161.46,1036.39,162.03,1036.39,162.62z M1024.89,165.84h-0.19v-3.21
		c0-0.43,0.07-0.85,0.19-1.26V165.84z M1024.89,166.86v9.05h-0.19v-9.05H1024.89z M1024.89,176.93v2.1h-0.19v-2.1H1024.89z
		 M1023.62,179.03h-0.26v-2.1h0.26V179.03z M1022.28,179.03h-1.41v-2.1h1.41V179.03z M1019.79,178.38
		c-0.07-0.02-0.14-0.04-0.21-0.04c-0.05,0-0.1,0.01-0.15,0.02v-1.43h0.37V178.38z M1023.62,162.62v3.22h-0.26v-4.72
		C1023.52,161.59,1023.62,162.1,1023.62,162.62z M1023.62,166.86v9.05h-0.26v-9.05H1023.62z M1022.28,175.91h-1.41v-9.05h1.41
		V175.91z M1019.79,175.91h-0.37v-9.05h0.37V175.91z M1041.4,159.04v-0.99h0.49v1.82C1041.74,159.57,1041.57,159.29,1041.4,159.04z
		 M1039.19,154.33v2.89h-0.28v-4.98c0.03-0.02,0.06-0.05,0.1-0.07v2.16H1039.19z M1024.89,154.72v2.5h-1.53v-4.06
		C1023.86,153.59,1024.41,154.12,1024.89,154.72z M1021.52,158.25c0.2,0.21,0.47,0.51,0.76,0.89v6.7h-1.41v-6.83
		C1021.11,158.69,1021.34,158.43,1021.52,158.25z M1019.79,165.84h-0.37v-3.21c0-0.63,0.15-1.23,0.37-1.78V165.84z M1041.89,157.22
		h-0.49v-4.06c0.16,0.14,0.33,0.29,0.49,0.44V157.22z M1040.32,157.22h-0.28v-2.89h0.19v-2.09c0.03,0.02,0.06,0.04,0.1,0.07V157.22z
		 M1038.91,151.25v-0.65c0.21-0.04,0.43-0.06,0.65-0.06c0.26,0,0.51,0.03,0.76,0.08v0.63H1038.91z M1040.01,136.4h-1.41v-5.77
		c0.23-0.3,0.44-0.55,0.62-0.73c0.22,0.23,0.51,0.57,0.8,0.99V136.4z M1037.52,125.57v5.02c-0.22,0.33-0.42,0.71-0.59,1.11
		c-0.24-0.58-0.56-1.09-0.87-1.51v-3.02C1036.49,126.56,1037.02,126.02,1037.52,125.57z M1023.69,151.25h-0.33v-0.21
		C1023.47,151.1,1023.58,151.17,1023.69,151.25z M1020.96,152.17v2.16h0.19v2.89h-0.28v-4.98
		C1020.9,152.21,1020.93,152.19,1020.96,152.17z M1019.79,158.89c-0.33,0.48-0.66,1.04-0.91,1.66c-0.06-0.16-0.13-0.31-0.2-0.45
		v-2.05h1.11V158.89z M1041.4,151.25v-0.21c0.11,0.07,0.23,0.14,0.33,0.21H1041.4z M1019.79,151.25h-0.44
		c0.14-0.1,0.28-0.19,0.44-0.27V151.25z M1019.79,153.07v4.15h-1.11v-3.11C1019.05,153.72,1019.43,153.37,1019.79,153.07z
		 M1039.67,129.12v-2.67h0.16v-1.74c0.06,0.04,0.12,0.08,0.18,0.13v4.62C1039.87,129.31,1039.75,129.2,1039.67,129.12z
		 M1037.52,123.78h-0.12c0.04-0.03,0.08-0.06,0.12-0.08V123.78z M1024.89,145.11h-0.3v-7.83h0.3V145.11z M1024.89,145.99v0.06
		c-0.09,0.16-0.19,0.32-0.3,0.46v-0.52H1024.89z M1041.89,130.91c-0.15,0.25-0.28,0.52-0.4,0.8c-0.12-0.28-0.26-0.55-0.4-0.8v-5.17
		c0.27,0.25,0.54,0.53,0.8,0.83V130.91z M1024.89,136.4h-0.3v-2.78c0-0.52,0.12-1.02,0.3-1.48V136.4z M1022.59,147.96
		c-0.34,0.1-0.7,0.16-1.07,0.16c-0.11,0-0.23-0.01-0.34-0.02v-2.11h1.41V147.96z M1020.1,147.83c-0.03-0.01-0.05-0.02-0.07-0.03
		v-1.8h0.07V147.83z M1022.59,145.11h-1.41v-7.83h1.41V145.11z M1020.1,145.11h-0.07v-7.83h0.07V145.11z M1019.1,145.11h-0.41v-7.83
		h0.41V145.11z M1018.68,145.99h0.41v1.22c-0.15-0.12-0.29-0.26-0.41-0.41V145.99z M1021.84,123.18c0.26,0,0.51,0.03,0.75,0.09v0.52
		h-1.41v-0.54C1021.4,123.21,1021.62,123.18,1021.84,123.18z M1021.36,124.59v1.87h0.16v2.58c-0.06,0.05-0.18,0.17-0.34,0.34v-4.66
		C1021.25,124.67,1021.31,124.62,1021.36,124.59z M1021.84,129.84c0.2,0.2,0.47,0.51,0.75,0.9v5.66h-1.41v-5.78
		C1021.43,130.29,1021.67,130.03,1021.84,129.84z M1020.1,136.4h-0.07v-2.78c0-0.25,0.03-0.49,0.07-0.72V136.4z M1019.1,136.4h-0.41
		v-4.55c0.24,0.54,0.41,1.14,0.41,1.77V136.4z M1020.1,123.7v0.09h-0.13C1020.02,123.76,1020.06,123.73,1020.1,123.7z
		 M1020.1,125.57v5.19c-0.2,0.32-0.39,0.68-0.54,1.07c-0.24-0.6-0.56-1.14-0.88-1.58v-3.14
		C1019.11,126.53,1019.62,126.01,1020.1,125.57z M1023.22,120.77c-0.42,0.2-0.89,0.32-1.38,0.32c-0.49,0-0.95-0.11-1.38-0.32
		H1023.22z M1056.73,185.24c0.1,0.05,0.19,0.13,0.24,0.23c-0.07-0.05-0.15-0.08-0.24-0.1V185.24z M1056.73,184.82v-0.14
		c0.09-0.02,0.17-0.06,0.24-0.11C1056.93,184.68,1056.84,184.76,1056.73,184.82z M1045.42,130.19h-0.61v-0.01L1045.42,130.19
		L1045.42,130.19z M1041.89,119.45h-3.68l1.53-12.59h2.15V119.45z M1037.66,114.52v-7.66h0.93L1037.66,114.52z M1023.02,114.45
		l-0.92-7.59h0.92V114.45z M1022.48,119.45h-3.46c-0.14-0.23-0.25-0.48-0.34-0.74v-11.85h2.27L1022.48,119.45z M1015.76,130.19
		h-0.29v-0.01L1015.76,130.19L1015.76,130.19z M1004.04,184.84c-0.14-0.05-0.25-0.14-0.3-0.27c0.09,0.06,0.19,0.09,0.3,0.11V184.84z
		 M1004.04,185.21v0.15c-0.11,0.02-0.21,0.05-0.3,0.11C1003.8,185.35,1003.91,185.26,1004.04,185.21z M1000.73,344.01h-0.08v-4.6
		h0.08V344.01z M1058.23,300.72v0.84h-0.16v0.85h0.16v1.55h-0.18v-3.65h0.02C1058.08,300.47,1058.14,300.61,1058.23,300.72
		L1058.23,300.72z M1058.21,298.09c-0.09,0.12-0.14,0.27-0.14,0.43v0.26h-0.01v-0.92h-0.01v-0.1
		C1058.08,297.89,1058.13,298,1058.21,298.09z M1056.41,232.89v4.24c-0.01,0-0.01,0.01-0.02,0.01v-4.26H1056.41z M1053.69,210.2
		h0.35c0.01,0.15,0.08,0.29,0.17,0.41h0v0.84h-0.18v0.85h0.18v4.09h-0.18v0.85h0.18v0.22h-0.84v-7.42
		C1053.45,210.13,1053.56,210.2,1053.69,210.2z M1057.02,186.14c0,0.19-0.12,0.35-0.28,0.43v-0.87
		C1056.9,185.78,1057.02,185.95,1057.02,186.14z M1056.73,184.35v-0.87c0.17,0.08,0.28,0.24,0.28,0.43
		C1057.02,184.1,1056.9,184.27,1056.73,184.35z M1052.27,122.3h0.23v0.56v0.92v0.01h-0.23V122.3z M1041.89,100.03v5.69h-2.01
		l0.86-7.04C1041.1,99.01,1041.55,99.48,1041.89,100.03z M1039.61,98.44l-0.88,7.28h-1.07v-4.05
		C1037.66,100.23,1038.93,99,1039.61,98.44z M1023.46,87.4c0.13,0.25,0.38,0.42,0.68,0.42c0.42,0,0.76-0.34,0.76-0.76v-0.44
		c0.36-0.12,0.72-0.19,1.08-0.19v5.4h-1.29v9.63c0-1.8-1.56-3.38-2.74-4.33v-5.75l-0.58,0.05c0-0.07-0.01-0.14-0.01-0.21
		c0-0.68,0.2-1.36,0.53-1.98c0.2,0.06,0.42,0.03,0.61-0.09c0.35-0.22,0.46-0.7,0.23-1.05l-0.02-0.03
		C1022.94,87.83,1023.19,87.6,1023.46,87.4z M1023.02,101.67v4.05h-1.06l-0.88-7.27C1021.76,99.01,1023.02,100.24,1023.02,101.67z
		 M1019.96,98.67l0.86,7.05h-2.13v-5.5C1019.03,99.58,1019.54,99.04,1019.96,98.67z M1008.27,123.78v-0.92v-0.56h0.23v1.48
		L1008.27,123.78L1008.27,123.78z M1003.7,183.91c0-0.2,0.12-0.37,0.3-0.45v0.01h0.04v0.89
		C1003.84,184.3,1003.7,184.13,1003.7,183.91z M1004.04,185.68v0.92c-0.2-0.07-0.34-0.24-0.34-0.46
		C1003.7,185.92,1003.84,185.75,1004.04,185.68z M1002.97,299.29h0.08c0.02,0,0.03-0.01,0.05-0.01v0.28h-0.13V299.29z
		 M1002.81,301.56v-0.84h0c0.09-0.11,0.15-0.25,0.16-0.41h0.14v3.65h-0.3v-1.55h0.16v-0.85H1002.81z M1000.73,334.44v0.23
		c-0.02-0.04-0.03-0.09-0.06-0.13C1000.7,334.51,1000.72,334.48,1000.73,334.44z M1000.73,337.34v1.11h-0.08v-0.95h0
		C1000.69,337.45,1000.71,337.4,1000.73,337.34z M1000.58,345.27h0.08v-0.31h0.08v4.63c-0.05-0.05-0.1-0.09-0.16-0.12V345.27z"/>
</g>
<polygon class="st0" points="1341.29,171.91 1341.29,162.24 1333.7,162.24 1318.37,162.24 1318.37,159.41 1303.11,159.41 
	1303.11,155.39 1302.02,155.39 1302.02,159.41 1300.22,159.41 1300.22,148.37 1299.13,148.37 1299.13,159.41 1297.6,159.41 
	1297.6,162.24 1238.54,162.24 1238.54,156.56 1217.77,156.56 1217.77,162.24 1213.38,162.24 1205.79,162.24 1205.79,171.91 
	1213.38,171.91 1213.38,176.29 1207.43,176.29 1207.43,181.26 1205.79,181.26 1205.79,190.93 1207.43,190.93 1207.43,572.18 
	1339.65,572.18 1339.65,190.93 1341.29,190.93 1341.29,181.26 1339.65,181.26 1339.65,176.29 1333.7,176.29 1333.7,171.91 "/>
<path class="st1" d="M1056.38,484.97l4.75-13.59l1.28-0.04l67.04-18.07l53.73-52.3l-106.03-12.84l-263.89,16.17
	c0,0-23.6,33.93-30.34,45.09c-6.74,11.17,13.06,29.5,13.06,29.5l223.07-6.33l-4.84,6.33l-44.92,2.3
	c-32.88-0.38-212.14,0.01-212.14,0.01s-13.1,14.16-35.48,22.09c4.69-0.08,5.44-0.05,5.44-0.05v67.81h263.84v-64.01h41.28
	l-11.9,62.54h16.2l36.97-79.26h-96.33c-1.33-1.35-2.61-2.8-3.79-4.36L1056.38,484.97z"/>
<g>
	<path class="st2" d="M709.46,260.47l-13.14,9.62h2.22c0,0,0.19,4.44,0,12.77c-15.92,0-6.29,27.21-22.76,26.46
		c-16.47-0.74,3.7,20.54-4.81,16.84c-10.92-0.19-0.93,10.36-4.26,10.92c-13.88,0.93-8.51,15.92-8.51,15.92h-5.11v218.06h112.74V353
		h-5.11c0,0,5.37-14.99-8.51-15.92c-3.33-0.56,6.66-11.1-4.26-10.92c-8.51,3.7,11.66-17.58-4.81-16.84
		c-16.47,0.74-6.85-26.46-22.76-26.46c-0.19-8.33,0-12.77,0-12.77h2.22L709.46,260.47z"/>
	<path class="st2" d="M713.59,270.09"/>
	<polygon class="st2" points="653.08,571.06 653.08,321.94 635.42,321.94 635.42,300.51 626.43,300.51 626.43,283.86 616.78,283.86 
		616.78,270.09 608.12,270.09 608.12,255.23 602.42,255.23 596.71,255.23 596.71,270.09 588.06,270.09 588.06,283.86 578.4,283.86 
		578.4,300.51 569.41,300.51 569.41,321.94 551.75,321.94 551.75,571.06 	"/>
	<polygon class="st2" points="438.62,571.06 438.62,308.67 492.82,213.62 551.75,307.63 551.75,571.06 	"/>
	<rect x="463.85" y="226.53" class="st2" width="3.23" height="37.12"/>
	<rect x="467.07" y="240.81" class="st2" width="9.99" height="2.96"/>
	<rect x="460.9" y="223.45" class="st2" width="9.5" height="3.08"/>
	
		<rect x="518.56" y="226.53" transform="matrix(-1 -4.652912e-11 4.652912e-11 -1 1040.3524 490.1875)" class="st2" width="3.23" height="37.12"/>
	
		<rect x="508.58" y="240.81" transform="matrix(-1 -4.507606e-11 4.507606e-11 -1 1027.1395 484.5788)" class="st2" width="9.99" height="2.96"/>
	
		<rect x="515.24" y="223.45" transform="matrix(-1 -4.529100e-11 4.529100e-11 -1 1039.9685 449.9807)" class="st2" width="9.5" height="3.08"/>
	<rect x="342.04" y="210.55" class="st2" width="4.01" height="40.89"/>
	<rect x="363.68" y="169.08" class="st2" width="6.4" height="44.53"/>
	<rect x="338.53" y="208.39" class="st2" width="11.04" height="2.38"/>
	<rect x="361.37" y="166.71" class="st2" width="11.04" height="2.38"/>
	<polygon class="st2" points="438.62,571.06 438.25,277.38 429.26,277.38 429.26,263.66 422.06,263.66 422.06,249.79 414.86,249.79 
		414.86,239.25 407.06,239.25 407.06,223.45 397.46,223.45 397.46,208.4 390.49,208.4 390.49,195.08 382.86,195.08 382.86,181.13 
		379.16,181.13 375.45,181.13 375.45,195.08 367.82,195.08 367.82,208.4 360.85,208.4 360.85,223.45 351.25,223.45 351.25,239.25 
		343.46,239.25 343.46,249.79 336.26,249.79 336.26,263.66 329.06,263.66 329.06,277.38 320.06,277.38 319.37,571.06 	"/>
	
		<rect x="412.27" y="210.55" transform="matrix(-1 -4.493618e-11 4.493618e-11 -1 828.5402 461.9948)" class="st2" width="4.01" height="40.89"/>
	
		<rect x="388.23" y="169.08" transform="matrix(-1 -4.533674e-11 4.533674e-11 -1 782.8694 382.7018)" class="st2" width="6.4" height="44.53"/>
	
		<rect x="408.75" y="208.39" transform="matrix(-1 -4.442281e-11 4.442281e-11 -1 828.5402 419.1613)" class="st2" width="11.04" height="2.38"/>
	
		<rect x="385.91" y="166.71" transform="matrix(-1 -4.442281e-11 4.442281e-11 -1 782.8607 335.7893)" class="st2" width="11.04" height="2.38"/>
	<path class="st2" d="M320.07,571.06V270.09h-3.02c0,0,8.46-22.79-9.08-22.79c-0.15-12.93,0-14.46,0-14.46l2.5-4.06h-2.57
		c0,0,1.11-14.72-10.73-8.57c-9.65,5.02-0.44-19.78-13.09-19.35v-6c0,0,6.51-6.11-2.27-9.64c-7.06,0.19-7.06,0.19-7.06,0.19
		s3.02-14.91-9.66-18.21c-0.09-10.09,0-16.55,0-16.55s4.22-2.1,5.41-4.94c-4.21,0-14.17,0-14.17,0s-9.97,0-14.17,0
		c1.19,2.83,5.41,4.94,5.41,4.94s0.09,6.46,0,16.55c-12.68,3.3-9.66,18.21-9.66,18.21s0,0-7.06-0.19c-8.78,3.53-2.27,9.64-2.27,9.64
		v6c-12.65-0.43-3.44,24.36-13.09,19.35c-11.83-6.15-10.73,8.57-10.73,8.57h-2.57l2.5,4.06c0,0,0.15,1.54,0,14.46
		c-17.54,0-9.08,22.79-9.08,22.79h-3.02v300.97H320.07z"/>
	<path class="st2" d="M192.57,570.97v-229.4c0,0-7.52-8.38-2.92-15.76c-3.77,0-5.58,0-5.58,0s0.33-10.33-6.4-11.97
		c0.16-4.1,0.16-4.1,0.16-4.1s-8.2-2.09-10.33-9.17c-2.12-7.08-1.32-10.21-7.58-13.33c0-4.36,0-5.97,0-5.97l2.36-2.62h-3.71
		c0,0,1.83-6.44-5.09-6.55c-0.23-6.18,0-6.64,0-6.64H151v-7.27c0,0,8.78-5.7-8.75-5.7c-17.6,0-8.75,5.7-8.75,5.7v7.27h-2.49
		c0,0,0.23,0.46,0,6.64c-6.92,0.11-5.09,6.55-5.09,6.55h-3.71l2.36,2.62c0,0,0,1.61,0,5.97c-6.25,3.13-5.45,6.25-7.58,13.33
		c-2.12,7.08-10.33,9.17-10.33,9.17s0,0,0.16,4.1c-6.72,1.64-6.4,11.97-6.4,11.97s-1.8,0-5.58,0c4.59,7.38-2.92,15.76-2.92,15.76
		v229.4H192.57z"/>
	<path class="st2" d="M91.96,570.97V358.39l3.87-3.24h-3.87V344c0,0,2.76-3.02-2.83-3.13c-5.59-0.11-5.26,0-5.26,0
		s6.71-19.88-11.53-22.11c-0.14-8.22,0-13.79,0-13.79s6.27-2.37,2.23-4.04c-4.04-1.67-13.93-0.42-14.48-6.54
		c-0.56-6.13-0.7-11.42-6.27-11.7c0-5.01,0-10.17,0-10.17s7.9-1.38,1.83-5.2c-6.08-3.82-14.2-9.7-14.2-9.7s-8.13,5.87-14.2,9.7
		c-6.08,3.82,1.83,5.2,1.83,5.2s0,5.15,0,10.17c-5.57,0.28-5.71,5.57-6.27,11.7s-10.44,4.87-14.48,6.54
		c-4.04,1.67,2.23,4.04,2.23,4.04s0.14,5.57,0,13.79c-18.24,2.23-11.53,22.11-11.53,22.11s0.33-0.11-5.26,0
		c-5.59,0.11-2.83,3.13-2.83,3.13v11.15h-3.87l3.87,3.24v212.58H91.96z"/>
</g>
<path class="st3" d="M152.56,569.8c0,0-0.08-7.16,1.52-8.59c1.6-1.43,0.17-6.65,3.12-7.16s18.19,0,18.19,0s1.94-6.74,15.24-6.99
	c7.66-6.57,12.29-10.86,11.54-12.97c-0.76-2.1-5.14-4.72-2.95-7.41c2.19-2.44,4.55-3.28,5.98-3.2c1.43,0.08,4.11-4.59,4.72-6.24
	c0.61-1.65,3.79-2.11,5.12-2.05c1.33,0.06-2.07-13.53,6.05-12.66c8.12,0.87,5.78-9.68,3.24-9.68s-8.5-3.82-0.76-8.58
	c7.73-4.76,0.93-8.24,5.35-12.24c4.42-3.99,4.3-8.84,2.67-11.79c-1.63-2.95-1.95-3.02-1.8-4.51s-3.07-0.28-0.31-3.86
	s-6.71-0.93-9-7.52c-0.72-2.2-0.03-6.4-1.91-4.36c-1.88,2.04-1.25,3.6-4.31,3.37c-3.06-0.24-0.91-7.13,3.26-8.18
	c4.17-1.04,6.19,4.41,6.19,4.41s-0.24-3.04,3.25-2.92s3.19-12.43,3.19-12.43h1.58l0.08-4.64c0,0,3.65-4.63,4.63-4.94
	s0.48-2.71,0.81-2.98s0.58-0.12,0.87-0.2c0.3-0.08,1.97-2.63,2.08-3.79c0.1-1.16,0.96-3.39,3.21-5.16
	c-0.85-2.36-1.23-2.63-1.23-2.63s-4.05,4.84-8.59,4.53c-4.54-0.31-10.14-1.43-11.14-0.28c-1,1.15-0.59,3.05-0.84,3.61
	c-0.25,0.56-2.21,0.5-2.08-1.52c0.12-2.02,1.03-2.64,1.34-4.36c0.31-1.71,1.24-2.02,3.3-1.46c2.05,0.56,4.87,0.28,5.98-0.05
	c1.11-0.33,3.95,0.11,4.65,0.04s3.21-6.46,3.21-6.46s-2.66-3.62,0.69-5.74c3.35-2.12,1.76-5.93,1.76-5.93s-1.53-1.65-2.23-3.88
	c-3.82-0.41-10.11-1.41-8.64-4.88c1.47-3.47,3.01-4.09,3.14-4.7c0.13-0.61-0.24-3.03,0.34-3.57c0.57-0.54,3.16-1.45,4-1.38
	c0.84,0.07,0.29-0.79-0.1-0.79s-4.25-0.24-1.18-1.36s6.96-1.84,7.74-1.21c0.78,0.63-0.03,1.6-1.63,3.07
	c-1.6,1.48-2.98,2.79-3.67,2.91c-0.7,0.12-2.14,2.67-3.21,3.04c-1.07,0.37-1.03,3.33-0.74,3.91c0.29,0.58,8.14,0.53,8.18,0.12
	c0.04-0.41-0.04-0.95-0.33-1.64c-0.29-0.7-1.52-2.51-0.74-4.4c0.78-1.89,1.93-2.71,4.19-2.47c2.26,0.25,2.8,2.51,2.71,3.91
	s-0.29,2.55-0.62,3.41c-0.33,0.86,3.95,0.33,4.28,2.26c0.33,1.93,2.26,8.72-2.26,8.64c-1.97,2.96-2.07,4.75-2.11,5.66
	c-0.04,0.92-0.88,3.42-1.67,4.09c0.38,1.71,2.28,6.51,2.25,8.81c-0.03,2.3-6.44,7.9-7.09,9.25s-1.17,2.99,0.18,4.37
	s2.45,2.22,3.56,2.43c1.11,0.21,2.33,0.42,2.4,1.53c0.07,1.11,0.07,5.02,0.07,5.02l1.82-0.05l0.1,5.79c0,0,2.04,1.89,1.91,5.05
	c-0.13,3.16,0.06,4.91,1.52,5.14c1.46,0.23,4.6-0.08,4.53,2.07c-0.08,2.14-1.68,1.61-1.68,1.61l0.08,4.37c0,0,1.38,0.92,1.61,4.37
	s1.14,5.85-1.36,7.6c-2.51,1.75-2.26,7.21-2.26,7.21s-0.72,11.18,0.1,12.95c0.82,1.77,5.95,5.11,5.95,8.17s0.99,3.9-2.45,4.97
	c-3.44,1.07-2.9,6.42-1.53,7.72s8.45,3.7,18.6,5.36c10.14,1.66,4.49,8.68,2.24,6.15c-2.24-2.54-7.12-3.22-8.58-1.46
	c-1.46,1.76-2.24,3.22-3.12,3.61c-0.88,0.39,3.12,1.56,3.22,4.78c0.1,3.22,2.63,1.46,4.58,2.73c1.95,1.27,3.51,4.88,3.51,4.88
	s4.29-0.98,5.76,2.83c1.46,3.8,3.61,4.78,4.88,5.17c1.27,0.39,4.58,2.05,5.66,3.8c1.07,1.76,2.91,4.7,5.66,9.48
	c2.75,4.78,11.5,4.29,12.63,4.37s4.7,0.16,4.05,5.02c-0.51,3.8-0.99,8.49-0.54,10.61c0.12,0.57-0.33,1.1-0.91,1.11
	C295.91,569.87,152.56,569.8,152.56,569.8z"/>
<polygon class="st0" points="1462.15,237.74 1462.15,229.7 1455.84,229.7 1443.11,229.7 1443.11,227.35 1430.43,227.35 
	1430.43,224.01 1429.53,224.01 1429.53,227.35 1428.03,227.35 1428.03,218.17 1427.12,218.17 1427.12,227.35 1425.85,227.35 
	1425.85,229.7 1376.78,229.7 1376.78,224.98 1359.53,224.98 1359.53,229.7 1355.88,229.7 1349.57,229.7 1349.57,237.74 
	1355.88,237.74 1355.88,241.37 1350.94,241.37 1350.94,245.5 1349.57,245.5 1349.57,253.54 1350.94,253.54 1350.94,570.3 
	1460.79,570.3 1460.79,253.54 1462.15,253.54 1462.15,245.5 1460.79,245.5 1460.79,241.37 1455.84,241.37 1455.84,237.74 "/>
</svg>
