<?xml version="1.0" encoding="utf-8"?>
<!-- Generator: Adobe Illustrator 28.3.0, SVG Export Plug-In . SVG Version: 6.00 Build 0)  -->
<svg version="1.1" id="Calque_1" xmlns="http://www.w3.org/2000/svg" xmlns:xlink="http://www.w3.org/1999/xlink" x="0px" y="0px"
	 viewBox="0 0 1417.32 569.33" style="enable-background:new 0 0 1417.32 569.33;" xml:space="preserve">
<style type="text/css">
	.st0{fill:#BFE4F8;}
	.st1{fill:#86CEF3;}
	.st2{fill:#A6DBF6;}
	.st3{fill:#61B3E5;}
	.st4{fill:#FFFFFF;}
	.st5{fill:#82CEF4;}
	.st6{fill:none;}
	.st7{fill:#CDEAFA;}
</style>
<path class="st0" d="M332.21,533.62l-1.01-328.84v-38.08l63.47-11.83v-27.42l28.23-15.86l37.64,10.48l78.77,13.98l9.41,3.49
	l90.06,65.23l68.29,31.01h59.57l1.81,23.41l19.05-5.67l6.7-5.87v-11.29l18.07,0.9v18.52c0,0,30.14,1.25,45.33,4.59
	c19.86,0.27,78.36,0.4,78.36,0.4l15.46-4.8h28.12l32.25,14.53l36.26,32.15l0,0l-1.07,230.88l-712.42,0.08"/>
<path class="st1" d="M78.61,533.62"/>
<path class="st2" d="M78.61,533.62l0.01-126.37c0,0,5.67-10.54,12.76-13.36c7.09-2.82,31.91-40.04,47.15-41.82
	s53.53-1.42,64.52-29.78c10.99-28.36,17.37-60.27,31.2-63.1c13.83-2.84,33.5-26.94,46.88-28.01s38.2-23.75,46.35-25.53
	c8.15-1.77,30.13-8.15,37.93-7.8c2.13-10.28,2.13-15.6,16.31-21.27c14.18-5.67,25.53-24.46,30.84-19.5
	c5.32,4.96,71.97-9.57,81.54-5.67c9.57,3.9,39.35,15.24,49.63,16.31c10.28,1.06,50.34,40.77,57.08,54.24
	c6.74,13.47,13.9,21.63,20.25,21.98c0,0,45.64,11.22,56.48,10.67c10.84-0.54,25.21,3.18,29.27,6.6
	c4.07,3.42,43.13,15.62,49.07,16.43s64.23,7.5,67.49,7.14c0,0,17.96-0.2,29.83-1.08c11.87-0.88,61.7-0.09,71.2,2.02
	c9.49,2.11,28.74-23.2,39.82-22.94c11.08,0.26,25.58,3.04,31.64,7.72c6.06,4.68,0.79,17.86,9.49,19.71
	c8.7,1.85,19.78,5.14,24.26,13.65s25.05-6,31.12-5.74c6.06,0.26,20.04,7.65,29.01,14.24c8.97,6.59,13.4,13.45,31.62,14.77
	c18.22,1.32,43.8,6.06,50.79,13.45c6.98,7.38,74.69,53.6,79.76,69.98c5.07,16.38,0,123.09,0,123.09L78.61,533.62"/>
<polygon class="st3" points="556.14,533.62 556.12,397.87 589.47,368.47 606.68,368.47 623.89,368.47 657.23,397.87 657.22,533.62 
	"/>
<polyline class="st3" points="558.31,533.62 558.33,368.47 555.04,368.47 555.04,373.44 547.8,373.44 547.8,384.9 521.22,384.71 
	515.95,379.11 510.68,384.71 473.57,384.97 473.59,533.62 558.31,533.62 "/>
<path class="st3" d="M474.54,533.62"/>
<polygon class="st3" points="403.13,533.62 403.12,398.42 418.07,387.67 438.52,387.67 458.97,387.67 473.92,398.42 473.91,533.62 
	"/>
<polygon class="st3" points="361.7,533.62 361.69,401.56 382.66,401.56 403.64,401.56 403.63,533.62 "/>
<polygon class="st3" points="334.19,392.92 348.64,392.92 359.29,392.92 359.29,385.88 363.09,385.88 363.27,533.62 334.01,533.62 
	"/>
<polygon class="st3" points="218.41,535.7 218.4,403.64 236.67,403.64 254.94,403.64 254.93,535.7 "/>
<polygon class="st3" points="181.56,533.79 181.55,392.45 200.38,392.45 219.2,392.45 219.19,533.79 "/>
<polygon class="st3" points="66.53,533.62 66.53,414.09 124.44,414.09 182.35,414.09 182.35,533.62 "/>
<polygon class="st3" points="294.23,409.83 264.69,409.83 264.69,392.62 259.35,392.62 259.35,409.83 253.91,409.83 253.92,533.62 
	334.53,533.62 334.54,409.83 "/>
<polygon class="st3" points="33.9,407.25 9.07,407.25 9.07,393.89 5.01,393.89 5.01,407.25 0.63,407.25 0.63,533.62 67.17,533.62 
	67.17,407.25 "/>
<rect x="720.52" y="257.66" class="st4" width="41.6" height="46.2"/>
<rect x="680.16" y="303.86" class="st3" width="120.99" height="227.08"/>
<path class="st3" d="M823.64,310.38h-6.94l-2.78-4.93v-14.25l-3.5-4.2h-6.31l-12.71-24.19l-11.85,24.16l-13.74-0.16
	c0,0-0.99-8.04-1.55-14.03s0.94-19.38,0.94-19.38H762l0.03-7.91c0,0,6.08-14.63,5.85-28.8c-0.22-14.18-13.15-29.44-14.49-32.46
	c2.38-1.69,1.63-4.89,1.05-5.7c-0.58-0.81-2.15-4.36-2.93-10.51c0,0-0.87-12.25,0.87-16c1.75-3.75,1.25-4.75-2.1-8.13
	s-3.15-4.38-0.9-9.5s1.01-10.63-3.5-14.75c-4.99-4.56-5.63-62.04-5.63-62.04s0,57.82-5.63,62.04c-4.88,3.66-5.75,9.63-3.5,14.75
	c2.25,5.13,2.44,6.13-0.9,9.5s-3.85,4.38-2.1,8.13c1.75,3.75,0.87,16,0.87,16c-0.78,6.15-2.35,9.7-2.93,10.51
	c-0.58,0.81-1.34,4.01,1.05,5.7c-1.34,3.03-14.26,18.29-14.49,32.46c-0.22,14.18,5.85,28.8,5.85,28.8l0.03,7.91h-3.19
	c0,0,1.5,13.39,0.94,19.38S714.7,287,714.7,287l-14.02-0.03l-12.1-20.85L676.41,287h-6.31l-3.5,4.2v14.25l-2.78,4.93h-6.94
	l-2.09,223.24h170.95L823.64,310.38z M694.51,418.99v9.05h-4.62h-4.62v-9.05c0,0-0.57-4.9,4.62-7.73
	C695.07,414.09,694.51,418.99,694.51,418.99z M694.51,373.09v9.05h-4.62h-4.62v-9.05c0,0-0.57-4.9,4.62-7.73
	C695.07,368.19,694.51,373.09,694.51,373.09z M694.51,315.52v9.05h-4.62h-4.62v-9.05c0,0-0.57-4.9,4.62-7.73
	C695.07,310.62,694.51,315.52,694.51,315.52z M751.79,265.57l5.32-4.35l2.9,5.8v16.69l-8.22-1.91V265.57z M735.21,265.06l5.05-5.84
	l5.05,5.84v16.74h-5.05h-5.05V265.06z M740.26,338.11c3.22,0,5.83,2.61,5.83,5.83c0,3.22-2.61,5.83-5.83,5.83s-5.83-2.61-5.83-5.83
	C734.43,340.72,737.04,338.11,740.26,338.11z M720.52,267.02l2.9-5.8l5.32,4.35v16.23l-8.22,1.91V267.02z M740.26,382.85
	c22.25,12.94,21.51,29.12,21.51,29.12v33.32h-8.26h-13.25h-13.25h-8.26v-33.32C718.75,411.96,718.01,395.79,740.26,382.85z
	 M768.16,496.9v34.04h-55.79V496.9c0,0-0.51-22.78,27.9-37.36C768.67,474.12,768.16,496.9,768.16,496.9z M796.73,418.99v9.05h-4.62
	h-4.62v-9.05c0,0-0.57-4.9,4.62-7.73C797.3,414.09,796.73,418.99,796.73,418.99z M796.73,373.09v9.05h-4.62h-4.62v-9.05
	c0,0-0.57-4.9,4.62-7.73C797.3,368.19,796.73,373.09,796.73,373.09z M796.73,315.52v9.05h-4.62h-4.62v-9.05c0,0-0.57-4.9,4.62-7.73
	C797.3,310.62,796.73,315.52,796.73,315.52z"/>
<g>
	<polygon class="st5" points="928.37,533.54 928.37,432.34 920.59,421.32 905.85,413.29 891.11,421.32 883.34,432.34 883.34,533.54 
			"/>
	<polygon class="st5" points="942.67,533.54 942.67,425.03 934.99,425.03 927.3,425.03 927.3,533.54 	"/>
	<polygon class="st5" points="971.77,533.54 971.77,422.24 956.69,422.24 941.61,422.24 941.61,533.54 	"/>
	<polygon class="st5" points="1000.4,533.54 1000.41,421.31 985.56,421.31 970.71,421.31 970.7,533.54 	"/>
	<polyline class="st6" points="1009.72,533.62 1009.73,428.04 1022.02,428.04 	"/>
	<polygon class="st5" points="1111.22,533.65 1111.22,429.8 1095.94,413.93 1077.13,413.93 1058.32,413.93 1043.03,429.8 
		1043.03,533.65 	"/>
	<path class="st5" d="M1172.15,533.54l-0.01-129.11l-19.33-27.06v-6.46c0,0,3.99-4.32,0-7.59c-3.99-3.27-3.41-13.99-3.41-13.99
		s0.58,10.72-3.41,13.99c-3.99,3.27,0,7.59,0,7.59v6.46l-19.33,27.06l-0.01,129.11H1172.15z"/>
	<polygon class="st5" points="1209.47,375.68 1218.02,384.98 1218.02,393.35 1231.15,393.35 1231.14,533.54 1170.75,533.54 
		1170.77,393.35 1200.92,393.35 1200.92,384.98 1209.48,375.68 	"/>
	<polygon class="st5" points="1230.37,533.54 1230.39,404.44 1256.75,404.44 1266.65,395.77 1287.53,395.77 1292.48,392.23 
		1349.45,392.23 1349.45,385.69 1357.76,385.69 1357.76,380.03 1417.32,380.03 1417.32,532.58 	"/>
	<polygon class="st5" points="1102,533.54 1102,421.22 1127.73,404.43 1127.71,533.54 	"/>
	<polygon class="st5" points="1046.95,533.54 1046.98,428.04 1023.66,428.04 1000.35,428.04 1000.33,533.54 	"/>
</g>
<rect x="0.63" y="532.67" class="st7" width="1416.69" height="37.77"/>
<path class="st3" d="M1172.17,497.75c-0.21,14.46-0.06,35.87-0.06,35.87H825.74l-0.34-25.73c0,0,186.85-12.49,213.21-16.65
	c26.36-4.16,37.92-7.86,53.19-13.41c15.26-5.55,102.54-36.02,165.01-44.16c62.46-8.15,151.99-15.3,160.52-15.3
	c0,11.72,0,61.3,0,61.3s-23.47,4.96-25.28,12.62c10.37,0,10.37,0,10.37,0l2.25,78.15h-169.02l0.9-81.3
	c-9.29-0.35-20.43-0.1-32.87,1.59C1191.5,492.37,1180.9,495.01,1172.17,497.75z"/>
</svg>
