<svg width="27" height="27" viewBox="0 0 27 27" fill="none" xmlns="http://www.w3.org/2000/svg">
<path d="M26.65 13.9374L14.5014 0.427585C13.9898 -0.142528 13.0071 -0.142528 12.4955 0.427585L0.346889 13.9374C0.172025 14.1314 0.057245 14.372 0.016506 14.6301C-0.024233 14.8882 0.0108241 15.1525 0.117415 15.391C0.333391 15.8787 0.816637 16.1922 1.34983 16.1922H4.04952V25.649C4.04952 26.0073 4.19174 26.3509 4.44489 26.6043C4.69803 26.8577 5.04137 27 5.39937 27H9.44892C9.80692 27 10.1503 26.8577 10.4034 26.6043C10.6566 26.3509 10.7988 26.0073 10.7988 25.649V20.2451H16.1982V25.649C16.1982 26.0073 16.3404 26.3509 16.5935 26.6043C16.8467 26.8577 17.19 27 17.548 27H21.5976C21.9556 27 22.2989 26.8577 22.5521 26.6043C22.8052 26.3509 22.9474 26.0073 22.9474 25.649V16.1922H25.6471C25.9085 16.1933 26.1646 16.1182 26.3842 15.9762C26.6037 15.8342 26.7772 15.6313 26.8836 15.3922C26.9899 15.1532 27.0244 14.8884 26.9829 14.6301C26.9415 14.3717 26.8258 14.1311 26.65 13.9374Z" fill="#FEFEFE"/>
</svg>
