<svg xmlns="http://www.w3.org/2000/svg" xml:space="preserve" id="Layer_1" x="0" y="0" version="1.1" viewBox="0 0 389.1 844.3"><style>.st0{display:none}.st1{display:inline}.st2{fill:#044c7a}.st3{display:none;fill:#0065a3}.st4,.st5{opacity:.6;fill:#fbe95c;stroke:#010101;stroke-width:.1602;stroke-linecap:round;stroke-linejoin:round;enable-background:new}.st5{stroke-width:.1625}.st6{fill:#0d4066}.st9{fill:#0b3351}.st10{fill:#fbe95c;stroke:#010101;stroke-width:5.195582e-02;stroke-linecap:round;stroke-linejoin:round}.st12{fill:#00253c}.st13{fill:#00588f}.st15{fill:#d6eefc}.st16{fill:#fff}.st17{display:none;fill:#d6eefc}.st18{fill:#c4e5f9}.st19{fill:#9fd4f3}.st20{fill:#e0edf3}.st22{fill:#4290cd}.st23{fill:#033376}.st24{fill:#d82f20}.st25{fill:#b5b5b5}.st26{fill:#809da8}.st27{fill:#475c63}.st28{fill:none}.st29{enable-background:new}.st30{fill:#898989}.st31{fill:#777}.st32{fill:#b2b2b2}.st33{fill:#161616}.st34{fill:#494949}.st35{fill:#a8a8a8}.st36{fill:#282828}.st37{fill:#383838}.st38{fill:#fcea5c}.st39{fill:#01527f}.st40{display:none;fill:#044c7a}</style><g id="illu_jour_phone_00000176763955528688877070000002965072224864593038_"><path id="Arrière_plan_copy_00000048499514221074496640000001207545167004105141_" d="M.1 0h588.1v841.9H.1z" class="st2"/><g id="Quatrième_plan_copy_00000145036048102140975570000003258444708710611098_"><path d="M307.4 259.2h2.4v3.6h-2.4zM309.8 259.1h2.4v3.6h-2.4zM312.4 259.2h2.4v3.6h-2.4zM307.3 263.1h2.4v3.6h-2.4zM309.8 263.1h2.4v3.6h-2.4zM312.4 263.1h2.4v3.6h-2.4z" class="st2"/><path d="M307.3 267h2.4v3.6h-2.4zM309.8 267h2.4v3.6h-2.4z" class="st4"/><path d="M312.4 267h2.4v3.6h-2.4z" class="st2"/><path d="M319.9 254.8h2.4v3.6h-2.4z" class="st4"/><path d="M317.5 259.3h2.4v3.6h-2.4zM317.5 263.1h2.4v3.6h-2.4zM317.5 266.9h2.4v3.6h-2.4zM319.9 259.3h2.4v3.6h-2.4zM319.9 263.1h2.4v3.6h-2.4zM319.9 266.9h2.4v3.6h-2.4zM322.4 259.3h2.4v3.6h-2.4zM322.4 263.1h2.4v3.6h-2.4zM322.4 266.9h2.4v3.6h-2.4z" class="st2"/><path d="M442.3 263.2c-38.3 8.6-77.8 12.8-117.1 12.1v-17.6c0-.3 0-.5-.3-.5s-.4.3-.4.3v-1c-.3-.1-.3-.4-.3-.4s-.4 0-.7-.2c-.3-.3-.3-.7-.3-.7v-.2h.1v-.2h-.2l-.1-.4h-.3c-.1-.7-.6-.7-.6-.7v-.3l.1-.1v-.3l.2-.1v-.2h-.3c-.3-.4-1.1-.3-1.1-.3s-.8 0-1.1.3h-.3v.2l.2.1v.3l.1.1v.3s-.5 0-.6.7h-.3l-.1.4h-.2v.2h.1v.2s0 .4-.3.7c-.3.3-.7.2-.7.2s0 .3-.3.4v1s-.1-.3-.4-.3c-.3 0-.3.3-.3.5v17.4c-.6 0-1.3 0-1.9-.1v-16.7c-1 0-1-1.3-1-1.3l.1-.3c-.2-.1-.1-.4-.1-.4l.3-.4h-1.3c-.3 0-.3-.2-.4-.4-.3-.1-.3 0-.3-1.5s-1.6-1.7-1.6-1.7-1.6.2-1.6 1.7 0 1.4-.3 1.5c-.1.2 0 .4-.4.4H307l.3.4s.1.3-.1.4c.1.2.1.3.1.3s0 1.3-.9 1.3v16.3c-46.2-2.6-91.8-12.1-134.7-29.2-28.7-11.4-56.1-26-85.3-35.6h.5L48.2 174v-3.4l-2-1.6v-7l1.3-.9-2.1-2.9h-.6l.6-1.4s.3-.4-.2-.8c.4-.3 1.1-1 1.3-1.7.3-1-.4-1.7-1.1-1.9-.7-.1-1.4.2-1.4.2s-.6-.8-1.6-.6c-1 .1-2.8.7-3.5.1-.8-.6-1.8-2.1-2-2.4s-1.2-.9-1.9-.6c-.8.3-1.1 1.1-1.3 1.8-.3.7-.3 1.3-.1 1.9s.9.8.9 1.3-.4.8-.4.8-.9 0-1.2.5.1 1 .1 1-.5.7-.2 1.3c.2.5.5.6.9.6l-2.1 2.9 1.4.8v7l-2 1.6v2.9L3 200c-20 1.7-39.6 6.3-58.4 13.4v296.4h653V202.2c-48.6 27.6-100.8 48.7-155.3 61zm-120.3-.8h-1.8v-2.9h1.8v2.9zm0 4.6v2.9h-1.8V267h1.8zm0-3.7v2.9h-1.8v-2.9h1.8zm2.5 6.6h-1.8V267h1.8v2.9zm-1.9-10.4h1.8v2.9h-1.8v-2.9zm0 3.8h1.8v2.9h-1.8v-2.9zm-1.6-8.5c1 0 1 2.7 1 2.7h-1.9c.1-.1-.1-2.7.9-2.7zm-1.5 15.1h-1.8V267h1.8v2.9zm-1.8-10.4h1.8v2.9h-1.8v-2.9zm0 3.8h1.8v2.9h-1.8v-2.9zm-3.3 6.6h-1.8V267h1.8v2.9zm-1.9-10.4h1.8v2.9h-1.8v-2.9zm0 3.8h1.8v2.9h-1.8v-2.9zm-.6 6.6h-1.8V267h1.8v2.9zm-1.8-10.4h1.8v2.9h-1.8v-2.9zm0 3.8h1.8v2.9h-1.8v-2.9zm-.7 3.7v2.9h-1.8V267h1.8zm-1.8-7.5h1.8v2.9h-1.8v-2.9zm0 3.8h1.8v2.9h-1.8v-2.9zm-263-110.2s1.5-.4 1.7.6c.1.8-.7 1.8-1 2.1-.4-.6-.9-1.5-.9-1.5l.2-1.2zm-8.9 5.3h-1.5.2c.8-.2 1.2-1 .9-1.6s-.9-.5-.9-.5-.3-.4.1-.6c.4-.2.9-.2 1.3-.2.3 0 .6-.1.7.3.1.4.1 1-.1 1.3-.3.2-.6.9-.7 1.3zm5.7 0h-5c.1-.3.4-.9.6-1.3.3-.5.4-.8.5-1.1s1.7 0 2.5-.3c.9-.3 1.8-.9 1.8-.9s-.1 1.2.2 1.6.3.5.1.9c-.1.2-.5.8-.7 1.1zm3.4-1.2-.6 1.2h-1.8c.3-.3.9-1 .8-1.2-.1-.2-.3-1 0-1.3s.9.1 1.2.4c.1.2.5.6.4.9z" class="st6"/></g><g id="Troisième_plan_copy_00000164496308706602974910000017358585177173833633_"><path d="M78.5 416.9H83v6.1h-4.5z" class="st2"/><path d="M90.3 423h2.8v3.9h-2.8z" class="st10"/><path d="M92.5 417.8h2.9v4.5h-2.9zM94.4 413.5h2.8v3.4h-2.8zM78.2 423.9h4.5v6.1h-4.5zM78.1 431.3h4.5v6.1h-4.5zM96.7 417.7h2.9v4.5h-2.9zM94.6 423h2.8v3.9h-2.8zM98.8 423h2.8v3.9h-2.8zM90.4 428.5h2.8v3.9h-2.8zM94.4 428.5h2.8v3.9h-2.8z" class="st2"/><path d="M98.6 428.5h2.8v3.9h-2.8z" class="st10"/><path d="M453.3 405c-5.2-1.6-10.5-2.9-15.8-3.9l.8-18.7-4.9-.2V381l-2.8-.1.3-7h-.6v-1.3l-4.6-.2v-.5h-.7v-.6h-.8v-2c0-.6-.1-1.1-.2-1.7-.1.6-.2 1.1-.3 1.7s-.1 1.1-.1 1.7v.3h-1.1v.6h-.7v.5l-4.2-.1v1.4h-1.1l-.3 7.7-5-.2v1.7h-.8v-1.7h-1.1l.1-1.8-7.9-.3v1.1h-.7l-.1 1.9h-1.5v-1.7h-.8V379l-8.9-.3.2-5.1h-.6v-1.7h-1.7v1.1h-1.3v.6l-.3 8.1h-1.5l.3-7.2h-1.4v-.9l-4.4-.2v.9h-1.5l-.1 3.7-3.4-.1-.2 5.4h-1.7v-1.4h-1.7v1.4h-1.1l-2.3-4.4c1.5-.9 2.5-2.6 2.4-4.4-.1-2.2-1.6-4.1-3.6-4.7l.3-8.9c2.8-.3 4.9-2.6 4.8-5.4-.1-2.9-2.5-5.2-5.5-5.1-1.5 0-2.9.8-3.8 1.9l-11.7-7.2c.2-.6.3-1.2.3-1.9-.1-2.8-2.4-5-5.2-4.9s-5 2.4-4.9 5.2c0 .7.2 1.4.5 2l-11.1 7.8c-1-1-2.4-1.6-3.9-1.6-2.9.1-5.2 2.5-5.1 5.5.1 2.7 2.1 4.8 4.7 5l1 8.9c-2.2.6-3.7 2.7-3.6 5 0 1.7.9 3.1 2.2 4l-2.3 4.9-3 .1-.3-7.7h-1.1V376l-4.2.1v-.5h-.7v-.6h-1.1v-.3c0-.6 0-1.1-.1-1.7s-.2-1.1-.3-1.7c-.1.6-.2 1.1-.2 1.7v2h-.8v.6h-.7v.5l-4.6.2v1.3h-.6l.3 7-2.8.1v1.2l-4.9.2.8 18.5c-6.7 1.1-13.3 2.4-19.9 3.8-52.6 11-103.6 30.4-157.1 34.6-6 .5-11.9.7-18 .8l-.1-23.9h-1.1v-2.2h-1v-2.2h-1.2v-1.7h-1v-2.2h-.9c-.2-1.6-1.7-1.5-1.7-1.5s-1.5-.1-1.7 1.5h-.9v1.7h-1v1.7h-1.2v2.2h-1v2.2h-1.1l.1 23.9h-2v-26s-4.2.5-4.4-5.5h-5c-.2 6-4.4 5.5-4.4 5.5v25.4c-29.4-1.8-58.7-6.7-87.8-11.5-53.1-8.9-108.3-18.6-156.4-41.4v225.6l640.4-8V411.1c-5.3-2.3-10.7-4.4-16.3-6.1zM78.5 417.6h3.8v4.2h-3.8v-4.2zm0 7h3.8v4.2h-3.8v-4.2zm0 7h3.8v4.2h-3.8v-4.2zm18.2.4h-1.8s-.3-3 .9-3c1.2-.1.9 3 .9 3zm3.3-3c1.2 0 .9 3 .9 3h-1.8s-.4-3 .9-3zm.2-5.7c1.2 0 .9 3 .9 3h-1.8s-.3-3 .9-3zm-2.1-5.5c1.2 0 .9 3 .9 3h-1.8c0 .1-.3-2.9.9-3zm-2.7-3.9h1.2v2.3h-1.2v-2.3zm.6 9.4c1.2 0 .9 3 .9 3h-1.8s-.3-3 .9-3zm-2-5.5c1.3.5.9 3 .9 3H93c.1.1-.3-3.4 1-3zm-2.2 5.5c1.2 0 .9 3 .9 3h-1.8s-.3-3 .9-3zm-.2 5.7c1.2 0 .9 3 .9 3h-1.8s-.4-3 .9-3zm240.5-51.8c.3-.6.4-1.3.4-2.1 0-.5-.1-1-.3-1.4l8.2-4.2v.8c.1 2.5 1.8 4.5 4 5.2l-.7 6.5-5 .2-6.6-5zm8.3-9.8-9.1 4.7c-.8-1.1-2.1-1.8-3.6-1.9l-.9-8.8c1-.3 1.9-.8 2.6-1.5l11 7.5zm5.9 9.3h-.6l-.8-.4v-.4h1.4v.8zm-1.5.4.6 1.8.3-.2v1.4l-.4-1.2-.8.5.3-2.3zm-.2 2.4 1.2.7v1.7h-1.5l.3-2.4zm13.6-2.2h-1.5v-.9l-4.4.2v.9h-1.4l.2 6.4-1 .8h-.5l-.3-8.1v-.6H348v-.9c2.1-.8 3.6-3 3.5-5.3v-.4l7.8 3.6c0 .3-.1.7-.1 1.1 0 .9.3 1.8.8 2.5l-1.6 1.4-.2-.7zm3.6-18.4c.6.6 1.4 1 2.2 1.2l-.3 8.9c-1.7.1-3.1 1.1-3.9 2.4l-8.8-4.1 10.8-8.4zm-1.4-5.8c-.3.6-.4 1.3-.3 2 0 .8.3 1.6.6 2.3l-11 8.6c-.8-.8-1.9-1.3-3-1.5l-.6-16.9c1.1-.3 2-.8 2.7-1.7l11.6 7.2zm-18.9-6.8c.8.7 1.7 1.2 2.8 1.3l.6 16.9c-1.2.2-2.3.8-3.1 1.7l-11.4-7.8c.3-.7.5-1.5.5-2.3 0-.7-.2-1.4-.5-2.1l11.1-7.7zm-13.9 34c1.4 0 2.6-.7 3.5-1.6l5.9 4.4v.4h-.8v1.7h-1.5l-.1-1.9h-.7v-1.1l-7.9.3.1 1.8H325v1.7h-.8v-1.5l2-4.3c.5.1.9.1 1.4.1zM367 386h-1.7v-1.4h-1.7v1.4h-1.7l-.2-5.4-3.4.1v-.7l2.8-2.3c.9.7 2 1.1 3.2 1 .3 0 .6 0 .8-.1l3.3 6.4-.4 12.1h-.6L367 386z" class="st9"/></g><g id="Deuxième_plan_copy_00000012462661945637775630000000419414596954453647_"><path d="M-3 764.2h504.7V629.8H-2.9z" class="st15"/><path d="M9.3 504.1h11.4v15.6H9.3zM28.1 483.2h5.7v17.5h-5.7zM81.8 519.7h13.7v27.8H81.8z" class="st10"/><path d="M136.2 530h20.5v26.2h-20.5zM149.8 500.7h13.9v25.7h-13.9z" class="st2"/><path d="M191.7 507.7h25.7v12.5h-25.7z" class="st2" transform="rotate(-76.161 204.59 513.89)"/><path d="M34.8 481.6h5.7v17.5h-5.7zM41.8 482.1h5.7v17.5h-5.7z" class="st10"/><path d="M32 515.1h11.4v15.6H32zM54.6 504.4H66V520H54.6zM54.8 527.8h11.4v15.6H54.8zM55.8 549.3h11.4v15.6H55.8zM7.4 527.8h11.4v15.6H7.4zM9 549h11.4v15.6H9zM25 536.7h26.2v33.8H25zM24.6 573h26.2v33.8H24.6zM95.4 518.3h13.7v27.8H95.4zM111.4 517.9h13.7v27.8h-13.7zM81.8 549.3h13.7v27.8H81.8z" class="st2"/><path d="M96.4 549.3h13.7v27.8H96.4zM111.4 549.3h13.7v27.8h-13.7z" class="st10"/><path d="M158.6 526.8h13.9v25.7h-13.9zM140.9 561.1h13.9v25.7h-13.9zM159.3 560.3h13.9V586h-13.9zM186.6 529.6h13.9v25.7h-13.9z" class="st2"/><path d="M206.2 528.4h13.9v25.7h-13.9z" class="st10"/><path d="M186.6 559.5h13.9v25.7h-13.9zM206.2 558.8h13.9v25.7h-13.9z" class="st2"/><path d="m-2.8 764.1 504.5-1.4V605.6H-2.8z" class="st12"/><path d="M74.9 507.3h-3.1l-1.2-2.2v-6.4l-1.6-1.9h-2.8L60.5 486l-5.3 10.8h-6.1l-.7-6.3c-.3-2.7.4-8.7.4-8.7h-1.4v-3.5s2.7-6.5 2.6-12.9c-.1-6.3-5.9-13.2-6.5-14.5 1-.8.7-2.2.5-2.6-.2-.4-1-1.9-1.3-4.7 0 0-.4-5.5.4-7.1.8-1.7.6-2.1-1-3.6s-1.4-1.9-.4-4.2.4-4.8-1.6-6.6c-2.2-2-2.5-27.7-2.5-27.7s0 25.8-2.5 27.7c-2.2 1.6-2.6 4.3-1.6 6.6s1.1 2.8-.4 4.2-1.7 1.9-1 3.6c.8 1.7.4 7.1.4 7.1-.3 2.8-1 4.3-1.3 4.7-.2.4-.6 1.8.5 2.6-.6 1.3-6.4 8.2-6.5 14.5s2.6 12.9 2.6 12.9v3.5h-1.4s.7 6 .4 8.7-.7 6.4-.7 6.4h-6.3l-5.3-9.4-5.4 9.3H6.3l-1.6 1.9v6.4l-1.2 2.2H.4l-1 99.8h76.4l-.9-99.8zm-57.7 48.5v4h-4v-4s-.2-2.2 2-3.5c2.3 1.4 2 3.5 2 3.5zm0-20.5v4h-4v-4s-.2-2.2 2-3.5c2.3 1.4 2 3.5 2 3.5zm0-25.7v4h-4v-4s-.2-2.2 2-3.5c2.3 1.3 2 3.5 2 3.5zm25.6-22.3 2.4-1.9 1.3 2.6v7.5l-3.7-.9v-7.3zm-7.4-.3 2.3-2.6L40 487v7.5h-4.6V487zm2.3 32.7c1.4 0 2.6 1.2 2.6 2.6 0 1.4-1.2 2.6-2.6 2.6-1.4 0-2.6-1.2-2.6-2.6s1.2-2.6 2.6-2.6zm-8.9-31.8 1.3-2.6 2.4 1.9v7.2l-3.7.9v-7.4zm8.9 51.8c9.9 5.8 9.6 13 9.6 13v14.9H28.1v-14.9s-.4-7.2 9.6-13zm12.4 50.9v15.2H25.2v-15.2s-.2-10.2 12.5-16.7c12.7 6.6 12.4 16.7 12.4 16.7zm12.8-34.8v4h-4.1v-4s-.2-2.2 2-3.5c2.4 1.4 2.1 3.5 2.1 3.5zm0-20.5v4h-4.1v-4s-.2-2.2 2-3.5c2.4 1.4 2.1 3.5 2.1 3.5zm0-25.7v4h-4.1v-4s-.2-2.2 2-3.5c2.4 1.3 2.1 3.5 2.1 3.5zM121.6 511s-4.1-1.2-6.8-7.2c-3 .1-5.4-3.7-3.9-4.4 2.6-1.2.9-2 0-2.2-2.5-.5-.5-6.1 1.9-7.1 1.4-.5-.7-4.9-10-5.3-9.4.4-11.5 4.8-10 5.3 2.4.9 4.4 6.6 1.9 7.1-.9.2-2.6 1 0 2.2 1.5.7-.9 4.5-3.9 4.4-2.7 6-6.8 7.3-6.8 7.3-2.6 0-6.5.1-6.5.1v95.5H128v-95.5c.1-.1-3.8-.1-6.4-.2zm-28 58.1H86s-1.9-16.2 3.4-16.2c5.3-.1 4.2 16.2 4.2 16.2zm.3-28.8h-7.6s-1.9-15.6 3.4-16.2c5.4-.6 4.2 16.2 4.2 16.2zm12.4 28.8h-7.6s-1.9-14.3 3.4-16.2c5.1-1.9 4.2 16.2 4.2 16.2zm.2-28.8h-7.6s-1-16.8 4.4-16.2c5 .5 3.2 16.2 3.2 16.2zm12.8 28.8h-7.6s-1.7-17.9 3.4-16.2c5 1.6 4.2 16.2 4.2 16.2zm.3-28.8H112s0-16.2 3.4-16.2c5.5 0 4.2 16.2 4.2 16.2zM229.1 521.2H226v-6h-4.1v-5.3h-3.4v-5h-3v-6.1H212v-5.5h-3.5V488h-3.3v-4.9H202.1v4.9h-3.3v5.3h-3.5v5.5h-3.5v6h-3v5h-3.4v5.3h-4.1v2.9h-2.2v-2.9H175v-5.3h-3.4v-5h-3v-6h-3.5v-5.5h-3.5V488h-3.3v-4.9h-4v4.9H151v5.3h-3.5v5.5H144v6h-3v5h-3.4v5.3h-4.1v5.6h-2.2v85h98.8l-1-84.5zm-76.8 58.5h-8.7s-2.2-18.5 3.9-18.5c6-.1 4.8 18.5 4.8 18.5zm0-29.3h-8.7s-2.2-18.5 3.9-18.5c6-.1 4.8 18.5 4.8 18.5zm4.1-47.9c6 0 4.8 18.6 4.8 18.6h-8.8c0-.1-2.2-18.6 4-18.6zm13.6 77.2h-8.8s-2.2-18.5 3.9-18.5c6.1-.1 4.9 18.5 4.9 18.5zm0-29.3h-8.8s-2.2-18.5 3.9-18.5c6.1-.1 4.9 18.5 4.9 18.5zm29.9 29.3h-8.8s-2.2-18.5 3.9-18.5c6.1-.1 4.9 18.5 4.9 18.5zm0-29.3h-8.8s-2.2-18.5 3.9-18.5c6.1-.1 4.9 18.5 4.9 18.5zm4.1-47.9c6 0 4.8 18.6 4.8 18.6H200c0-.1-2.2-18.6 4-18.6zm13.6 77.2h-8.8s-2.2-18.5 3.9-18.5c6.1-.1 4.9 18.5 4.9 18.5zm0-29.3h-8.8s-2.2-18.5 3.9-18.5c6.1-.1 4.9 18.5 4.9 18.5z" class="st12"/></g><path id="Avant_plan_copy_00000005247320146946614130000001476546394608156808_" d="M.5 844.3h388.6V629H.6z" class="st13"/></g></svg>