<svg xmlns="http://www.w3.org/2000/svg" xml:space="preserve" id="Layer_1" x="0" y="0" version="1.1" viewBox="0 0 1512.6 982"><style>.st0{display:none}.st1{display:inline}.st2{fill:#044c7a}.st3{display:none;fill:#0065a3}.st4,.st5{opacity:.6;fill:#fbe95c;stroke:#010101;stroke-width:.1602;stroke-linecap:round;stroke-linejoin:round;enable-background:new}.st5{stroke-width:.1625}.st6{fill:#0d4066}.st9{fill:#0b3351}.st10{fill:#fbe95c;stroke:#010101;stroke-width:5.195582e-02;stroke-linecap:round;stroke-linejoin:round}.st12{fill:#00253c}.st13{fill:#00588f}.st15{fill:#d6eefc}.st16{fill:#fff}.st17{display:none;fill:#d6eefc}.st18{fill:#c4e5f9}.st19{fill:#9fd4f3}.st20{fill:#e0edf3}.st22{fill:#4290cd}.st23{fill:#033376}.st24{fill:#d82f20}.st25{fill:#b5b5b5}.st26{fill:#809da8}.st27{fill:#475c63}.st28{fill:none}.st29{enable-background:new}.st30{fill:#898989}.st31{fill:#777}.st32{fill:#b2b2b2}.st33{fill:#161616}.st34{fill:#494949}.st35{fill:#a8a8a8}.st36{fill:#282828}.st37{fill:#383838}.st38{fill:#fcea5c}.st39{fill:#01527f}</style><g id="illu_jour_desktop"><path id="Arrière_plan_copy" d="M.1 0h1508.4v982H.1z" class="st16"/><g id="Quatrième_plan_copy"><path d="M840.1 398.5h5.5v8.4h-5.5zM845.8 398.4h5.5v8.4h-5.5zM851.8 398.5h5.5v8.4h-5.5zM839.9 407.6h5.5v8.4h-5.5zM845.8 407.6h5.5v8.4h-5.5zM851.8 407.6h5.5v8.4h-5.5zM839.9 416.6h5.5v8.4h-5.5zM845.8 416.6h5.5v8.4h-5.5zM851.8 416.6h5.5v8.4h-5.5zM869.2 388.3h5.5v8.4h-5.5zM863.5 398.8h5.5v8.4h-5.5zM863.5 407.6h5.5v8.4h-5.5zM863.5 416.3h5.5v8.4h-5.5zM869.2 398.8h5.5v8.4h-5.5zM869.2 407.6h5.5v8.4h-5.5zM869.2 416.3h5.5v8.4h-5.5zM874.9 398.8h5.5v8.4h-5.5zM874.9 407.6h5.5v8.4h-5.5zM874.9 416.3h5.5v8.4h-5.5z" class="st16"/><path d="M1152.5 407.9c-88.7 20-180.1 29.7-271.1 28.1v-40.8c0-.6-.1-1.1-.7-1.1s-.9.6-.9.6v-2.4c-.6-.2-.6-.9-.6-.9s-1 .1-1.6-.5-.6-1.7-.6-1.7v-.4l.3-.1v-.4h-.4l-.3-.9h-.8c-.3-1.6-1.5-1.6-1.5-1.6v-.7l.2-.2v-.7l.4-.2.1-.4h-.7c-.7-.9-2.5-.8-2.5-.8s-1.8-.1-2.5.8h-.7l.1.4.4.2v.7l.2.2v.7s-1.2 0-1.5 1.6h-.8l-.3.9h-.4v.4l.3.1v.4s.1 1-.6 1.7-1.6.5-1.6.5.1.7-.6.9v2.4s-.2-.6-.9-.6-.8.6-.7 1.1v40.3c-1.4-.1-2.9-.1-4.3-.2v-38.6c-2.2-.1-2.2-3-2.2-3s.1-.1.3-.6c-.4-.2-.2-.9-.2-.9l.7-1h-3.1c-.7 0-.7-.4-.9-.9-.6-.3-.6 0-.6-3.5s-3.6-3.9-3.6-3.9-3.7.4-3.6 3.9c0 3.5 0 3.2-.6 3.5-.2.5-.1.9-.9.9h-3.1l.7 1s.2.7-.2.9l.3.6s0 3-2.2 3v37.7c-106.9-6.1-212.5-28.1-312-67.6-66.4-26.3-130-60.3-197.6-82.5h1.1l-89.6-82.8v-7.9l-4.7-3.6v-16.1l3.1-2-4.9-6.7h-1.5l1.5-3.3s.7-.9-.5-1.9c.9-.8 2.5-2.4 2.9-4 .7-2.2-.9-4-2.6-4.3-1.7-.3-3.2.5-3.2.5s-1.4-1.8-3.8-1.5c-2.4.3-6.4 1.7-8.2.3-1.8-1.3-4.1-4.8-4.6-5.6-.4-.8-2.7-2.1-4.5-1.3s-2.5 2.5-3 4.1c-.6 1.7-.7 2.9-.2 4.5.5 1.5 2.1 1.9 2 3s-.9 1.8-.9 1.8-2.1 0-2.8 1.1.2 2.2.2 2.2-1.1 1.6-.5 3.1c.5 1.1 1.1 1.5 2 1.5l-4.8 6.6 3.2 2v16.1l-4.7 3.6v6.6l-64.9 61.3c-46.2 4-91.8 14.5-135.2 31L.1 979h1512V266.6c-112.6 63.9-233.4 112.8-359.6 141.3zm-278.5-2h-4.2v-6.6h4.2v6.6zm.1 10.8v6.6h-4.2v-6.6h4.2zm-.1-8.7v6.6h-4.2V408h4.2zm5.7 15.3h-4.2v-6.6h4.2v6.6zm-4.2-24h4.2v6.6h-4.2v-6.6zm0 8.7h4.2v6.6h-4.2V408zm-3.8-19.7c2.2 0 2.4 6.2 2.4 6.2h-4.3s-.4-6.2 1.9-6.2zm-3.4 35h-4.2v-6.6h4.2v6.6zm-4.2-24h4.2v6.6h-4.2v-6.6zm0 8.7h4.2v6.6h-4.2V408zm-7.8 15.3h-4.2v-6.6h4.2v6.6zm-4.3-24h4.2v6.6H852v-6.6zm0 8.7h4.2v6.6H852V408zm-1.4 15.3h-4.2v-6.6h4.2v6.6zm-4.2-24h4.2v6.6h-4.2v-6.6zm0 8.7h4.2v6.6h-4.2V408zm-1.5 8.7v6.6h-4.2v-6.6h4.2zm-4.2-17.4h4.2v6.6h-4.2v-6.6zm0 8.7h4.2v6.6h-4.2V408zM231.6 152.9s3.4-1 3.9 1.4c.3 1.9-1.6 4.1-2.4 4.9-1-1.3-2.1-3.4-2.1-3.4l.6-2.9zm-20.5 12.2h-3.4c.2-.1.3-.1.5-.1 1.9-.4 2.7-2.2 2-3.6-.7-1.3-2-1.1-2-1.1s-.8-1 .2-1.5c1-.4 2.2-.5 2.9-.4s1.5-.2 1.6.7.2 2.2-.3 3c-.5.5-1.2 2.1-1.5 3zm13.2 0h-11.5c.3-.7 1-2.1 1.4-3 .6-1.2.9-1.9 1.1-2.6s3.9-.1 5.9-.8 4.2-2 4.2-2-.2 2.7.4 3.7c.7 1 .8 1.2.2 2-.4.7-1.3 2.1-1.7 2.7zm7.8-2.8c-.3.5-1 1.9-1.5 2.8h-4.2c.7-.8 2.1-2.3 1.9-2.7-.2-.5-.8-2.2-.1-3s2.1.3 2.7.9c.5.5 1.6 1.3 1.2 2z" class="st15"/></g><g id="Troisième_plan_copy"><path d="M588.6 483.8h10.7v14.5h-10.7zM616.4 498.3h6.6v9.3h-6.6zM621.7 486h6.8v10.6h-6.8zM626.2 475.8h6.6v8h-6.6zM586.8 500.3h10.7v14.5h-10.7zM587.7 517.9h10.7v14.5h-10.7zM631.6 485.7h6.8v10.6h-6.8zM626.7 498.3h6.6v9.3h-6.6zM636.6 498.3h6.6v9.3h-6.6zM616.7 511.2h6.6v9.3h-6.6zM626.2 511.2h6.6v9.3h-6.6zM636.1 511.2h6.6v9.3h-6.6z" class="st16"/><path d="M1473.5 455.7c-12.3-3.8-24.7-6.8-37.3-9.2l1.9-44.2-11.6-.4.1-2.9-6.6-.2.6-16.6-1.5-.1.1-3.1-10.8-.4v-1.2l-1.7-.1v-1.4l-1.8-.1v-4.6c-.1-1.3-.2-2.7-.4-4-.3 1.3-.5 2.6-.7 4-.2 1.3-.3 2.6-.3 4v.6l-2.6-.1v1.4l-1.7-.1v1.2l-9.9-.3-.1 3.3-2.5-.1-.6 18.2-11.8-.4-.1 3.9-1.9-.1.1-3.9-2.5-.1.2-4.3-18.6-.7-.1 2.7-1.7-.1-.2 4.6-3.5-.1.1-3.9-1.9-.1.1-3.3-21.1-.7.4-12-1.5-.1.1-3.9-4.1-.1-.1 2.5-3-.1-.1 1.5-.7 19.2-3.6-.1.6-17-3.3-.1.1-2.2-10.5-.4-.1 2.2-3.6-.1-.3 8.7-8-.3-.4 12.7-4-.1.1-3.3-4-.1-.1 3.3-2.5-.1-5.4-10.5c3.5-2.2 5.8-6.1 5.6-10.5-.2-5.2-3.8-9.6-8.5-11l.7-21.1c6.5-.6 11.5-6.2 11.3-12.8-.2-6.9-6-12.2-12.9-12-3.6.1-6.9 1.8-9 4.4l-27.6-17c.5-1.4.7-2.9.7-4.4-.2-6.6-5.7-11.7-12.3-11.5s-11.7 5.7-11.5 12.3c.1 1.7.5 3.4 1.2 4.8l-26.2 18.3c-2.4-2.4-5.7-3.8-9.3-3.7-6.9.2-12.2 6-12 12.9.2 6.3 5 11.3 11.1 11.9l2.3 20.9c-5.1 1.5-8.7 6.3-8.5 11.8.1 4 2.2 7.4 5.2 9.4l-5.4 11.6-7.2.3-.6-18.2-2.5.1-.1-3.3-9.9.3v-1.2l-1.7.1v-1.4l-2.6.1v-.6c0-1.3-.1-2.6-.3-4-.2-1.3-.4-2.6-.7-4-.3 1.3-.4 2.7-.4 4-.1 1.3-.1 2.7 0 4v.6l-1.8.1v1.4l-1.7.1v1.2l-10.8.4.1 3.1-1.5.1.6 16.6-6.6.2.1 2.9-11.6.4 1.8 43.6c-15.8 2.7-31.5 5.6-47.1 8.9-124.1 26-244.6 71.8-370.9 81.6-14.1 1.1-28.2 1.7-42.4 2l-.2-56.4h-2.5v-5.2h-2.4v-5.2h-2.8v-4H636v-4.1h-2.2c-.5-3.8-4-3.5-4-3.5s-3.5-.3-4 3.5h-2.2v4.1h-2.4v4h-2.8v5.2H616v5.2h-2.5l.2 56.4c-1.5 0-3.1-.1-4.7-.1v-61.4s-9.8 1.2-10.3-12.9H587c-.4 14.1-10.3 12.9-10.3 12.9v60c-69.4-4.3-138.6-15.8-207.3-27.2C244 496.5 113.6 473.4.1 419.7v532.7l1512-18.9V470.2c-12.6-5.5-25.4-10.4-38.6-14.5zm-884.9 29.7h8.9v10h-8.9v-10zm0 16.5h8.9v10h-8.9v-10zm0 16.5h8.9v10h-8.9v-10zm43.1 1h-4.3s-.8-7 2.2-7.1c2.8-.1 2.1 7.1 2.1 7.1zm7.7-7.1c2.9-.1 2.2 7.1 2.2 7.1h-4.3c-.1 0-.9-7 2.1-7.1zm.5-13.5c2.9-.1 2.2 7.1 2.2 7.1h-4.3c-.1 0-.9-7 2.1-7.1zM635 486c2.9-.1 2.2 7.1 2.2 7.1h-4.3c-.1.1-.8-7 2.1-7.1zm-6.5-9.4h2.9v5.5h-2.9v-5.5zm1.5 22.2c2.9-.1 2.2 7.1 2.2 7.1h-4.3c-.1 0-.8-7 2.1-7.1zm-4.7-12.8c3.1 1.1 2.2 7.1 2.2 7.1h-4.4c0 .1-.9-8.1 2.2-7.1zm-5.3 12.8c2.9-.1 2.2 7.1 2.2 7.1h-4.3c-.1 0-.8-7 2.1-7.1zm-.5 13.5c2.9-.1 2.2 7.1 2.2 7.1h-4.3c-.1 0-.9-7 2.1-7.1zM1187.3 390c.6-1.5.9-3.1.9-4.9 0-1.2-.3-2.3-.6-3.3l19.3-10c-.1.6-.1 1.2-.1 1.8.2 5.8 4.2 10.6 9.5 12.2l-1.6 15.3-11.8.4-15.6-11.5zm19.6-23-21.4 11c-2-2.5-5-4.2-8.4-4.4l-2.2-20.7c2.4-.6 4.5-1.8 6.1-3.6l25.9 17.7zm14.1 21.9-1.5.1-1.8-.9.1-1 3.2-.1v1.9zm-3.5.8 1.4 4.2.8-.5.1 3.3-.9-2.8-1.9 1.2.5-5.4zm-.6 5.7 2.9 1.7.1 3.9-3.6.1.6-5.7zm32.2-5.2-3.6.1-.1-2.2-10.5.4.1 2.2-3.3.1.5 15.1-2.4 2h-1.2l-.7-19.2-.1-1.5-3 .1-.1-2.1c4.9-2 8.4-7 8.2-12.6 0-.3 0-.6-.1-.9l18.3 8.5c-.1.8-.2 1.7-.2 2.5.1 2.2.7 4.2 1.8 5.9l-3.8 3.2.2-1.6zm8.4-43.4c1.5 1.4 3.3 2.3 5.3 2.8l-.7 21c-4 .3-7.4 2.5-9.3 5.7l-20.7-9.7 25.4-19.8zm-3.3-13.7c-.6 1.5-.9 3.1-.8 4.8.1 2 .6 3.8 1.5 5.4l-25.9 20.2c-1.9-1.8-4.4-3.1-7.2-3.5l-1.4-40c2.5-.6 4.7-2 6.3-3.9l27.5 17zm-44.7-15.9c1.8 1.7 4.1 2.8 6.6 3.1l1.4 39.9c-2.9.5-5.4 1.9-7.3 4l-26.9-18.3c.7-1.7 1.1-3.5 1.1-5.5-.1-1.7-.5-3.4-1.2-4.9l26.3-18.3zm-32.8 80.2c3.3-.1 6.2-1.6 8.3-3.8l13.9 10.4v1l-1.9.1.1 3.9-3.5.1-.2-4.6-1.7.1-.1-2.7-18.6.7.2 4.3-2.5.1.1 3.9-1.9.1-.1-3.5 4.7-10.1c1.1-.1 2.1 0 3.2 0zm93 13.4-4 .1-.1-3.3-4 .1.1 3.3-4 .1-.4-12.7-8 .3-.1-1.6 6.5-5.4c2.1 1.6 4.8 2.5 7.6 2.4.6 0 1.3-.1 1.9-.2l7.7 15-1 28.5h-1.3l-.9-26.6z" class="st18"/></g><g id="Deuxième_plan_copy"><path d="M.1 982h1512V699.4H.5z" class="st15"/><path d="M26.1 435.1h24v32.8h-24zM65.5 391.2h11.9V428H65.5zM178.5 467.9h28.9v58.4h-28.9zM292.8 489.6H336v55h-43.2zM321.4 428h29.2v54.1h-29.2z" class="st16"/><path d="M409.1 442h54.1v26.2h-54.1z" class="st16" transform="rotate(-76.161 436.115 455.105)"/><path d="M79.7 387.8h11.9v36.8H79.7zM94.4 388.9h11.9v36.8H94.4zM73.7 458.2h24V491h-24zM121.2 435.7h24v32.8h-24zM121.7 485h24v32.8h-24zM123.8 530.2h24V563h-24zM22 485h24v32.8H22zM25.4 529.5h24v32.8h-24zM59 503.7h55.1v71.1H59zM58.1 580h55.1v71.1H58.1zM207.1 465H236v58.4h-28.9zM240.8 464.2h28.9v58.4h-28.9zM178.5 530.2h28.9v58.4h-28.9zM209.2 530.2h28.9v58.4h-28.9zM240.8 530.2h28.9v58.4h-28.9zM339.9 482.9h29.2V537h-29.2zM302.7 554.9h29.2V609h-29.2zM341.4 553.3h29.2v54.1h-29.2zM398.8 488.8H428v54.1h-29.2zM440 486.2h29.2v54.1H440zM398.8 551.7H428v54.1h-29.2zM440 550.2h29.2v54.1H440z" class="st16"/><path d="m.6 981.9 1512-3V648.6H.6z" class="st19"/><path d="M164 441.8h-6.5l-2.6-4.6v-13.4l-3.3-4h-5.9l-12-22.7-11.1 22.7-12.9-.1s-.9-7.6-1.5-13.2.9-18.2.9-18.2h-3v-7.4s5.7-13.7 5.5-27.1c-.2-13.3-12.4-27.7-13.6-30.5 2.2-1.6 1.5-4.6 1-5.4-.5-.8-2-4.1-2.8-9.9 0 0-.8-11.5.8-15s1.2-4.5-2-7.6-3-4.1-.8-8.9c2.2-4.8.9-10-3.3-13.9-4.7-4.3-5.3-58.3-5.3-58.3s0 54.3-5.3 58.3c-4.6 3.4-5.4 9-3.3 13.9 2.1 4.8 2.3 5.8-.8 8.9-3.1 3.1-3.6 4.1-2 7.6s.8 15 .8 15c-.7 5.8-2.2 9.1-2.8 9.9-.5.8-1.3 3.8 1 5.4-1.3 2.8-13.4 17.2-13.6 30.5s5.5 27.1 5.5 27.1v7.4h-3s1.4 12.6.9 18.2-1.5 13.4-1.5 13.4H48.3l-11.2-19.7-11.4 19.6h-5.9l-3.3 4v13.4l-2.6 4.6H7.3l-2 209.8h160.6L164 441.8zM42.7 543.9v8.5h-8.6v-8.5s-.5-4.6 4.3-7.3c4.8 2.7 4.3 7.3 4.3 7.3zm0-43.1v8.5h-8.6v-8.5s-.5-4.6 4.3-7.3c4.8 2.7 4.3 7.3 4.3 7.3zm0-54.1v8.5h-8.6v-8.5s-.5-4.6 4.3-7.3c4.8 2.7 4.3 7.3 4.3 7.3zm53.8-47 5-4.1 2.7 5.5v15.7l-7.7-1.8v-15.3zm-15.6-.5 4.8-5.5 4.8 5.5v15.7h-9.6v-15.7zm4.8 68.7c3 0 5.5 2.5 5.5 5.5s-2.5 5.5-5.5 5.5-5.5-2.5-5.5-5.5 2.5-5.5 5.5-5.5zm-18.6-66.8 2.7-5.5 5 4.1v15.2l-7.7 1.8v-15.6zm18.6 108.8c20.9 12.2 20.2 27.4 20.2 27.4v31.3H65.4v-31.3c.1 0-.6-15.2 20.3-27.4zm26.2 107.2v32H59.5v-32S59 595.7 85.7 582c26.7 13.7 26.2 35.1 26.2 35.1zm26.9-73.2v8.5h-8.7v-8.5s-.5-4.6 4.3-7.3c4.9 2.7 4.4 7.3 4.4 7.3zm0-43.1v8.5h-8.7v-8.5s-.5-4.6 4.3-7.3c4.9 2.7 4.4 7.3 4.4 7.3zm0-54.1v8.5h-8.7v-8.5s-.5-4.6 4.3-7.3c4.9 2.7 4.4 7.3 4.4 7.3zM262.1 449.7s-8.6-2.6-14.2-15.2c-6.3.2-11.4-7.7-8.2-9.2 5.4-2.6 1.8-4.3.1-4.6-5.2-1-1-12.9 4.1-14.9 3-1.1-1.5-10.4-21.1-11.1-19.7.8-24.1 10-21.1 11.1 5.1 1.9 9.3 13.8 4.1 14.9-1.8.4-5.4 2.1.1 4.6 3.2 1.5-1.9 9.5-8.2 9.2-5.6 12.7-14.2 15.3-14.2 15.3-5.5.1-13.7.2-13.7.2v200.8H276V449.9c-.2 0-8.4-.1-13.9-.2zm-58.7 122-16-.1s-4.1-34 7.2-34.1c11 0 8.8 34.2 8.8 34.2zm.5-60.4-16-.1s-4.1-32.8 7.2-34.1c11.4-1.3 8.8 34.2 8.8 34.2zm26 60.4-16-.1s-4.1-30 7.2-34.1c10.7-3.8 8.8 34.2 8.8 34.2zm.5-60.4-16-.1s-2-35.4 9.3-34.1c10.6 1.2 6.7 34.2 6.7 34.2zm27 60.4-16-.1s-3.6-37.6 7.2-34.1c10.5 3.5 8.8 34.2 8.8 34.2zm.6-60.4-16-.1s.1-34.1 7.2-34.1c11.4.1 8.8 34.2 8.8 34.2zM488.2 471.1h-6.6v-12.5h-8.7v-11.2h-7.2v-10.5h-6.4v-12.8H452v-11.5h-7.4v-11.2h-7v-10.3H431v10.3h-7v11.2h-7.4v11.5h-7.3v12.7h-6.4v10.5h-7.2v11.2H387v6h-4.7v-6h-8.7v-11.2h-7.2v-10.5h-6.3v-12.7h-7.3v-11.5h-7.4v-11.2h-7v-10.3H330v10.3h-7v11.2h-7.4v11.5h-7.3v12.7h-6.4v10.5h-7.2v11.2h-8.6v11.8h-4.7v178.8h207.8l-1-178zm-161.5 123-18.4-.1s-4.7-39 8.3-39c12.6 0 10.1 39.1 10.1 39.1zm0-61.6-18.4-.1s-4.7-39 8.3-39c12.6-.1 10.1 39.1 10.1 39.1zm8.6-100.8c12.6 0 10.1 39.1 10.1 39.1l-18.4-.1s-4.7-39 8.3-39zM364 594.1l-18.4-.1s-4.7-39 8.3-39c12.6 0 10.1 39.1 10.1 39.1zm0-61.6-18.4-.1s-4.7-39 8.3-39c12.6-.1 10.1 39.1 10.1 39.1zm62.8 61.6-18.4-.1s-4.7-39 8.3-39c12.6 0 10.1 39.1 10.1 39.1zm0-61.6-18.4-.1s-4.7-39 8.3-39c12.6-.1 10.1 39.1 10.1 39.1zm8.6-100.8c12.6 0 10.1 39.1 10.1 39.1l-18.4-.1s-4.7-39 8.3-39zm28.7 162.4-18.4-.1s-4.7-39 8.3-39c12.6 0 10.1 39.1 10.1 39.1zm0-61.6-18.4-.1s-4.7-39 8.3-39c12.6-.1 10.1 39.1 10.1 39.1z" class="st19"/></g><path id="Avant_plan_copy" d="M.6 982h1512V699.4H1.1z" class="st20"/></g></svg>