<svg xmlns="http://www.w3.org/2000/svg" xml:space="preserve" id="Layer_1" x="0" y="0" version="1.1" viewBox="0 0 388.6 844.3"><style>.st0{fill:#044c7a}.st1{display:none;fill:#0065a3}.st2,.st3{opacity:.6;fill:#fbe95c;stroke:#010101;stroke-width:.1602;stroke-linecap:round;stroke-linejoin:round;enable-background:new}.st3{stroke-width:.1625}.st4{fill:#0d4066}.st7{fill:#0b3351}.st8{fill:#fbe95c;stroke:#010101;stroke-width:5.195582e-02;stroke-linecap:round;stroke-linejoin:round}.st10{fill:#00253c}.st11{fill:#00588f}.st13{fill:#d6eefc}.st14{fill:#fff}.st15{display:none;fill:#d6eefc}.st16{fill:#c4e5f9}.st17{fill:#9fd4f3}.st18{fill:#e0edf3}.st19{fill:#4290cd}.st20{fill:#033376}.st21{fill:#d82f20}.st22{fill:#b5b5b5}.st23{fill:#809da8}.st24{fill:#475c63}.st25{fill:none}.st26{enable-background:new}.st27{fill:#898989}.st28{fill:#777}.st29{fill:#b2b2b2}.st30{fill:#161616}.st31{fill:#494949}.st32{fill:#a8a8a8}.st33{fill:#282828}.st34{fill:#383838}.st35{fill:#fcea5c}.st36{fill:#01527f}.st37{display:none;fill:#044c7a}</style><g id="illu_nuit_desktop"><path id="Arrière_plan_copy_2" d="M2441.5-3112.2h1512v982h-1512z" class="st0"/><g id="Quatrième_plan_copy_2"><path d="M3292.9-2696.5h5.8v14h-5.8zM3304.5-2713.5h6.1v8.1h-6.1z" class="st0"/><path d="M3281.3-2696.3h5.7v8.2h-5.7z" class="st2"/><path d="M3310.6-2724.4h5.9v8.2h-5.9z" class="st3"/><path d="M3286.8-2695.7h5.7v8.2h-5.7z" class="st2"/><path d="M3292.7-2704.7h5.8v7.9h-5.8zM3287.2-2704.7h4.8v7.9h-4.8zM3281.7-2704.7h4.8v7.9h-4.8zM3281.7-2713.7h4.8v7.9h-4.8zM3287.3-2713.7h4.8v7.9h-4.8zM3293.4-2713.7h4.8v7.9h-4.8zM3310.2-2713.3h5.9v8.1h-5.9zM3316.5-2713.3h5.9v8.1h-5.9zM3304.8-2704.8h5.9v8.1h-5.9zM3311-2704.8h5.2v8.1h-5.2zM3316.8-2704.5h5.2v8.1h-5.2zM3305-2695.8h5.2v8.1h-5.2zM3311-2695.8h5.2v8.1h-5.2zM3316.8-2695.5h5.2v8.1h-5.2z" class="st0"/><path d="M3593.9-2704.3c-88.7 20-180.1 29.7-271.1 28.1v-40.8c0-.6-.1-1.1-.7-1.1s-.9.6-.9.6v-2.4c-.6-.2-.6-.9-.6-.9s-1 .1-1.6-.5c-.6-.6-.6-1.7-.6-1.7v-.4l.3-.1v-.4h-.4l-.3-.9h-.8c-.3-1.6-1.5-1.6-1.5-1.6v-.7l.2-.2v-.7l.4-.2.1-.4h-.7c-.7-.9-2.5-.8-2.5-.8s-1.8-.1-2.5.8h-.7l.1.4.4.2v.7l.2.2v.7s-1.2 0-1.5 1.6h-.8l-.3.9h-.4v.4l.3.1v.4s.1 1-.6 1.7-1.6.5-1.6.5.1.7-.6.9v2.4s-.2-.6-.9-.6-.8.6-.7 1.1v40.3c-1.4-.1-2.9-.1-4.3-.2v-38.6c-2.2-.1-2.2-3-2.2-3s.1-.1.3-.6c-.4-.2-.2-.9-.2-.9l.7-1h-3.1c-.7 0-.7-.4-.9-.9-.6-.3-.6 0-.6-3.5s-3.6-3.9-3.6-3.9-3.7.4-3.6 3.9c0 3.5 0 3.2-.6 3.5-.2.5-.1.9-.9.9h-3.1l.7 1s.2.7-.2.9l.3.6s0 3-2.2 3v37.7c-106.9-6.1-212.5-28.1-312-67.6-66.4-26.3-130-60.3-197.6-82.5h1.1l-89.6-82.8v-7.9l-4.7-3.6v-16.1l3.1-2-4.9-6.7h-1.5l1.5-3.3s.7-.9-.5-1.9c.9-.8 2.5-2.4 2.9-4 .7-2.2-.9-4-2.6-4.3-1.7-.3-3.1.5-3.1.5s-1.4-1.8-3.8-1.5-6.4 1.7-8.2.3c-1.8-1.3-4.1-4.8-4.6-5.6-.4-.8-2.7-2.1-4.5-1.3s-2.5 2.5-3 4.1c-.6 1.7-.7 2.9-.2 4.5.5 1.5 2.1 1.9 2 3-.1 1.1-.9 1.8-.9 1.8s-2.1 0-2.8 1.1c-.7 1.1.2 2.2.2 2.2s-1.1 1.6-.5 3.1c.5 1.1 1.1 1.5 2 1.5l-4.8 6.6 3.1 2v16.1l-4.7 3.6v6.6l-64.9 61.3c-46.2 4-91.8 14.5-135.1 31v686.4h1512v-712.4c-112.6 63.9-233.4 112.7-359.6 141.3zm-278.5-2h-4.2v-6.6h4.2v6.6zm.1 10.7v6.6h-4.2v-6.6h4.2zm-.1-8.6v6.6h-4.2v-6.6h4.2zm5.7 15.3h-4.2v-6.6h4.2v6.6zm-4.2-24h4.2v6.6h-4.2v-6.6zm0 8.7h4.2v6.6h-4.2v-6.6zm-3.8-19.7c2.2 0 2.4 6.2 2.4 6.2h-4.3s-.4-6.2 1.9-6.2zm-3.3 35h-4.2v-6.6h4.2v6.6zm-4.3-24h4.2v6.6h-4.2v-6.6zm0 8.7h4.2v6.6h-4.2v-6.6zm-7.8 15.3h-4.2v-6.6h4.2v6.6zm-4.2-24h4.2v6.6h-4.2v-6.6zm0 8.7h4.2v6.6h-4.2v-6.6zm-1.5 15.3h-4.2v-6.6h4.2v6.6zm-4.2-24h4.2v6.6h-4.2v-6.6zm0 8.7h4.2v6.6h-4.2v-6.6zm-1.5 8.6v6.6h-4.2v-6.6h4.2zm-4.2-17.3h4.2v6.6h-4.2v-6.6zm0 8.7h4.2v6.6h-4.2v-6.6zM2673-2959.3s3.4-1 3.9 1.4c.3 1.9-1.6 4.1-2.4 4.9-1-1.3-2.1-3.4-2.1-3.4l.6-2.9zm-20.5 12.2h-3.4c.2-.1.3-.1.5-.1 1.9-.4 2.7-2.2 2-3.6-.7-1.3-2-1.1-2-1.1s-.8-1 .2-1.5c1-.4 2.2-.5 2.9-.4s1.5-.2 1.6.7c.1.9.2 2.2-.3 3-.5.5-1.2 2.1-1.5 3zm13.2 0h-11.5c.3-.7 1-2.1 1.4-3 .6-1.2.9-1.9 1.1-2.6.2-.7 3.9-.1 5.9-.8s4.2-2 4.2-2-.2 2.7.4 3.7c.7 1 .8 1.2.2 2-.4.7-1.3 2.1-1.7 2.7zm7.8-2.8c-.3.5-1 1.9-1.5 2.8h-4.2c.7-.8 2.1-2.3 1.9-2.7-.2-.5-.8-2.2-.1-3s2.1.3 2.7.9c.5.5 1.6 1.3 1.2 2z" class="st4"/></g><g id="Troisième_plan_copy_2"><path d="M3030-2628.5h10.7v15H3030zM3066.5-2614h9.1v10.2h-9.1zM3063.1-2626.2h7.7v10.6h-7.7z" class="st0"/><path fill="#fbe95c" stroke="#010101" stroke-linecap="round" stroke-linejoin="round" stroke-width=".129" d="M3057.8-2614.5h8.7v10.7h-8.7z"/><path d="M3067.6-2636.5h6.6v8h-6.6z" class="st0"/><path fill="#fbe95c" stroke="#010101" stroke-linecap="round" stroke-linejoin="round" stroke-width=".134" d="M3076.4-2599.7h9.3v10.7h-9.3z"/><path d="M3029.1-2612.2h10.7v15h-10.7zM3029.1-2594.6h10.7v15h-10.7zM3076.3-2614.2h9.1v10.2h-9.1zM3066.3-2601.1h9.1v10.2h-9.1zM3056.4-2601.1h9.1v10.2h-9.1zM3073.2-2628h7.7v10.6h-7.7z" class="st0"/><path d="M3914.9-2656.5c-12.3-3.8-24.7-6.8-37.3-9.2l1.9-44.2-11.6-.4.1-2.9-6.6-.2.6-16.6-1.5-.1.1-3.1-10.8-.4v-1.2l-1.7-.1v-1.4l-1.8-.1v-4.6c-.1-1.3-.2-2.7-.4-4-.3 1.3-.5 2.6-.7 4-.2 1.3-.3 2.6-.3 4v.6l-2.6-.1v1.4l-1.7-.1v1.2l-9.9-.3-.1 3.3-2.5-.1-.6 18.2-11.8-.4-.1 3.9-1.9-.1.1-3.9-2.5-.1.2-4.3-18.6-.7-.1 2.7-1.7-.1-.2 4.6-3.5-.1.1-3.9-1.9-.1.1-3.3-21.1-.7.4-12-1.5-.1.1-3.9-4.1-.1-.1 2.5-3-.1-.1 1.5-.7 19.2-3.6-.1.6-17-3.3-.1.1-2.2-10.5-.4-.1 2.2-3.6-.1-.3 8.7-8-.3-.4 12.7-4-.1.1-3.3-4-.1-.1 3.3-2.5-.1-5.4-10.5c3.5-2.2 5.8-6.1 5.6-10.5-.2-5.2-3.8-9.6-8.5-11l.7-21.1c6.5-.6 11.5-6.2 11.3-12.8-.2-6.9-6-12.2-12.9-12-3.6.1-6.9 1.8-9 4.4l-27.6-17c.5-1.4.7-2.9.7-4.4-.2-6.6-5.7-11.7-12.3-11.5-6.6.2-11.7 5.7-11.5 12.3.1 1.7.5 3.4 1.2 4.8l-26.2 18.3c-2.4-2.4-5.7-3.8-9.3-3.7-6.9.2-12.2 6-12 12.9.2 6.3 5 11.3 11.1 11.9l2.3 20.9c-5.1 1.5-8.7 6.3-8.5 11.8.1 4 2.2 7.4 5.2 9.4l-5.4 11.6-7.2.3-.6-18.2-2.5.1-.1-3.3-9.9.3v-1.2l-1.7.1v-1.4l-2.6.1v-.6c0-1.3-.1-2.6-.3-4-.2-1.3-.4-2.6-.7-4-.3 1.3-.4 2.7-.4 4-.1 1.3-.1 2.7 0 4v.6l-1.8.1v1.4l-1.7.1v1.2l-10.8.4.1 3.1-1.5.1.6 16.6-6.6.2.1 2.9-11.6.4 1.8 43.6c-15.8 2.7-31.5 5.6-47.1 8.9-124.1 26-244.6 71.8-370.9 81.6-14.1 1.1-28.2 1.7-42.4 2l-.2-56.4h-2.5v-5.2h-2.4v-5.2h-2.8v-4h-2.4v-4.1h-2.2c-.5-3.8-4-3.5-4-3.5s-3.5-.3-4 3.5h-2.2v4.1h-2.4v4h-2.8v5.2h-2.4v5.2h-2.5l.2 56.4c-1.5 0-3.1-.1-4.7-.1v-61.4s-9.8 1.2-10.3-12.9h-11.7c-.4 14.1-10.3 12.9-10.3 12.9v60c-69.4-4.3-138.6-15.8-207.3-27.2-125.4-20.9-255.8-44-369.3-97.7v532.7l1512-18.9V-2642c-12.6-5.5-25.4-10.4-38.6-14.5zm-884.9 29.7h8.9v10h-8.9v-10zm0 16.5h8.9v10h-8.9v-10zm0 16.5h8.9v10h-8.9v-10zm43.1 1h-4.3s-.8-7 2.2-7.1c2.8-.1 2.1 7.1 2.1 7.1zm7.7-7.1c2.9-.1 2.2 7.1 2.2 7.1h-4.3c-.1 0-.9-7.1 2.1-7.1zm.5-13.5c2.9-.1 2.2 7.1 2.2 7.1h-4.3c-.1 0-.9-7 2.1-7.1zm-4.9-12.8c2.9-.1 2.2 7.1 2.2 7.1h-4.3c-.1 0-.8-7 2.1-7.1zm-6.5-9.4h2.9v5.5h-2.9v-5.5zm1.5 22.2c2.9-.1 2.2 7.1 2.2 7.1h-4.3c-.1 0-.8-7 2.1-7.1zm-4.7-12.8c3.1 1.1 2.2 7.1 2.2 7.1h-4.4s-.8-8.1 2.2-7.1zm-5.3 12.8c2.9-.1 2.2 7.1 2.2 7.1h-4.3c-.1 0-.8-7 2.1-7.1zm-.5 13.5c2.9-.1 2.2 7.1 2.2 7.1h-4.3c-.1 0-.9-7.1 2.1-7.1zm567.8-122.4c.6-1.5.9-3.1.9-4.9 0-1.2-.3-2.3-.6-3.3l19.3-10c-.1.6-.1 1.2-.1 1.8.2 5.8 4.2 10.6 9.5 12.2l-1.6 15.3-11.8.4-15.6-11.5zm19.6-22.9-21.4 11c-2-2.5-5-4.2-8.4-4.4l-2.2-20.7c2.4-.6 4.5-1.8 6.1-3.6l25.9 17.7zm14.1 21.9-1.5.1-1.8-.9.1-1 3.2-.1v1.9zm-3.5.8 1.4 4.2.8-.5.1 3.3-.9-2.8-1.9 1.2.5-5.4zm-.6 5.7 2.9 1.7.1 3.9-3.6.1.6-5.7zm32.2-5.2-3.6.1-.1-2.2-10.5.4.1 2.2-3.3.1.5 15.1-2.4 2h-1.2l-.7-19.2-.1-1.5-3 .1-.1-2.1c4.9-2 8.4-7 8.2-12.6 0-.3 0-.6-.1-.9l18.3 8.5c-.1.8-.2 1.7-.2 2.5.1 2.2.7 4.2 1.8 5.9l-3.8 3.2.2-1.6zm8.4-43.5c1.5 1.4 3.3 2.3 5.3 2.8l-.7 21c-4 .3-7.4 2.5-9.3 5.7l-20.7-9.7 25.4-19.8zm-3.3-13.6c-.6 1.5-.9 3.1-.8 4.8.1 2 .6 3.8 1.5 5.4l-25.9 20.2c-1.9-1.8-4.4-3.1-7.2-3.5l-1.4-40c2.5-.6 4.7-2 6.3-3.9l27.5 17zm-44.7-15.9c1.8 1.7 4.1 2.8 6.6 3.1l1.4 39.9c-2.9.5-5.4 1.9-7.3 4l-26.9-18.3c.7-1.7 1.1-3.5 1.1-5.5-.1-1.7-.5-3.4-1.2-4.9l26.3-18.3zm-32.8 80.2c3.3-.1 6.2-1.6 8.3-3.8l13.9 10.4v1l-1.9.1.1 3.9-3.5.1-.2-4.6-1.7.1-.1-2.7-18.6.7.2 4.3-2.5.1.1 3.9-1.9.1-.1-3.5 4.7-10.1c1.1-.1 2.1 0 3.2 0zm93 13.4-4 .1-.1-3.3-4 .1.1 3.3-4 .1-.4-12.7-8 .3-.1-1.6 6.5-5.4c2.1 1.6 4.8 2.5 7.6 2.4.6 0 1.3-.1 1.9-.2l7.7 15-1 28.5h-1.3l-.9-26.6z" class="st7"/></g><g id="Deuxième_plan_copy_2"><path d="M2467.5-2537.5h126.2v93.3h-126.2z" class="st0"/><path d="M2506.9-2721.1h40.4v36.8h-40.4z" class="st8"/><path fill="#fbe95c" stroke="#010101" stroke-linecap="round" stroke-linejoin="round" stroke-width=".06" d="M2619.9-2644.3h30.7v55.5h-30.7z"/><path d="M2737.8-2622.7h39.6v53.3h-39.6zM2762.8-2684.3h29.2v54.1h-29.2z" class="st0"/><path d="M2850.3-2670.3h54.1v26.2h-54.1z" class="st0" transform="rotate(-76.161 2877.295 -2657.13)"/><path d="M2654.6-2583h22.8v55.5h-22.8zM2680.1-2583h22.8v55.5h-22.8z" class="st8"/><path d="M2651.6-2645.4h25.8v53.3h-25.8zM2682.2-2644.8h25.8v53.3h-25.8zM2621.5-2576h25.8v53.3h-25.8zM2783-2627h25.8v53.3H2783z" class="st0"/><path d="M2887.1-2624.2h22.8v55.5h-22.8z" class="st8"/><path d="M2845.8-2622.7h25.8v53.3h-25.8zM2742.9-2561.7h25.8v53.3h-25.8zM2784.5-2561.7h25.8v53.3h-25.8zM2845.8-2561.7h25.8v53.3h-25.8zM2884-2561.7h25.8v53.3H2884zM2495.3-2604.8h60.2v61.2h-60.2zM2507-2667.9h36.7v41.1H2507zM2563.8-2675.2h21.6v28.4h-21.6zM2566.4-2625h21.6v28.4h-21.6zM2565-2579.9h21.6v28.4H2565zM2468-2582h21.6v28.4H2468zM2463.9-2624h21.6v28.4h-21.6z" class="st0"/><path d="M2468.1-2685h22.8v55.5h-22.8z" class="st8"/><path d="m2441.5-2130.2 1512-3v-330.3h-1512z" class="st10"/><path d="M2605.5-2670.4h-6.5l-2.6-4.6v-13.4l-3.3-4h-5.9l-11.9-22.7-11.1 22.7-12.9-.1s-.9-7.6-1.5-13.2.9-18.2.9-18.2h-3v-7.4s5.7-13.7 5.5-27.1c-.2-13.3-12.4-27.7-13.6-30.5 2.2-1.6 1.5-4.6 1-5.4-.5-.8-2-4.1-2.8-9.9 0 0-.8-11.5.8-15s1.2-4.5-2-7.6c-3.1-3.2-3-4.1-.8-8.9 2.2-4.8.9-10-3.3-13.9-4.7-4.3-5.3-58.3-5.3-58.3s0 54.3-5.3 58.3c-4.6 3.4-5.4 9-3.3 13.9 2.1 4.8 2.3 5.8-.8 8.9-3.1 3.1-3.6 4.1-2 7.6s.8 15 .8 15c-.7 5.8-2.2 9.1-2.8 9.9-.5.8-1.3 3.8 1 5.4-1.3 2.8-13.4 17.2-13.6 30.5s5.5 27.1 5.5 27.1v7.4h-3s1.4 12.6.9 18.2-1.5 13.4-1.5 13.4h-13.2l-11.4-19.7-11.4 19.6h-5.9l-3.3 4v13.4l-2.6 4.6h-6.6l-2 209.8h160.6l-1.8-209.8zm-121.4 102.1v8.5h-8.6v-8.5s-.5-4.6 4.3-7.3c4.8 2.7 4.3 7.3 4.3 7.3zm0-43.1v8.5h-8.6v-8.5s-.5-4.6 4.3-7.3c4.8 2.6 4.3 7.3 4.3 7.3zm0-54.2v8.5h-8.6v-8.5s-.5-4.6 4.3-7.3c4.8 2.7 4.3 7.3 4.3 7.3zm53.8-46.9 5-4.1 2.7 5.5v15.7l-7.7-1.8v-15.3zm-15.6-.5 4.8-5.5 4.8 5.5v15.8h-9.6v-15.8zm4.8 68.7c3 0 5.5 2.5 5.5 5.5s-2.5 5.5-5.5 5.5-5.5-2.5-5.5-5.5 2.5-5.5 5.5-5.5zm-18.6-66.8 2.7-5.5 5 4.1v15.3l-7.7 1.8v-15.7zm18.6 108.8c20.9 12.2 20.2 27.4 20.2 27.4v31.3h-40.5v-31.3c.1 0-.6-15.2 20.3-27.4zm26.2 107.2v32h-52.4v-32s-.5-21.4 26.2-35.1c26.7 13.7 26.2 35.1 26.2 35.1zm26.9-73.2v8.5h-8.7v-8.5s-.5-4.6 4.3-7.3c4.9 2.7 4.4 7.3 4.4 7.3zm0-43.1v8.5h-8.7v-8.5s-.5-4.6 4.3-7.3c4.9 2.6 4.4 7.3 4.4 7.3zm0-54.2v8.5h-8.7v-8.5s-.5-4.6 4.3-7.3c4.9 2.7 4.4 7.3 4.4 7.3zM2703.5-2662.5s-8.6-2.6-14.2-15.2c-6.3.2-11.4-7.7-8.2-9.2 5.4-2.6 1.8-4.3.1-4.6-5.2-1-1-12.9 4.1-14.9 3-1.1-1.5-10.4-21.1-11.1-19.7.8-24.1 10-21.1 11.1 5.1 1.9 9.3 13.8 4.1 14.9-1.8.4-5.4 2.1.1 4.6 3.2 1.5-1.9 9.5-8.2 9.2-5.6 12.7-14.2 15.3-14.2 15.3-5.5.1-13.7.2-13.7.2v200.8h106.2v-200.9c-.2 0-8.4-.1-13.9-.2zm-58.7 122-16-.1s-4.1-34 7.2-34.1c11 0 8.8 34.2 8.8 34.2zm.6-60.5-16-.1s-4.1-32.8 7.2-34.1c11.3-1.2 8.8 34.2 8.8 34.2zm25.9 60.5-16-.1s-4.1-30 7.2-34.1c10.7-3.8 8.8 34.2 8.8 34.2zm.5-60.5-16-.1s-2-35.4 9.3-34.1c10.6 1.2 6.7 34.2 6.7 34.2zm27 60.5-16-.1s-3.6-37.6 7.2-34.1c10.5 3.5 8.8 34.2 8.8 34.2zm.6-60.5-16-.1s.1-34.1 7.2-34.1c11.4.1 8.8 34.2 8.8 34.2zM2929.6-2641.1h-6.6v-12.5h-8.7v-11.2h-7.2v-10.5h-6.4v-12.7h-7.3v-11.5h-7.4v-11.2h-7v-10.3h-6.6v10.3h-7v11.2h-7.4v11.5h-7.3v12.7h-6.4v10.5h-7.2v11.2h-8.6v6h-4.7v-6h-8.7v-11.2h-7.2v-10.5h-6.4v-12.7h-7.3v-11.5h-7.4v-11.2h-7v-10.3H2771.4v10.3h-7v11.2h-7.4v11.5h-7.3v12.7h-6.4v10.5h-7.2v11.2h-8.6v11.8h-4.7v178.7h207.8l-1-178zm-161.5 123-18.4-.1s-4.7-39 8.3-39c12.7-.1 10.1 39.1 10.1 39.1zm0-61.7-18.4-.1s-4.7-39 8.3-39c12.7 0 10.1 39.1 10.1 39.1zm8.6-100.8c12.6 0 10.1 39.1 10.1 39.1l-18.4-.1c0 .1-4.7-38.9 8.3-39zm28.7 162.5-18.4-.1s-4.7-39 8.3-39c12.6-.1 10.1 39.1 10.1 39.1zm0-61.7-18.4-.1s-4.7-39 8.3-39c12.6 0 10.1 39.1 10.1 39.1zm62.8 61.7-18.4-.1s-4.7-39 8.3-39c12.6-.1 10.1 39.1 10.1 39.1zm0-61.7-18.4-.1s-4.7-39 8.3-39c12.6 0 10.1 39.1 10.1 39.1zm8.6-100.8c12.6 0 10.1 39.1 10.1 39.1l-18.4-.1c0 .1-4.7-38.9 8.3-39zm28.7 162.5-18.4-.1s-4.7-39 8.3-39c12.6-.1 10.1 39.1 10.1 39.1zm0-61.7-18.4-.1s-4.7-39 8.3-39c12.6 0 10.1 39.1 10.1 39.1z" class="st10"/></g><path id="Avant_plan_copy_2" d="M2441.5-2130.2h1512v-282.6H2441.9z" class="st11"/></g><g id="illu_nuit_tablet"><path id="Arrière_plan_copy_00000016783821478956678700000007340843510458585776_" d="M2780.9-1610.6h833.6v1193.3h-833.6z" class="st0"/><g id="Quatrième_plan_copy_00000073706240023635277080000008733985066472680368_"><path d="M3293.3-1138.7h3.4v5.1h-3.4zM3296.8-1138.8h3.4v5.1h-3.4zM3300.5-1138.7h3.4v5.1h-3.4zM3293.2-1133.1h3.4v5.1h-3.4zM3296.8-1133.1h3.4v5.1h-3.4zM3300.5-1133.1h3.4v5.1h-3.4z" class="st0"/><path d="M3293.2-1127.6h3.4v5.1h-3.4zM3296.8-1127.6h3.4v5.1h-3.4z" class="st3"/><path d="M3300.5-1127.6h3.4v5.1h-3.4z" class="st0"/><path d="M3311.1-1145h3.4v5.1h-3.4z" class="st3"/><path d="M3307.6-1138.5h3.4v5.1h-3.4zM3307.6-1133.1h3.4v5.1h-3.4zM3307.6-1127.8h3.4v5.1h-3.4zM3311.1-1138.5h3.4v5.1h-3.4zM3311.1-1133.1h3.4v5.1h-3.4zM3311.1-1127.8h3.4v5.1h-3.4zM3314.6-1138.5h3.4v5.1h-3.4zM3314.6-1133.1h3.4v5.1h-3.4zM3314.6-1127.8h3.4v5.1h-3.4z" class="st0"/><path d="M3484.5-1133c-54.3 12.2-110.2 18.2-166 17.2v-25c0-.4-.1-.7-.4-.7-.3 0-.6.4-.6.4v-1.5c-.4-.1-.4-.6-.4-.6s-.6.1-1-.3-.4-1-.4-1v-.2l.2-.1v-.2h-.2l-.2-.6h-.5c-.2-1-.9-1-.9-1v-.4l.1-.1v-.4l.2-.1.1-.2h-.4c-.4-.6-1.5-.5-1.5-.5s-1.1-.1-1.5.5h-.4l.1.2.2.1v.4l.1.1v.4s-.7 0-.9 1h-.5l-.2.6h-.2v.2l.2.1v.2s.1.6-.4 1c-.4.4-1 .3-1 .3s.1.4-.4.6v1.5s-.1-.4-.6-.4c-.4 0-.5.4-.4.7v24.7c-.9-.1-1.8-.1-2.6-.1v-23.6c-1.3-.1-1.3-1.8-1.3-1.8s.1-.1.2-.4c-.2-.1-.1-.6-.1-.6l.4-.6h-1.9c-.4 0-.4-.2-.6-.6-.4-.2-.4 0-.4-2.1s-2.2-2.4-2.2-2.4-2.3.2-2.2 2.4c0 2.1 0 2-.4 2.1-.1.3-.1.6-.6.6h-1.9l.4.6s.1.4-.1.6l.2.4s0 1.8-1.3 1.8v23.1c-65.4-3.7-130.1-17.2-191-41.4-40.6-16.1-79.6-36.9-121-50.5h.7l-54.8-50.7v-4.8l-2.9-2.2v-9.9l1.9-1.2-3-4.1h-.9l.9-2s.4-.6-.3-1.2c.6-.5 1.5-1.5 1.8-2.4.4-1.3-.6-2.4-1.6-2.6s-2 .3-2 .3-.9-1.1-2.3-.9c-1.5.2-3.9 1-5 .2s-2.5-2.9-2.8-3.4c-.2-.5-1.7-1.3-2.8-.8-1.1.5-1.5 1.5-1.8 2.5-.4 1-.4 1.8-.1 2.8.3.9 1.3 1.2 1.2 1.8-.1.7-.6 1.1-.6 1.1s-1.3 0-1.7.7c-.4.7.1 1.3.1 1.3s-.7 1-.3 1.9c.3.7.7.9 1.2.9l-2.9 4 2 1.2v9.9l-2.9 2.2v4l-39.7 37.5c-28.3 2.4-56.2 8.9-82.8 19l.1 420.2h925.6v-436.1c-68.9 39.1-142.8 69-220.1 86.4zm-170.4-1.2h-2.6v-4h2.6v4zm0 6.6v4h-2.6v-4h2.6zm0-5.3v4h-2.6v-4h2.6zm3.5 9.4h-2.6v-4h2.6v4zm-2.6-14.7h2.6v4h-2.6v-4zm0 5.3h2.6v4h-2.6v-4zm-2.3-12.1c1.3 0 1.5 3.8 1.5 3.8h-2.7s-.3-3.8 1.2-3.8zm-2.1 21.5h-2.6v-4h2.6v4zm-2.6-14.7h2.6v4h-2.6v-4zm0 5.3h2.6v4h-2.6v-4zm-4.8 9.4h-2.6v-4h2.6v4zm-2.6-14.7h2.6v4h-2.6v-4zm0 5.3h2.6v4h-2.6v-4zm-.9 9.4h-2.6v-4h2.6v4zm-2.5-14.7h2.6v4h-2.6v-4zm0 5.3h2.6v4h-2.6v-4zm-.9 5.3v4h-2.6v-4h2.6zm-2.6-10.6h2.6v4h-2.6v-4zm0 5.3h2.6v4h-2.6v-4zm-372.9-156.2s2.1-.6 2.4.9c.2 1.2-1 2.5-1.5 3-.6-.8-1.3-2.1-1.3-2.1l.4-1.8zm-12.5 7.5h-2.1c.1-.1.2-.1.3-.1 1.2-.2 1.7-1.3 1.2-2.2-.4-.8-1.2-.7-1.2-.7s-.5-.6.1-.9c.6-.2 1.3-.3 1.8-.2.4.1.9-.1 1 .4.1.6.1 1.3-.2 1.8-.3.4-.7 1.4-.9 1.9zm8.1 0h-7c.2-.4.6-1.3.9-1.8.4-.7.6-1.2.7-1.6.1-.4 2.4-.1 3.6-.5 1.2-.4 2.6-1.2 2.6-1.2s-.1 1.7.2 2.3c.4.6.5.7.1 1.2-.4.4-.9 1.2-1.1 1.6zm4.7-1.7c-.2.3-.6 1.2-.9 1.7h-2.6c.4-.5 1.3-1.4 1.2-1.7-.1-.3-.5-1.3-.1-1.8s1.3.2 1.7.6c.3.3 1 .8.7 1.2z" class="st4"/></g><g id="Troisième_plan_copy_00000000210573464584946990000008459589042243283627_"><path d="M2851.6-950.2h8.8v12h-8.8z" class="st0"/><path d="M2874.5-938.2h5.5v7.7h-5.5z" class="st8"/><path d="M2878.9-948.4h5.6v8.8h-5.6zM2882.6-956.8h5.5v6.6h-5.5zM2850.1-936.5h8.8v12h-8.8zM2850.8-922h8.8v12h-8.8zM2887.1-948.6h5.6v8.8h-5.6zM2883-938.2h5.5v7.7h-5.5zM2891.2-938.2h5.5v7.7h-5.5zM2874.8-927.5h5.5v7.7h-5.5zM2882.6-927.5h5.5v7.7h-5.5z" class="st0"/><path d="M2890.8-927.5h5.5v7.7h-5.5z" class="st8"/><path d="M3582.6-973.4c-10.2-3.1-20.4-5.6-30.8-7.6l1.6-36.5-9.6-.3.1-2.4-5.5-.2.5-13.7-1.2-.1.1-2.6-8.9-.3v-1l-1.4-.1v-1.2l-1.5-.1v-3.8l-.3-3.3c-.2 1.1-.4 2.1-.6 3.3-.2 1.1-.2 2.1-.2 3.3v.5l-2.1-.1v1.2l-1.4-.1v1l-8.2-.2-.1 2.7-2.1-.1-.5 15-9.7-.3-.1 3.2-1.6-.1.1-3.2-2.1-.1.2-3.6-15.4-.6-.1 2.2-1.4-.1-.2 3.8-2.9-.1.1-3.2-1.6-.1.1-2.7-17.4-.6.3-9.9-1.2-.1.1-3.2-3.4-.1-.1 2.1-2.5-.1-.1 1.2-.6 15.9-3-.1.5-14-2.7-.1.1-1.8-8.7-.3-.1 1.8-3-.1-.2 7.2-6.6-.2-.3 10.5-3.3-.1.1-2.7-3.3-.1-.1 2.7-2.1-.1-4.5-8.7c2.9-1.8 4.8-5 4.6-8.7-.2-4.3-3.1-7.9-7-9.1l.6-17.4c5.4-.5 9.5-5.1 9.3-10.6-.2-5.7-5-10.1-10.7-9.9-3 .1-5.7 1.5-7.4 3.6l-22.8-14c.4-1.2.6-2.4.6-3.6-.2-5.5-4.7-9.7-10.2-9.5s-9.7 4.7-9.5 10.2c.1 1.4.4 2.8 1 4l-21.6 15.1c-2-2-4.7-3.1-7.7-3.1-5.7.2-10.1 5-9.9 10.7.2 5.2 4.1 9.3 9.2 9.8l1.9 17.3c-4.2 1.2-7.2 5.2-7 9.7.1 3.3 1.8 6.1 4.3 7.8l-4.5 9.6-5.9.2-.5-15-2.1.1-.1-2.7-8.2.2v-1l-1.4.1v-1.2l-2.1.1v-.5c0-1.1-.1-2.1-.2-3.3-.2-1.1-.3-2.1-.6-3.3-.2 1.1-.3 2.2-.3 3.3-.1 1.1-.1 2.2 0 3.3v.5l-1.5.1v1.2l-1.4.1v1l-8.9.3.1 2.6-1.2.1.5 13.7-5.5.2.1 2.4-9.6.3 1.5 36c-13.1 2.2-26 4.6-38.9 7.4-102.5 21.5-202.1 59.3-306.4 67.4-11.6.9-23.3 1.4-35 1.7l-.2-46.6h-2.1v-4.3h-2v-4.3h-2.3v-3.3h-2v-3.4h-1.8c-.4-3.1-3.3-2.9-3.3-2.9s-2.9-.2-3.3 2.9h-1.8v3.4h-2v3.3h-2.3v4.3h-2v4.3h-2.1l.2 46.6c-1.2 0-2.6-.1-3.9-.1v-50.7s-8.1 1-8.5-10.7h-9.7c-.3 11.6-8.5 10.7-8.5 10.7v49.6c-57.3-3.6-114.5-13.1-171.3-22.5-103.6-17.3-211.3-36.3-305.1-80.7V-563l1249.1-15.7v-382.7c-10.4-4.5-21-8.6-31.9-12zm-731 24.6h7.4v8.3h-7.4v-8.3zm0 13.6h7.4v8.3h-7.4v-8.3zm0 13.6h7.4v8.3h-7.4v-8.3zm35.6.8h-3.6s-.7-5.8 1.8-5.9c2.4 0 1.8 5.9 1.8 5.9zm6.3-5.8c2.4-.1 1.8 5.9 1.8 5.9h-3.6c0-.1-.6-5.8 1.8-5.9zm.5-11.2c2.4-.1 1.8 5.9 1.8 5.9h-3.6c-.1 0-.7-5.8 1.8-5.9zm-4.1-10.6c2.4-.1 1.8 5.9 1.8 5.9h-3.6c0 .1-.6-5.8 1.8-5.9zm-5.4-7.7h2.4v4.5h-2.4v-4.5zm1.3 18.3c2.4-.1 1.8 5.9 1.8 5.9h-3.6s-.6-5.8 1.8-5.9zm-3.9-10.6c2.6.9 1.8 5.9 1.8 5.9h-3.6c0 .1-.8-6.7 1.8-5.9zm-4.4 10.6c2.4-.1 1.8 5.9 1.8 5.9h-3.6s-.6-5.8 1.8-5.9zm-.4 11.2c2.4-.1 1.8 5.9 1.8 5.9h-3.6c0-.1-.7-5.8 1.8-5.9zm469.1-101.1c.5-1.2.7-2.6.7-4 0-1-.2-1.9-.5-2.7l15.9-8.3c-.1.5-.1 1-.1 1.5.2 4.8 3.5 8.8 7.8 10.1l-1.3 12.6-9.7.3-12.8-9.5zm16.2-19-17.7 9.1c-1.7-2.1-4.1-3.5-6.9-3.6l-1.8-17.1c2-.5 3.7-1.5 5-3l21.4 14.6zm11.6 18.1-1.2.1-1.5-.7.1-.8 2.6-.1v1.5zm-2.9.7 1.2 3.5.7-.4.1 2.7-.7-2.3-1.6 1 .3-4.5zm-.5 4.7 2.4 1.4.1 3.2-3 .1.5-4.7zm26.6-4.3-3 .1-.1-1.8-8.7.3.1 1.8-2.7.1.4 12.5-2 1.7h-1l-.6-15.9-.1-1.2-2.5.1-.1-1.7c4-1.7 6.9-5.8 6.8-10.4 0-.2 0-.5-.1-.7l15.1 7c-.1.7-.2 1.4-.2 2.1.1 1.8.6 3.5 1.5 4.9l-3.1 2.6.3-1.5zm7-35.8c1.2 1.2 2.7 1.9 4.4 2.3l-.6 17.3c-3.3.2-6.1 2.1-7.7 4.7l-17.1-8 21-16.3zm-2.8-11.4c-.5 1.2-.7 2.6-.7 4 .1 1.7.5 3.1 1.2 4.5l-21.4 16.7c-1.6-1.5-3.6-2.6-5.9-2.9l-1.2-33c2.1-.5 3.9-1.7 5.2-3.2l22.8 13.9zm-36.9-13.1c1.5 1.4 3.4 2.3 5.5 2.6l1.2 33c-2.4.4-4.5 1.6-6 3.3L3343-1064c.6-1.4.9-2.9.9-4.5-.1-1.4-.4-2.8-1-4l21.6-15.3zm-27.1 66.3c2.7-.1 5.1-1.3 6.9-3.1l11.5 8.6v.8l-1.6.1.1 3.2-2.9.1-.2-3.8-1.4.1-.1-2.2-15.4.6.2 3.6-2.1.1.1 3.2-1.6.1-.1-2.9 3.9-8.3c1-.3 1.8-.2 2.7-.2zm76.8 11-3.3.1-.1-2.7-3.3.1.1 2.7-3.3.1-.3-10.5-6.6.2-.1-1.3 5.4-4.5c1.7 1.3 4 2.1 6.3 2 .5 0 1.1-.1 1.6-.2l6.4 12.4-.8 23.5h-1.1l-.9-21.9z" class="st7"/></g><g id="Deuxième_plan_copy_00000103258406185639985620000006997729673865598337_"><path d="M2780.7-417.2h833.8v-222h-833.6z" class="st13"/><path d="M2801.1-846.9h18.9v25.8h-18.9zM2832.1-881.3h9.3v28.9h-9.3zM2920.9-821.1h22.7v45.9h-22.7z" class="st8"/><path d="M3010.6-804h33.9v43.2h-33.9zM3033.1-852.4h22.9v42.5h-22.9z" class="st0"/><path d="M3102.1-841.5h42.5v20.6h-42.5z" class="st0" transform="rotate(-76.161 3123.308 -831.212)"/><path d="M2843.2-884h9.3v28.9h-9.3zM2854.8-883.2h9.3v28.9h-9.3z" class="st8"/><path d="M2838.5-828.7h18.9v25.8h-18.9zM2875.8-846.4h18.9v25.8h-18.9zM2876.2-807.7h18.9v25.8h-18.9zM2877.9-772.2h18.9v25.8h-18.9zM2797.9-807.7h18.9v25.8h-18.9zM2800.6-772.7h18.9v25.8h-18.9zM2827-793h43.3v55.9H2827zM2826.3-733h43.3v55.9h-43.3zM2943.3-823.4h22.7v45.9h-22.7zM2969.8-824h22.7v45.9h-22.7zM2920.9-772.2h22.7v45.9h-22.7z" class="st0"/><path d="M2945-772.2h22.7v45.9H2945zM2969.8-772.2h22.7v45.9h-22.7z" class="st8"/><path d="M3047.6-809.3h22.9v42.5h-22.9zM3018.4-752.7h22.9v42.5h-22.9zM3048.8-754h22.9v42.5h-22.9zM3093.9-804.7h22.9v42.5h-22.9z" class="st0"/><path d="M3126.3-806.7h22.9v42.5h-22.9z" class="st8"/><path d="M3093.9-755.3h22.9v42.5h-22.9zM3126.3-756.4h22.9v42.5h-22.9z" class="st0"/><path d="m2781.1-417.3 833.4-2.4v-259.4h-833.4z" class="st10"/><path d="M2909.5-841.6h-5.1l-2-3.6v-10.5l-2.6-3.1h-4.6l-9.4-17.8-8.7 17.8-10.1-.1s-.7-6-1.2-10.4.7-14.3.7-14.3h-2.4v-5.8s4.5-10.8 4.3-21.3c-.2-10.4-9.7-21.8-10.7-24 1.7-1.3 1.2-3.6.8-4.2-.4-.6-1.6-3.2-2.2-7.8 0 0-.6-9 .6-11.8 1.3-2.7.9-3.5-1.6-6-2.5-2.4-2.4-3.2-.6-7s.7-7.9-2.6-10.9c-3.7-3.4-4.2-45.8-4.2-45.8s0 42.7-4.2 45.8c-3.6 2.7-4.2 7.1-2.6 10.9 1.6 3.8 1.8 4.6-.6 7-2.4 2.4-2.8 3.2-1.6 6 1.3 2.7.6 11.8.6 11.8-.5 4.6-1.7 7.1-2.2 7.8-.4.6-1 3 .8 4.2-1 2.2-10.5 13.5-10.7 24s4.3 21.3 4.3 21.3v5.8h-2.4s1.1 9.9.7 14.3c-.4 4.4-1.2 10.5-1.2 10.5h-10.4l-8.8-15.5-9 15.4h-4.6l-2.6 3.1v10.5l-2 3.6h-5.2l-1.6 164.8h126.2l-1.3-164.7zm-95.3 80.2v6.7h-6.8v-6.7s-.4-3.6 3.4-5.7c3.8 2.1 3.4 5.7 3.4 5.7zm0-33.8v6.7h-6.8v-6.7s-.4-3.6 3.4-5.7c3.8 2 3.4 5.7 3.4 5.7zm0-42.5v6.7h-6.8v-6.7s-.4-3.6 3.4-5.7c3.8 2 3.4 5.7 3.4 5.7zm42.2-37 3.9-3.2 2.1 4.3v12.3l-6-1.4v-12zm-12.2-.4 3.8-4.3 3.8 4.3v12.3h-7.6v-12.3zm3.7 54c2.4 0 4.3 2 4.3 4.3s-2 4.3-4.3 4.3-4.3-2-4.3-4.3 2-4.3 4.3-4.3zm-14.6-52.5 2.1-4.3 3.9 3.2v11.9l-6 1.4v-12.2zm14.6 85.5c16.4 9.6 15.9 21.5 15.9 21.5v24.6H2832.1v-24.6s-.6-11.9 15.8-21.5zm20.6 84.2v25.1h-41.2v-25.1s-.4-16.8 20.6-27.6c21 10.8 20.6 27.6 20.6 27.6zm21.2-57.5v6.7h-6.9v-6.7s-.4-3.6 3.4-5.7c3.9 2.1 3.5 5.7 3.5 5.7zm0-33.8v6.7h-6.9v-6.7s-.4-3.6 3.4-5.7c3.9 2 3.5 5.7 3.5 5.7zm0-42.5v6.7h-6.9v-6.7s-.4-3.6 3.4-5.7c3.9 2 3.5 5.7 3.5 5.7zM2986.5-835.4s-6.8-2-11.2-11.9c-4.9.2-9-6-6.4-7.2 4.2-2 1.4-3.4.1-3.6-4.1-.8-.8-10.1 3.2-11.7 2.4-.9-1.2-8.2-16.6-8.7-15.5.6-18.9 7.9-16.6 8.7 4 1.5 7.3 10.8 3.2 11.7-1.4.3-4.2 1.6.1 3.6 2.5 1.2-1.5 7.5-6.4 7.2-4.4 10-11.2 12-11.2 12-4.3.1-10.8.2-10.8.2v157.7h83.4v-157.8s-6.5-.1-10.8-.2zm-46.1 95.8-12.6-.1s-3.2-26.7 5.7-26.8c8.6.1 6.9 26.9 6.9 26.9zm.4-47.4-12.6-.1s-3.2-25.8 5.7-26.8 6.9 26.9 6.9 26.9zm20.4 47.4-12.6-.1s-3.2-23.6 5.7-26.8c8.4-2.9 6.9 26.9 6.9 26.9zm.4-47.4-12.6-.1s-1.6-27.8 7.3-26.8c8.4 1 5.3 26.9 5.3 26.9zm21.2 47.4-12.6-.1s-2.8-29.5 5.7-26.8c8.3 2.8 6.9 26.9 6.9 26.9zm.5-47.4-12.6-.1s.1-26.8 5.7-26.8c8.9.1 6.9 26.9 6.9 26.9zM3164.1-818.6h-5.2v-9.8h-6.8v-8.8h-5.6v-8.2h-5v-10.1h-5.7v-9h-5.8v-8.8h-5.5v-8.1h-5.2v8.1h-5.5v8.8h-5.8v9h-5.7v10h-5v8.2h-5.8v8.8h-6.8v4.7h-3.7v-4.7h-6.8v-8.8h-5.7v-8.2h-5v-10h-5.7v-9h-5.8v-8.8h-5.5v-8.1h-6.6v8.1h-5.5v8.8h-5.8v9h-5.7v10h-5v8.2h-5.8v8.8h-6.7v9.3h-3.7v140.5h163.2l-.8-139.9zM3037.3-722l-14.5-.1s-3.7-30.6 6.5-30.6c9.9 0 8 30.7 8 30.7zm0-48.3-14.5-.1s-3.7-30.6 6.5-30.6c9.9-.1 8 30.7 8 30.7zm6.7-79.2c9.9 0 7.9 30.7 7.9 30.7l-14.4-.1s-3.7-30.6 6.5-30.6zm22.6 127.5-14.5-.1s-3.7-30.6 6.5-30.6c9.9 0 8 30.7 8 30.7zm0-48.3-14.5-.1s-3.7-30.6 6.5-30.6c9.9-.1 8 30.7 8 30.7zm49.3 48.3h-14.4s-3.7-30.6 6.5-30.6c9.9-.1 7.9 30.6 7.9 30.6zm0-48.3-14.4-.1s-3.7-30.6 6.5-30.6c9.9-.1 7.9 30.7 7.9 30.7zm6.8-79.2c9.9 0 7.9 30.7 7.9 30.7l-14.5-.1s-3.6-30.6 6.6-30.6zm22.5 127.5-14.5-.1s-3.7-30.6 6.5-30.6c10 0 8 30.7 8 30.7zm0-48.3-14.5-.1s-3.7-30.6 6.5-30.6c10-.1 8 30.7 8 30.7z" class="st10"/></g><path id="Avant_plan_copy_00000081629695628892210180000015747147752892990116_" d="M2781.4-418.5h833.1v-229.4h-832.8z" class="st11"/></g><g id="illu_jour_desktop"><path id="Arrière_plan_copy" d="M-564.2-3112.3H944.2v982H-564.2z" class="st14"/><g id="Quatrième_plan_copy"><path d="M275.8-2713.8h5.5v8.4h-5.5zM281.5-2713.9h5.5v8.4h-5.5zM287.5-2713.8h5.5v8.4h-5.5zM275.6-2704.7h5.5v8.4h-5.5zM281.5-2704.7h5.5v8.4h-5.5zM287.5-2704.7h5.5v8.4h-5.5zM275.6-2695.7h5.5v8.4h-5.5zM281.5-2695.7h5.5v8.4h-5.5zM287.5-2695.7h5.5v8.4h-5.5zM304.9-2724h5.5v8.4h-5.5zM299.2-2713.5h5.5v8.4h-5.5zM299.2-2704.7h5.5v8.4h-5.5zM299.2-2696h5.5v8.4h-5.5zM304.9-2713.5h5.5v8.4h-5.5zM304.9-2704.7h5.5v8.4h-5.5zM304.9-2696h5.5v8.4h-5.5zM310.6-2713.5h5.5v8.4h-5.5zM310.6-2704.7h5.5v8.4h-5.5zM310.6-2696h5.5v8.4h-5.5z" class="st14"/><path d="M588.2-2704.4c-88.7 20-180.1 29.7-271.1 28.1v-40.8c0-.6-.1-1.1-.7-1.1s-.9.6-.9.6v-2.4c-.6-.2-.6-.9-.6-.9s-1 .1-1.6-.5-.6-1.7-.6-1.7v-.4l.3-.1v-.4h-.4l-.3-.9h-.8c-.3-1.6-1.5-1.6-1.5-1.6v-.7l.2-.2v-.7l.4-.2.1-.4h-.7c-.7-.9-2.5-.8-2.5-.8s-1.8-.1-2.5.8h-.7l.1.4.4.2v.7l.2.2v.7s-1.2 0-1.5 1.6h-.8l-.3.9h-.4v.4l.3.1v.4s.1 1-.6 1.7-1.6.5-1.6.5.1.7-.6.9v2.4s-.2-.6-.9-.6-.8.6-.7 1.1v40.3c-1.4-.1-2.9-.1-4.3-.2v-38.6c-2.2-.1-2.2-3-2.2-3s.1-.1.3-.6c-.4-.2-.2-.9-.2-.9l.7-1h-3.1c-.7 0-.7-.4-.9-.9-.6-.3-.6 0-.6-3.5s-3.6-3.9-3.6-3.9-3.7.4-3.6 3.9c0 3.5 0 3.2-.6 3.5-.2.5-.1.9-.9.9h-3.1l.7 1s.2.7-.2.9l.3.6s0 3-2.2 3v37.7c-106.9-6.1-212.5-28.1-312-67.6-66.4-26.3-130-60.3-197.6-82.5h1.1l-89.6-82.8v-7.9l-4.7-3.6v-16.1l3.1-2-4.9-6.7h-1.5l1.5-3.3s.7-.9-.5-1.9c.9-.8 2.5-2.4 2.9-4 .7-2.2-.9-4-2.6-4.3-1.7-.3-3.2.5-3.2.5s-1.4-1.8-3.8-1.5c-2.4.3-6.4 1.7-8.2.3-1.8-1.3-4.1-4.8-4.6-5.6-.4-.8-2.7-2.1-4.5-1.3s-2.5 2.5-3 4.1c-.6 1.7-.7 2.9-.2 4.5.5 1.5 2.1 1.9 2 3s-.9 1.8-.9 1.8-2.1 0-2.8 1.1.2 2.2.2 2.2-1.1 1.6-.5 3.1c.5 1.1 1.1 1.5 2 1.5l-4.8 6.6 3.2 2v16.1l-4.7 3.6v6.6l-64.9 61.3c-46.2 4-91.8 14.5-135.2 31l.1 686.4h1512v-712.4c-112.6 63.9-233.4 112.8-359.6 141.3zm-278.5-2h-4.2v-6.6h4.2v6.6zm.1 10.8v6.6h-4.2v-6.6h4.2zm-.1-8.7v6.6h-4.2v-6.6h4.2zm5.7 15.3h-4.2v-6.6h4.2v6.6zm-4.2-24h4.2v6.6h-4.2v-6.6zm0 8.7h4.2v6.6h-4.2v-6.6zm-3.8-19.7c2.2 0 2.4 6.2 2.4 6.2h-4.3s-.4-6.2 1.9-6.2zm-3.4 35h-4.2v-6.6h4.2v6.6zm-4.2-24h4.2v6.6h-4.2v-6.6zm0 8.7h4.2v6.6h-4.2v-6.6zM292-2689h-4.2v-6.6h4.2v6.6zm-4.3-24h4.2v6.6h-4.2v-6.6zm0 8.7h4.2v6.6h-4.2v-6.6zm-1.4 15.3h-4.2v-6.6h4.2v6.6zm-4.2-24h4.2v6.6h-4.2v-6.6zm0 8.7h4.2v6.6h-4.2v-6.6zm-1.5 8.7v6.6h-4.2v-6.6h4.2zm-4.2-17.4h4.2v6.6h-4.2v-6.6zm0 8.7h4.2v6.6h-4.2v-6.6zm-609.1-255.1s3.4-1 3.9 1.4c.3 1.9-1.6 4.1-2.4 4.9-1-1.3-2.1-3.4-2.1-3.4l.6-2.9zm-20.5 12.2h-3.4c.2-.1.3-.1.5-.1 1.9-.4 2.7-2.2 2-3.6-.7-1.3-2-1.1-2-1.1s-.8-1 .2-1.5c1-.4 2.2-.5 2.9-.4s1.5-.2 1.6.7.2 2.2-.3 3c-.5.5-1.2 2.1-1.5 3zm13.2 0h-11.5c.3-.7 1-2.1 1.4-3 .6-1.2.9-1.9 1.1-2.6.2-.7 3.9-.1 5.9-.8s4.2-2 4.2-2-.2 2.7.4 3.7c.7 1 .8 1.2.2 2-.4.7-1.3 2.1-1.7 2.7zm7.8-2.8c-.3.5-1 1.9-1.5 2.8h-4.2c.7-.8 2.1-2.3 1.9-2.7-.2-.5-.8-2.2-.1-3s2.1.3 2.7.9c.5.5 1.6 1.3 1.2 2z" class="st13"/></g><g id="Troisième_plan_copy"><path d="M24.3-2628.5H35v14.5H24.3zM52.1-2614h6.6v9.3h-6.6zM57.4-2626.3h6.8v10.6h-6.8zM61.9-2636.5h6.6v8h-6.6zM22.5-2612h10.7v14.5H22.5zM23.4-2594.4h10.7v14.5H23.4zM67.3-2626.6h6.8v10.6h-6.8zM62.4-2614H69v9.3h-6.6zM72.3-2614h6.6v9.3h-6.6zM52.4-2601.1H59v9.3h-6.6zM61.9-2601.1h6.6v9.3h-6.6zM71.8-2601.1h6.6v9.3h-6.6z" class="st14"/><path d="M909.2-2656.6c-12.3-3.8-24.7-6.8-37.3-9.2l1.9-44.2-11.6-.4.1-2.9-6.6-.2.6-16.6-1.5-.1.1-3.1-10.8-.4v-1.2l-1.7-.1v-1.4l-1.8-.1v-4.6c-.1-1.3-.2-2.7-.4-4-.3 1.3-.5 2.6-.7 4-.2 1.3-.3 2.6-.3 4v.6l-2.6-.1v1.4l-1.7-.1v1.2l-9.9-.3-.1 3.3-2.5-.1-.6 18.2-11.8-.4-.1 3.9-1.9-.1.1-3.9-2.5-.1.2-4.3-18.6-.7-.1 2.7-1.7-.1-.2 4.6-3.5-.1.1-3.9-1.9-.1.1-3.3-21.1-.7.4-12-1.5-.1.1-3.9-4.1-.1-.1 2.5-3-.1-.1 1.5-.7 19.2-3.6-.1.6-17-3.3-.1.1-2.2-10.5-.4-.1 2.2-3.6-.1-.3 8.7-8-.3-.4 12.7-4-.1.1-3.3-4-.1-.1 3.3-2.5-.1-5.4-10.5c3.5-2.2 5.8-6.1 5.6-10.5-.2-5.2-3.8-9.6-8.5-11l.7-21.1c6.5-.6 11.5-6.2 11.3-12.8-.2-6.9-6-12.2-12.9-12-3.6.1-6.9 1.8-9 4.4l-27.6-17c.5-1.4.7-2.9.7-4.4-.2-6.6-5.7-11.7-12.3-11.5s-11.7 5.7-11.5 12.3c.1 1.7.5 3.4 1.2 4.8l-26.2 18.3c-2.4-2.4-5.7-3.8-9.3-3.7-6.9.2-12.2 6-12 12.9.2 6.3 5 11.3 11.1 11.9l2.3 20.9c-5.1 1.5-8.7 6.3-8.5 11.8.1 4 2.2 7.4 5.2 9.4l-5.4 11.6-7.2.3-.6-18.2-2.5.1-.1-3.3-9.9.3v-1.2l-1.7.1v-1.4l-2.6.1v-.6c0-1.3-.1-2.6-.3-4-.2-1.3-.4-2.6-.7-4-.3 1.3-.4 2.7-.4 4-.1 1.3-.1 2.7 0 4v.6l-1.8.1v1.4l-1.7.1v1.2l-10.8.4.1 3.1-1.5.1.6 16.6-6.6.2.1 2.9-11.6.4 1.8 43.6c-15.8 2.7-31.5 5.6-47.1 8.9-124.1 26-244.6 71.8-370.9 81.6-14.1 1.1-28.2 1.7-42.4 2l-.2-56.4h-2.5v-5.2h-2.4v-5.2h-2.8v-4h-2.4v-4.1h-2.2c-.5-3.8-4-3.5-4-3.5s-3.5-.3-4 3.5h-2.2v4.1h-2.4v4h-2.8v5.2h-2.4v5.2h-2.5l.2 56.4c-1.5 0-3.1-.1-4.7-.1v-61.4s-9.8 1.2-10.3-12.9H22.7c-.4 14.1-10.3 12.9-10.3 12.9v60c-69.4-4.3-138.6-15.8-207.3-27.2-125.4-20.9-255.8-44-369.3-97.7v532.7l1512-18.9v-463.3c-12.6-5.5-25.4-10.4-38.6-14.5zm-884.9 29.7h8.9v10h-8.9v-10zm0 16.5h8.9v10h-8.9v-10zm0 16.5h8.9v10h-8.9v-10zm43.1 1h-4.3s-.8-7 2.2-7.1c2.8-.1 2.1 7.1 2.1 7.1zm7.7-7.1c2.9-.1 2.2 7.1 2.2 7.1H73c-.1 0-.9-7 2.1-7.1zm.5-13.5c2.9-.1 2.2 7.1 2.2 7.1h-4.3c-.1 0-.9-7 2.1-7.1zm-4.9-12.8c2.9-.1 2.2 7.1 2.2 7.1h-4.3c-.1.1-.8-7 2.1-7.1zm-6.5-9.4h2.9v5.5h-2.9v-5.5zm1.5 22.2c2.9-.1 2.2 7.1 2.2 7.1h-4.3c-.1 0-.8-7 2.1-7.1zm-4.7-12.8c3.1 1.1 2.2 7.1 2.2 7.1h-4.4c0 .1-.9-8.1 2.2-7.1zm-5.3 12.8c2.9-.1 2.2 7.1 2.2 7.1h-4.3c-.1 0-.8-7 2.1-7.1zm-.5 13.5c2.9-.1 2.2 7.1 2.2 7.1h-4.3c-.1 0-.9-7 2.1-7.1zM623-2722.3c.6-1.5.9-3.1.9-4.9 0-1.2-.3-2.3-.6-3.3l19.3-10c-.1.6-.1 1.2-.1 1.8.2 5.8 4.2 10.6 9.5 12.2l-1.6 15.3-11.8.4-15.6-11.5zm19.6-23-21.4 11c-2-2.5-5-4.2-8.4-4.4l-2.2-20.7c2.4-.6 4.5-1.8 6.1-3.6l25.9 17.7zm14.1 21.9-1.5.1-1.8-.9.1-1 3.2-.1v1.9zm-3.5.8 1.4 4.2.8-.5.1 3.3-.9-2.8-1.9 1.2.5-5.4zm-.6 5.7 2.9 1.7.1 3.9-3.6.1.6-5.7zm32.2-5.2-3.6.1-.1-2.2-10.5.4.1 2.2-3.3.1.5 15.1-2.4 2h-1.2l-.7-19.2-.1-1.5-3 .1-.1-2.1c4.9-2 8.4-7 8.2-12.6 0-.3 0-.6-.1-.9l18.3 8.5c-.1.8-.2 1.7-.2 2.5.1 2.2.7 4.2 1.8 5.9l-3.8 3.2.2-1.6zm8.4-43.4c1.5 1.4 3.3 2.3 5.3 2.8l-.7 21c-4 .3-7.4 2.5-9.3 5.7l-20.7-9.7 25.4-19.8zm-3.3-13.7c-.6 1.5-.9 3.1-.8 4.8.1 2 .6 3.8 1.5 5.4l-25.9 20.2c-1.9-1.8-4.4-3.1-7.2-3.5l-1.4-40c2.5-.6 4.7-2 6.3-3.9l27.5 17zm-44.7-15.9c1.8 1.7 4.1 2.8 6.6 3.1l1.4 39.9c-2.9.5-5.4 1.9-7.3 4l-26.9-18.3c.7-1.7 1.1-3.5 1.1-5.5-.1-1.7-.5-3.4-1.2-4.9l26.3-18.3zm-32.8 80.2c3.3-.1 6.2-1.6 8.3-3.8l13.9 10.4v1l-1.9.1.1 3.9-3.5.1-.2-4.6-1.7.1-.1-2.7-18.6.7.2 4.3-2.5.1.1 3.9-1.9.1-.1-3.5 4.7-10.1c1.1-.1 2.1 0 3.2 0zm93 13.4-4 .1-.1-3.3-4 .1.1 3.3-4 .1-.4-12.7-8 .3-.1-1.6 6.5-5.4c2.1 1.6 4.8 2.5 7.6 2.4.6 0 1.3-.1 1.9-.2l7.7 15-1 28.5h-1.3l-.9-26.6z" class="st16"/></g><g id="Deuxième_plan_copy"><path d="M-564.2-2130.3h1512v-282.6H-563.8z" class="st13"/><path d="M-538.2-2677.2h24v32.8h-24zM-498.8-2721.1h11.9v36.8h-11.9zM-385.8-2644.4h28.9v58.4h-28.9zM-271.5-2622.7h43.2v55h-43.2zM-242.9-2684.3h29.2v54.1h-29.2z" class="st14"/><path d="M-155.4-2670.1h54.1v26.2h-54.1z" class="st14" transform="rotate(-76.161 -128.323 -2656.919)"/><path d="M-484.6-2724.5h11.9v36.8h-11.9zM-469.9-2723.4h11.9v36.8h-11.9zM-490.6-2654.1h24v32.8h-24zM-443.1-2676.6h24v32.8h-24zM-442.6-2627.3h24v32.8h-24zM-440.5-2582.1h24v32.8h-24zM-542.3-2627.3h24v32.8h-24zM-538.9-2582.8h24v32.8h-24zM-505.3-2608.6h55.1v71.1h-55.1zM-506.2-2532.3h55.1v71.1h-55.1zM-357.2-2647.3h28.9v58.4h-28.9zM-323.5-2648.1h28.9v58.4h-28.9zM-385.8-2582.1h28.9v58.4h-28.9zM-355.1-2582.1h28.9v58.4h-28.9zM-323.5-2582.1h28.9v58.4h-28.9zM-224.4-2629.4h29.2v54.1h-29.2zM-261.6-2557.4h29.2v54.1h-29.2zM-222.9-2559h29.2v54.1h-29.2zM-165.5-2623.5h29.2v54.1h-29.2zM-124.3-2626.1h29.2v54.1h-29.2zM-165.5-2560.6h29.2v54.1h-29.2zM-124.3-2562.1h29.2v54.1h-29.2z" class="st14"/><path d="m-563.7-2130.4 1512-3v-330.3h-1512z" class="st17"/><path d="M-400.3-2670.5h-6.5l-2.6-4.6v-13.4l-3.3-4h-5.9l-12-22.7-11.1 22.7-12.9-.1s-.9-7.6-1.5-13.2.9-18.2.9-18.2h-3v-7.4s5.7-13.7 5.5-27.1c-.2-13.3-12.4-27.7-13.6-30.5 2.2-1.6 1.5-4.6 1-5.4s-2-4.1-2.8-9.9c0 0-.8-11.5.8-15s1.2-4.5-2-7.6-3-4.1-.8-8.9c2.2-4.8.9-10-3.3-13.9-4.7-4.3-5.3-58.3-5.3-58.3s0 54.3-5.3 58.3c-4.6 3.4-5.4 9-3.3 13.9 2.1 4.8 2.3 5.8-.8 8.9-3.1 3.1-3.6 4.1-2 7.6s.8 15 .8 15c-.7 5.8-2.2 9.1-2.8 9.9-.5.8-1.3 3.8 1 5.4-1.3 2.8-13.4 17.2-13.6 30.5s5.5 27.1 5.5 27.1v7.4h-3s1.4 12.6.9 18.2c-.5 5.6-1.5 13.4-1.5 13.4H-516l-11.2-19.7-11.4 19.6h-5.9l-3.3 4v13.4l-2.6 4.6h-6.6l-2 209.8h160.6l-1.9-209.8zm-121.3 102.1v8.5h-8.6v-8.5s-.5-4.6 4.3-7.3c4.8 2.7 4.3 7.3 4.3 7.3zm0-43.1v8.5h-8.6v-8.5s-.5-4.6 4.3-7.3c4.8 2.7 4.3 7.3 4.3 7.3zm0-54.1v8.5h-8.6v-8.5s-.5-4.6 4.3-7.3c4.8 2.7 4.3 7.3 4.3 7.3zm53.8-47 5-4.1 2.7 5.5v15.7l-7.7-1.8v-15.3zm-15.6-.5 4.8-5.5 4.8 5.5v15.7h-9.6v-15.7zm4.8 68.7c3 0 5.5 2.5 5.5 5.5s-2.5 5.5-5.5 5.5-5.5-2.5-5.5-5.5 2.5-5.5 5.5-5.5zm-18.6-66.8 2.7-5.5 5 4.1v15.2l-7.7 1.8v-15.6zm18.6 108.8c20.9 12.2 20.2 27.4 20.2 27.4v31.3h-40.5v-31.3c.1 0-.6-15.2 20.3-27.4zm26.2 107.2v32h-52.4v-32s-.5-21.4 26.2-35.1c26.7 13.7 26.2 35.1 26.2 35.1zm26.9-73.2v8.5h-8.7v-8.5s-.5-4.6 4.3-7.3c4.9 2.7 4.4 7.3 4.4 7.3zm0-43.1v8.5h-8.7v-8.5s-.5-4.6 4.3-7.3c4.9 2.7 4.4 7.3 4.4 7.3zm0-54.1v8.5h-8.7v-8.5s-.5-4.6 4.3-7.3c4.9 2.7 4.4 7.3 4.4 7.3zM-302.2-2662.6s-8.6-2.6-14.2-15.2c-6.3.2-11.4-7.7-8.2-9.2 5.4-2.6 1.8-4.3.1-4.6-5.2-1-1-12.9 4.1-14.9 3-1.1-1.5-10.4-21.1-11.1-19.7.8-24.1 10-21.1 11.1 5.1 1.9 9.3 13.8 4.1 14.9-1.8.4-5.4 2.1.1 4.6 3.2 1.5-1.9 9.5-8.2 9.2-5.6 12.7-14.2 15.3-14.2 15.3-5.5.1-13.7.2-13.7.2v200.8h106.2v-200.9c-.2 0-8.4-.1-13.9-.2zm-58.7 122-16-.1s-4.1-34 7.2-34.1c11 0 8.8 34.2 8.8 34.2zm.5-60.4-16-.1s-4.1-32.8 7.2-34.1c11.4-1.3 8.8 34.2 8.8 34.2zm26 60.4-16-.1s-4.1-30 7.2-34.1c10.7-3.8 8.8 34.2 8.8 34.2zm.5-60.4-16-.1s-2-35.4 9.3-34.1c10.6 1.2 6.7 34.2 6.7 34.2zm27 60.4-16-.1s-3.6-37.6 7.2-34.1c10.5 3.5 8.8 34.2 8.8 34.2zm.6-60.4-16-.1s.1-34.1 7.2-34.1c11.4.1 8.8 34.2 8.8 34.2zM-76.1-2641.2h-6.6v-12.5h-8.7v-11.2h-7.2v-10.5h-6.4v-12.8h-7.3v-11.5h-7.4v-11.2h-7v-10.3h-6.6v10.3h-7v11.2h-7.4v11.5h-7.3v12.7h-6.4v10.5h-7.2v11.2h-8.7v6h-4.7v-6h-8.7v-11.2h-7.2v-10.5h-6.3v-12.7h-7.3v-11.5h-7.4v-11.2h-7v-10.3H-234.3v10.3h-7v11.2h-7.4v11.5h-7.3v12.7h-6.4v10.5h-7.2v11.2h-8.6v11.8h-4.7v178.8h207.8l-1-178zm-161.5 123-18.4-.1s-4.7-39 8.3-39c12.6 0 10.1 39.1 10.1 39.1zm0-61.6-18.4-.1s-4.7-39 8.3-39c12.6-.1 10.1 39.1 10.1 39.1zm8.6-100.8c12.6 0 10.1 39.1 10.1 39.1l-18.4-.1s-4.7-39 8.3-39zm28.7 162.4-18.4-.1s-4.7-39 8.3-39c12.6 0 10.1 39.1 10.1 39.1zm0-61.6-18.4-.1s-4.7-39 8.3-39c12.6-.1 10.1 39.1 10.1 39.1zm62.8 61.6-18.4-.1s-4.7-39 8.3-39c12.6 0 10.1 39.1 10.1 39.1zm0-61.6-18.4-.1s-4.7-39 8.3-39c12.6-.1 10.1 39.1 10.1 39.1zm8.6-100.8c12.6 0 10.1 39.1 10.1 39.1l-18.4-.1s-4.7-39 8.3-39zm28.7 162.4-18.4-.1s-4.7-39 8.3-39c12.6 0 10.1 39.1 10.1 39.1zm0-61.6-18.4-.1s-4.7-39 8.3-39c12.6-.1 10.1 39.1 10.1 39.1z" class="st17"/></g><path id="Avant_plan_copy" d="M-563.7-2130.3h1512v-282.6H-563.2z" class="st18"/></g><g id="illu_jour_tablet"><path id="Arrière_plan_copy_00000167376122147730640700000005967936916494333323_" d="M-224.8-1676.9h833.6v1193.3h-833.6z" class="st14"/><g id="Quatrième_plan_copy_00000106843499919829063590000003240203057708119442_"><path d="M287.6-1205h3.4v5.1h-3.4zM291.1-1205.1h3.4v5.1h-3.4zM294.8-1205h3.4v5.1h-3.4zM287.5-1199.4h3.4v5.1h-3.4zM291.1-1199.4h3.4v5.1h-3.4zM294.8-1199.4h3.4v5.1h-3.4zM287.5-1193.9h3.4v5.1h-3.4zM291.1-1193.9h3.4v5.1h-3.4zM294.8-1193.9h3.4v5.1h-3.4zM305.4-1211.3h3.4v5.1h-3.4zM301.9-1204.8h3.4v5.1h-3.4zM301.9-1199.4h3.4v5.1h-3.4zM301.9-1194.1h3.4v5.1h-3.4zM305.4-1204.8h3.4v5.1h-3.4zM305.4-1199.4h3.4v5.1h-3.4zM305.4-1194.1h3.4v5.1h-3.4zM308.9-1204.8h3.4v5.1h-3.4zM308.9-1199.4h3.4v5.1h-3.4zM308.9-1194.1h3.4v5.1h-3.4z" class="st14"/><path d="M478.8-1199.3c-54.3 12.2-110.2 18.2-166 17.2v-25c0-.4-.1-.7-.4-.7-.4 0-.6.4-.6.4v-1.5c-.4-.1-.4-.6-.4-.6s-.6.1-1-.3-.4-1-.4-1v-.2l.2-.1v-.2h-.2l-.2-.6h-.5c-.2-1-.9-1-.9-1v-.4l.1-.1v-.4l.2-.1.1-.2h-.4c-.4-.6-1.5-.5-1.5-.5s-1.1-.1-1.5.5h-.4l.1.2.2.1v.4l.1.1v.4s-.7 0-.9 1h-.5l-.2.6h-.2v.2l.2.1v.2s.1.6-.4 1c-.4.4-1 .3-1 .3s.1.4-.4.6v1.5s-.1-.4-.6-.4c-.4 0-.5.4-.4.7v24.7c-.9-.1-1.8-.1-2.6-.1v-23.6c-1.3-.1-1.3-1.8-1.3-1.8s.1-.1.2-.4c-.2-.1-.1-.6-.1-.6l.4-.6h-1.9c-.4 0-.4-.2-.6-.6-.4-.2-.4 0-.4-2.1s-2.2-2.4-2.2-2.4-2.3.2-2.2 2.4c0 2.1 0 2-.4 2.1-.1.3-.1.6-.6.6h-1.9l.4.6s.1.4-.1.6l.2.4s0 1.8-1.3 1.8v23.1c-65.4-3.7-130.1-17.2-191-41.4-40.6-16.1-79.6-36.9-121-50.5h.7l-54.8-50.7v-4.8l-2.9-2.2v-9.9l1.9-1.2-3-4.1h-.9l.9-2s.4-.6-.3-1.2c.6-.5 1.5-1.5 1.8-2.4.4-1.3-.6-2.4-1.6-2.6s-2 .3-2 .3-.9-1.1-2.3-.9c-1.5.2-3.9 1-5 .2s-2.5-2.9-2.8-3.4c-.2-.5-1.7-1.3-2.8-.8s-1.5 1.5-1.8 2.5c-.4 1-.4 1.8-.1 2.8.3.9 1.3 1.2 1.2 1.8s-.6 1.1-.6 1.1-1.3 0-1.7.7.1 1.3.1 1.3-.7 1-.3 1.9c.3.7.7.9 1.2.9l-2.9 4 2 1.2v9.9l-2.9 2.2v4l-39.7 37.5c-28.3 2.4-56.2 8.9-82.8 19l.1 420.2h925.6v-436.1c-68.9 39.1-142.8 69-220.1 86.4zm-170.4-1.2h-2.6v-4h2.6v4zm0 6.6v4h-2.6v-4h2.6zm0-5.3v4h-2.6v-4h2.6zm3.5 9.4h-2.6v-4h2.6v4zm-2.6-14.7h2.6v4h-2.6v-4zm0 5.3h2.6v4h-2.6v-4zm-2.3-12.1c1.3 0 1.5 3.8 1.5 3.8h-2.6c-.1 0-.4-3.8 1.1-3.8zm-2.1 21.5h-2.6v-4h2.6v4zm-2.6-14.7h2.6v4h-2.6v-4zm0 5.3h2.6v4h-2.6v-4zm-4.8 9.4h-2.6v-4h2.6v4zm-2.6-14.7h2.6v4h-2.6v-4zm0 5.3h2.6v4h-2.6v-4zm-.9 9.4h-2.6v-4h2.6v4zm-2.5-14.7h2.6v4h-2.6v-4zm0 5.3h2.6v4h-2.6v-4zm-.9 5.3v4H288v-4h2.6zm-2.6-10.6h2.6v4H288v-4zm0 5.3h2.6v4H288v-4zm-372.9-156.2s2.1-.6 2.4.9c.2 1.2-1 2.5-1.5 3-.6-.8-1.3-2.1-1.3-2.1l.4-1.8zm-12.5 7.5h-2.1c.1-.1.2-.1.3-.1 1.2-.2 1.7-1.3 1.2-2.2-.4-.8-1.2-.7-1.2-.7s-.5-.6.1-.9c.6-.2 1.3-.3 1.8-.2.4.1.9-.1 1 .4s.1 1.3-.2 1.8c-.3.4-.7 1.4-.9 1.9zm8.1 0h-7c.2-.4.6-1.3.9-1.8.4-.7.6-1.2.7-1.6.1-.4 2.4-.1 3.6-.5 1.2-.4 2.6-1.2 2.6-1.2s-.1 1.7.2 2.3c.4.6.5.7.1 1.2-.4.4-.9 1.2-1.1 1.6zm4.7-1.7c-.2.3-.6 1.2-.9 1.7h-2.6c.4-.5 1.3-1.4 1.2-1.7-.1-.3-.5-1.3-.1-1.8s1.3.2 1.7.6c.3.3 1 .8.7 1.2z" class="st13"/></g><g id="Troisième_plan_copy_00000121960129636013095320000013907771946129772968_"><path d="M-154.1-1016.5h8.8v12h-8.8zM-131.2-1004.5h5.5v7.7h-5.5zM-126.8-1014.6h5.6v8.8h-5.6zM-123.1-1023.1h5.5v6.6h-5.5zM-155.6-1002.8h8.8v12h-8.8zM-154.9-988.3h8.8v12h-8.8zM-118.6-1014.9h5.6v8.8h-5.6zM-122.7-1004.5h5.5v7.7h-5.5zM-114.5-1004.5h5.5v7.7h-5.5zM-130.9-993.8h5.5v7.7h-5.5zM-123.1-993.8h5.5v7.7h-5.5zM-114.9-993.8h5.5v7.7h-5.5z" class="st14"/><path d="M576.9-1039.7c-10.2-3.1-20.4-5.6-30.8-7.6l1.6-36.5-9.6-.3.1-2.4-5.5-.2.5-13.7-1.2-.1.1-2.6-8.9-.3v-1l-1.4-.1v-1.2l-1.5-.1v-3.8l-.3-3.3c-.2 1.1-.4 2.1-.6 3.3-.2 1.1-.2 2.1-.2 3.3v.5l-2.1-.1v1.2l-1.4-.1v1l-8.2-.2-.1 2.7-2.1-.1-.5 15-9.7-.3-.1 3.2-1.6-.1.1-3.2-2.1-.1.2-3.6-15.4-.6-.1 2.2-1.4-.1-.2 3.8-2.9-.1.1-3.2-1.6-.1.1-2.7-17.4-.6.3-9.9-1.2-.1.1-3.2-3.4-.1-.1 2.1-2.5-.1-.1 1.2-.6 15.9-3-.1.5-14-2.7-.1.1-1.8-8.7-.3-.1 1.8-3-.1-.2 7.2-6.6-.2-.3 10.5-3.3-.1.1-2.7-3.3-.1-.1 2.7-2.1-.1-4.5-8.7c2.9-1.8 4.8-5 4.6-8.7-.2-4.3-3.1-7.9-7-9.1l.6-17.4c5.4-.5 9.5-5.1 9.3-10.6-.2-5.7-5-10.1-10.7-9.9-3 .1-5.7 1.5-7.4 3.6l-22.8-14c.4-1.2.6-2.4.6-3.6-.2-5.5-4.7-9.7-10.2-9.5s-9.7 4.7-9.5 10.2c.1 1.4.4 2.8 1 4l-21.6 15.1c-2-2-4.7-3.1-7.7-3.1-5.7.2-10.1 5-9.9 10.7.2 5.2 4.1 9.3 9.2 9.8l1.9 17.3c-4.2 1.2-7.2 5.2-7 9.7.1 3.3 1.8 6.1 4.3 7.8l-4.5 9.6-5.9.2-.5-15-2.1.1-.1-2.7-8.2.2v-1l-1.4.1v-1.2l-2.1.1v-.5c0-1.1-.1-2.1-.2-3.3-.2-1.1-.3-2.1-.6-3.3-.2 1.1-.3 2.2-.3 3.3-.1 1.1-.1 2.2 0 3.3v.5l-1.5.1v1.2l-1.4.1v1l-8.9.3.1 2.6-1.2.1.5 13.7-5.5.2.1 2.4-9.6.3 1.5 36c-13.1 2.2-26 4.6-38.9 7.4-102.5 21.5-202.1 59.3-306.4 67.4-11.6.9-23.3 1.4-35 1.7l-.2-46.6h-2.1v-4.3h-2v-4.3h-2.3v-3.3h-2v-3.4h-1.8c-.4-3.1-3.3-2.9-3.3-2.9s-2.9-.2-3.3 2.9h-1.8v3.4h-2v3.3h-2.3v4.3h-2v4.3h-2.1l.2 46.6c-1.2 0-2.6-.1-3.9-.1v-50.7s-8.1 1-8.5-10.7h-9.7c-.3 11.6-8.5 10.7-8.5 10.7v49.6c-57.3-3.6-114.5-13.1-171.3-22.5-103.6-17.3-211.3-36.3-305.1-80.7v440.1l1249.1-15.6v-382.8c-10.4-4.5-21-8.6-31.9-12zm-731 24.6h7.4v8.3h-7.4v-8.3zm0 13.6h7.4v8.3h-7.4v-8.3zm0 13.6h7.4v8.3h-7.4v-8.3zm35.6.8h-3.6s-.7-5.8 1.8-5.9c2.4 0 1.8 5.9 1.8 5.9zm6.3-5.8c2.4-.1 1.8 5.9 1.8 5.9h-3.6c0-.1-.6-5.8 1.8-5.9zm.5-11.2c2.4-.1 1.8 5.9 1.8 5.9h-3.6c-.1 0-.7-5.8 1.8-5.9zm-4.1-10.5c2.4-.1 1.8 5.9 1.8 5.9h-3.6s-.6-5.9 1.8-5.9zm-5.4-7.8h2.4v4.5h-2.4v-4.5zm1.3 18.3c2.4-.1 1.8 5.9 1.8 5.9h-3.6s-.6-5.8 1.8-5.9zm-3.9-10.5c2.6.9 1.8 5.9 1.8 5.9h-3.6s-.8-6.8 1.8-5.9zm-4.4 10.5c2.4-.1 1.8 5.9 1.8 5.9h-3.6s-.6-5.8 1.8-5.9zm-.4 11.2c2.4-.1 1.8 5.9 1.8 5.9h-3.6c0-.1-.7-5.8 1.8-5.9zM340.5-1094c.5-1.2.7-2.6.7-4 0-1-.2-1.9-.5-2.7l15.9-8.3c-.1.5-.1 1-.1 1.5.2 4.8 3.5 8.8 7.8 10.1l-1.3 12.6-9.7.3-12.8-9.5zm16.2-19-17.7 9.1c-1.7-2.1-4.1-3.5-6.9-3.6l-1.8-17.1c2-.5 3.7-1.5 5-3l21.4 14.6zm11.6 18.1-1.2.1-1.5-.7.1-.8 2.6-.1v1.5zm-2.9.7 1.2 3.5.7-.4.1 2.7-.7-2.3-1.6 1 .3-4.5zm-.5 4.7 2.4 1.4.1 3.2-3 .1.5-4.7zm26.6-4.3-3 .1-.1-1.8-8.7.3.1 1.8-2.7.1.4 12.5-2 1.7h-1l-.6-15.9-.1-1.2-2.5.1-.1-1.7c4-1.7 6.9-5.8 6.8-10.4 0-.2 0-.5-.1-.7l15.1 7c-.1.7-.2 1.4-.2 2.1.1 1.8.6 3.5 1.5 4.9l-3.1 2.6.3-1.5zm7-35.8c1.2 1.2 2.7 1.9 4.4 2.3l-.6 17.3c-3.3.2-6.1 2.1-7.7 4.7l-17.1-8 21-16.3zm-2.8-11.4c-.5 1.2-.7 2.6-.7 4 .1 1.7.5 3.1 1.2 4.5l-21.4 16.7c-1.6-1.5-3.6-2.6-5.9-2.9l-1.2-33c2.1-.5 3.9-1.7 5.2-3.2l22.8 13.9zm-36.9-13.1c1.5 1.4 3.4 2.3 5.5 2.6l1.2 33c-2.4.4-4.5 1.6-6 3.3l-22.2-15.1c.6-1.4.9-2.9.9-4.5-.1-1.4-.4-2.8-1-4l21.6-15.3zm-27.1 66.3c2.7-.1 5.1-1.3 6.9-3.1l11.5 8.6v.8l-1.6.1.1 3.2-2.9.1-.2-3.8-1.4.1-.1-2.2-15.4.6.2 3.6-2.1.1.1 3.2-1.6.1-.1-2.9 3.9-8.3c1-.3 1.8-.2 2.7-.2zm76.8 11-3.3.1-.1-2.7-3.3.1.1 2.7-3.3.1-.3-10.5-6.6.2-.1-1.3 5.4-4.5c1.7 1.3 4 2.1 6.3 2 .5 0 1.1-.1 1.6-.2l6.4 12.4-.8 23.5h-1.1l-.9-21.9z" class="st16"/></g><g id="Deuxième_plan_copy_00000118359625675576243940000013927379842733352832_"><path d="M-225-483.5h833.8v-222h-833.6z" class="st13"/><path d="M-204.6-913.2h18.9v25.8h-18.9zM-173.6-947.6h9.3v28.9h-9.3zM-84.8-887.4h22.7v45.9h-22.7zM4.9-870.3h33.9v43.2H4.9zM27.4-918.7h22.9v42.5H27.4z" class="st14"/><path d="M96.4-907.5h42.5v20.6H96.4z" class="st14" transform="rotate(-76.161 117.601 -897.157)"/><path d="M-162.5-950.3h9.3v28.9h-9.3zM-150.9-949.5h9.3v28.9h-9.3zM-167.2-895h18.9v25.8h-18.9zM-129.9-912.7h18.9v25.8h-18.9zM-129.5-874h18.9v25.8h-18.9zM-127.8-838.4h18.9v25.8h-18.9zM-207.8-874h18.9v25.8h-18.9zM-205.1-839h18.9v25.8h-18.9zM-178.7-859.3h43.3v55.9h-43.3zM-179.4-799.3h43.3v55.9h-43.3zM-62.4-889.7h22.7v45.9h-22.7zM-35.9-890.3h22.7v45.9h-22.7zM-84.8-838.4h22.7v45.9h-22.7zM-60.7-838.4H-38v45.9h-22.7zM-35.9-838.4h22.7v45.9h-22.7zM41.9-875.6h22.9v42.5H41.9zM12.7-819h22.9v42.5H12.7zM43.1-820.3H66v42.5H43.1zM88.2-871h22.9v42.5H88.2zM120.6-873h22.9v42.5h-22.9zM88.2-821.6h22.9v42.5H88.2zM120.6-822.7h22.9v42.5h-22.9z" class="st14"/><path d="m-224.6-483.6 833.4-2.4v-259.4h-833.4z" class="st17"/><path d="M-96.2-907.9h-5.1l-2-3.6V-922l-2.6-3.1h-4.6l-9.4-17.8-8.7 17.8-10.1-.1s-.7-6-1.2-10.4.7-14.3.7-14.3h-2.4v-5.8s4.5-10.8 4.3-21.3c-.2-10.4-9.7-21.8-10.7-24 1.7-1.3 1.2-3.6.8-4.2s-1.6-3.2-2.2-7.8c0 0-.6-9 .6-11.8 1.3-2.7.9-3.5-1.6-6-2.5-2.4-2.4-3.2-.6-7 1.7-3.8.7-7.9-2.6-10.9-3.7-3.4-4.2-45.8-4.2-45.8s0 42.7-4.2 45.8c-3.6 2.7-4.2 7.1-2.6 10.9 1.6 3.8 1.8 4.6-.6 7-2.4 2.4-2.8 3.2-1.6 6 1.3 2.7.6 11.8.6 11.8-.5 4.6-1.7 7.1-2.2 7.8-.4.6-1 3 .8 4.2-1 2.2-10.5 13.5-10.7 24-.2 10.4 4.3 21.3 4.3 21.3v5.8h-2.4s1.1 9.9.7 14.3-1.2 10.5-1.2 10.5h-10.4l-8.8-15.5-9 15.4h-4.6l-2.6 3.1v10.5l-2 3.6h-5.2l-1.6 164.8h126.2l-1.3-164.7zm-95.3 80.2v6.7h-6.8v-6.7s-.4-3.6 3.4-5.7c3.8 2.1 3.4 5.7 3.4 5.7zm0-33.8v6.7h-6.8v-6.7s-.4-3.6 3.4-5.7c3.8 2 3.4 5.7 3.4 5.7zm0-42.5v6.7h-6.8v-6.7s-.4-3.6 3.4-5.7c3.8 2 3.4 5.7 3.4 5.7zm42.2-37 3.9-3.2 2.1 4.3v12.3l-6-1.4v-12zm-12.2-.4 3.8-4.3 3.8 4.3v12.3h-7.6v-12.3zm3.7 54c2.4 0 4.3 2 4.3 4.3s-2 4.3-4.3 4.3-4.3-2-4.3-4.3 2-4.3 4.3-4.3zm-14.6-52.5 2.1-4.3 3.9 3.2v11.9l-6 1.4v-12.2zm14.6 85.5c16.4 9.6 15.9 21.5 15.9 21.5v24.6H-173.6v-24.6s-.6-11.9 15.8-21.5zm20.6 84.2v25.1h-41.2v-25.1s-.4-16.8 20.6-27.6c21 10.8 20.6 27.6 20.6 27.6zm21.2-57.5v6.7h-6.9v-6.7s-.4-3.6 3.4-5.7c3.9 2.1 3.5 5.7 3.5 5.7zm0-33.8v6.7h-6.9v-6.7s-.4-3.6 3.4-5.7c3.9 2 3.5 5.7 3.5 5.7zm0-42.5v6.7h-6.9v-6.7s-.4-3.6 3.4-5.7c3.9 2 3.5 5.7 3.5 5.7zM-19.2-901.7s-6.8-2-11.2-11.9c-4.9.2-9-6-6.4-7.2 4.2-2 1.4-3.4.1-3.6-4.1-.8-.8-10.1 3.2-11.7 2.4-.9-1.2-8.2-16.6-8.7-15.5.6-18.9 7.9-16.6 8.7 4 1.5 7.3 10.8 3.2 11.7-1.4.3-4.2 1.6.1 3.6 2.5 1.2-1.5 7.5-6.4 7.2-4.4 10-11.2 12-11.2 12-4.3.1-10.8.2-10.8.2v157.7h83.4v-157.8s-6.5-.1-10.8-.2zm-46.1 95.9-12.6-.1s-3.2-26.7 5.7-26.8c8.6 0 6.9 26.9 6.9 26.9zm.4-47.5-12.6-.1s-3.2-25.8 5.7-26.8 6.9 26.9 6.9 26.9zm20.4 47.5-12.6-.1s-3.2-23.6 5.7-26.8c8.4-3 6.9 26.9 6.9 26.9zm.4-47.5-12.6-.1s-1.6-27.8 7.3-26.8c8.4 1 5.3 26.9 5.3 26.9zm21.2 47.5-12.6-.1s-2.8-29.5 5.7-26.8c8.3 2.7 6.9 26.9 6.9 26.9zm.5-47.5-12.6-.1s.1-26.8 5.7-26.8c8.9.1 6.9 26.9 6.9 26.9zM158.4-884.9h-5.2v-9.8h-6.8v-8.8h-5.7v-8.2h-5v-10.1H130v-9h-5.8v-8.8h-5.5v-8.1h-5.2v8.1H108v8.8h-5.8v9h-5.7v10h-5v8.2h-5.7v8.8H79v4.7h-3.7v-4.7h-6.8v-8.8h-5.7v-8.2h-4.9v-10h-5.7v-9h-5.8v-8.8h-5.5v-8.1h-6.6v8.1h-5.5v8.8H23v9h-5.7v10h-5v8.2H6.6v8.8H-.2v9.3h-3.7V-745h163.2l-.9-139.9zM31.6-788.2l-14.5-.1s-3.7-30.6 6.5-30.6c9.9-.1 8 30.7 8 30.7zm0-48.4-14.5-.1s-3.7-30.6 6.5-30.6c9.9-.1 8 30.7 8 30.7zm6.7-79.2c9.9 0 7.9 30.7 7.9 30.7l-14.5-.1c.1 0-3.6-30.6 6.6-30.6zm22.6 127.6-14.5-.1s-3.7-30.6 6.5-30.6c9.9-.1 8 30.7 8 30.7zm0-48.4-14.5-.1s-3.7-30.6 6.5-30.6c9.9-.1 8 30.7 8 30.7zm49.3 48.4-14.5-.1s-3.7-30.6 6.5-30.6c10-.1 8 30.7 8 30.7zm0-48.4-14.5-.1s-3.7-30.6 6.5-30.6c10-.1 8 30.7 8 30.7zm6.8-79.2c9.9 0 7.9 30.7 7.9 30.7l-14.5-.1s-3.6-30.6 6.6-30.6zm22.5 127.6-14.5-.1s-3.7-30.6 6.5-30.6c10-.1 8 30.7 8 30.7zm0-48.4-14.5-.1s-3.7-30.6 6.5-30.6c10-.1 8 30.7 8 30.7z" class="st17"/></g><path id="Avant_plan_copy_00000124122369966921316890000008208401556314662553_" d="M-224.3-484.8h833.1v-229.4H-224z" class="st18"/></g><g id="illu_jour_phone"><path id="Arrière_plan_copy_00000057847301853254901950000000066884059128386986_" d="M-.4 0h588.1v841.9H-.4z" class="st14"/><g id="Quatrième_plan_copy_00000057866270958436818410000005784206557526139033_"><path d="M306.9 259.2h2.4v3.6h-2.4zM309.3 259.1h2.4v3.6h-2.4zM311.9 259.2h2.4v3.6h-2.4zM306.8 263.1h2.4v3.6h-2.4zM309.3 263.1h2.4v3.6h-2.4zM311.9 263.1h2.4v3.6h-2.4zM306.8 267h2.4v3.6h-2.4zM309.3 267h2.4v3.6h-2.4zM311.9 267h2.4v3.6h-2.4zM319.4 254.8h2.4v3.6h-2.4zM317 259.3h2.4v3.6H317zM317 263.1h2.4v3.6H317zM317 266.9h2.4v3.6H317zM319.4 259.3h2.4v3.6h-2.4zM319.4 263.1h2.4v3.6h-2.4zM319.4 266.9h2.4v3.6h-2.4zM321.9 259.3h2.4v3.6h-2.4zM321.9 263.1h2.4v3.6h-2.4zM321.9 266.9h2.4v3.6h-2.4z" class="st14"/><path d="M441.8 263.2c-38.3 8.6-77.8 12.8-117.1 12.1v-17.6c0-.3 0-.5-.3-.5s-.4.3-.4.3v-1c-.3-.1-.3-.4-.3-.4s-.4 0-.7-.2c-.3-.3-.3-.7-.3-.7v-.2h.1v-.2h-.2l-.1-.4h-.3c-.1-.7-.6-.7-.6-.7v-.3l.1-.1v-.3l.2-.1v-.2h-.3c-.3-.4-1.1-.3-1.1-.3s-.8 0-1.1.3h-.3v.2l.2.1v.3l.1.1v.3s-.5 0-.6.7h-.3l-.1.4h-.2v.2h.1v.2s0 .4-.3.7-.7.2-.7.2 0 .3-.3.4v1s-.1-.3-.4-.3c-.3 0-.3.3-.3.5v17.4c-.6 0-1.3 0-1.9-.1v-16.7c-1 0-1-1.3-1-1.3l.1-.3c-.2-.1-.1-.4-.1-.4l.3-.4h-1.3c-.3 0-.3-.2-.4-.4-.3-.1-.3 0-.3-1.5s-1.6-1.7-1.6-1.7-1.6.2-1.6 1.7 0 1.4-.3 1.5c-.1.2 0 .4-.4.4h-1.3l.3.4s.1.3-.1.4c.1.2.1.3.1.3s0 1.3-.9 1.3v16.3c-46.2-2.6-91.8-12.1-134.7-29.2-28.7-11.4-56.1-26-85.3-35.6h.5L47.7 174v-3.4l-2-1.6v-7l1.3-.9-2.1-2.9h-.6l.6-1.4s.3-.4-.2-.8c.4-.3 1.1-1 1.3-1.7.3-1-.4-1.7-1.1-1.9-.7-.1-1.4.2-1.4.2s-.6-.8-1.6-.6c-1 .1-2.8.7-3.5.1-.8-.6-1.8-2.1-2-2.4s-1.2-.9-1.9-.6c-.8.3-1.1 1.1-1.3 1.8-.3.7-.3 1.3-.1 1.9s.9.8.9 1.3-.4.8-.4.8-.9 0-1.2.5.1 1 .1 1-.5.7-.2 1.3c.2.5.5.6.9.6l-2.1 2.9 1.4.9v7l-2 1.6v2.9l-28 26.5c-20 1.7-39.6 6.3-58.4 13.4v296.4h653V202.2c-48.6 27.6-100.8 48.7-155.3 61zm-120.3-.8h-1.8v-2.9h1.8v2.9zm0 4.6v2.9h-1.8V267h1.8zm0-3.7v2.9h-1.8v-2.9h1.8zm2.5 6.6h-1.8V267h1.8v2.9zm-1.9-10.4h1.8v2.9h-1.8v-2.9zm0 3.8h1.8v2.9h-1.8v-2.9zm-1.6-8.5c1 0 1 2.7 1 2.7h-1.9c.1-.1-.1-2.7.9-2.7zm-1.5 15.1h-1.8V267h1.8v2.9zm-1.8-10.4h1.8v2.9h-1.8v-2.9zm0 3.8h1.8v2.9h-1.8v-2.9zm-3.3 6.6h-1.8V267h1.8v2.9zm-1.9-10.4h1.8v2.9H312v-2.9zm0 3.8h1.8v2.9H312v-2.9zm-.6 6.6h-1.8V267h1.8v2.9zm-1.8-10.4h1.8v2.9h-1.8v-2.9zm0 3.8h1.8v2.9h-1.8v-2.9zm-.7 3.7v2.9h-1.8V267h1.8zm-1.8-7.5h1.8v2.9h-1.8v-2.9zm0 3.8h1.8v2.9h-1.8v-2.9zm-263-110.2s1.5-.4 1.7.6c.1.8-.7 1.8-1 2.1-.4-.6-.9-1.5-.9-1.5l.2-1.2zm-8.9 5.3h-1.5.2c.8-.2 1.2-1 .9-1.6s-.9-.5-.9-.5-.3-.4.1-.6c.4-.2.9-.2 1.3-.2.3 0 .6-.1.7.3.1.4.1 1-.1 1.3-.3.2-.6.9-.7 1.3zm5.7 0h-5c.1-.3.4-.9.6-1.3.3-.5.4-.8.5-1.1s1.7 0 2.5-.3c.9-.3 1.8-.9 1.8-.9s-.1 1.2.2 1.6.3.5.1.9c-.1.2-.5.8-.7 1.1zm3.4-1.2-.6 1.2h-1.8c.3-.3.9-1 .8-1.2-.1-.2-.3-1 0-1.3s.9.1 1.2.4c.1.2.5.6.4.9z" class="st13"/></g><g id="Troisième_plan_copy_00000178907775375361507270000002622647852708636065_"><path d="M78 416.9h4.5v6.1H78zM89.8 423h2.8v3.9h-2.8zM92 417.8h2.9v4.5H92zM93.9 413.5h2.8v3.4h-2.8zM77.2 423.9h4.5v6.1h-4.5zM77.6 431.3h4.5v6.1h-4.5zM96.2 417.7h2.9v4.5h-2.9zM94.1 423h2.8v3.9h-2.8zM98.3 423h2.8v3.9h-2.8zM89.9 428.5h2.8v3.9h-2.8zM93.9 428.5h2.8v3.9h-2.8zM98.1 428.5h2.8v3.9h-2.8z" class="st14"/><path d="M452.8 405c-5.2-1.6-10.5-2.9-15.8-3.9l.8-18.7-4.9-.2V381l-2.8-.1.3-7h-.6v-1.3l-4.6-.2v-.5h-.7v-.6h-.8v-2c0-.6-.1-1.1-.2-1.7-.1.6-.2 1.1-.3 1.7s-.1 1.1-.1 1.7v.3H422v.6h-.7v.5l-4.2-.1v1.4H416l-.3 7.7-5-.2v1.7h-.8v-1.7h-1.1l.1-1.8-7.9-.3v1.1h-.7l-.1 1.9h-1.5v-1.7h-.8V379l-8.9-.3.2-5.1h-.6v-1.7h-1.7v1.1h-1.3v.6l-.3 8.1h-1.5l.3-7.2h-1.4v-.9l-4.4-.2v.9h-1.5l-.1 3.7-3.4-.1-.2 5.4h-1.7v-1.4h-1.7v1.4h-1.1l-2.3-4.4c1.5-.9 2.5-2.6 2.4-4.4-.1-2.2-1.6-4.1-3.6-4.7l.3-8.9c2.8-.3 4.9-2.6 4.8-5.4-.1-2.9-2.5-5.2-5.5-5.1-1.5 0-2.9.8-3.8 1.9l-11.7-7.2c.2-.6.3-1.2.3-1.9-.1-2.8-2.4-5-5.2-4.9s-5 2.4-4.9 5.2c0 .7.2 1.4.5 2l-11.1 7.8c-1-1-2.4-1.6-3.9-1.6-2.9.1-5.2 2.5-5.1 5.5.1 2.7 2.1 4.8 4.7 5l1 8.9c-2.2.6-3.7 2.7-3.6 5 0 1.7.9 3.1 2.2 4l-2.3 4.9-3 .1-.3-7.7h-1.1V376l-4.2.1v-.5h-.7v-.6h-1.1v-.3c0-.6 0-1.1-.1-1.7s-.2-1.1-.3-1.7c-.1.6-.2 1.1-.2 1.7v2h-.8v.6h-.7v.5l-4.6.2v1.3h-.6l.3 7-2.8.1v1.2l-4.9.2.8 18.5c-6.7 1.1-13.3 2.4-19.9 3.8-52.6 11-103.6 30.4-157.1 34.6-6 .5-11.9.7-18 .8l-.1-23.9h-1.1v-2.2h-1v-2.2h-1.2v-1.7h-1v-2.2h-.9c-.2-1.6-1.7-1.5-1.7-1.5s-1.5-.1-1.7 1.5h-.9v1.7h-1v1.7h-1.2v2.2h-1v2.2h-1.1l.1 23.9h-2v-26s-4.2.5-4.4-5.5h-5c-.2 6-4.4 5.5-4.4 5.5v25.4c-29.4-1.8-58.7-6.7-87.8-11.5-53.1-8.9-108.3-18.6-156.4-41.4v225.6l640.4-8V411.1c-5.3-2.3-10.7-4.4-16.3-6.1zM78 417.6h3.8v4.2H78v-4.2zm0 7h3.8v4.2H78v-4.2zm0 7h3.8v4.2H78v-4.2zm18.2.4h-1.8s-.3-3 .9-3c1.2-.1.9 3 .9 3zm3.3-3c1.2 0 .9 3 .9 3h-1.8s-.4-3 .9-3zm.2-5.7c1.2 0 .9 3 .9 3h-1.8s-.3-3 .9-3zm-2.1-5.5c1.2 0 .9 3 .9 3h-1.8c0 .1-.3-2.9.9-3zm-2.7-3.9h1.2v2.3h-1.2v-2.3zm.6 9.4c1.2 0 .9 3 .9 3h-1.8s-.3-3 .9-3zm-2-5.5c1.3.5.9 3 .9 3h-1.9c.1.1-.3-3.4 1-3zm-2.2 5.5c1.2 0 .9 3 .9 3h-1.8s-.3-3 .9-3zm-.2 5.7c1.2 0 .9 3 .9 3h-1.8s-.4-3 .9-3zm240.5-51.8c.3-.6.4-1.3.4-2.1 0-.5-.1-1-.3-1.4l8.2-4.2v.8c.1 2.5 1.8 4.5 4 5.2l-.7 6.5-5 .2-6.6-5zm8.3-9.8-9.1 4.7c-.8-1.1-2.1-1.8-3.6-1.9l-.9-8.8c1-.3 1.9-.8 2.6-1.5l11 7.5zm5.9 9.3h-.6l-.8-.4v-.4h1.4v.8zm-1.5.4.6 1.8.3-.2v1.4l-.4-1.2-.8.5.3-2.3zm-.2 2.4 1.2.7v1.7h-1.5l.3-2.4zm13.6-2.2h-1.5v-.9l-4.4.2v.9h-1.4l.2 6.4-1 .8h-.5l-.3-8.1v-.6h-1.3v-.9c2.1-.8 3.6-3 3.5-5.3v-.4l7.8 3.6c0 .3-.1.7-.1 1.1 0 .9.3 1.8.8 2.5l-1.6 1.4-.2-.7zm3.6-18.4c.6.6 1.4 1 2.2 1.2l-.3 8.9c-1.7.1-3.1 1.1-3.9 2.4l-8.8-4.1 10.8-8.4zm-1.4-5.8c-.3.6-.4 1.3-.3 2 0 .8.3 1.6.6 2.3l-11 8.6c-.8-.8-1.9-1.3-3-1.5l-.6-16.9c1.1-.3 2-.8 2.7-1.7l11.6 7.2zm-18.9-6.8c.8.7 1.7 1.2 2.8 1.3l.6 16.9c-1.2.2-2.3.8-3.1 1.7l-11.4-7.8c.3-.7.5-1.5.5-2.3 0-.7-.2-1.4-.5-2.1l11.1-7.7zm-13.9 34c1.4 0 2.6-.7 3.5-1.6l5.9 4.4v.4h-.8v1.7h-1.5l-.1-1.9h-.7v-1.1l-7.9.3.1 1.8h-1.1v1.7h-.8v-1.5l2-4.3c.5.1.9.1 1.4.1zm39.4 5.7h-1.7v-1.4h-1.7v1.4h-1.7l-.2-5.4-3.4.1v-.7l2.8-2.3c.9.7 2 1.1 3.2 1 .3 0 .6 0 .8-.1l3.3 6.4-.4 12.1h-.6l-.4-11.1z" class="st16"/></g><g id="Deuxième_plan_copy_00000078766880599672869100000014272966902536982180_"><path d="M-3.5 764.2h504.7V629.8H-3.4z" class="st13"/><path d="M8.8 504.1h11.4v15.6H8.8zM27.6 483.2h5.7v17.5h-5.7zM81.3 519.7H95v27.8H81.3zM135.7 530h20.5v26.2h-20.5zM149.3 500.7h13.9v25.7h-13.9z" class="st14"/><path d="M191.3 507.7H217v12.5h-25.7z" class="st14" transform="rotate(-76.161 204.161 513.954)"/><path d="M34.3 481.6H40v17.5h-5.7zM41.3 482.1H47v17.5h-5.7zM31.5 515.1h11.4v15.6H31.5zM54.1 504.4h11.4V520H54.1zM54.3 527.8h11.4v15.6H54.3zM55.3 549.3h11.4v15.6H55.3zM6.9 527.8h11.4v15.6H6.9zM8.5 549h11.4v15.6H8.5zM24.5 536.7h26.2v33.8H24.5zM24.1 573h26.2v33.8H24.1zM94.9 518.3h13.7v27.8H94.9zM110.9 517.9h13.7v27.8h-13.7zM81.3 549.3H95v27.8H81.3zM95.9 549.3h13.7v27.8H95.9zM110.9 549.3h13.7v27.8h-13.7zM158.1 526.8H172v25.7h-13.9zM140.4 561.1h13.9v25.7h-13.9zM158.8 560.3h13.9V586h-13.9zM186.1 529.6H200v25.7h-13.9zM205.7 528.4h13.9v25.7h-13.9zM186.1 559.5H200v25.7h-13.9zM205.7 558.8h13.9v25.7h-13.9z" class="st14"/><path d="m-3.3 764.1 504.5-1.4V605.6H-3.3z" class="st17"/><path d="M74.4 507.3h-3.1l-1.2-2.2v-6.4l-1.6-1.9h-2.8L60 486l-5.3 10.8h-6.1l-.7-6.3c-.3-2.7.4-8.7.4-8.7h-1.4v-3.5s2.7-6.5 2.6-12.9c-.1-6.3-5.9-13.2-6.5-14.5 1-.8.7-2.2.5-2.6s-1-1.9-1.3-4.7c0 0-.4-5.5.4-7.1.8-1.7.6-2.1-1-3.6s-1.4-1.9-.4-4.2.4-4.8-1.6-6.6c-2.2-2-2.5-27.7-2.5-27.7s0 25.8-2.5 27.7c-2.2 1.6-2.6 4.3-1.6 6.6s1.1 2.8-.4 4.2-1.7 1.9-1 3.6c.8 1.7.4 7.1.4 7.1-.3 2.8-1 4.3-1.3 4.7-.2.4-.6 1.8.5 2.6-.6 1.3-6.4 8.2-6.5 14.5s2.6 12.9 2.6 12.9v3.5h-1.4s.7 6 .4 8.7-.7 6.4-.7 6.4h-6.3l-5.3-9.4-5.4 9.3H5.8l-1.6 1.9v6.4L3 507.3H-.1l-1 99.8h76.4l-.9-99.8zm-57.7 48.5v4h-4v-4s-.2-2.2 2-3.5c2.3 1.4 2 3.5 2 3.5zm0-20.5v4h-4v-4s-.2-2.2 2-3.5c2.3 1.4 2 3.5 2 3.5zm0-25.7v4h-4v-4s-.2-2.2 2-3.5c2.3 1.3 2 3.5 2 3.5zm25.6-22.3 2.4-1.9L46 488v7.5l-3.7-.9v-7.3zm-7.4-.3 2.3-2.6 2.3 2.6v7.5h-4.6V487zm2.3 32.7c1.4 0 2.6 1.2 2.6 2.6 0 1.4-1.2 2.6-2.6 2.6-1.4 0-2.6-1.2-2.6-2.6s1.2-2.6 2.6-2.6zm-8.9-31.8 1.3-2.6 2.4 1.9v7.2l-3.7.9v-7.4zm8.9 51.8c9.9 5.8 9.6 13 9.6 13v14.9H27.6v-14.9s-.4-7.2 9.6-13zm12.4 50.9v15.2H24.7v-15.2s-.2-10.2 12.5-16.7c12.7 6.6 12.4 16.7 12.4 16.7zm12.8-34.8v4h-4.1v-4s-.2-2.2 2-3.5c2.4 1.4 2.1 3.5 2.1 3.5zm0-20.5v4h-4.1v-4s-.2-2.2 2-3.5c2.4 1.4 2.1 3.5 2.1 3.5zm0-25.7v4h-4.1v-4s-.2-2.2 2-3.5c2.4 1.3 2.1 3.5 2.1 3.5zM121.1 511s-4.1-1.2-6.8-7.2c-3 .1-5.4-3.7-3.9-4.4 2.6-1.2.9-2 0-2.2-2.5-.5-.5-6.1 1.9-7.1 1.4-.5-.7-4.9-10-5.3-9.4.4-11.5 4.8-10 5.3 2.4.9 4.4 6.6 1.9 7.1-.9.2-2.6 1 0 2.2 1.5.7-.9 4.5-3.9 4.4-2.7 6-6.8 7.3-6.8 7.3-2.6 0-6.5.1-6.5.1v95.5h50.5v-95.5c.1-.1-3.8-.1-6.4-.2zm-28 58.1h-7.6s-1.9-16.2 3.4-16.2c5.3-.1 4.2 16.2 4.2 16.2zm.3-28.8h-7.6s-1.9-15.6 3.4-16.2c5.4-.6 4.2 16.2 4.2 16.2zm12.4 28.8h-7.6s-1.9-14.3 3.4-16.2c5.1-1.9 4.2 16.2 4.2 16.2zm.2-28.8h-7.6s-1-16.8 4.4-16.2c5 .5 3.2 16.2 3.2 16.2zm12.8 28.8h-7.6s-1.7-17.9 3.4-16.2c5 1.6 4.2 16.2 4.2 16.2zm.3-28.8h-7.6s0-16.2 3.4-16.2c5.5 0 4.2 16.2 4.2 16.2zM228.6 521.2h-3.1v-6h-4.1v-5.3H218v-5h-3v-6.1h-3.5v-5.5H208V488h-3.3v-4.9H201.6v4.9h-3.3v5.3h-3.5v5.5h-3.5v6h-3v5h-3.4v5.3h-4.1v2.9h-2.2v-2.9h-4.1v-5.3h-3.4v-5h-3v-6h-3.5v-5.5h-3.5V488h-3.3v-4.9h-4v4.9h-3.3v5.3H147v5.5h-3.5v6h-3v5h-3.4v5.3H133v5.6h-2.2v85h98.8l-1-84.5zm-76.8 58.5h-8.7s-2.2-18.5 3.9-18.5c6-.1 4.8 18.5 4.8 18.5zm0-29.3h-8.7s-2.2-18.5 3.9-18.5c6-.1 4.8 18.5 4.8 18.5zm4.1-47.9c6 0 4.8 18.6 4.8 18.6h-8.8c0-.1-2.2-18.6 4-18.6zm13.6 77.2h-8.8s-2.2-18.5 3.9-18.5c6.1-.1 4.9 18.5 4.9 18.5zm0-29.3h-8.8s-2.2-18.5 3.9-18.5c6.1-.1 4.9 18.5 4.9 18.5zm29.9 29.3h-8.8s-2.2-18.5 3.9-18.5c6.1-.1 4.9 18.5 4.9 18.5zm0-29.3h-8.8s-2.2-18.5 3.9-18.5c6.1-.1 4.9 18.5 4.9 18.5zm4.1-47.9c6 0 4.8 18.6 4.8 18.6h-8.8c0-.1-2.2-18.6 4-18.6zm13.6 77.2h-8.8s-2.2-18.5 3.9-18.5c6.1-.1 4.9 18.5 4.9 18.5zm0-29.3h-8.8s-2.2-18.5 3.9-18.5c6.1-.1 4.9 18.5 4.9 18.5z" class="st17"/></g><path id="Avant_plan_copy_00000025400476830533039120000009915325211006043279_" d="M0 844.3h388.6V629H.1z" class="st18"/></g><g id="train"><path d="M3494.3-895.5v-23.4h-1512v23.4h87.4l-.3 66.3-9.7-6.4-13.7 11.1-26.3 13v-14.3l-12.2-5.2v-24.1l-8.5-3.6-5.7-8.2-10.9-.7-.1 172.6h141.8l-1.8-3.1-8.9-4.6v-7.4l-10.3-5.6h-7.5l.7-15.5 12-15.1v-12.4l-5.1-13-15.3-4.3v-9.1l-5.8-5.5.4-104.9h73.1l-.7 166.3c-11.7 11.1-21.9 22.6-30.5 34.3l32.3-.2c39.8-45 106.3-85.4 192.1-116.1 53.9-19.3 114-34.3 178.5-44.6 66.9-10.7 137.1-16.1 208.7-16.1s141.9 5.4 208.8 16.2c64.5 10.3 124.6 25.4 178.6 44.6 74 26.5 133.7 60.2 174.2 97.8l-.6.6-11.6 11.6c-2.7 2.7-6.7 3.6-10.2 2.3l-20.8-7.6c-5-1.8-10.5.7-12.4 5.7l-2.2 5.6h254.5v-143.1l-32.4-4.4c-2.9-.4-5.9.6-8 2.6l-15.6 14.9c-1.8 1.7-4.2 2.7-6.7 2.7h-13.3c-3 0-5.8 1.3-7.6 3.7l-8.2 10.2-.4-86.9 92.2-.1zm-1253 104.8c-15.1 8.3-29.3 17-42.4 26-11.3 7.8-21.7 15.8-31.3 24l.6-154.8h73.1v104.8zm85.7-39c-26.2 9.9-50.6 20.6-73 32.2v-98h73v65.8zm85.8-27.3c-25.1 6.7-49.3 14.2-72.5 22.4-.2.1-.4.1-.6.2v-61.1h73l.1 38.5zm110.5-23.4c-33.9 5.4-66.5 12.1-97.8 20v-35.2h249.6c-51.9 2.3-102.7 7.4-151.8 15.2zm523.1 20.1c-31.2-7.9-63.9-14.6-97.7-20-49.1-7.9-100-12.9-151.9-15.2h249.6v35.2zm85.8 25.9c-.1-.1-.3-.1-.4-.2-23.2-8.3-47.4-15.8-72.6-22.5v-38.4h73v61.1zm85.8 36.9c-22.4-11.6-46.8-22.4-73-32.2v-65.8h73v98zm12.7 6.8v-104.8h73.1l.6 154.8c-9.5-8.2-19.9-16.1-31.1-23.9-13.2-9-27.5-17.8-42.6-26.1zm156.9-9.7c-4.5 1-7.6 5-7.6 9.5v14.5c0 2.8-1.2 5.5-3.3 7.3l-14.7 13c-1.4 1.3-2.5 2.9-3 4.8l-3.9 14.7c-1.1 4.3-5 7.2-9.4 7.2h-8.6c-3.5 0-6.7 1.9-8.5 4.9l-2.3 4c0 .1-.1.1-.1.2-2.9-3-5.9-6-9.1-9l-.7-166.3h73.1l.4 94.6-2.3.6zM3028.1-1041.5h-32.6c-1.8 0-3.3 1.5-3.3 3.3v40.9c0 1.8 1.5 3.3 3.3 3.3h18.7c1.8 0 3.3-1.5 3.3-3.3v-19.1c0-.9.4-1.7 1-2.4l11.9-11.3c.6-.6 1-1.5 1-2.4v-5.9c0-1.6-1.5-3.1-3.3-3.1z" class="st19"/><path d="M2999.9-1026.8c2 0 3.7 1.7 3.7 3.7s-1.7 3.7-3.7 3.7-3.7-1.7-3.7-3.7 1.7-3.7 3.7-3.7z" class="st17"/><circle cx="2999.9" cy="-1033.7" r="3.7" class="st14"/><circle cx="2999.9" cy="-1012.5" r="3.7" class="st17"/><circle cx="2999.9" cy="-1001.8" r="3.7" class="st17"/><circle cx="3021.5" cy="-1034.3" r="3.7" class="st17" transform="rotate(-1.025 3021.277 -1034.577) scale(.99996)"/><path d="M3000.6-994h4v77.1h-4z" class="st19"/><g id="Wagon_00000029767284853651037450000006385962204612246167_"><path d="m2873-931.3-424.1 1.4v-47.2h424.3z" class="st14"/><path d="M2873-936h-424.1v6.5l424.1-.3z" class="st20"/><path d="m2765-932.4-.1-37h-12.6l.1 37z" class="st21"/><path d="m2752.4-932.4-.1-37h-12.6v37z" class="st21"/><path d="M2762.6-965.4v17.5h-7.7v-17.5zM2749.7-965.4v17.5h-7.6v-17.5z" class="st22"/><path d="m2575.1-932.4-.1-37.4h-12.5v37.4zM2562.5-932.4v-37.4h-12.6v37.4z" class="st21"/><path d="M2572.7-965.4v17.5h-7.6v-17.5zM2559.9-965.4v17.5h-7.7v-17.5z" class="st22"/><path d="M2726.4-960.7v15.8h-137.9v-15.8z" class="st23"/><path d="M2653.7-960.7h7.5v15.8h-7.5zM2619.4-960.7h7.5v15.8h-7.5z" class="st24"/><path d="M2494.5-964.8h7.5v15.8h-7.5z" class="st25"/><path d="M2688-960.7h7.5v15.8h-7.5z" class="st24"/><path d="M2534-965.3h-71.5v16.4h71.5z" class="st23"/><g class="st26"><path d="M2734.2-958.4h2c.2 0 .3 0 .4.1.1.1.2.2.2.3s0 .2-.1.3-.2.1-.4.1h-2.8c-.2 0-.3-.1-.4-.2-.1-.1-.2-.2-.2-.4 0-.1 0-.2.1-.4.1-.1.1-.3.2-.3l.9-.9c.3-.2.5-.4.6-.5.2-.1.4-.3.5-.4.1-.1.2-.3.3-.4.1-.2.1-.3.1-.5s0-.3-.1-.4l-.3-.3c-.1-.1-.3-.1-.4-.1-.3 0-.6.1-.8.4 0 0-.1.1-.1.3s-.1.3-.2.4c-.1.1-.2.1-.3.1-.1 0-.2 0-.3-.1-.1-.1-.1-.2-.1-.3 0-.2 0-.4.1-.5.1-.2.2-.4.3-.5.2-.2.3-.3.6-.4.2-.1.5-.1.8-.1.4 0 .7.1 1 .2.2.1.3.2.5.3.1.1.2.3.3.5.1.2.1.4.1.6 0 .3-.1.6-.2.8-.2.3-.3.5-.5.6s-.4.4-.8.7c-.4.3-.6.5-.8.7 0 .2-.1.2-.2.3z" class="st27"/></g><g class="st26"><path d="M2769.2-958.4h2c.2 0 .3 0 .4.1.1.1.2.2.2.3s0 .2-.1.3-.2.1-.4.1h-2.8c-.2 0-.3-.1-.4-.2-.1-.1-.2-.2-.2-.4 0-.1 0-.2.1-.4s.1-.3.2-.3l.9-.9c.3-.3.5-.4.6-.5.2-.1.4-.3.5-.4.1-.1.2-.3.3-.4.1-.1.1-.3.1-.5s0-.3-.1-.4l-.3-.3c-.1-.1-.3-.1-.4-.1-.3 0-.6.1-.8.4 0 0-.1.1-.1.3s-.1.3-.2.4c-.1.1-.2.1-.3.1-.1 0-.2 0-.3-.1-.1-.1-.1-.2-.1-.3 0-.2 0-.4.1-.5.1-.2.2-.4.3-.5.2-.2.3-.3.6-.4.2-.1.5-.1.8-.1.4 0 .7.1 1 .2.2.1.3.2.5.3.1.1.2.3.3.5.1.2.1.4.1.6 0 .3-.1.6-.2.8-.2.3-.3.5-.5.6s-.4.4-.8.7c-.4.3-.6.5-.8.7-.1.2-.1.2-.2.3z" class="st27"/></g><g class="st26"><path d="M2579.4-958.4h2c.2 0 .3 0 .4.1.1.1.2.2.2.3s0 .2-.1.3c-.1.1-.2.1-.4.1h-2.8c-.2 0-.3-.1-.4-.2-.1-.1-.2-.2-.2-.4 0-.1 0-.2.1-.4.1-.1.1-.3.2-.3l.9-.9c.3-.2.5-.4.6-.5.2-.1.4-.3.5-.4.1-.1.2-.3.3-.4.1-.2.1-.3.1-.5s0-.3-.1-.4l-.3-.3c-.1-.1-.3-.1-.4-.1-.3 0-.6.1-.8.4 0 0-.1.1-.1.3s-.1.3-.2.4c-.1.1-.2.1-.3.1-.1 0-.2 0-.3-.1-.1-.1-.1-.2-.1-.3 0-.2 0-.4.1-.5.1-.2.2-.4.3-.5.2-.2.3-.3.6-.4.2-.1.5-.1.8-.1.4 0 .7.1 1 .2.2.1.3.2.5.3.1.1.2.3.3.5.1.2.1.4.1.6 0 .3-.1.6-.2.8-.2.3-.3.5-.5.6s-.4.4-.8.7c-.4.3-.6.5-.8.7-.1.2-.2.2-.2.3z" class="st27"/></g><g class="st26"><path d="M2544.4-958.4h2c.2 0 .3 0 .4.1.1.1.2.2.2.3s0 .2-.1.3c-.1.1-.2.1-.4.1h-2.8c-.2 0-.3-.1-.4-.2-.1-.1-.2-.2-.2-.4 0-.1 0-.2.1-.4.1-.1.1-.3.2-.3l.9-.9c.3-.2.5-.4.6-.5.2-.1.4-.3.5-.4.1-.1.2-.3.3-.4.1-.2.1-.3.1-.4 0-.2 0-.3-.1-.4l-.3-.3c-.1-.1-.3-.1-.4-.1-.3 0-.6.1-.8.4 0 0-.1.1-.1.3-.1.2-.1.3-.2.4-.1.1-.2.1-.3.1-.1 0-.2 0-.3-.1-.1-.1-.1-.2-.1-.3 0-.2 0-.4.1-.5.1-.2.2-.4.3-.5.1-.1.3-.3.6-.4.2-.1.5-.1.8-.1.4 0 .7.1 1 .2.2.1.3.2.5.3.1.1.2.3.3.5.1.2.1.4.1.6 0 .3-.1.6-.2.8-.1.2-.3.5-.5.6s-.4.4-.8.7c-.4.3-.6.5-.8.7-.1.1-.2.1-.2.2z" class="st27"/></g><path d="M2735.7-987h8.1v9.9h-8.1z" class="st28"/><path d="M2718.1-985.5h9.5v8.4h-9.5z" class="st29"/><circle cx="2490.2" cy="-923.8" r="4.8" class="st30"/><circle cx="2519.9" cy="-923.9" r="4.8" class="st30"/><circle cx="2800" cy="-923.9" r="4.8" class="st30"/><circle cx="2829.8" cy="-923.9" r="4.8" class="st30"/><path d="M2645.1-977.1v-7.4l70.8.1v7.3z" class="st31"/><path d="M2560.3-977.1v-8.4h47.9v8.4zM2781.2-977.1v-8.4h47.9v8.4z" class="st32"/><path d="M2613.6-977.1v-12h20.4v12z" class="st28"/><path d="M2519.8-977.1v-8.4h17.7v8.4z" class="st32"/><path d="M2494.4-965.3h7.5v16.4h-7.5z" class="st24"/><path d="M2850.2-964.7h-71.5v15.8h71.5z" class="st23"/><path d="M2810.8-964.7h7.5v15.8h-7.5z" class="st24"/><path d="M2545.2-977.1v-5h7.7v5z" class="st28"/><path d="M2708.7-929.9h31.8v5.1h-31.8zM2576.5-929.9h31.8v3.8h-31.8zM2649.9-929.9v3h35.4v-3zM2620.6-929.9v5.1h22.3v-5.1z" class="st33"/><path d="M2468.1-929.9s-.5 3.8-5.2 3.8h-14v-3.4l19.2-.4zM2854.3-929.8s.4 3.8 5 3.8h13.7v-3.8h-18.7z" class="st27"/><path d="M2850.6-929.9s-.1 5.6-12.1 5.8-60.5.4-60.5.4l4.7-6.2h67.9zM2538.5-929.9s-.1 5.6-12.1 5.8-45.6 1.4-48.6 0-7.2-5.8-7.2-5.8h67.9z" class="st31"/><path d="M2436.3-971.5h12.6v41.7h-12.5z" class="st34"/><path d="m2804.6-989.1 16.1-2.3-18.6-4.5-.1.4.2-.9M2436.4-971.5h12.4v41.7h-12.4zM2446.8-971.5v41.6M2444.7-971.5v41.6M2442.7-971.5v41.6M2440.6-971.5v41.6M2438.5-971.5v41.6" class="st25"/></g><g id="Tête_gauche"><path d="M2013.2-929.8c1.9.1 423.2 0 423.2 0l-.1-46.9h-390.4v-8.7c-41.7 9-34.4 52.4-32.7 55.6z" class="st14"/><path d="M2045.9-976.7c-19.3 2.4-27.8 24.1-28 26.3-1.7.3-2.9.7-5.7.7.6-4 2.5-28.6 33.7-35.8v8.8z" class="st35"/><path d="M2011.9-935.9h424.4v6.1h-423.1c-.1 0-1-2.2-1.3-6.1z" class="st20"/><path d="M2025.1-953.5s10.3-16 18.7-15.9c8.4.1 16.6-.1 18.8 0 2.2.1-2.8 9.9-2.8 9.9l-34.7 6z" class="st24"/><path d="M2074.1-965.3v16.4h31.4v-16.4z" class="st23"/><path d="m2120.2-932 .1-37.4h12.8l-.2 37.4z" class="st21"/><path d="m2132.9-932 .1-37.4h12.5v37.4z" class="st21"/><path d="M2122.6-965v17.5h7.7V-965zM2135.5-965v17.5h7.7V-965z" class="st22"/><path d="m2310.1-932 .1-37.4h12.6l-.1 37.4z" class="st21"/><path d="m2322.7-932 .1-37.4h12.6v37.4z" class="st21"/><path d="M2312.5-965v17.5h7.7V-965zM2325.4-965v17.5h7.6V-965z" class="st22"/><path d="M2158.9-960.3v15.8h137.8v-15.8z" class="st23"/><path d="M2224-960.3h7.5v15.8h-7.5zM2258.4-960.3h7.6l-.1 15.8h-7.5z" class="st24"/><path d="M2383.3-964.4h7.5v15.8h-7.5z" class="st25"/><path d="M2189.8-960.3h7.5v15.8h-7.5z" class="st24"/><path d="M2351.3-965.3h71.5v16.4h-71.5z" class="st23"/><g class="st26"><path d="M2031.8-939.3c0-.1 0-.3.1-.4l.3-.3c.1-.1.3-.1.5-.1s.3 0 .4.1c.1.1.2.1.3.2.1.1.1.2.2.2 0 .1.1.2.1.3s0 .2-.1.4-.2.2-.3.3c.1 0 .2.1.3.2.1.1.1.2.2.2 0 .1.1.2.1.3 0 .2 0 .3-.1.5s-.2.2-.4.3-.3.1-.6.1c-.2 0-.4 0-.6-.1s-.3-.2-.4-.3-.1-.3-.1-.5c0-.4.2-.6.5-.7-.2-.2-.4-.4-.4-.7zm1.5 1.4c0-.1 0-.2-.1-.3l-.2-.2c-.1 0-.2-.1-.3-.1s-.3 0-.3.1c-.1.1-.1.2-.1.4 0 .1 0 .2.1.3 0 .1.1.1.2.2s.2.1.3.1c.1 0 .2 0 .3-.1.1 0 .1-.1.2-.2-.1 0-.1-.1-.1-.2zm-.5-1.8c-.1 0-.2 0-.3.1-.1.1-.1.2-.1.3s0 .2.1.3c.1.1.2.1.3.1h.2c.1 0 .1 0 .1-.1l.1-.1v-.2c0-.1 0-.2-.1-.2 0-.1-.1-.1-.3-.2 0 .1.1 0 0 0zM2034.3-939.3c0-.1 0-.3.1-.4l.3-.3c.1-.1.3-.1.5-.1s.3 0 .4.1c.1.1.2.1.3.2.1.1.1.2.2.2 0 .1.1.2.1.3s0 .2-.1.4-.2.2-.3.3c.1 0 .2.1.3.2.1.1.1.2.2.2 0 .1.1.2.1.3 0 .2 0 .3-.1.5s-.2.2-.4.3-.3.1-.6.1c-.2 0-.4 0-.6-.1s-.3-.2-.4-.3-.1-.3-.1-.5c0-.4.2-.6.5-.7-.3-.2-.4-.4-.4-.7zm1.4 1.4c0-.1 0-.2-.1-.3l-.2-.2c-.1 0-.2-.1-.3-.1s-.3 0-.3.1c-.1.1-.1.2-.1.4 0 .1 0 .2.1.3 0 .1.1.1.2.2s.2.1.3.1c.1 0 .2 0 .3-.1.1 0 .1-.1.2-.2-.1 0-.1-.1-.1-.2zm-.5-1.8c-.1 0-.2 0-.3.1-.1.1-.1.2-.1.3s0 .2.1.3c.1.1.2.1.3.1h.2c.1 0 .1 0 .1-.1l.1-.1v-.2c0-.1 0-.2-.1-.2 0-.1-.1-.1-.3-.2 0 .1.1 0 0 0zM2036.7-939.3c0-.1 0-.3.1-.4l.3-.3c.1-.1.3-.1.5-.1s.3 0 .4.1c.1.1.2.1.3.2.1.1.1.2.2.2 0 .1.1.2.1.3s0 .2-.1.4-.2.2-.3.3c.1 0 .2.1.3.2.1.1.1.2.2.2 0 .1.1.2.1.3 0 .2 0 .3-.1.5s-.2.2-.4.3-.3.1-.6.1c-.2 0-.4 0-.6-.1s-.3-.2-.4-.3c-.1-.1-.1-.3-.1-.5 0-.4.2-.6.5-.7-.2-.2-.4-.4-.4-.7zm1.5 1.4c0-.1 0-.2-.1-.3l-.2-.2c-.1 0-.2-.1-.3-.1s-.3 0-.3.1c-.1.1-.1.2-.1.4 0 .1 0 .2.1.3 0 .1.1.1.2.2s.2.1.3.1c.1 0 .2 0 .3-.1.1 0 .1-.1.2-.2-.1 0-.1-.1-.1-.2zm-.5-1.8c-.1 0-.2 0-.3.1-.1.1-.1.2-.1.3s0 .2.1.3c.1.1.2.1.3.1h.2c.1 0 .1 0 .1-.1l.1-.1v-.2c0-.1 0-.2-.1-.2 0-.1-.1-.1-.3-.2 0 .1.1 0 0 0zM2039.2-939.3c0-.1 0-.3.1-.4l.3-.3c.1-.1.3-.1.5-.1s.3 0 .4.1c.1.1.2.1.3.2.1.1.1.2.2.2 0 .1.1.2.1.3s0 .2-.1.4-.2.2-.3.3c.1 0 .2.1.3.2.1.1.1.2.2.2 0 .1.1.2.1.3 0 .2 0 .3-.1.5s-.2.2-.4.3-.3.1-.6.1c-.2 0-.4 0-.6-.1s-.3-.2-.4-.3c-.1-.1-.1-.3-.1-.5 0-.4.2-.6.5-.7-.3-.2-.4-.4-.4-.7zm1.4 1.4c0-.1 0-.2-.1-.3l-.2-.2c-.1 0-.2-.1-.3-.1s-.3 0-.3.1c-.1.1-.1.2-.1.4 0 .1 0 .2.1.3 0 .1.1.1.2.2s.2.1.3.1c.1 0 .2 0 .3-.1.1 0 .1-.1.2-.2-.1 0-.1-.1-.1-.2zm-.5-1.8c-.1 0-.2 0-.3.1-.1.1-.1.2-.1.3s0 .2.1.3c.1.1.2.1.3.1h.2c.1 0 .1 0 .1-.1l.1-.1v-.2c0-.1 0-.2-.1-.2 0-.1-.1-.1-.3-.2 0 .1.1 0 0 0zM2041.7-939.3c0-.1 0-.3.1-.4l.3-.3c.1-.1.3-.1.5-.1s.3 0 .4.1c.1.1.2.1.3.2.1.1.1.2.2.2 0 .1.1.2.1.3s0 .2-.1.4-.2.2-.3.3c.1 0 .2.1.3.2.1.1.1.2.2.2 0 .1.1.2.1.3 0 .2 0 .3-.1.5s-.2.2-.4.3-.3.1-.6.1c-.2 0-.4 0-.6-.1s-.3-.2-.4-.3c-.1-.1-.1-.3-.1-.5 0-.4.2-.6.5-.7-.3-.2-.4-.4-.4-.7zm1.4 1.4c0-.1 0-.2-.1-.3l-.2-.2c-.1 0-.2-.1-.3-.1s-.3 0-.3.1c-.1.1-.1.2-.1.4 0 .1 0 .2.1.3 0 .1.1.1.2.2s.2.1.3.1c.1 0 .2 0 .3-.1.1 0 .1-.1.2-.2-.1 0-.1-.1-.1-.2zm-.5-1.8c-.1 0-.2 0-.3.1-.1.1-.1.2-.1.3s0 .2.1.3c.1.1.2.1.3.1h.2c.1 0 .1 0 .1-.1l.1-.1v-.2c0-.1 0-.2-.1-.2 0-.1-.1-.1-.3-.2 0 .1.1 0 0 0z" class="st27"/></g><g class="st26"><path d="M2149.8-958h2c.2 0 .3 0 .4.1s.2.2.2.3 0 .2-.1.3c-.1.1-.2.1-.4.1h-2.8c-.2 0-.3-.1-.4-.2-.1-.1-.2-.2-.2-.4 0-.1 0-.2.1-.4.1-.1.1-.3.2-.3l.9-.9c.3-.2.5-.4.6-.5.2-.1.4-.3.5-.4.1-.1.2-.3.3-.4.1-.2.1-.3.1-.5s0-.3-.1-.4l-.3-.3c-.1-.1-.3-.1-.4-.1-.3 0-.6.1-.8.4 0 0-.1.1-.1.3s-.1.3-.2.4c-.1.1-.2.1-.3.1-.1 0-.2 0-.3-.1s-.1-.2-.1-.3c0-.2 0-.4.1-.5.1-.2.2-.4.3-.5.2-.2.3-.3.6-.4.2-.1.5-.1.8-.1.4 0 .7.1 1 .2.2.1.3.2.5.3.1.1.2.3.3.5.1.2.1.4.1.6 0 .3-.1.6-.2.8-.2.3-.3.5-.5.6s-.4.4-.8.7-.6.5-.8.7c-.1.1-.1.2-.2.3z" class="st27"/></g><g class="st26"><path d="M2116.3-957.7v-3.4c-.6.5-1.1.7-1.3.7-.1 0-.2 0-.3-.1s-.1-.2-.1-.3 0-.2.1-.3.2-.1.4-.2c.3-.1.5-.3.7-.4l.5-.5c.1-.2.2-.3.3-.4 0 0 .1-.1.2-.1s.2.1.3.2c.1.1.1.2.1.4v4.3c0 .5-.2.8-.5.8-.2 0-.3-.1-.4-.2v-.5z" class="st27"/></g><g class="st26"><path d="M2304.7-958h2c.2 0 .3 0 .4.1.1.1.2.2.2.3s0 .2-.1.3c-.1.1-.2.1-.4.1h-2.8c-.2 0-.3-.1-.4-.2-.1-.1-.2-.2-.2-.4 0-.1 0-.2.1-.4.1-.1.1-.3.2-.3l.9-.9c.3-.2.5-.4.6-.5.2-.1.4-.3.5-.4.1-.1.2-.3.3-.4.1-.2.1-.3.1-.5s0-.3-.1-.4l-.3-.3c-.1-.1-.3-.1-.4-.1-.3 0-.6.1-.8.4 0 0-.1.1-.1.3s-.1.3-.2.4c-.1.1-.2.1-.3.1-.1 0-.2 0-.3-.1-.1-.1-.1-.2-.1-.3 0-.2 0-.4.1-.5.1-.2.2-.4.3-.5.2-.2.3-.3.6-.4.2-.1.5-.1.8-.1.4 0 .7.1 1 .2.2.1.3.2.5.3.1.1.2.3.3.5.1.2.1.4.1.6 0 .3-.1.6-.2.8-.2.3-.3.5-.5.6-.2.1-.4.4-.8.7-.4.3-.6.5-.8.7-.1.1-.2.2-.2.3z" class="st27"/></g><g class="st26"><path d="M2339.7-958h2c.2 0 .3 0 .4.1.1.1.2.2.2.3s0 .2-.1.3c-.1.1-.2.1-.4.1h-2.8c-.2 0-.3-.1-.4-.2-.1-.1-.2-.2-.2-.4 0-.1 0-.2.1-.4.1-.1.1-.3.2-.3l.9-.9c.3-.2.5-.4.6-.5.2-.1.4-.3.5-.4.1-.1.2-.3.3-.4.1-.2.1-.3.1-.5s0-.3-.1-.4l-.3-.3c-.1-.1-.3-.1-.4-.1-.3 0-.6.1-.8.4 0 0-.1.1-.1.3s-.1.3-.2.4c-.1.1-.2.1-.3.1-.1 0-.2 0-.3-.1-.1-.1-.1-.2-.1-.3 0-.2 0-.4.1-.5.1-.2.2-.4.3-.5.2-.2.3-.3.6-.4.2-.1.5-.1.8-.1.4 0 .7.1 1 .2.2.1.3.2.5.3.1.1.2.3.3.5.1.2.1.4.1.6 0 .3-.1.6-.2.8-.2.3-.3.5-.5.6-.2.1-.4.4-.8.7-.4.3-.6.5-.8.7-.1.1-.2.2-.2.3z" class="st27"/></g><path d="M2065.4-969.4h52.7v1.5h-52.7z" class="st35"/><path d="M2045.9-984.4h13c4.6 0 7.1 7.7 7.1 7.7h-20.1v-7.7zM2092.3-986.2h8.1v9.5h-8.1z" class="st28"/><path d="M2100.4-984.2h9.4v7.5h-9.4v-7.5" class="st29"/><circle cx="2395.1" cy="-923.5" r="4.8" class="st30"/><circle cx="2365.3" cy="-923.5" r="4.8" class="st30"/><circle cx="2090.2" cy="-923.6" r="4.8" class="st30"/><circle cx="2060.4" cy="-923.6" r="4.8" class="st30"/><path d="M2180.6-976.7v-7.1h-70.8v7.1z" class="st31"/><path d="M2264.4-976.7v-9.9H2196v9.9zM2320.2-976.7v-8.4h-47.9v8.4z" class="st32"/><path d="M2344-976.7v-12h-20.4v12z" class="st28"/><path d="M2365.5-976.7v-8.4h-17.7v8.4z" class="st32"/><path d="M2383.3-965.3h7.5v16.4h-7.5z" class="st24"/><path d="M2374.5-976.7v-5h-7.7v5z" class="st28"/><path d="M2267.7-929.8v3h-35.4v-3zM2297.1-929.8v5.1h-22.4v-5.1z" class="st33"/><path d="M2321.5-929.8s.3 3.6 3.8 3.8h9.1v-3.8h-12.9zM2417.3-929.8s.4 3.8 5 3.8h14.1v-3.8h-19.1zM2020.3-929.8v5.2s4.5-2.8 5.1-5.2h-5.1z" class="st27"/><path d="M2039.6-929.8s.1 4.3 12.1 4.4c12 .1 60.5 0 60.5 0l-4.7-4.4h-67.9zM2346.7-929.8s.1 5.6 12.1 5.8 45.6 1.4 48.6 0 7.2-5.8 7.2-5.8h-67.9z" class="st31"/><path d="M2177.1-929.8h31.8v3h-31.8z" class="st33"/><path d="M2060.1-952.7c-3.6 0-6.5 1.9-6.5 4.3s2.9 4.3 6.5 4.3 6.5-1.9 6.5-4.3-2.9-4.3-6.5-4.3zm0 8.1c-3 0-5.4-1.7-5.4-3.8s2.4-3.8 5.4-3.8 5.4 1.7 5.4 3.8-2.4 3.8-5.4 3.8z" class="st36"/><path d="M2057.1-950.4c.6-.5 1.5-.8 2.4-.9.1 0 .1 0 .1.1v.5c0 .1 0 .1-.1.1h-.1c-.1 0-.2.1-.2.3v3.9c0 .2.1.3.3.3.9 0 1.8 0 2.4-.6.1-.1.2-.1.3 0l.4.4c.1 0 0 .1 0 .2-1.3.9-3.8 1.2-5.4-.2v-.1l.2-.3c0-.1.1-.1.2 0s.2 0 .2-.1v-2.9c0-.1-.1-.2-.2-.1h-.1l-.2-.3c-.3-.2-.3-.3-.2-.3z" class="st36"/><path d="M2061.3-949.4c.3 0 .5.2.5.5s-.2.5-.5.5-.5-.2-.5-.5c-.1-.2.2-.5.5-.5zm-.3 2.8s0-.1 0 0c-.3-.2-.5-.4-.5-.7s.3-.6.8-.6c.4 0 .8.3.8.6 0 .1 0 .1.1.1.2.1.4.3.5.4h.1c.2-.2.3-.5.3-.8s-.4-.5-.7-.6c.4-.3.6-.8.2-1.2-.7-.7-2.1-.7-2.8 0-.4.4-.2.9.2 1.2-.3.1-.6.3-.7.6-.1.4.2.8.5 1h.2c.4.1.7.1 1 0z" class="st36"/></g><g id="Tête_droite"><path d="M3276-985.7v8.7h-390.4v47s421.4.1 423.2 0c1.7-3.2 9-46.8-32.8-55.7z" class="st14"/><path d="M3276-977v-8.7c31.6 6.8 33.4 31.6 33.8 35.7-2.8.1-4.2-.3-5.8-.6-.1-2.3-8.7-24-28-26.4z" class="st35"/><path d="M3308.8-929.8h-423.2v-6.1H3310c-.4 3.9-1.2 6.1-1.2 6.1z" class="st20"/><path d="M3262.1-959.5s-5-9.8-2.8-9.9c2.2-.1 10.4.1 18.8 0s18.7 15.9 18.7 15.9c0 .1-34.7-6-34.7-6z" class="st24"/><path d="M3216.5-965.3v16.4h31.3v-16.4z" class="st23"/><path d="M3189.1-932.3v-37.1h12.5l.1 37.1zM3176.4-932.3v-37.1h12.7v37.1z" class="st21"/><path d="M3191.7-965.3v17.5h7.6v-17.5zM3178.8-965.3v17.5h7.6v-17.5z" class="st22"/><path d="M2999.2-932.3v-37.1h12.5l.1 37.1z" class="st21"/><path d="M2986.5-932v-37.4h12.8l-.1 37.1z" class="st21"/><path d="M3001.8-965.3v17.5h7.6v-17.5zM2988.9-965.3v17.5h7.7v-17.5z" class="st22"/><path d="M3025.3-960.6v15.8h137.8v-15.8z" class="st23"/><path d="M3090.4-960.6h7.5v15.8h-7.5zM3063.5-944.8h-7.5v-15.8h7.5z" class="st24"/><path d="M2931.2-964.7h7.5v15.8h-7.5z" class="st25"/><path d="M3124.7-960.6h7.5v15.8h-7.5z" class="st24"/><path d="M2970.7-948.9h-71.5v-16.4h71.5z" class="st23"/><g class="st26"><path d="M3289.7-938.9c.3.1.5.4.5.7 0 .2 0 .3-.1.5-.1.1-.2.2-.4.3s-.3.1-.6.1c-.2 0-.4 0-.6-.1-.2-.1-.3-.2-.4-.3-.1-.1-.1-.3-.1-.5 0-.1 0-.2.1-.3 0-.1.1-.2.2-.2.1-.1.2-.1.3-.2l-.3-.3c-.1-.1-.1-.2-.1-.4 0-.1 0-.2.1-.3 0-.1.1-.2.2-.2.1-.1.2-.1.3-.2.1-.1.3-.1.4-.1.2 0 .4 0 .5.1l.3.3c.1.1.1.2.1.4 0 .4-.1.6-.4.7zm-1 1c0 .1.1.1.2.2.1 0 .2.1.3.1s.2 0 .3-.1c.1 0 .1-.1.2-.2 0-.1.1-.2.1-.3 0-.2 0-.3-.1-.4-.1-.1-.2-.1-.3-.1-.1 0-.2 0-.3.1-.1 0-.1.1-.2.2s-.1.2-.1.3c0 .1-.1.1-.1.2zm.2-1.9c-.1 0-.1.1-.2.1s-.1.1-.1.2v.2c0 .1 0 .1.1.1l.1.1h.2c.1 0 .2 0 .3-.1.1-.1.1-.2.1-.3s0-.2-.1-.3c-.1-.1-.2-.1-.4 0 .2-.1.1-.1 0 0zM3287.2-938.9c.3.1.5.4.5.7 0 .2 0 .3-.1.5-.1.1-.2.2-.4.3s-.3.1-.6.1c-.2 0-.4 0-.6-.1-.2-.1-.3-.2-.4-.3-.1-.1-.1-.3-.1-.5 0-.1 0-.2.1-.3 0-.1.1-.2.2-.2.1-.1.2-.1.3-.2l-.3-.3c-.1-.1-.1-.2-.1-.4 0-.1 0-.2.1-.3 0-.1.1-.2.2-.2s.2-.1.3-.2c.1-.1.3-.1.4-.1.2 0 .4 0 .5.1l.3.3c.1.1.1.2.1.4.1.4-.1.6-.4.7zm-.9 1c0 .1.1.1.2.2.1 0 .2.1.3.1.1 0 .2 0 .3-.1.1 0 .1-.1.2-.2 0-.1.1-.2.1-.3 0-.2 0-.3-.1-.4-.1-.1-.2-.1-.3-.1-.1 0-.2 0-.3.1-.1 0-.1.1-.2.2s-.1.2-.1.3c0 .1-.2.1-.1.2zm.2-1.9c-.1 0-.1.1-.2.1 0 .1-.1.1-.1.2v.2c0 .1 0 .1.1.1l.1.1h.2c.1 0 .2 0 .3-.1.1-.1.1-.2.1-.3s0-.2-.1-.3c-.1-.1-.2-.1-.4 0 .1-.1.1-.1 0 0zM3284.8-938.9c.3.1.5.4.5.7 0 .2 0 .3-.1.5-.1.1-.2.2-.4.3s-.3.1-.6.1c-.2 0-.4 0-.6-.1-.2-.1-.3-.2-.4-.3s-.1-.3-.1-.5c0-.1 0-.2.1-.3 0-.1.1-.2.2-.2.1-.1.2-.1.3-.2l-.3-.3c-.1-.1-.1-.2-.1-.4 0-.1 0-.2.1-.3 0-.1.1-.2.2-.2.1-.1.2-.1.3-.2.1-.1.3-.1.4-.1.2 0 .4 0 .5.1l.3.3c.1.1.1.2.1.4 0 .4-.1.6-.4.7zm-1 1c0 .1.1.1.2.2.1 0 .2.1.3.1.1 0 .2 0 .3-.1.1 0 .1-.1.2-.2 0-.1.1-.2.1-.3 0-.2 0-.3-.1-.4-.1-.1-.2-.1-.3-.1-.1 0-.2 0-.3.1-.1 0-.1.1-.2.2s-.1.2-.1.3c0 .1-.1.1-.1.2zm.2-1.9c-.1 0-.1.1-.2.1s-.1.1-.1.2v.2c0 .1 0 .1.1.1l.1.1h.2c.1 0 .2 0 .3-.1.1-.1.1-.2.1-.3s0-.2-.1-.3c-.1-.1-.2-.1-.4 0 .2-.1.1-.1 0 0zM3282.3-938.9c.3.1.5.4.5.7 0 .2 0 .3-.1.5-.1.1-.2.2-.4.3s-.3.1-.6.1c-.2 0-.4 0-.6-.1-.2-.1-.3-.2-.4-.3s-.1-.3-.1-.5c0-.1 0-.2.1-.3 0-.1.1-.2.2-.2.1-.1.2-.1.3-.2l-.3-.3c-.1-.1-.1-.2-.1-.4 0-.1 0-.2.1-.3 0-.1.1-.2.2-.2.1-.1.2-.1.3-.2.1-.1.3-.1.4-.1.2 0 .4 0 .5.1l.3.3c.1.1.1.2.1.4 0 .4-.1.6-.4.7zm-.9 1c0 .1.1.1.2.2s.2.1.3.1c.1 0 .2 0 .3-.1l.2-.2c0-.1.1-.2.1-.3 0-.2 0-.3-.1-.4-.1-.1-.2-.1-.3-.1-.1 0-.2 0-.3.1-.1 0-.1.1-.2.2s-.1.2-.1.3c0 .1-.2.1-.1.2zm.2-1.9c-.1 0-.1.1-.2.1s-.1.1-.1.2v.2s0 .1.1.1l.1.1h.2c.1 0 .2 0 .3-.1.1-.1.1-.2.1-.3s0-.2-.1-.3c-.1-.1-.2-.1-.4 0 .1-.1 0-.1 0 0zM3279.9-938.9c.3.1.5.4.5.7 0 .2 0 .3-.1.5-.1.1-.2.2-.4.3s-.3.1-.6.1c-.2 0-.4 0-.6-.1s-.3-.2-.4-.3c-.1-.1-.1-.3-.1-.5 0-.1 0-.2.1-.3.1-.1.1-.2.2-.2.1-.1.2-.1.3-.2l-.3-.3c-.1-.1-.1-.2-.1-.4 0-.1 0-.2.1-.3 0-.1.1-.2.2-.2.1-.1.2-.1.3-.2.1-.1.3-.1.4-.1.2 0 .4 0 .5.1l.3.3c.1.1.1.2.1.4 0 .4-.1.6-.4.7zm-1 1c0 .1.1.1.2.2.1 0 .2.1.3.1.1 0 .2 0 .3-.1l.2-.2c.1-.1.1-.2.1-.3 0-.2 0-.3-.1-.4-.1-.1-.2-.1-.3-.1-.1 0-.2 0-.3.1-.1 0-.1.1-.2.2s-.1.2-.1.3c0 .1-.1.1-.1.2zm.2-1.9c-.1 0-.1.1-.2.1 0 .1-.1.1-.1.2v.2s0 .1.1.1l.1.1h.2c.1 0 .2 0 .3-.1.1-.1.1-.2.1-.3s0-.2-.1-.3c-.1-.1-.2-.1-.4 0 .2-.1.1-.1 0 0z" class="st27"/></g><g class="st26"><path d="M3171-958.3h2c.2 0 .3 0 .4.1.1.1.2.2.2.3s0 .2-.1.3c-.1.1-.2.1-.4.1h-2.8c-.2 0-.3-.1-.4-.2-.1-.1-.2-.2-.2-.4 0-.1 0-.2.1-.4s.1-.3.2-.3l.9-.9c.3-.3.5-.4.6-.5.2-.1.4-.3.5-.4.1-.1.2-.3.3-.4.1-.1.1-.3.1-.5s0-.3-.1-.4l-.3-.3c-.1-.1-.3-.1-.4-.1-.3 0-.6.1-.8.4 0 0-.1.1-.1.3s-.1.3-.2.4c-.1.1-.2.1-.3.1s-.2 0-.3-.1c-.1-.1-.1-.2-.1-.3 0-.2 0-.4.1-.5.1-.2.2-.4.3-.5.2-.2.3-.3.6-.4.2-.1.5-.1.8-.1.4 0 .7.1 1 .2.2.1.3.2.5.3.1.1.2.3.3.5.1.2.1.4.1.6 0 .3-.1.6-.2.8-.2.3-.3.5-.5.6s-.4.4-.8.7-.6.5-.8.7c-.1.2-.2.2-.2.3z" class="st27"/></g><g class="st26"><path d="M3205.7-957.9v-3.4c-.6.5-1.1.7-1.3.7-.1 0-.2 0-.3-.1-.1-.1-.1-.2-.1-.3s0-.2.1-.3c.1-.1.2-.1.4-.2.3-.1.5-.3.7-.4l.5-.5c.1-.2.2-.3.3-.4.1-.1.1-.1.2-.1s.2.1.3.2c.1.1.1.2.1.4v4.3c0 .5-.2.8-.5.8-.2 0-.3-.1-.4-.2v-.5z" class="st27"/></g><g class="st26"><path d="M3016.1-958.3h2c.2 0 .3 0 .4.1.1.1.2.2.2.3s0 .2-.1.3c-.1.1-.2.1-.4.1h-2.8c-.2 0-.3-.1-.4-.2-.1-.1-.2-.2-.2-.4 0-.1 0-.2.1-.4s.1-.3.2-.3l.9-.9c.3-.3.5-.4.6-.5.2-.1.4-.3.5-.4.1-.1.2-.3.3-.4.1-.1.1-.3.1-.5s0-.3-.1-.4l-.3-.3c-.1-.1-.3-.1-.4-.1-.3 0-.6.1-.8.4 0 0-.1.1-.1.3s-.1.3-.2.4c-.1.1-.2.1-.3.1-.1 0-.2 0-.3-.1-.1-.1-.1-.2-.1-.3 0-.2 0-.4.1-.5.1-.2.2-.4.3-.5.2-.2.3-.3.6-.4.2-.1.5-.1.8-.1.4 0 .7.1 1 .2.2.1.3.2.5.3.1.1.2.3.3.5.1.2.1.4.1.6 0 .3-.1.6-.2.8-.2.3-.3.5-.5.6s-.4.4-.8.7c-.4.3-.6.5-.8.7-.1.1-.1.2-.2.3z" class="st27"/></g><g class="st26"><path d="M2981.1-958.3h2c.2 0 .3 0 .4.1.1.1.2.2.2.3s0 .2-.1.3c-.1.1-.2.1-.4.1h-2.8c-.2 0-.3-.1-.4-.2-.1-.1-.2-.2-.2-.4 0-.1 0-.2.1-.4s.1-.3.2-.3l.9-.9c.3-.3.5-.4.6-.5.2-.1.4-.3.5-.4.1-.1.2-.3.3-.4.1-.1.1-.3.1-.5s0-.3-.1-.4l-.3-.3c-.1-.1-.3-.1-.4-.1-.3 0-.6.1-.8.4 0 0-.1.1-.1.3s-.1.3-.2.4c-.1.1-.2.1-.3.1-.1 0-.2 0-.3-.1-.1-.1-.1-.2-.1-.3 0-.2 0-.4.1-.5.1-.2.2-.4.3-.5.2-.2.3-.3.6-.4.2-.1.5-.1.8-.1.4 0 .7.1 1 .2.2.1.3.2.5.3.1.1.2.3.3.5.1.2.1.4.1.6 0 .3-.1.6-.2.8-.2.3-.3.5-.5.6s-.4.4-.8.7c-.4.3-.6.5-.8.7-.1.2-.1.2-.2.3z" class="st27"/></g><path d="M3203.8-969.4h52.7v1.5h-52.7z" class="st35"/><path d="M3276-977h-20.1s2.5-7.7 7.1-7.7h13v7.7zM3221.6-986.5h8.1v9.5h-8.1z" class="st28"/><path d="M3221.6-984.5v7.5h-9.5v-7.5h9.5" class="st29"/><circle cx="2926.9" cy="-923.9" r="4.8" class="st30"/><circle cx="2956.7" cy="-923.9" r="4.8" class="st30"/><circle cx="3231.7" cy="-923.9" r="4.8" class="st30"/><circle cx="3261.5" cy="-923.9" r="4.8" class="st30"/><path d="M3212.1-977v-7.1h-70.8v7.1z" class="st31"/><path d="M3126-977v-9.9h-68.5v9.9zM3049.6-977v-8.4h-47.9v8.4z" class="st32"/><path d="M2998.4-977v-12.1h-20.5v12.1z" class="st28"/><path d="M2974.2-977v-8.4h-17.7v8.4z" class="st32"/><path d="M2931.2-965.3h7.5v16.4h-7.5z" class="st24"/><path d="M2955.1-977v-5.1h-7.6v5.1z" class="st28"/><path d="M3089.7-929.8v3h-35.4v-3zM3047.2-929.8v5.1h-22.3v-5.1z" class="st33"/><path d="M2987.7-929.8v3.8h9.1c3.4-.1 3.8-3.8 3.8-3.8h-12.9zM2885.6-929.8v3.8h14c4.7 0 5-3.8 5-3.8h-19zM3301.7-929.8h-5.1c.6 2.4 5.1 5.1 5.1 5.1v-5.1z" class="st27"/><path d="m3214.5-929.8-4.7 4.4s48.5.2 60.5 0 12.1-4.4 12.1-4.4h-67.9zM2907.4-929.8s4.2 4.4 7.2 5.8c3 1.4 36.6.1 48.6 0 12-.2 12.1-5.8 12.1-5.8h-67.9z" class="st31"/><path d="M3113-929.8h31.8v3H3113z" class="st33"/><path d="M2873.1-971.8h12.5v42H2873z" class="st34"/><path d="M2873.2-971.8h12.4v41.7h-12.4zM2883.5-971.8v41.6M2881.4-971.8v41.6M2879.4-971.8v41.6M2877.3-971.8v41.6M2875.2-971.8v41.6" class="st25"/><path d="M3277-952.9c-3.6 0-6.5 1.9-6.5 4.3s2.9 4.3 6.5 4.3 6.5-1.9 6.5-4.3-2.9-4.3-6.5-4.3zm0 8.1c-3 0-5.4-1.7-5.4-3.8s2.4-3.8 5.4-3.8 5.4 1.7 5.4 3.8-2.4 3.8-5.4 3.8z" class="st36"/><path d="M3274-950.6c.6-.5 1.5-.8 2.4-.9.1 0 .1 0 .1.1v.5c0 .1 0 .1-.1.1h-.1c-.1 0-.2.1-.2.3v3.9c0 .2.1.3.3.3.9 0 1.8 0 2.4-.6.1-.1.2-.1.3 0l.4.4c.1 0 0 .1 0 .2-1.3.9-3.8 1.2-5.4-.2v-.1l.2-.3c0-.1.1-.1.2 0s.2 0 .2-.1v-3.1c0-.1-.1-.2-.2-.1h-.1l-.2-.3c-.2 0-.2-.1-.2-.1z" class="st36"/><path d="M3278.2-949.6c.3 0 .5.2.5.5s-.2.5-.5.5-.5-.2-.5-.5.2-.5.5-.5zm-.3 2.8c.1-.1.1-.1 0 0-.3-.2-.5-.4-.5-.7s.3-.6.8-.6c.4 0 .8.3.8.6 0 .1 0 .1.1.1.2.1.4.3.5.4h.1c.2-.2.3-.5.3-.8s-.4-.5-.7-.6c.4-.3.6-.8.2-1.2-.7-.7-2.1-.7-2.8 0-.4.4-.2.9.2 1.2-.3.1-.6.3-.7.6-.1.4.2.8.5 1h.2c.4.1.7.1 1 0z" class="st36"/></g></g><g id="illu_jour_phone_00000176763955528688877070000002965072224864593038_"><path id="Arrière_plan_copy_00000048499514221074496640000001207545167004105141_" d="M3003.3 0h588.1v841.9h-588.1z" class="st0"/><g id="Quatrième_plan_copy_00000145036048102140975570000003258444708710611098_"><path d="M3310.6 259.2h2.4v3.6h-2.4zM3313 259.1h2.4v3.6h-2.4zM3315.6 259.2h2.4v3.6h-2.4zM3310.5 263.1h2.4v3.6h-2.4zM3313 263.1h2.4v3.6h-2.4zM3315.6 263.1h2.4v3.6h-2.4z" class="st0"/><path d="M3310.5 267h2.4v3.6h-2.4zM3313 267h2.4v3.6h-2.4z" class="st2"/><path d="M3315.6 267h2.4v3.6h-2.4z" class="st0"/><path d="M3323.1 254.8h2.4v3.6h-2.4z" class="st2"/><path d="M3320.7 259.3h2.4v3.6h-2.4zM3320.7 263.1h2.4v3.6h-2.4zM3320.7 266.9h2.4v3.6h-2.4zM3323.1 259.3h2.4v3.6h-2.4zM3323.1 263.1h2.4v3.6h-2.4zM3323.1 266.9h2.4v3.6h-2.4zM3325.6 259.3h2.4v3.6h-2.4zM3325.6 263.1h2.4v3.6h-2.4zM3325.6 266.9h2.4v3.6h-2.4z" class="st0"/><path d="M3445.5 263.2c-38.3 8.6-77.8 12.8-117.1 12.1v-17.6c0-.3 0-.5-.3-.5s-.4.3-.4.3v-1c-.3-.1-.3-.4-.3-.4s-.4 0-.7-.2c-.3-.3-.3-.7-.3-.7v-.2h.1v-.2h-.2l-.1-.4h-.3c-.1-.7-.6-.7-.6-.7v-.3l.1-.1v-.3l.2-.1v-.2h-.3c-.3-.4-1.1-.3-1.1-.3s-.8 0-1.1.3h-.3v.2l.2.1v.3l.1.1v.3s-.5 0-.6.7h-.3l-.1.4h-.2v.2h.1v.2s0 .4-.3.7-.7.2-.7.2 0 .3-.3.4v1s-.1-.3-.4-.3-.3.3-.3.5v17.4c-.6 0-1.3 0-1.9-.1v-16.7c-1 0-1-1.3-1-1.3l.1-.3c-.2-.1-.1-.4-.1-.4l.3-.4h-1.3c-.3 0-.3-.2-.4-.4-.3-.1-.3 0-.3-1.5s-1.6-1.7-1.6-1.7-1.6.2-1.6 1.7 0 1.4-.3 1.5c-.1.2 0 .4-.4.4h-1.3l.3.4s.1.3-.1.4c.1.2.1.3.1.3s0 1.3-.9 1.3v16.3c-46.2-2.6-91.8-12.1-134.7-29.2-28.7-11.4-56.1-26-85.3-35.6h.5l-38.7-35.8v-3.4l-2-1.6v-7l1.3-.9-2.1-2.9h-.6l.6-1.4s.3-.4-.2-.8c.4-.3 1.1-1 1.3-1.7.3-1-.4-1.7-1.1-1.9-.7-.1-1.4.2-1.4.2s-.6-.8-1.6-.6c-1 .1-2.8.7-3.5.1-.8-.6-1.8-2.1-2-2.4s-1.2-.9-1.9-.6c-.8.3-1.1 1.1-1.3 1.8-.3.7-.3 1.3-.1 1.9s.9.8.9 1.3-.4.8-.4.8-.9 0-1.2.5.1 1 .1 1-.5.7-.2 1.3c.2.5.5.6.9.6l-2.1 2.9 1.4.8v7l-2 1.6v2.9l-28 26.5c-20 1.7-39.6 6.3-58.4 13.4v296.4h653V202.2c-48.6 27.6-100.8 48.7-155.3 61zm-120.3-.8h-1.8v-2.9h1.8v2.9zm0 4.6v2.9h-1.8V267h1.8zm0-3.7v2.9h-1.8v-2.9h1.8zm2.5 6.6h-1.8V267h1.8v2.9zm-1.9-10.4h1.8v2.9h-1.8v-2.9zm0 3.8h1.8v2.9h-1.8v-2.9zm-1.6-8.5c1 0 1 2.7 1 2.7h-1.9c.1-.1-.1-2.7.9-2.7zm-1.5 15.1h-1.8V267h1.8v2.9zm-1.8-10.4h1.8v2.9h-1.8v-2.9zm0 3.8h1.8v2.9h-1.8v-2.9zm-3.3 6.6h-1.8V267h1.8v2.9zm-1.9-10.4h1.8v2.9h-1.8v-2.9zm0 3.8h1.8v2.9h-1.8v-2.9zm-.6 6.6h-1.8V267h1.8v2.9zm-1.8-10.4h1.8v2.9h-1.8v-2.9zm0 3.8h1.8v2.9h-1.8v-2.9zm-.7 3.7v2.9h-1.8V267h1.8zm-1.8-7.5h1.8v2.9h-1.8v-2.9zm0 3.8h1.8v2.9h-1.8v-2.9zm-263-110.2s1.5-.4 1.7.6c.1.8-.7 1.8-1 2.1-.4-.6-.9-1.5-.9-1.5l.2-1.2zm-8.9 5.3h-1.5.2c.8-.2 1.2-1 .9-1.6s-.9-.5-.9-.5-.3-.4.1-.6c.4-.2.9-.2 1.3-.2.3 0 .6-.1.7.3.1.4.1 1-.1 1.3-.3.2-.6.9-.7 1.3zm5.7 0h-5c.1-.3.4-.9.6-1.3.3-.5.4-.8.5-1.1s1.7 0 2.5-.3c.9-.3 1.8-.9 1.8-.9s-.1 1.2.2 1.6.3.5.1.9c-.1.2-.5.8-.7 1.1zm3.4-1.2-.6 1.2h-1.8c.3-.3.9-1 .8-1.2-.1-.2-.3-1 0-1.3s.9.1 1.2.4c.1.2.5.6.4.9z" class="st4"/></g><g id="Troisième_plan_copy_00000164496308706602974910000017358585177173833633_"><path d="M3081.7 416.9h4.5v6.1h-4.5z" class="st0"/><path d="M3093.5 423h2.8v3.9h-2.8z" class="st8"/><path d="M3095.7 417.8h2.9v4.5h-2.9zM3097.6 413.5h2.8v3.4h-2.8zM3081.4 423.9h4.5v6.1h-4.5zM3081.3 431.3h4.5v6.1h-4.5zM3099.9 417.7h2.9v4.5h-2.9zM3097.8 423h2.8v3.9h-2.8zM3102 423h2.8v3.9h-2.8zM3093.6 428.5h2.8v3.9h-2.8zM3097.6 428.5h2.8v3.9h-2.8z" class="st0"/><path d="M3101.8 428.5h2.8v3.9h-2.8z" class="st8"/><path d="M3456.5 405c-5.2-1.6-10.5-2.9-15.8-3.9l.8-18.7-4.9-.2V381l-2.8-.1.3-7h-.6v-1.3l-4.6-.2v-.5h-.7v-.6h-.8v-2c0-.6-.1-1.1-.2-1.7-.1.6-.2 1.1-.3 1.7-.1.6-.1 1.1-.1 1.7v.3h-1.1v.6h-.7v.5l-4.2-.1v1.4h-1.1l-.3 7.7-5-.2v1.7h-.8v-1.7h-1.1l.1-1.8-7.9-.3v1.1h-.7l-.1 1.9h-1.5v-1.7h-.8V379l-8.9-.3.2-5.1h-.6v-1.7h-1.7v1.1h-1.3v.6l-.3 8.1h-1.5l.3-7.2h-1.4v-.9l-4.4-.2v.9h-1.5l-.1 3.7-3.4-.1-.2 5.4h-1.7v-1.4h-1.7v1.4h-1.1l-2.3-4.4c1.5-.9 2.5-2.6 2.4-4.4-.1-2.2-1.6-4.1-3.6-4.7l.3-8.9c2.8-.3 4.9-2.6 4.8-5.4-.1-2.9-2.5-5.2-5.5-5.1-1.5 0-2.9.8-3.8 1.9l-11.7-7.2c.2-.6.3-1.2.3-1.9-.1-2.8-2.4-5-5.2-4.9-2.8.1-5 2.4-4.9 5.2 0 .7.2 1.4.5 2l-11.1 7.8c-1-1-2.4-1.6-3.9-1.6-2.9.1-5.2 2.5-5.1 5.5.1 2.7 2.1 4.8 4.7 5l1 8.9c-2.2.6-3.7 2.7-3.6 5 0 1.7.9 3.1 2.2 4l-2.3 4.9-3 .1-.3-7.7h-1.1V376l-4.2.1v-.5h-.7v-.6h-1.1v-.3c0-.6 0-1.1-.1-1.7-.1-.6-.2-1.1-.3-1.7-.1.6-.2 1.1-.2 1.7v2h-.8v.6h-.7v.5l-4.6.2v1.3h-.6l.3 7-2.8.1v1.2l-4.9.2.8 18.5c-6.7 1.1-13.3 2.4-19.9 3.8-52.6 11-103.6 30.4-157.1 34.6-6 .5-11.9.7-18 .8l-.1-23.9h-1.1v-2.2h-1v-2.2h-1.2v-1.7h-1v-2.2h-.9c-.2-1.6-1.7-1.5-1.7-1.5s-1.5-.1-1.7 1.5h-.9v1.7h-1v1.7h-1.2v2.2h-1v2.2h-1.1l.1 23.9h-2v-26s-4.2.5-4.4-5.5h-5c-.2 6-4.4 5.5-4.4 5.5v25.4c-29.4-1.8-58.7-6.7-87.8-11.5-53.1-8.9-108.3-18.6-156.4-41.4v225.6l640.4-8V411.1c-5.3-2.3-10.7-4.4-16.3-6.1zm-374.8 12.6h3.8v4.2h-3.8v-4.2zm0 7h3.8v4.2h-3.8v-4.2zm0 7h3.8v4.2h-3.8v-4.2zm18.2.4h-1.8s-.3-3 .9-3c1.2-.1.9 3 .9 3zm3.3-3c1.2 0 .9 3 .9 3h-1.8s-.4-3 .9-3zm.2-5.7c1.2 0 .9 3 .9 3h-1.8s-.3-3 .9-3zm-2.1-5.5c1.2 0 .9 3 .9 3h-1.8c0 .1-.3-2.9.9-3zm-2.7-3.9h1.2v2.3h-1.2v-2.3zm.6 9.4c1.2 0 .9 3 .9 3h-1.8s-.3-3 .9-3zm-2-5.5c1.3.5.9 3 .9 3h-1.9c.1.1-.3-3.4 1-3zm-2.2 5.5c1.2 0 .9 3 .9 3h-1.8s-.3-3 .9-3zm-.2 5.7c1.2 0 .9 3 .9 3h-1.8s-.4-3 .9-3zm240.5-51.8c.3-.6.4-1.3.4-2.1 0-.5-.1-1-.3-1.4l8.2-4.2v.8c.1 2.5 1.8 4.5 4 5.2l-.7 6.5-5 .2-6.6-5zm8.3-9.8-9.1 4.7c-.8-1.1-2.1-1.8-3.6-1.9l-.9-8.8c1-.3 1.9-.8 2.6-1.5l11 7.5zm5.9 9.3h-.6l-.8-.4v-.4h1.4v.8zm-1.5.4.6 1.8.3-.2v1.4l-.4-1.2-.8.5.3-2.3zm-.2 2.4 1.2.7v1.7h-1.5l.3-2.4zm13.6-2.2h-1.5v-.9l-4.4.2v.9h-1.4l.2 6.4-1 .8h-.5l-.3-8.1v-.6h-1.3v-.9c2.1-.8 3.6-3 3.5-5.3v-.4l7.8 3.6c0 .3-.1.7-.1 1.1 0 .9.3 1.8.8 2.5l-1.6 1.4-.2-.7zm3.6-18.4c.6.6 1.4 1 2.2 1.2l-.3 8.9c-1.7.1-3.1 1.1-3.9 2.4l-8.8-4.1 10.8-8.4zm-1.4-5.8c-.3.6-.4 1.3-.3 2 0 .8.3 1.6.6 2.3l-11 8.6c-.8-.8-1.9-1.3-3-1.5l-.6-16.9c1.1-.3 2-.8 2.7-1.7l11.6 7.2zm-18.9-6.8c.8.7 1.7 1.2 2.8 1.3l.6 16.9c-1.2.2-2.3.8-3.1 1.7l-11.4-7.8c.3-.7.5-1.5.5-2.3 0-.7-.2-1.4-.5-2.1l11.1-7.7zm-13.9 34c1.4 0 2.6-.7 3.5-1.6l5.9 4.4v.4h-.8v1.7h-1.5l-.1-1.9h-.7v-1.1l-7.9.3.1 1.8h-1.1v1.7h-.8v-1.5l2-4.3c.5.1.9.1 1.4.1zm39.4 5.7h-1.7v-1.4h-1.7v1.4h-1.7l-.2-5.4-3.4.1v-.7l2.8-2.3c.9.7 2 1.1 3.2 1 .3 0 .6 0 .8-.1l3.3 6.4-.4 12.1h-.6l-.4-11.1z" class="st7"/></g><g id="Deuxième_plan_copy_00000012462661945637775630000000419414596954453647_"><path d="M3000.2 764.2h504.7V629.8h-504.6z" class="st13"/><path d="M3012.5 504.1h11.4v15.6h-11.4zM3031.3 483.2h5.7v17.5h-5.7zM3085 519.7h13.7v27.8H3085z" class="st8"/><path d="M3139.4 530h20.5v26.2h-20.5zM3153 500.7h13.9v25.7H3153z" class="st0"/><path d="M3195 507.7h25.7v12.5H3195z" class="st0" transform="rotate(-76.161 3207.753 513.943)"/><path d="M3038 481.6h5.7v17.5h-5.7zM3045 482.1h5.7v17.5h-5.7z" class="st8"/><path d="M3035.2 515.1h11.4v15.6h-11.4zM3057.8 504.4h11.4V520h-11.4zM3058 527.8h11.4v15.6H3058zM3059 549.3h11.4v15.6H3059zM3010.6 527.8h11.4v15.6h-11.4zM3012.2 549h11.4v15.6h-11.4zM3028.2 536.7h26.2v33.8h-26.2zM3027.8 573h26.2v33.8h-26.2zM3098.6 518.3h13.7v27.8h-13.7zM3114.6 517.9h13.7v27.8h-13.7zM3085 549.3h13.7v27.8H3085z" class="st0"/><path d="M3099.6 549.3h13.7v27.8h-13.7zM3114.6 549.3h13.7v27.8h-13.7z" class="st8"/><path d="M3161.8 526.8h13.9v25.7h-13.9zM3144.1 561.1h13.9v25.7h-13.9zM3162.5 560.3h13.9V586h-13.9zM3189.8 529.6h13.9v25.7h-13.9z" class="st0"/><path d="M3209.4 528.4h13.9v25.7h-13.9z" class="st8"/><path d="M3189.8 559.5h13.9v25.7h-13.9zM3209.4 558.8h13.9v25.7h-13.9z" class="st0"/><path d="m3000.4 764.1 504.5-1.4V605.6h-504.5z" class="st10"/><path d="M3078.1 507.3h-3.1l-1.2-2.2v-6.4l-1.6-1.9h-2.8l-5.7-10.8-5.3 10.8h-6.1l-.7-6.3c-.3-2.7.4-8.7.4-8.7h-1.4v-3.5s2.7-6.5 2.6-12.9c-.1-6.3-5.9-13.2-6.5-14.5 1-.8.7-2.2.5-2.6s-1-1.9-1.3-4.7c0 0-.4-5.5.4-7.1.8-1.7.6-2.1-1-3.6s-1.4-1.9-.4-4.2.4-4.8-1.6-6.6c-2.2-2-2.5-27.7-2.5-27.7s0 25.8-2.5 27.7c-2.2 1.6-2.6 4.3-1.6 6.6s1.1 2.8-.4 4.2-1.7 1.9-1 3.6c.8 1.7.4 7.1.4 7.1-.3 2.8-1 4.3-1.3 4.7-.2.4-.6 1.8.5 2.6-.6 1.3-6.4 8.2-6.5 14.5-.1 6.3 2.6 12.9 2.6 12.9v3.5h-1.4s.7 6 .4 8.7-.7 6.4-.7 6.4h-6.3l-5.3-9.4-5.4 9.3h-2.8l-1.6 1.9v6.4l-1.2 2.2h-3.1l-1 99.8h76.4l-.9-99.8zm-57.7 48.5v4h-4v-4s-.2-2.2 2-3.5c2.3 1.4 2 3.5 2 3.5zm0-20.5v4h-4v-4s-.2-2.2 2-3.5c2.3 1.4 2 3.5 2 3.5zm0-25.7v4h-4v-4s-.2-2.2 2-3.5c2.3 1.3 2 3.5 2 3.5zm25.6-22.3 2.4-1.9 1.3 2.6v7.5l-3.7-.9v-7.3zm-7.4-.3 2.3-2.6 2.3 2.6v7.5h-4.6V487zm2.3 32.7c1.4 0 2.6 1.2 2.6 2.6 0 1.4-1.2 2.6-2.6 2.6-1.4 0-2.6-1.2-2.6-2.6s1.2-2.6 2.6-2.6zm-8.9-31.8 1.3-2.6 2.4 1.9v7.2l-3.7.9v-7.4zm8.9 51.8c9.9 5.8 9.6 13 9.6 13v14.9H3031.3v-14.9s-.4-7.2 9.6-13zm12.4 50.9v15.2h-24.9v-15.2s-.2-10.2 12.5-16.7c12.7 6.6 12.4 16.7 12.4 16.7zm12.8-34.8v4h-4.1v-4s-.2-2.2 2-3.5c2.4 1.4 2.1 3.5 2.1 3.5zm0-20.5v4h-4.1v-4s-.2-2.2 2-3.5c2.4 1.4 2.1 3.5 2.1 3.5zm0-25.7v4h-4.1v-4s-.2-2.2 2-3.5c2.4 1.3 2.1 3.5 2.1 3.5zM3124.8 511s-4.1-1.2-6.8-7.2c-3 .1-5.4-3.7-3.9-4.4 2.6-1.2.9-2 0-2.2-2.5-.5-.5-6.1 1.9-7.1 1.4-.5-.7-4.9-10-5.3-9.4.4-11.5 4.8-10 5.3 2.4.9 4.4 6.6 1.9 7.1-.9.2-2.6 1 0 2.2 1.5.7-.9 4.5-3.9 4.4-2.7 6-6.8 7.3-6.8 7.3-2.6 0-6.5.1-6.5.1v95.5h50.5v-95.5c.1-.1-3.8-.1-6.4-.2zm-28 58.1h-7.6s-1.9-16.2 3.4-16.2c5.3-.1 4.2 16.2 4.2 16.2zm.3-28.8h-7.6s-1.9-15.6 3.4-16.2c5.4-.6 4.2 16.2 4.2 16.2zm12.4 28.8h-7.6s-1.9-14.3 3.4-16.2c5.1-1.9 4.2 16.2 4.2 16.2zm.2-28.8h-7.6s-1-16.8 4.4-16.2c5 .5 3.2 16.2 3.2 16.2zm12.8 28.8h-7.6s-1.7-17.9 3.4-16.2c5 1.6 4.2 16.2 4.2 16.2zm.3-28.8h-7.6s0-16.2 3.4-16.2c5.5 0 4.2 16.2 4.2 16.2zM3232.3 521.2h-3.1v-6h-4.1v-5.3h-3.4v-5h-3v-6.1h-3.5v-5.5h-3.5V488h-3.3v-4.9H3205.3v4.9h-3.3v5.3h-3.5v5.5h-3.5v6h-3v5h-3.4v5.3h-4.1v2.9h-2.2v-2.9h-4.1v-5.3h-3.4v-5h-3v-6h-3.5v-5.5h-3.5V488h-3.3v-4.9h-4v4.9h-3.3v5.3h-3.5v5.5h-3.5v6h-3v5h-3.4v5.3h-4.1v5.6h-2.2v85h98.8l-1-84.5zm-76.8 58.5h-8.7s-2.2-18.5 3.9-18.5c6-.1 4.8 18.5 4.8 18.5zm0-29.3h-8.7s-2.2-18.5 3.9-18.5c6-.1 4.8 18.5 4.8 18.5zm4.1-47.9c6 0 4.8 18.6 4.8 18.6h-8.8c0-.1-2.2-18.6 4-18.6zm13.6 77.2h-8.8s-2.2-18.5 3.9-18.5c6.1-.1 4.9 18.5 4.9 18.5zm0-29.3h-8.8s-2.2-18.5 3.9-18.5c6.1-.1 4.9 18.5 4.9 18.5zm29.9 29.3h-8.8s-2.2-18.5 3.9-18.5c6.1-.1 4.9 18.5 4.9 18.5zm0-29.3h-8.8s-2.2-18.5 3.9-18.5c6.1-.1 4.9 18.5 4.9 18.5zm4.1-47.9c6 0 4.8 18.6 4.8 18.6h-8.8c0-.1-2.2-18.6 4-18.6zm13.6 77.2h-8.8s-2.2-18.5 3.9-18.5c6.1-.1 4.9 18.5 4.9 18.5zm0-29.3h-8.8s-2.2-18.5 3.9-18.5c6.1-.1 4.9 18.5 4.9 18.5z" class="st10"/></g><path id="Avant_plan_copy_00000005247320146946614130000001476546394608156808_" d="M3003.7 844.3h388.6V629h-388.5z" class="st11"/></g></svg>