<svg xmlns="http://www.w3.org/2000/svg" xml:space="preserve" id="Layer_1" x="0" y="0" version="1.1" viewBox="0 0 835.1 1193.4"><style>.st0{display:none}.st1{display:inline}.st2{fill:#044c7a}.st3{display:none;fill:#0065a3}.st4,.st5{opacity:.6;fill:#fbe95c;stroke:#010101;stroke-width:.1602;stroke-linecap:round;stroke-linejoin:round;enable-background:new}.st5{stroke-width:.1625}.st6{fill:#0d4066}.st9{fill:#0b3351}.st10{fill:#fbe95c;stroke:#010101;stroke-width:5.195582e-02;stroke-linecap:round;stroke-linejoin:round}.st12{fill:#00253c}.st13{fill:#00588f}.st15{fill:#d6eefc}.st16{fill:#fff}.st17{display:none;fill:#d6eefc}.st18{fill:#c4e5f9}.st19{fill:#9fd4f3}.st20{fill:#e0edf3}.st22{fill:#4290cd}.st23{fill:#033376}.st24{fill:#d82f20}.st25{fill:#b5b5b5}.st26{fill:#809da8}.st27{fill:#475c63}.st28{fill:none}.st29{enable-background:new}.st30{fill:#898989}.st31{fill:#777}.st32{fill:#b2b2b2}.st33{fill:#161616}.st34{fill:#494949}.st35{fill:#a8a8a8}.st36{fill:#282828}.st37{fill:#383838}.st38{fill:#fcea5c}.st39{fill:#01527f}</style><g id="illu_nuit_tablet"><path id="Arrière_plan_copy_00000016783821478956678700000007340843510458585776_" d="M.7 0h833.6v1193.3H.7z" class="st2"/><g id="Quatrième_plan_copy_00000073706240023635277080000008733985066472680368_"><path d="M513.1 471.9h3.4v5.1h-3.4zM516.6 471.8h3.4v5.1h-3.4zM520.3 471.9h3.4v5.1h-3.4zM513 477.5h3.4v5.1H513zM516.6 477.5h3.4v5.1h-3.4zM520.3 477.5h3.4v5.1h-3.4z" class="st2"/><path d="M513 483h3.4v5.1H513zM516.6 483h3.4v5.1h-3.4z" class="st5"/><path d="M520.3 483h3.4v5.1h-3.4z" class="st2"/><path d="M530.9 465.6h3.4v5.1h-3.4z" class="st5"/><path d="M527.4 472.1h3.4v5.1h-3.4zM527.4 477.5h3.4v5.1h-3.4zM527.4 482.8h3.4v5.1h-3.4zM530.9 472.1h3.4v5.1h-3.4zM530.9 477.5h3.4v5.1h-3.4zM530.9 482.8h3.4v5.1h-3.4zM534.4 472.1h3.4v5.1h-3.4zM534.4 477.5h3.4v5.1h-3.4zM534.4 482.8h3.4v5.1h-3.4z" class="st2"/><path d="M704.3 477.6c-54.3 12.2-110.2 18.2-166 17.2v-25c0-.4-.1-.7-.4-.7s-.6.4-.6.4V468c-.4-.1-.4-.6-.4-.6s-.6.1-1-.3-.4-1-.4-1v-.2l.2-.1v-.2h-.2l-.2-.6h-.5c-.2-1-.9-1-.9-1v-.4l.1-.1v-.4l.2-.1.1-.2h-.4c-.4-.6-1.5-.5-1.5-.5s-1.1-.1-1.5.5h-.4l.1.2.2.1v.4l.1.1v.4s-.7 0-.9 1h-.5l-.2.6h-.2v.2l.2.1v.2s.1.6-.4 1c-.4.4-1 .3-1 .3s.1.4-.4.6v1.5s-.1-.4-.6-.4c-.4 0-.5.4-.4.7v24.7c-.9-.1-1.8-.1-2.6-.1v-23.6c-1.3-.1-1.3-1.8-1.3-1.8s.1-.1.2-.4c-.2-.1-.1-.6-.1-.6l.4-.6h-1.9c-.4 0-.4-.2-.6-.6-.4-.2-.4 0-.4-2.1s-2.2-2.4-2.2-2.4-2.3.2-2.2 2.4c0 2.1 0 2-.4 2.1-.1.3-.1.6-.6.6h-1.9l.4.6s.1.4-.1.6l.2.4s0 1.8-1.3 1.8v23.1c-65.4-3.7-130.1-17.2-191-41.4-40.6-16.1-79.6-36.9-121-50.5h.7L146 351.3v-4.8l-2.9-2.2v-9.9l1.9-1.2-3-4.1h-.9l.9-2s.4-.6-.3-1.2c.6-.5 1.5-1.5 1.8-2.4.4-1.3-.6-2.4-1.6-2.6s-2 .3-2 .3-.9-1.1-2.3-.9c-1.5.2-3.9 1-5 .2s-2.5-2.9-2.8-3.4c-.2-.5-1.7-1.3-2.8-.8-1.1.5-1.5 1.5-1.8 2.5-.4 1-.4 1.8-.1 2.8.3.9 1.3 1.2 1.2 1.8-.1.7-.6 1.1-.6 1.1s-1.3 0-1.7.7c-.4.7.1 1.3.1 1.3s-.7 1-.3 1.9c.3.7.7.9 1.2.9l-2.9 4 2 1.2v9.9l-2.9 2.2v4l-39.7 37.5c-28.3 2.4-56.2 8.9-82.8 19l.1 420.2h925.6V391.2c-68.9 39.1-142.8 69-220.1 86.4zm-170.4-1.2h-2.6v-4h2.6v4zm0 6.6v4h-2.6v-4h2.6zm0-5.3v4h-2.6v-4h2.6zm3.5 9.4h-2.6v-4h2.6v4zm-2.6-14.7h2.6v4h-2.6v-4zm0 5.3h2.6v4h-2.6v-4zm-2.3-12.1c1.3 0 1.5 3.8 1.5 3.8h-2.7s-.3-3.8 1.2-3.8zm-2.1 21.5h-2.6v-4h2.6v4zm-2.6-14.7h2.6v4h-2.6v-4zm0 5.3h2.6v4h-2.6v-4zm-4.8 9.4h-2.6v-4h2.6v4zm-2.6-14.7h2.6v4h-2.6v-4zm0 5.3h2.6v4h-2.6v-4zm-.9 9.4h-2.6v-4h2.6v4zm-2.5-14.7h2.6v4H517v-4zm0 5.3h2.6v4H517v-4zm-.9 5.3v4h-2.6v-4h2.6zm-2.6-10.6h2.6v4h-2.6v-4zm0 5.3h2.6v4h-2.6v-4zM140.6 321.5s2.1-.6 2.4.9c.2 1.2-1 2.5-1.5 3-.6-.8-1.3-2.1-1.3-2.1l.4-1.8zm-12.5 7.5H126c.1-.1.2-.1.3-.1 1.2-.2 1.7-1.3 1.2-2.2-.4-.8-1.2-.7-1.2-.7s-.5-.6.1-.9c.6-.2 1.3-.3 1.8-.2.4.1.9-.1 1 .4.1.6.1 1.3-.2 1.8-.3.4-.7 1.4-.9 1.9zm8.1 0h-7c.2-.4.6-1.3.9-1.8.4-.7.6-1.2.7-1.6.1-.4 2.4-.1 3.6-.5s2.6-1.2 2.6-1.2-.1 1.7.2 2.3c.4.6.5.7.1 1.2-.4.4-.9 1.2-1.1 1.6zm4.7-1.7c-.2.3-.6 1.2-.9 1.7h-2.6c.4-.5 1.3-1.4 1.2-1.7-.1-.3-.5-1.3-.1-1.8s1.3.2 1.7.6c.3.3 1 .8.7 1.2z" class="st6"/></g><g id="Troisième_plan_copy_00000000210573464584946990000008459589042243283627_"><path d="M71.4 660.4h8.8v12h-8.8z" class="st2"/><path d="M94.3 672.4h5.5v7.7h-5.5z" class="st10"/><path d="M98.7 662.2h5.6v8.8h-5.6zM102.4 653.8h5.5v6.6h-5.5zM69.9 674.1h8.8v12h-8.8zM70.6 688.6h8.8v12h-8.8zM106.9 662h5.6v8.8h-5.6zM102.8 672.4h5.5v7.7h-5.5zM111 672.4h5.5v7.7H111zM94.6 683.1h5.5v7.7h-5.5zM102.4 683.1h5.5v7.7h-5.5z" class="st2"/><path d="M110.6 683.1h5.5v7.7h-5.5z" class="st10"/><path d="M802.4 637.2c-10.2-3.1-20.4-5.6-30.8-7.6l1.6-36.5-9.6-.3.1-2.4-5.5-.2.5-13.7-1.2-.1.1-2.6-8.9-.3v-1l-1.4-.1v-1.2l-1.5-.1v-3.8l-.3-3.3c-.2 1.1-.4 2.1-.6 3.3-.2 1.1-.2 2.1-.2 3.3v.5l-2.1-.1v1.2l-1.4-.1v1l-8.2-.2-.1 2.7-2.1-.1-.5 15-9.7-.3-.1 3.2-1.6-.1.1-3.2-2.1-.1.2-3.6-15.4-.6-.1 2.2-1.4-.1-.2 3.8-2.9-.1.1-3.2-1.6-.1.1-2.7-17.4-.6.3-9.9-1.2-.1.1-3.2-3.4-.1-.1 2.1-2.5-.1-.1 1.2-.6 15.9-3-.1.5-14-2.7-.1.1-1.8-8.7-.3-.1 1.8-3-.1-.2 7.2-6.6-.2-.3 10.5-3.3-.1.1-2.7-3.3-.1-.1 2.7-2.1-.1-4.5-8.7c2.9-1.8 4.8-5 4.6-8.7-.2-4.3-3.1-7.9-7-9.1l.6-17.4c5.4-.5 9.5-5.1 9.3-10.6-.2-5.7-5-10.1-10.7-9.9-3 .1-5.7 1.5-7.4 3.6l-22.8-14c.4-1.2.6-2.4.6-3.6-.2-5.5-4.7-9.7-10.2-9.5s-9.7 4.7-9.5 10.2c.1 1.4.4 2.8 1 4l-21.6 15.1c-2-2-4.7-3.1-7.7-3.1-5.7.2-10.1 5-9.9 10.7.2 5.2 4.1 9.3 9.2 9.8l1.9 17.3c-4.2 1.2-7.2 5.2-7 9.7.1 3.3 1.8 6.1 4.3 7.8l-4.5 9.6-5.9.2-.5-15-2.1.1-.1-2.7-8.2.2v-1l-1.4.1v-1.2l-2.1.1v-.5c0-1.1-.1-2.1-.2-3.3-.2-1.1-.3-2.1-.6-3.3-.2 1.1-.3 2.2-.3 3.3-.1 1.1-.1 2.2 0 3.3v.5l-1.5.1v1.2l-1.4.1v1l-8.9.3.1 2.6-1.2.1.5 13.7-5.5.2.1 2.4-9.6.3 1.5 36c-13.1 2.2-26 4.6-38.9 7.4-102.5 21.5-202.1 59.3-306.4 67.4-11.6.9-23.3 1.4-35 1.7l-.2-46.6h-2.1V661h-2v-4.3h-2.3v-3.3h-2V650h-1.8c-.4-3.1-3.3-2.9-3.3-2.9s-2.9-.2-3.3 2.9h-1.8v3.4h-2v3.3h-2.3v4.3h-2v4.3H92l.2 46.6c-1.2 0-2.6-.1-3.9-.1v-50.7s-8.1 1-8.5-10.7h-9.7c-.3 11.6-8.5 10.7-8.5 10.7v49.6c-57.3-3.6-114.5-13.1-171.3-22.5-103.6-17.3-211.3-36.3-305.1-80.7v440.1l1249.1-15.7V649.2c-10.4-4.5-21-8.6-31.9-12zm-731 24.6h7.4v8.3h-7.4v-8.3zm0 13.6h7.4v8.3h-7.4v-8.3zm0 13.6h7.4v8.3h-7.4V689zm35.6.8h-3.6s-.7-5.8 1.8-5.9c2.4 0 1.8 5.9 1.8 5.9zm6.3-5.8c2.4-.1 1.8 5.9 1.8 5.9h-3.6c0-.1-.6-5.8 1.8-5.9zm.5-11.2c2.4-.1 1.8 5.9 1.8 5.9H112c-.1 0-.7-5.8 1.8-5.9zm-4.1-10.6c2.4-.1 1.8 5.9 1.8 5.9h-3.6c0 .1-.6-5.8 1.8-5.9zm-5.4-7.7h2.4v4.5h-2.4v-4.5zm1.3 18.3c2.4-.1 1.8 5.9 1.8 5.9h-3.6s-.6-5.8 1.8-5.9zm-3.9-10.6c2.6.9 1.8 5.9 1.8 5.9h-3.6c0 .1-.8-6.7 1.8-5.9zm-4.4 10.6c2.4-.1 1.8 5.9 1.8 5.9h-3.6s-.6-5.8 1.8-5.9zm-.4 11.2c2.4-.1 1.8 5.9 1.8 5.9h-3.6c0-.1-.7-5.8 1.8-5.9zM566 582.9c.5-1.2.7-2.6.7-4 0-1-.2-1.9-.5-2.7l15.9-8.3c-.1.5-.1 1-.1 1.5.2 4.8 3.5 8.8 7.8 10.1l-1.3 12.6-9.7.3-12.8-9.5zm16.2-19-17.7 9.1c-1.7-2.1-4.1-3.5-6.9-3.6l-1.8-17.1c2-.5 3.7-1.5 5-3l21.4 14.6zm11.6 18.1-1.2.1-1.5-.7.1-.8 2.6-.1v1.5zm-2.9.7 1.2 3.5.7-.4.1 2.7-.7-2.3-1.6 1 .3-4.5zm-.5 4.7 2.4 1.4.1 3.2-3 .1.5-4.7zm26.6-4.3-3 .1-.1-1.8-8.7.3.1 1.8-2.7.1.4 12.5-2 1.7h-1l-.6-15.9-.1-1.2-2.5.1-.1-1.7c4-1.7 6.9-5.8 6.8-10.4 0-.2 0-.5-.1-.7l15.1 7c-.1.7-.2 1.4-.2 2.1.1 1.8.6 3.5 1.5 4.9l-3.1 2.6.3-1.5zm7-35.8c1.2 1.2 2.7 1.9 4.4 2.3l-.6 17.3c-3.3.2-6.1 2.1-7.7 4.7l-17.1-8 21-16.3zm-2.8-11.4c-.5 1.2-.7 2.6-.7 4 .1 1.7.5 3.1 1.2 4.5l-21.4 16.7c-1.6-1.5-3.6-2.6-5.9-2.9l-1.2-33c2.1-.5 3.9-1.7 5.2-3.2l22.8 13.9zm-36.9-13.1c1.5 1.4 3.4 2.3 5.5 2.6l1.2 33c-2.4.4-4.5 1.6-6 3.3l-22.2-15.1c.6-1.4.9-2.9.9-4.5-.1-1.4-.4-2.8-1-4l21.6-15.3zm-27.1 66.3c2.7-.1 5.1-1.3 6.9-3.1l11.5 8.6v.8l-1.6.1.1 3.2-2.9.1-.2-3.8-1.4.1-.1-2.2-15.4.6.2 3.6-2.1.1.1 3.2-1.6.1-.1-2.9 3.9-8.3c1-.3 1.8-.2 2.7-.2zm76.8 11-3.3.1-.1-2.7-3.3.1.1 2.7-3.3.1-.3-10.5-6.6.2-.1-1.3 5.4-4.5c1.7 1.3 4 2.1 6.3 2 .5 0 1.1-.1 1.6-.2l6.4 12.4-.8 23.5h-1.1l-.9-21.9z" class="st9"/></g><g id="Deuxième_plan_copy_00000103258406185639985620000006997729673865598337_"><path d="M.5 1193.4h833.8v-222H.7z" class="st15"/><path d="M20.9 763.7h18.9v25.8H20.9zM51.9 729.3h9.3v28.9h-9.3zM140.7 789.5h22.7v45.9h-22.7z" class="st10"/><path d="M230.4 806.6h33.9v43.2h-33.9zM252.9 758.2h22.9v42.5h-22.9z" class="st2"/><path d="M321.8 769.1h42.5v20.6h-42.5z" class="st2" transform="rotate(-76.161 343.075 779.38)"/><path d="M63 726.6h9.3v28.9H63zM74.6 727.4h9.3v28.9h-9.3z" class="st10"/><path d="M58.3 781.9h18.9v25.8H58.3zM95.6 764.2h18.9V790H95.6zM96 802.9h18.9v25.8H96zM97.7 838.4h18.9v25.8H97.7zM17.7 802.9h18.9v25.8H17.7zM20.4 837.9h18.9v25.8H20.4zM46.8 817.6h43.3v55.9H46.8zM46.1 877.6h43.3v55.9H46.1zM163.1 787.2h22.7v45.9h-22.7zM189.6 786.6h22.7v45.9h-22.7zM140.7 838.4h22.7v45.9h-22.7z" class="st2"/><path d="M164.8 838.4h22.7v45.9h-22.7zM189.6 838.4h22.7v45.9h-22.7z" class="st10"/><path d="M267.4 801.3h22.9v42.5h-22.9zM238.2 857.9h22.9v42.5h-22.9zM268.6 856.6h22.9v42.5h-22.9zM313.7 805.9h22.9v42.5h-22.9z" class="st2"/><path d="M346.1 803.9H369v42.5h-22.9z" class="st10"/><path d="M313.7 855.3h22.9v42.5h-22.9zM346.1 854.2H369v42.5h-22.9z" class="st2"/><path d="m.9 1193.3 833.4-2.4V931.5H.9z" class="st12"/><path d="M129.3 769h-5.1l-2-3.6v-10.5l-2.6-3.1H115l-9.4-17.8-8.7 17.8-10.1-.1s-.7-6-1.2-10.4.7-14.3.7-14.3h-2.4v-5.8s4.5-10.8 4.3-21.3c-.2-10.4-9.7-21.8-10.7-24 1.7-1.3 1.2-3.6.8-4.2s-1.6-3.2-2.2-7.8c0 0-.6-9 .6-11.8 1.3-2.7.9-3.5-1.6-6-2.5-2.4-2.4-3.2-.6-7s.7-7.9-2.6-10.9c-3.7-3.4-4.2-45.8-4.2-45.8s0 42.7-4.2 45.8c-3.6 2.7-4.2 7.1-2.6 10.9 1.6 3.8 1.8 4.6-.6 7-2.4 2.4-2.8 3.2-1.6 6 1.3 2.7.6 11.8.6 11.8-.5 4.6-1.7 7.1-2.2 7.8-.4.6-1 3 .8 4.2-1 2.2-10.5 13.5-10.7 24s4.3 21.3 4.3 21.3v5.8h-2.4s1.1 9.9.7 14.3-1.2 10.5-1.2 10.5H38.2l-8.8-15.5-9 15.4h-4.6l-2.6 3.1v10.5l-2 3.6H6L4.4 933.7h126.2L129.3 769zM34 849.2v6.7h-6.8v-6.7s-.4-3.6 3.4-5.7c3.8 2.1 3.4 5.7 3.4 5.7zm0-33.8v6.7h-6.8v-6.7s-.4-3.6 3.4-5.7c3.8 2 3.4 5.7 3.4 5.7zm0-42.5v6.7h-6.8v-6.7s-.4-3.6 3.4-5.7c3.8 2 3.4 5.7 3.4 5.7zm42.2-37 3.9-3.2 2.1 4.3v12.3l-6-1.4v-12zm-12.2-.4 3.8-4.3 3.8 4.3v12.3H64v-12.3zm3.7 54c2.4 0 4.3 2 4.3 4.3s-2 4.3-4.3 4.3-4.3-2-4.3-4.3 2-4.3 4.3-4.3zM53.1 737l2.1-4.3 3.9 3.2v11.9l-6 1.4V737zm14.6 85.5c16.4 9.6 15.9 21.5 15.9 21.5v24.6H51.9V844s-.6-11.9 15.8-21.5zm20.6 84.2v25.1H47.1v-25.1s-.4-16.8 20.6-27.6c21 10.8 20.6 27.6 20.6 27.6zm21.2-57.5v6.7h-6.9v-6.7s-.4-3.6 3.4-5.7c3.9 2.1 3.5 5.7 3.5 5.7zm0-33.8v6.7h-6.9v-6.7s-.4-3.6 3.4-5.7c3.9 2 3.5 5.7 3.5 5.7zm0-42.5v6.7h-6.9v-6.7s-.4-3.6 3.4-5.7c3.9 2 3.5 5.7 3.5 5.7zM206.3 775.2s-6.8-2-11.2-11.9c-4.9.2-9-6-6.4-7.2 4.2-2 1.4-3.4.1-3.6-4.1-.8-.8-10.1 3.2-11.7 2.4-.9-1.2-8.2-16.6-8.7-15.5.6-18.9 7.9-16.6 8.7 4 1.5 7.3 10.8 3.2 11.7-1.4.3-4.2 1.6.1 3.6 2.5 1.2-1.5 7.5-6.4 7.2-4.4 10-11.2 12-11.2 12-4.3.1-10.8.2-10.8.2v157.7h83.4V775.4s-6.5-.1-10.8-.2zM160.2 871l-12.6-.1s-3.2-26.7 5.7-26.8c8.6.1 6.9 26.9 6.9 26.9zm.4-47.4-12.6-.1s-3.2-25.8 5.7-26.8 6.9 26.9 6.9 26.9zM181 871l-12.6-.1s-3.2-23.6 5.7-26.8c8.4-2.9 6.9 26.9 6.9 26.9zm.4-47.4-12.6-.1s-1.6-27.8 7.3-26.8c8.4 1 5.3 26.9 5.3 26.9zm21.2 47.4-12.6-.1s-2.8-29.5 5.7-26.8c8.3 2.8 6.9 26.9 6.9 26.9zm.5-47.4-12.6-.1s.1-26.8 5.7-26.8c8.9.1 6.9 26.9 6.9 26.9zM383.9 792h-5.2v-9.8h-6.8v-8.8h-5.6v-8.2h-5v-10.1h-5.7v-9h-5.8v-8.8h-5.5v-8.1h-5.2v8.1h-5.5v8.8h-5.8v9h-5.7v10h-5v8.2h-5.8v8.8h-6.8v4.7h-3.7v-4.7H294v-8.8h-5.7v-8.2h-5v-10h-5.7v-9h-5.8v-8.8h-5.5v-8.1h-6.6v8.1h-5.5v8.8h-5.8v9h-5.7v10h-5v8.2h-5.8v8.8h-6.7v9.3h-3.7v140.5h163.2l-.8-139.9zm-126.8 96.6-14.5-.1s-3.7-30.6 6.5-30.6c9.9 0 8 30.7 8 30.7zm0-48.3-14.5-.1s-3.7-30.6 6.5-30.6c9.9-.1 8 30.7 8 30.7zm6.7-79.2c9.9 0 7.9 30.7 7.9 30.7l-14.4-.1s-3.7-30.6 6.5-30.6zm22.6 127.5-14.5-.1s-3.7-30.6 6.5-30.6c9.9 0 8 30.7 8 30.7zm0-48.3-14.5-.1s-3.7-30.6 6.5-30.6c9.9-.1 8 30.7 8 30.7zm49.3 48.3h-14.4s-3.7-30.6 6.5-30.6c9.9-.1 7.9 30.6 7.9 30.6zm0-48.3-14.4-.1s-3.7-30.6 6.5-30.6c9.9-.1 7.9 30.7 7.9 30.7zm6.8-79.2c9.9 0 7.9 30.7 7.9 30.7l-14.5-.1s-3.6-30.6 6.6-30.6zM365 888.6l-14.5-.1s-3.7-30.6 6.5-30.6c10 0 8 30.7 8 30.7zm0-48.3-14.5-.1s-3.7-30.6 6.5-30.6c10-.1 8 30.7 8 30.7z" class="st12"/></g><path id="Avant_plan_copy_00000081629695628892210180000015747147752892990116_" d="M1.2 1192.1h833.1V962.7H1.5z" class="st13"/></g></svg>