<svg xmlns="http://www.w3.org/2000/svg" xml:space="preserve" id="Layer_1" x="0" y="0" version="1.1" viewBox="0 0 1512 982"><style>.st0{fill:#044c7a}.st1{display:none;fill:#0065a3}.st2,.st3{opacity:.6;fill:#fbe95c;stroke:#010101;stroke-width:.1602;stroke-linecap:round;stroke-linejoin:round;enable-background:new}.st3{stroke-width:.1625}.st4{fill:#0d4066}.st7{fill:#0b3351}.st8{fill:#fbe95c;stroke:#010101;stroke-width:5.195582e-02;stroke-linecap:round;stroke-linejoin:round}.st10{fill:#00253c}.st11{fill:#00588f}.st13{display:none}.st14{display:inline}.st15{fill:#d6eefc}.st16{fill:#fff}.st17{display:none;fill:#d6eefc}.st18{fill:#c4e5f9}.st19{fill:#9fd4f3}.st20{fill:#e0edf3}.st22{fill:#4290cd}.st23{fill:#033376}.st24{fill:#d82f20}.st25{fill:#b5b5b5}.st26{fill:#809da8}.st27{fill:#475c63}.st28{fill:none}.st29{enable-background:new}.st30{fill:#898989}.st31{fill:#777}.st32{fill:#b2b2b2}.st33{fill:#161616}.st34{fill:#494949}.st35{fill:#a8a8a8}.st36{fill:#282828}.st37{fill:#383838}.st38{fill:#fcea5c}.st39{fill:#01527f}</style><g id="illu_nuit_desktop"><path id="Arrière_plan_copy_2" d="M0 0h1512v982H0z" class="st0"/><g id="Quatrième_plan_copy_2"><path d="M851.4 415.7h5.8v14h-5.8zM863 398.7h6.1v8.1H863z" class="st0"/><path d="M839.8 415.9h5.7v8.2h-5.7z" class="st2"/><path d="M869.1 387.8h5.9v8.2h-5.9z" class="st3"/><path d="M845.3 416.5h5.7v8.2h-5.7z" class="st2"/><path d="M851.2 407.5h5.8v7.9h-5.8zM845.7 407.5h4.8v7.9h-4.8zM840.2 407.5h4.8v7.9h-4.8zM840.2 398.5h4.8v7.9h-4.8zM845.8 398.5h4.8v7.9h-4.8zM851.9 398.5h4.8v7.9h-4.8zM868.7 398.9h5.9v8.1h-5.9zM875 398.9h5.9v8.1H875zM863.3 407.4h5.9v8.1h-5.9zM869.5 407.4h5.2v8.1h-5.2zM875.3 407.7h5.2v8.1h-5.2zM863.5 416.4h5.2v8.1h-5.2zM869.5 416.4h5.2v8.1h-5.2zM875.3 416.7h5.2v8.1h-5.2z" class="st0"/><path d="M1152.4 407.9c-88.7 20-180.1 29.7-271.1 28.1v-40.8c0-.6-.1-1.1-.7-1.1s-.9.6-.9.6v-2.4c-.6-.2-.6-.9-.6-.9s-1 .1-1.6-.5-.6-1.7-.6-1.7v-.4l.3-.1v-.4h-.4l-.3-.9h-.8c-.3-1.6-1.5-1.6-1.5-1.6v-.7l.2-.2v-.7l.4-.2.1-.4h-.7c-.7-.9-2.5-.8-2.5-.8s-1.8-.1-2.5.8h-.7l.1.4.4.2v.7l.2.2v.7s-1.2 0-1.5 1.6h-.8l-.3.9h-.4v.4l.3.1v.4s.1 1-.6 1.7-1.6.5-1.6.5.1.7-.6.9v2.4s-.2-.6-.9-.6-.8.6-.7 1.1v40.3c-1.4-.1-2.9-.1-4.3-.2v-38.6c-2.2-.1-2.2-3-2.2-3s.1-.1.3-.6c-.4-.2-.2-.9-.2-.9l.7-1h-3.1c-.7 0-.7-.4-.9-.9-.6-.3-.6 0-.6-3.5s-3.6-3.9-3.6-3.9-3.7.4-3.6 3.9c0 3.5 0 3.2-.6 3.5-.2.5-.1.9-.9.9H840l.7 1s.2.7-.2.9l.3.6s0 3-2.2 3v37.7c-106.9-6.1-212.5-28.1-312-67.6-66.4-26.3-130-60.3-197.6-82.5h1.1l-89.6-82.8v-7.9l-4.7-3.6v-16.1l3.1-2-4.9-6.7h-1.5l1.5-3.3s.7-.9-.5-1.9c.9-.8 2.5-2.4 2.9-4 .7-2.2-.9-4-2.6-4.3s-3.1.5-3.1.5-1.4-1.8-3.8-1.5-6.4 1.7-8.2.3c-1.8-1.3-4.1-4.8-4.6-5.6-.4-.8-2.7-2.1-4.5-1.3s-2.5 2.5-3 4.1c-.6 1.7-.7 2.9-.2 4.5.5 1.5 2.1 1.9 2 3s-.9 1.8-.9 1.8-2.1 0-2.8 1.1c-.7 1.1.2 2.2.2 2.2s-1.1 1.6-.5 3.1c.5 1.1 1.1 1.5 2 1.5l-4.8 6.6 3.1 2v16.1l-4.7 3.6v6.6l-64.9 61.3c-46.2 4-91.8 14.5-135.1 31V979h1512V266.6c-112.6 63.9-233.4 112.7-359.6 141.3zm-278.5-2h-4.2v-6.6h4.2v6.6zm.1 10.7v6.6h-4.2v-6.6h4.2zm-.1-8.6v6.6h-4.2V408h4.2zm5.7 15.3h-4.2v-6.6h4.2v6.6zm-4.2-24h4.2v6.6h-4.2v-6.6zm0 8.7h4.2v6.6h-4.2V408zm-3.8-19.7c2.2 0 2.4 6.2 2.4 6.2h-4.3s-.4-6.2 1.9-6.2zm-3.3 35h-4.2v-6.6h4.2v6.6zm-4.3-24h4.2v6.6H864v-6.6zm0 8.7h4.2v6.6H864V408zm-7.8 15.3H852v-6.6h4.2v6.6zm-4.2-24h4.2v6.6H852v-6.6zm0 8.7h4.2v6.6H852V408zm-1.5 15.3h-4.2v-6.6h4.2v6.6zm-4.2-24h4.2v6.6h-4.2v-6.6zm0 8.7h4.2v6.6h-4.2V408zm-1.5 8.6v6.6h-4.2v-6.6h4.2zm-4.2-17.3h4.2v6.6h-4.2v-6.6zm0 8.7h4.2v6.6h-4.2V408zM231.5 152.9s3.4-1 3.9 1.4c.3 1.9-1.6 4.1-2.4 4.9-1-1.3-2.1-3.4-2.1-3.4l.6-2.9zM211 165.1h-3.4c.2-.1.3-.1.5-.1 1.9-.4 2.7-2.2 2-3.6-.7-1.3-2-1.1-2-1.1s-.8-1 .2-1.5c1-.4 2.2-.5 2.9-.4.7.1 1.5-.2 1.6.7s.2 2.2-.3 3c-.5.5-1.2 2.1-1.5 3zm13.2 0h-11.5c.3-.7 1-2.1 1.4-3 .6-1.2.9-1.9 1.1-2.6.2-.7 3.9-.1 5.9-.8s4.2-2 4.2-2-.2 2.7.4 3.7c.7 1 .8 1.2.2 2-.4.7-1.3 2.1-1.7 2.7zm7.8-2.8c-.3.5-1 1.9-1.5 2.8h-4.2c.7-.8 2.1-2.3 1.9-2.7-.2-.5-.8-2.2-.1-3 .7-.8 2.1.3 2.7.9.5.5 1.6 1.3 1.2 2z" class="st4"/></g><g id="Troisième_plan_copy_2"><path d="M588.5 483.7h10.7v15h-10.7zM625 498.2h9.1v10.2H625zM621.6 486h7.7v10.6h-7.7z" class="st0"/><path fill="#fbe95c" stroke="#010101" stroke-linecap="round" stroke-linejoin="round" stroke-width=".129" d="M616.3 497.7h8.7v10.7h-8.7z"/><path d="M626.1 475.7h6.6v8h-6.6z" class="st0"/><path fill="#fbe95c" stroke="#010101" stroke-linecap="round" stroke-linejoin="round" stroke-width=".134" d="M634.9 512.5h9.3v10.7h-9.3z"/><path d="M587.6 500h10.7v15h-10.7zM587.6 517.6h10.7v15h-10.7zM634.8 498h9.1v10.2h-9.1zM624.8 511.1h9.1v10.2h-9.1zM614.9 511.1h9.1v10.2h-9.1zM631.7 484.2h7.7v10.6h-7.7z" class="st0"/><path d="M1473.4 455.7c-12.3-3.8-24.7-6.8-37.3-9.2l1.9-44.2-11.6-.4.1-2.9-6.6-.2.6-16.6-1.5-.1.1-3.1-10.8-.4v-1.2l-1.7-.1v-1.4l-1.8-.1v-4.6c-.1-1.3-.2-2.7-.4-4-.3 1.3-.5 2.6-.7 4-.2 1.3-.3 2.6-.3 4v.6l-2.6-.1v1.4l-1.7-.1v1.2l-9.9-.3-.1 3.3-2.5-.1-.6 18.2-11.8-.4-.1 3.9-1.9-.1.1-3.9-2.5-.1.2-4.3-18.6-.7-.1 2.7-1.7-.1-.2 4.6-3.5-.1.1-3.9-1.9-.1.1-3.3-21.1-.7.4-12-1.5-.1.1-3.9-4.1-.1-.1 2.5-3-.1-.1 1.5-.7 19.2-3.6-.1.6-17-3.3-.1.1-2.2-10.5-.4-.1 2.2-3.6-.1-.3 8.7-8-.3-.4 12.7-4-.1.1-3.3-4-.1-.1 3.3-2.5-.1-5.4-10.5c3.5-2.2 5.8-6.1 5.6-10.5-.2-5.2-3.8-9.6-8.5-11l.7-21.1c6.5-.6 11.5-6.2 11.3-12.8-.2-6.9-6-12.2-12.9-12-3.6.1-6.9 1.8-9 4.4l-27.6-17c.5-1.4.7-2.9.7-4.4-.2-6.6-5.7-11.7-12.3-11.5-6.6.2-11.7 5.7-11.5 12.3.1 1.7.5 3.4 1.2 4.8l-26.2 18.3c-2.4-2.4-5.7-3.8-9.3-3.7-6.9.2-12.2 6-12 12.9.2 6.3 5 11.3 11.1 11.9l2.3 20.9c-5.1 1.5-8.7 6.3-8.5 11.8.1 4 2.2 7.4 5.2 9.4l-5.4 11.6-7.2.3-.6-18.2-2.5.1-.1-3.3-9.9.3v-1.2l-1.7.1v-1.4l-2.6.1v-.6c0-1.3-.1-2.6-.3-4-.2-1.3-.4-2.6-.7-4-.3 1.3-.4 2.7-.4 4-.1 1.3-.1 2.7 0 4v.6l-1.8.1v1.4l-1.7.1v1.2l-10.8.4.1 3.1-1.5.1.6 16.6-6.6.2.1 2.9-11.6.4 1.8 43.6c-15.8 2.7-31.5 5.6-47.1 8.9-124.1 26-244.6 71.8-370.9 81.6-14.1 1.1-28.2 1.7-42.4 2l-.2-56.4h-2.5v-5.2h-2.4v-5.2h-2.8v-4h-2.4v-4.1h-2.2c-.5-3.8-4-3.5-4-3.5s-3.5-.3-4 3.5h-2.2v4.1h-2.4v4h-2.8v5.2h-2.4v5.2h-2.5l.2 56.4c-1.5 0-3.1-.1-4.7-.1v-61.4s-9.8 1.2-10.3-12.9h-11.7c-.4 14.1-10.3 12.9-10.3 12.9v60c-69.4-4.3-138.6-15.8-207.3-27.2-125.4-20.9-255.8-44-369.3-97.7v532.7l1512-18.9V470.2c-12.6-5.5-25.4-10.4-38.6-14.5zm-884.9 29.7h8.9v10h-8.9v-10zm0 16.5h8.9v10h-8.9v-10zm0 16.5h8.9v10h-8.9v-10zm43.1 1h-4.3s-.8-7 2.2-7.1c2.8-.1 2.1 7.1 2.1 7.1zm7.7-7.1c2.9-.1 2.2 7.1 2.2 7.1h-4.3c-.1 0-.9-7.1 2.1-7.1zm.5-13.5c2.9-.1 2.2 7.1 2.2 7.1h-4.3c-.1 0-.9-7 2.1-7.1zm-4.9-12.8c2.9-.1 2.2 7.1 2.2 7.1h-4.3c-.1 0-.8-7 2.1-7.1zm-6.5-9.4h2.9v5.5h-2.9v-5.5zm1.5 22.2c2.9-.1 2.2 7.1 2.2 7.1h-4.3c-.1 0-.8-7 2.1-7.1zm-4.7-12.8c3.1 1.1 2.2 7.1 2.2 7.1H623s-.8-8.1 2.2-7.1zm-5.3 12.8c2.9-.1 2.2 7.1 2.2 7.1h-4.3c-.1 0-.8-7 2.1-7.1zm-.5 13.5c2.9-.1 2.2 7.1 2.2 7.1h-4.3c-.1 0-.9-7.1 2.1-7.1zm567.8-122.4c.6-1.5.9-3.1.9-4.9 0-1.2-.3-2.3-.6-3.3l19.3-10c-.1.6-.1 1.2-.1 1.8.2 5.8 4.2 10.6 9.5 12.2l-1.6 15.3-11.8.4-15.6-11.5zm19.6-22.9-21.4 11c-2-2.5-5-4.2-8.4-4.4l-2.2-20.7c2.4-.6 4.5-1.8 6.1-3.6l25.9 17.7zm14.1 21.9-1.5.1-1.8-.9.1-1 3.2-.1v1.9zm-3.5.8 1.4 4.2.8-.5.1 3.3-.9-2.8-1.9 1.2.5-5.4zm-.6 5.7 2.9 1.7.1 3.9-3.6.1.6-5.7zm32.2-5.2-3.6.1-.1-2.2-10.5.4.1 2.2-3.3.1.5 15.1-2.4 2h-1.2l-.7-19.2-.1-1.5-3 .1-.1-2.1c4.9-2 8.4-7 8.2-12.6 0-.3 0-.6-.1-.9l18.3 8.5c-.1.8-.2 1.7-.2 2.5.1 2.2.7 4.2 1.8 5.9l-3.8 3.2.2-1.6zm8.4-43.5c1.5 1.4 3.3 2.3 5.3 2.8l-.7 21c-4 .3-7.4 2.5-9.3 5.7l-20.7-9.7 25.4-19.8zm-3.3-13.6c-.6 1.5-.9 3.1-.8 4.8.1 2 .6 3.8 1.5 5.4l-25.9 20.2c-1.9-1.8-4.4-3.1-7.2-3.5l-1.4-40c2.5-.6 4.7-2 6.3-3.9l27.5 17zm-44.7-15.9c1.8 1.7 4.1 2.8 6.6 3.1l1.4 39.9c-2.9.5-5.4 1.9-7.3 4l-26.9-18.3c.7-1.7 1.1-3.5 1.1-5.5-.1-1.7-.5-3.4-1.2-4.9l26.3-18.3zm-32.8 80.2c3.3-.1 6.2-1.6 8.3-3.8l13.9 10.4v1l-1.9.1.1 3.9-3.5.1-.2-4.6-1.7.1-.1-2.7-18.6.7.2 4.3-2.5.1.1 3.9-1.9.1-.1-3.5 4.7-10.1c1.1-.1 2.1 0 3.2 0zm93 13.4-4 .1-.1-3.3-4 .1.1 3.3-4 .1-.4-12.7-8 .3-.1-1.6 6.5-5.4c2.1 1.6 4.8 2.5 7.6 2.4.6 0 1.3-.1 1.9-.2l7.7 15-1 28.5h-1.3l-.9-26.6z" class="st7"/></g><g id="Deuxième_plan_copy_2"><path d="M26 574.7h126.2V668H26z" class="st0"/><path d="M65.4 391.1h40.4v36.8H65.4z" class="st8"/><path fill="#fbe95c" stroke="#010101" stroke-linecap="round" stroke-linejoin="round" stroke-width=".06" d="M178.4 467.9h30.7v55.5h-30.7z"/><path d="M296.3 489.5h39.6v53.3h-39.6zM321.3 427.9h29.2V482h-29.2z" class="st0"/><path d="M409 441.9h54.1v26.2H409z" class="st0" transform="rotate(-76.161 436.053 455.026)"/><path d="M213.1 529.2h22.8v55.5h-22.8zM238.6 529.2h22.8v55.5h-22.8z" class="st8"/><path d="M210.1 466.8h25.8v53.3h-25.8zM240.7 467.4h25.8v53.3h-25.8zM180 536.2h25.8v53.3H180zM341.5 485.2h25.8v53.3h-25.8z" class="st0"/><path d="M445.6 488h22.8v55.5h-22.8z" class="st8"/><path d="M404.3 489.5h25.8v53.3h-25.8zM301.4 550.5h25.8v53.3h-25.8zM343 550.5h25.8v53.3H343zM404.3 550.5h25.8v53.3h-25.8zM442.5 550.5h25.8v53.3h-25.8zM53.8 507.4H114v61.2H53.8zM65.5 444.3h36.7v41.1H65.5zM122.3 437h21.6v28.4h-21.6zM124.9 487.2h21.6v28.4h-21.6zM123.5 532.3h21.6v28.4h-21.6zM26.5 530.2h21.6v28.4H26.5zM22.4 488.2H44v28.4H22.4z" class="st0"/><path d="M26.6 427.2h22.8v55.5H26.6z" class="st8"/><path d="m0 982 1512-3V648.7H0z" class="st10"/><path d="M164 441.8h-6.5l-2.6-4.6v-13.4l-3.3-4h-5.9l-11.9-22.7-11.1 22.7-12.9-.1s-.9-7.6-1.5-13.2.9-18.2.9-18.2h-3v-7.4s5.7-13.7 5.5-27.1c-.2-13.3-12.4-27.7-13.6-30.5 2.2-1.6 1.5-4.6 1-5.4s-2-4.1-2.8-9.9c0 0-.8-11.5.8-15s1.2-4.5-2-7.6c-3.1-3.2-3-4.1-.8-8.9 2.2-4.8.9-10-3.3-13.9-4.7-4.3-5.3-58.3-5.3-58.3s0 54.3-5.3 58.3c-4.6 3.4-5.4 9-3.3 13.9 2.1 4.8 2.3 5.8-.8 8.9s-3.6 4.1-2 7.6.8 15 .8 15c-.7 5.8-2.2 9.1-2.8 9.9-.5.8-1.3 3.8 1 5.4-1.3 2.8-13.4 17.2-13.6 30.5s5.5 27.1 5.5 27.1v7.4h-3s1.4 12.6.9 18.2c-.5 5.6-1.5 13.4-1.5 13.4H48.4L37 400.2l-11.4 19.6h-5.9l-3.3 4v13.4l-2.6 4.6H7.2l-2 209.8h160.6L164 441.8zM42.6 543.9v8.5H34v-8.5s-.5-4.6 4.3-7.3c4.8 2.7 4.3 7.3 4.3 7.3zm0-43.1v8.5H34v-8.5s-.5-4.6 4.3-7.3c4.8 2.6 4.3 7.3 4.3 7.3zm0-54.2v8.5H34v-8.5s-.5-4.6 4.3-7.3c4.8 2.7 4.3 7.3 4.3 7.3zm53.8-46.9 5-4.1 2.7 5.5v15.7l-7.7-1.8v-15.3zm-15.6-.5 4.8-5.5 4.8 5.5V415h-9.6v-15.8zm4.8 68.7c3 0 5.5 2.5 5.5 5.5s-2.5 5.5-5.5 5.5-5.5-2.5-5.5-5.5 2.5-5.5 5.5-5.5zM67 401.1l2.7-5.5 5 4.1V415l-7.7 1.8v-15.7zm18.6 108.8c20.9 12.2 20.2 27.4 20.2 27.4v31.3H65.3v-31.3c.1 0-.6-15.2 20.3-27.4zm26.2 107.2v32H59.4v-32s-.5-21.4 26.2-35.1c26.7 13.7 26.2 35.1 26.2 35.1zm26.9-73.2v8.5H130v-8.5s-.5-4.6 4.3-7.3c4.9 2.7 4.4 7.3 4.4 7.3zm0-43.1v8.5H130v-8.5s-.5-4.6 4.3-7.3c4.9 2.6 4.4 7.3 4.4 7.3zm0-54.2v8.5H130v-8.5s-.5-4.6 4.3-7.3c4.9 2.7 4.4 7.3 4.4 7.3zM262 449.7s-8.6-2.6-14.2-15.2c-6.3.2-11.4-7.7-8.2-9.2 5.4-2.6 1.8-4.3.1-4.6-5.2-1-1-12.9 4.1-14.9 3-1.1-1.5-10.4-21.1-11.1-19.7.8-24.1 10-21.1 11.1 5.1 1.9 9.3 13.8 4.1 14.9-1.8.4-5.4 2.1.1 4.6 3.2 1.5-1.9 9.5-8.2 9.2-5.6 12.7-14.2 15.3-14.2 15.3-5.5.1-13.7.2-13.7.2v200.8h106.2V449.9c-.2 0-8.4-.1-13.9-.2zm-58.7 122-16-.1s-4.1-34 7.2-34.1c11 0 8.8 34.2 8.8 34.2zm.6-60.5-16-.1s-4.1-32.8 7.2-34.1c11.3-1.2 8.8 34.2 8.8 34.2zm25.9 60.5-16-.1s-4.1-30 7.2-34.1c10.7-3.8 8.8 34.2 8.8 34.2zm.5-60.5-16-.1s-2-35.4 9.3-34.1c10.6 1.2 6.7 34.2 6.7 34.2zm27 60.5-16-.1s-3.6-37.6 7.2-34.1c10.5 3.5 8.8 34.2 8.8 34.2zm.6-60.5-16-.1s.1-34.1 7.2-34.1c11.4.1 8.8 34.2 8.8 34.2zM488.1 471.1h-6.6v-12.5h-8.7v-11.2h-7.2v-10.5h-6.4v-12.7h-7.3v-11.5h-7.4v-11.2h-7v-10.3h-6.6v10.3h-7v11.2h-7.4v11.5h-7.3v12.7h-6.4v10.5h-7.2v11.2H387v6h-4.7v-6h-8.7v-11.2h-7.2v-10.5H360v-12.7h-7.3v-11.5h-7.4v-11.2h-7v-10.3H329.9v10.3h-7v11.2h-7.4v11.5h-7.3v12.7h-6.4v10.5h-7.2v11.2H286v11.8h-4.7v178.7h207.8l-1-178zm-161.5 123-18.4-.1s-4.7-39 8.3-39c12.7-.1 10.1 39.1 10.1 39.1zm0-61.7-18.4-.1s-4.7-39 8.3-39c12.7 0 10.1 39.1 10.1 39.1zm8.6-100.8c12.6 0 10.1 39.1 10.1 39.1l-18.4-.1c0 .1-4.7-38.9 8.3-39zm28.7 162.5-18.4-.1s-4.7-39 8.3-39c12.6-.1 10.1 39.1 10.1 39.1zm0-61.7-18.4-.1s-4.7-39 8.3-39c12.6 0 10.1 39.1 10.1 39.1zm62.8 61.7-18.4-.1s-4.7-39 8.3-39c12.6-.1 10.1 39.1 10.1 39.1zm0-61.7-18.4-.1s-4.7-39 8.3-39c12.6 0 10.1 39.1 10.1 39.1zm8.6-100.8c12.6 0 10.1 39.1 10.1 39.1l-18.4-.1c0 .1-4.7-38.9 8.3-39zM464 594.1l-18.4-.1s-4.7-39 8.3-39c12.6-.1 10.1 39.1 10.1 39.1zm0-61.7-18.4-.1s-4.7-39 8.3-39c12.6 0 10.1 39.1 10.1 39.1z" class="st10"/></g><path id="Avant_plan_copy_2" d="M0 982h1512V699.4H.4z" class="st11"/></g></svg>