<?xml version="1.0" encoding="utf-8"?>
<!-- Generator: Adobe Illustrator 28.3.0, SVG Export Plug-In . SVG Version: 6.00 Build 0)  -->
<svg version="1.1" xmlns="http://www.w3.org/2000/svg" xmlns:xlink="http://www.w3.org/1999/xlink" x="0px" y="0px"
	 viewBox="0 0 1417.3 569.3" style="enable-background:new 0 0 1417.3 569.3;" xml:space="preserve">
<style type="text/css">
	.st0{display:none;}
	.st1{display:inline;fill:#53B1E4;}
	.st2{display:inline;fill:#0D1928;}
	.st3{display:inline;fill:#DDEDF7;}
	.st4{display:inline;fill:#BBDDF4;}
	.st5{display:inline;fill:#C9E5F7;}
	.st6{display:inline;fill:#99CAED;}
	.st7{display:inline;fill:#165D75;}
	.st8{display:inline;fill:#80BAE5;}
	.st9{display:inline;fill:none;stroke:#BBDDF4;stroke-miterlimit:10;}
	.st10{display:inline;}
	.st11{fill:#69A6DA;}
	.st12{fill:#5C94CF;}
	.st13{display:inline;fill:#5C94CF;}
	.st14{fill:#23568C;}
	.st15{fill:#0E314E;}
	.st16{fill:#1B4977;}
	.st17{fill:#163E62;}
	.st18{fill:#082439;}
	.st19{fill:#0D1928;}
	.st20{display:inline;fill:#73CBF2;}
	.st21{fill:#80BAE5;}
	.st22{display:inline;fill:#1B4977;}
	.st23{display:inline;fill:#163E62;}
	.st24{fill:#BBDDF4;}
	.st25{fill:#99CAED;}
	.st26{display:inline;fill:#23568C;}
	.st27{display:inline;fill:#0E314E;}
	.st28{fill:none;stroke:#005481;stroke-miterlimit:10;}
	.st29{fill:#053652;}
	.st30{fill:none;stroke:#053652;stroke-width:0.4734;stroke-miterlimit:10;}
	.st31{display:inline;fill:#053652;}
</style>
<g id="Mons">
	<path class="st14" d="M1048,29c-0.2,5.4,0.3,12.7,3,20.9c1.3,4.1,2.9,7.7,4.6,10.6l3.2,0l0,3.3l-3.4,0v20.2
		c14.1,8.6,9,19.6,4.6,23.7c-3.9,3.7-0.7,9.6,0,12.4c1.3,2,1,4.7,4.3,7.3c3,2.4,6,3.8,8.2,4.6c6.3-8.1,5.3-21.4,5.3-21.4
		s-1,13.3,5.3,21.4c6.3,8.1,0.1,11.2-0.7,15.1c-0.8,3.9,1.5,8.5,7,8.5c0,0.1,0,0.3,0,0.9c-2,1.5-6.9,4.3-6.9,4.3s-0.3,12.5-0.4,20
		c5.8,2.5,4.7,21.3,4.7,21.3s-0.2,0,4.1,0c0,0.3,0,0.7,0,1.2c-2.9,1.3-9.5,3.2-9.5,3.2v234.8h-66.6V206.6c0,0-6.6-1.9-9.5-3.2
		c0-0.5,0-0.9,0-1.2c4.3,0,4.1,0,4.1,0s-1.1-18.8,4.7-21.3c-0.1-7.5-0.4-20-0.4-20s-4.9-2.8-6.9-4.3c0-0.6,0-0.8,0-0.9
		c5.6,0,7.9-4.7,7-8.5c-0.8-3.9-7-6.9-0.7-15.1c6.3-8.1,5.3-21.4,5.3-21.4s-1,13.3,5.3,21.4c2.1-0.8,5.1-2.2,8.2-4.6
		c3.3-2.6,3.1-5.4,4.3-7.3c0.7-2.8,3.9-8.7,0-12.4c-4.4-4.2-9.5-15.1,4.6-23.7V63.8l-3.4,0l0-3.3l3.2,0c1.6-3,3.2-6.5,4.6-10.6
		C1047.7,41.7,1048.2,34.3,1048,29z"/>
	<g>
		<polygon class="st14" points="586.9,328 598.9,328 611.9,354 611.9,479.9 0,479.9 0,291.2 5.9,279.3 33.7,279.3 54,251.5 
			58.8,242.7 524.3,242.7 558.4,288.2 562.5,291.2 562.5,301.5 		"/>
		<path class="st14" d="M220.2,257.7c0,0-6.4-32.2-6.3-47.6c0-3.6,2.7-6.4-2.1-6.4s-2.1,2.8-2.1,6.4c0.1,15.4-6.3,47.6-6.3,47.6
			H220.2z"/>
		<path class="st14" d="M597.3,329.4c0,0-0.9-11-0.8-16.3c0-1.2,0.8-2.2-0.6-2.2s-0.6,1-0.6,2.2c0,5.3-0.8,16.3-0.8,16.3H597.3z"/>
		<path class="st14" d="M287.4,257.7c0,0-6.4-32.2-6.3-47.6c0-3.6,2.7-6.4-2.1-6.4s-2.1,2.8-2.1,6.4c0.1,15.4-6.3,47.6-6.3,47.6
			H287.4z"/>
		<path class="st14" d="M227.2,257.7c0,0-5.4-26.9-5.3-39.7c0-3,2.3-5.4-1.8-5.4s-1.8,2.4-1.8,5.4c0.1,12.8-5.3,39.7-5.3,39.7H227.2
			z"/>
		<path class="st14" d="M294.7,257.7c0,0-5.4-26.9-5.3-39.7c0-3,2.3-5.4-1.8-5.4s-1.8,2.4-1.8,5.4c0.1,12.8-5.3,39.7-5.3,39.7H294.7
			z"/>
		<polygon class="st14" points="217.7,274.7 244.7,235.2 271.7,274.7 		"/>
		<path class="st14" d="M260.8,244.1v-21.1h-3.5c0,0-8.2-42.4-8.2-48.7c0,6.3-8.2,48.7-8.2,48.7h-3.5v21.1H260.8z"/>
	</g>
	<g>
		<path class="st15" d="M677.2,285l-0.1-17.4l4-3.9c0,0-0.3-1.6-3.3-2.3c0.1-3.1-0.4-26.5-0.4-26.5s1.5-0.7,3.4-2.8
			c-2.1-1.9-3.6-2.6-4.1-5.2c-0.5-2.5-2.5-7.4-6.2-10.2c-1.3-3.3-2-3.3-3.1-4c-1.1-0.7,3.6-1.4,3.4-4c-0.2-2.7-6.6-33.8-6.7-38.2
			c0,4.5-6.5,35.6-6.7,38.2c-0.2,2.7,4.6,3.4,3.4,4c-1.1,0.7-1.8,0.6-3.1,4c-3.7,2.8-5.7,7.7-6.2,10.2c-0.5,2.5-2,3.3-4.1,5.2
			c2,2.1,3.4,2.8,3.4,2.8s-0.5,23.4-0.4,26.5c-3,0.8-3.3,2.3-3.3,2.3l4,3.9l-0.3,90.1h-5.1l-1.1,5.6l-8,0l28.5,25.3h5.1l33-35.1
			l165.7-0.3l36.4,32.5l20.1-27.8l-0.3-57.2l2.8-4.4h-3.1c0,0,0.4-0.7,0-9.3c-6-8.4-5-13.1-5.8-18.6c-6.8-7-5.2-24.2-5-27.7
			c1.2-1.3,2.8-3.9,2.8-3.9l-10.5-11.5h-7.3l-2.2,6.1l-180.4-0.9c0,0-31.9,40.8-36.3,46.4C679.5,280.1,677.2,285,677.2,285"/>
		<path class="st16" d="M1163,353.6v206.5l-72.3-2.4l-34.1-18.8l-46.8,1.2V408.8L944,357.6l-18.6-1.7l-0.1-16.3l10.1-10.6h76.5
			l29.9,22.3h40.1v-11.1c0,0-2.6-1,0-1.3c2.6-0.3,1-6.3,4.7-7.2s-4.7-1.7,0.5-5.9l0-3.8c0,0-1.8-0.8,0-1.4c0.5,0,0.7,0,0.7,0v-9.2
			h0.4h0.4v9.2c0,0,0.2,0,0.7,0c1.8,0.6,0,1.4,0,1.4l0,3.8c5.1,4.2-3.2,5,0.5,5.9s2.1,7,4.7,7.2c2.6,0.3,0,1.3,0,1.3l0,11.1
			L1163,353.6z"/>
	</g>
	<path class="st17" d="M1417.5,453"/>
	<path class="st17" d="M1417.5,453C1389.8,387.6,1307,340,1209,340c-120.6,0-218.3,72-218.3,160.7l-0.4,68.5h427L1417.5,453z"/>
	<g>
		<g>
			<path class="st15" d="M392.1,260.3c0,0,0,0.2,0,0.6C392.1,260.5,392.1,260.3,392.1,260.3z"/>
			<path class="st15" d="M500.2,385.8h-80V376c0,0,4.7-15-2.5-16.6c-7.2-1.6-2.9-28.2,0-33.3c2.9-5.1,5.5-18.9-11.5-26.7
				c-13.4-6.5-14.1-34.3-14.2-38.5c0,4.2-0.6,32.2-14.2,38.5c-17.1,7.8-14.4,21.6-11.5,26.7c2.9,5.1,7.2,31.6,0,33.3
				c-7.2,1.6-2.5,16.6-2.5,16.6v9.8h-80l-37.2,51.7v131.8h290.7V437.6L500.2,385.8z M381.5,347.1l-6.8,0.8c0,0-2-22.6,3.1-22.6
				S381.5,347.1,381.5,347.1z M399.1,347H386c0,0-2.2-23.6,6.6-23.6C401.2,323.4,399.1,347,399.1,347z M410.4,347.9l-6.8-0.8
				c0,0-1.4-21.8,3.7-21.8S410.4,347.9,410.4,347.9z"/>
		</g>
		<path class="st15" d="M180.7,569.3V426.9c0,0-3.3-5.2,0-9c3.3-3.8,8.6-5.3,9.1-10.1c2.6,0,8.2,0,8.2,0s1.7-19.2,9.4-20
			c0.6-4.1,3-8.9,7.1-8.9c4.1,0,6.5,4.8,7.1,8.9c7.7,0.7,9.4,20,9.4,20s5.6,0,8.2,0c0.4,4.8,5.8,6.3,9.1,10.1c3.3,3.8,0,9,0,9v142.4
			L180.7,569.3z"/>
		<polygon class="st15" points="184.6,414.9 35.9,414.9 0,448 0,569.3 186.2,569.3 		"/>
		<path class="st15" d="M535,569.4l1.2-130.9c0,0-0.2-11.1,2.8-17.5c0.7-1.5,0.6-3.3-0.4-4.7c-0.6-0.9-0.9-1.9-0.9-3
			c0-3.4,3.2-6.1,7.2-6.1c4,0,7.2,2.7,7.2,6.1c0,0,0,0.1,0,0.1c4.8-4.3,6.6-12.4,3.6-20.2c12.9-10.3,18.7-16.7,18.7-16.7
			s5.7,6.4,18.7,16.7c-3,7.7-1.2,15.8,3.6,20.2c0,0,0-0.1,0-0.1c0-3.4,3.2-6.1,7.2-6.1c4,0,7.2,2.7,7.2,6.1c0,1.1-0.3,2.1-0.9,3
			c-0.9,1.4-1.1,3.2-0.4,4.7c3.1,6.4,2.8,17.5,2.8,17.5l1.2,130.9L535,569.4z"/>
		<polygon class="st15" points="677.7,569.4 612,569.3 612,430.2 677.7,430.2 		"/>
		<polygon class="st15" points="711.2,395.5 676.3,423.9 676.3,569.3 746.2,569.3 746.2,423.9 		"/>
	</g>
	<g>
		<path class="st15" d="M1122.7,438.8l-41.5-16.7l-41.5,16.7H873.6v130.5h99.4h17.3v-52h0c0.2-15.7,11.2-28.3,24.6-28.3
			c13.5,0,24.4,12.6,24.6,28.3h0v52h16.1v-52h0c0.2-15.7,11.2-28.3,24.6-28.3s24.4,12.6,24.6,28.3h0v52h16.1v-52h0
			c0.2-15.7,11.2-28.3,24.6-28.3s24.4,12.6,24.6,28.3h0v52h19h95.5V438.8H1122.7z"/>
	</g>
	<path class="st18" d="M944,357.6l-18.6-1.7l-20.1,27.8l-36.4-32.5l-165.7,0.3l-33,35.1h-5.1l-28.5-25.3c0,0-32.2,38.9-45,44.3
		v163.7h12.8h405.4V408.8L944,357.6z"/>
	<g>
		<path class="st15" d="M598.2,569.3l-202.3-64.5c0,0-169.7,29.5-169.7,64c2.2,0.2,4.6,0.4,7.3,0.6"/>
		<polygon class="st19" points="401.5,569.3 412.7,541.1 409.8,540.9 398.5,569.3 		"/>
		<polygon class="st19" points="557.5,569.3 562,558 559.7,557.3 554.9,569.3 		"/>
		<polygon class="st19" points="545.8,569.3 551.6,554.8 549.3,554.1 543.2,569.3 		"/>
		<polygon class="st19" points="569.5,569.3 572.6,561.4 570.4,560.7 566.9,569.3 		"/>
		<polygon class="st19" points="581,569.3 582.9,564.6 580.6,563.9 578.4,569.3 		"/>
		<polygon class="st19" points="592.4,569.3 593,567.8 590.7,567.1 589.8,569.3 		"/>
		<path class="st19" d="M239,569.3l8.1-20.2c-0.9,0.4-1.8,0.8-2.7,1.2l-7.6,19L239,569.3z"/>
		<path class="st19" d="M248.6,569.3l10-25c-1.2,0.5-2.4,1-3.6,1.5l-9.4,23.6L248.6,569.3z"/>
		<path class="st19" d="M230.9,569.3l6.1-15.2c-0.3,0.2-0.6,0.3-0.8,0.5c-0.6,0.4-1.1,0.8-1.6,1.2l-5.4,13.6H230.9z"/>
		<line class="st19" x1="409.8" y1="541.9" x2="412.7" y2="542.1"/>
		<path class="st19" d="M398.9,541.4"/>
		<polyline class="st19" points="413.7,538.6 423.4,514.4 420.7,513.6 410.8,538.5 412.2,538.6 410.8,538.5 		"/>
		<polyline class="st19" points="437.3,539.8 444.8,521.1 442.1,520.3 434.4,539.7 434.4,539.7 		"/>
		<polyline class="st19" points="459.6,540.9 464.9,527.5 462.3,526.7 456.6,540.8 456.6,540.8 		"/>
		<polyline class="st19" points="478.7,541.9 482.3,532.9 479.6,532.1 475.8,541.7 		"/>
		<polyline class="st19" points="496.2,542.8 498.1,537.9 495.5,537.1 493.3,542.6 		"/>
		<polyline class="st19" points="509.3,545.9 500,569.3 503,569.3 512.3,546 		"/>
		<polyline class="st19" points="492.3,545 482.6,569.3 485.6,569.3 495.2,545.2 		"/>
		<polyline class="st19" points="354.5,540.7 343,569.3 346,569.3 357.5,540.6 		"/>
		<polyline class="st19" points="332.1,541.3 321,569.3 324,569.3 335.2,541.2 		"/>
		<polyline class="st19" points="312.9,541.8 301.9,569.3 304.9,569.3 315.9,541.7 		"/>
		<path class="st19" d="M307.9,542"/>
		<polyline class="st19" points="296.4,542.3 285.6,569.3 288.6,569.3 299.4,542.2 		"/>
		<polyline class="st19" points="282.6,542.7 271.9,569.3 274.9,569.3 285.6,542.6 		"/>
		<polyline class="st19" points="268.4,543.1 257.9,569.3 260.9,569.3 271.4,543 271.4,543 		"/>
		<path class="st19" d="M286.6,540.1l2.9-7.3c-1.2,0.4-2.3,0.8-3.5,1.2l-2.5,6.2"/>
		<path class="st19" d="M300.4,539.7l4.9-12.2c-1.2,0.4-2.3,0.7-3.4,1.1l-4.4,11.2"/>
		<path class="st19" d="M316.9,539.2l7-17.5c-1.1,0.3-2.3,0.7-3.4,1l-6.6,16.6"/>
		<path class="st19" d="M336.2,538.7l9.1-22.8c-1.1,0.3-2.2,0.6-3.3,0.9l-8.8,22.1"/>
		<path class="st19" d="M358.5,538.1l11.1-27.9c-1.1,0.2-2.2,0.5-3.3,0.7l-10.9,27.3"/>
		<path class="st19" d="M373.7,569.3l11.8-29.6l10.4,0.5l28.6,1.4h0l8.8,0.4l-10.9,27.2l3,0l10.8-27.1h0l8.6,0.4l2.9,0.1h0l7.8,0.4
			l-10.4,26.1h3l10.4-26h0l6.6,0.3l2.9,0.1l6.6,0.3l-10,25.2h3l10-25h0l6.7,0.3l35.9,1.8l4.7,0.2l-9.1,22.7h3l8.8-22.1l-1.7-0.5
			l-9.4-2.9l-3.5-0.2l0.3-0.8l-2.7-0.8l-0.6,1.5l-5.1-0.3l-108.2-5.4h0l-10.4-0.5l12.2-30.6l-2.9-0.9c-1,0.1-1.9,0.3-2.9,0.4
			l-12.5,31.3h0l-9.7,0.3l-94.5,2.6h0l-3.8,0.1l0.7-1.8c-1.2,0.4-2.4,0.9-3.5,1.3l-0.2,0.6h0l-1.4,0c-2.4,0.9-4.7,1.8-6.8,2.7l0.8,0
			l107.8-3h0l9.7-0.3l-11.7,29.4L373.7,569.3z"/>
		<polygon class="st19" points="533.4,569.3 540.6,551.3 538.3,550.6 530.8,569.3 		"/>
		<path class="st19" d="M642.7,569.3l-29.8-43.7l-32.7-17.1l64.2-170.2c0.5-1.4-0.8-2.7-2.1-2.3l-243.4,76c-2.2,0.7-4.6,0.5-6.7-0.6
			c-4.2-2.2-13.6-7-34.8-17.4c-2.2-1.1-4.7-1.1-6.8-0.1c-70.1,32.9-110.6,75.4-124.3,90.6c-13.9,15.4-7.7,46.3-7.4,67.4
			c0.2,13.9,4.9,16.7,7.3,17.5c0.2-1.5,1.6-8.2,10.2-14.1c9.7-6.7,94.4-40.4,159.7-48.8l199.9,63"/>
	</g>
	<path class="st19" d="M610,489.3c-1.5-2-3.6-1.9-4.8-1.6c-0.5,0.1-0.9,0.4-1.3,0.8c-1.8,2.3-2.2,0.8-3.1,0.7
		c-9.6-0.6-9.3,14.9-10.7,19.8c-1.4,5,6.1,6.9,6.2,8.6c0,1.6,4.4,1.1,9,0.8c4.6-0.3,4.3-1.3,4.4-2.6c0.1-1.4-0.2-1.5-0.6-1.7
		c0.1-0.2,0.2-1.1-0.9-1.7c-2.1-1.2-4.1-0.9-4.4-0.9c-0.6,0-0.4-0.4,0-1.1c0.3-0.7,6-3.4,4.6-5.6c-1.1-1.7-3.3-1.2-3.9-1.2
		c-0.5,0-1,0-2,0.2c-0.1-0.2-0.2-0.5-0.2-0.7c1.9,0.7,3.4-1.6,4.8-3.1c1.4-1.5,2.5-3.6,2.5-3.6l0,0c0.6-0.1,1.2-0.6,1-2.2
		C610.3,491.7,612.2,492.2,610,489.3z M603.5,500l-0.3-1.4c0.6-0.6,1.5-1.5,1.9-2.7c0.3-0.8,1-0.7,1.8-0.4
		C606.4,498.5,603.5,500,603.5,500z"/>
	<path class="st15" d="M1104.4,537.8c-0.9-1.1-1.1,0-2.5-1.5s-2.6-0.3-2.6-0.3s0,0.1-0.1,0.2v0l-18.2,16.5c0,0-2.7,1.4-5.3,1.3
		c-2.6-0.2-5.7,0.3-7.8,3.1s-0.6,5.7-3.7,7.1c-1.8,2.5-1.5,2.5-1.9,3s0,3,2.2,1.9c2.2-1.1,2-2.4,6.4-3.4c4.4-1,7.6-2.3,8.6-7
		c0.9-4.3,2-5.5,2.2-5.7l17.2-15.6c0,0.4,0.1,0.8,0.7,0.9c1.2,0.2,1.7,1.4,2.5,1.4c0.2,0,0.1-0.1,0.5-0.2c0.9-0.3,1.4-0.2,2-0.3
		c0.4-0.1,1-0.3,1.6-0.9C1106.1,538.3,1105.2,538.9,1104.4,537.8z"/>
	<g>
		<g>
			<path class="st17" d="M1043.2,655.2c1.9,0,1.9-3,0-3C1041.2,652.2,1041.2,655.2,1043.2,655.2L1043.2,655.2z"/>
		</g>
	</g>
	<g>
		<g>
			<path class="st17" d="M94,839.2c1.9,0,1.9-3,0-3C92.1,836.2,92.1,839.2,94,839.2L94,839.2z"/>
		</g>
	</g>
	<rect y="565.3" class="st19" width="1417.1" height="41.2"/>
</g>
</svg>
