<svg xmlns="http://www.w3.org/2000/svg" xml:space="preserve" id="Layer_1" x="0" y="0" version="1.1" viewBox="0 0 831.9 1193.4"><style>.st0{display:none}.st1{display:inline}.st2{fill:#044c7a}.st3{display:none;fill:#0065a3}.st4,.st5{opacity:.6;fill:#fbe95c;stroke:#010101;stroke-width:.1602;stroke-linecap:round;stroke-linejoin:round;enable-background:new}.st5{stroke-width:.1625}.st6{fill:#0d4066}.st9{fill:#0b3351}.st10{fill:#fbe95c;stroke:#010101;stroke-width:5.195582e-02;stroke-linecap:round;stroke-linejoin:round}.st12{fill:#00253c}.st13{fill:#00588f}.st15{fill:#d6eefc}.st16{fill:#fff}.st17{display:none;fill:#d6eefc}.st18{fill:#c4e5f9}.st19{fill:#9fd4f3}.st20{fill:#e0edf3}.st22{fill:#4290cd}.st23{fill:#033376}.st24{fill:#d82f20}.st25{fill:#b5b5b5}.st26{fill:#809da8}.st27{fill:#475c63}.st28{fill:none}.st29{enable-background:new}.st30{fill:#898989}.st31{fill:#777}.st32{fill:#b2b2b2}.st33{fill:#161616}.st34{fill:#494949}.st35{fill:#a8a8a8}.st36{fill:#282828}.st37{fill:#383838}.st38{fill:#fcea5c}.st39{fill:#01527f}</style><g id="illu_jour_tablet"><path id="Arrière_plan_copy_00000167376122147730640700000005967936916494333323_" d="M-1.8 0h833.6v1193.3H-1.8z" class="st16"/><g id="Quatrième_plan_copy_00000106843499919829063590000003240203057708119442_"><path d="M510.7 471.9h3.4v5.1h-3.4zM514.2 471.8h3.4v5.1h-3.4zM517.9 471.9h3.4v5.1h-3.4zM510.6 477.5h3.4v5.1h-3.4zM514.2 477.5h3.4v5.1h-3.4zM517.9 477.5h3.4v5.1h-3.4zM510.6 483h3.4v5.1h-3.4zM514.2 483h3.4v5.1h-3.4zM517.9 483h3.4v5.1h-3.4zM528.4 465.6h3.4v5.1h-3.4zM524.9 472.1h3.4v5.1h-3.4zM524.9 477.5h3.4v5.1h-3.4zM524.9 482.8h3.4v5.1h-3.4zM528.4 472.1h3.4v5.1h-3.4zM528.4 477.5h3.4v5.1h-3.4zM528.4 482.8h3.4v5.1h-3.4zM531.9 472.1h3.4v5.1h-3.4zM531.9 477.5h3.4v5.1h-3.4zM531.9 482.8h3.4v5.1h-3.4z" class="st16"/><path d="M701.9 477.6c-54.3 12.2-110.2 18.2-166 17.2v-25c0-.4-.1-.7-.4-.7-.4 0-.6.4-.6.4V468c-.4-.1-.4-.6-.4-.6s-.6.1-1-.3-.4-1-.4-1v-.2l.2-.1v-.2h-.2l-.2-.6h-.5c-.2-1-.9-1-.9-1v-.4l.1-.1v-.4l.2-.1.1-.2h-.4c-.4-.6-1.5-.5-1.5-.5s-1.1-.1-1.5.5h-.4l.1.2.2.1v.4l.1.1v.4s-.7 0-.9 1h-.5l-.2.6h-.2v.2l.2.1v.2s.1.6-.4 1c-.4.4-1 .3-1 .3s.1.4-.4.6v1.5s-.1-.4-.6-.4c-.4 0-.5.4-.4.7v24.7c-.9-.1-1.8-.1-2.6-.1v-23.6c-1.3-.1-1.3-1.8-1.3-1.8s.1-.1.2-.4c-.2-.1-.1-.6-.1-.6l.4-.6h-1.9c-.4 0-.4-.2-.6-.6-.4-.2-.4 0-.4-2.1s-2.2-2.4-2.2-2.4-2.3.2-2.2 2.4c0 2.1 0 2-.4 2.1-.1.3-.1.6-.6.6h-1.9l.4.6s.1.4-.1.6l.2.4s0 1.8-1.3 1.8v23.1c-65.4-3.7-130.1-17.2-191-41.4-40.6-16.1-79.6-36.9-121-50.5h.7l-54.8-50.7v-4.8l-2.9-2.2v-9.9l1.9-1.2-3-4.1h-.9l.9-2s.4-.6-.3-1.2c.6-.5 1.5-1.5 1.8-2.4.4-1.3-.6-2.4-1.6-2.6s-2 .3-2 .3-.9-1.1-2.3-.9c-1.5.2-3.9 1-5 .2s-2.5-2.9-2.8-3.4c-.2-.5-1.7-1.3-2.8-.8s-1.5 1.5-1.8 2.5c-.4 1-.4 1.8-.1 2.8.3.9 1.3 1.2 1.2 1.8s-.6 1.1-.6 1.1-1.3 0-1.7.7.1 1.3.1 1.3-.7 1-.3 1.9c.3.7.7.9 1.2.9l-2.9 4 2 1.2v9.9l-2.9 2.2v4l-39.7 37.5c-28.3 2.4-56.2 8.9-82.8 19l.1 420.2H922V391.2c-68.9 39.1-142.8 69-220.1 86.4zm-170.5-1.2h-2.6v-4h2.6v4zm0 6.6v4h-2.6v-4h2.6zm0-5.3v4h-2.6v-4h2.6zm3.5 9.4h-2.6v-4h2.6v4zm-2.5-14.7h2.6v4h-2.6v-4zm0 5.3h2.6v4h-2.6v-4zm-2.3-12.1c1.3 0 1.5 3.8 1.5 3.8H529c-.1 0-.4-3.8 1.1-3.8zm-2.2 21.5h-2.6v-4h2.6v4zm-2.5-14.7h2.6v4h-2.6v-4zm0 5.3h2.6v4h-2.6v-4zm-4.8 9.4H518v-4h2.6v4zm-2.7-14.7h2.6v4h-2.6v-4zm0 5.3h2.6v4h-2.6v-4zm-.8 9.4h-2.6v-4h2.6v4zm-2.5-14.7h2.6v4h-2.6v-4zm0 5.3h2.6v4h-2.6v-4zm-.9 5.3v4h-2.6v-4h2.6zm-2.6-10.6h2.6v4h-2.6v-4zm0 5.3h2.6v4h-2.6v-4zM138.2 321.5s2.1-.6 2.4.9c.2 1.2-1 2.5-1.5 3-.6-.8-1.3-2.1-1.3-2.1l.4-1.8zm-12.5 7.5h-2.1c.1-.1.2-.1.3-.1 1.2-.2 1.7-1.3 1.2-2.2-.4-.8-1.2-.7-1.2-.7s-.5-.6.1-.9c.6-.2 1.3-.3 1.8-.2.4.1.9-.1 1 .4s.1 1.3-.2 1.8c-.4.4-.7 1.4-.9 1.9zm8.1 0h-7c.2-.4.6-1.3.9-1.8.4-.7.6-1.2.7-1.6.1-.4 2.4-.1 3.6-.5 1.2-.4 2.6-1.2 2.6-1.2s-.1 1.7.2 2.3c.4.6.5.7.1 1.2-.5.4-1 1.2-1.1 1.6zm4.6-1.7c-.2.3-.6 1.2-.9 1.7h-2.6c.4-.5 1.3-1.4 1.2-1.7-.1-.3-.5-1.3-.1-1.8s1.3.2 1.7.6c.4.3 1.1.8.7 1.2z" class="st15"/></g><g id="Troisième_plan_copy_00000121960129636013095320000013907771946129772968_"><path d="M68.9 660.4h8.8v12h-8.8zM91.9 672.4h5.5v7.7h-5.5zM96.2 662.3h5.6v8.8h-5.6zM99.9 653.8h5.5v6.6h-5.5zM67.4 674.1h8.8v12h-8.8zM68.2 688.6H77v12h-8.8zM104.4 662h5.6v8.8h-5.6zM100.4 672.4h5.5v7.7h-5.5zM108.6 672.4h5.5v7.7h-5.5zM92.2 683.1h5.5v7.7h-5.5zM99.9 683.1h5.5v7.7h-5.5zM108.2 683.1h5.5v7.7h-5.5z" class="st16"/><path d="M799.9 637.2c-10.2-3.1-20.4-5.6-30.8-7.6l1.6-36.5-9.6-.3.1-2.4-5.5-.2.5-13.7-1.2-.1.1-2.6-8.9-.3v-1l-1.4-.1v-1.2l-1.5-.1v-3.8l-.3-3.3c-.2 1.1-.4 2.1-.6 3.3-.2 1.1-.2 2.1-.2 3.3v.5l-2.1-.1v1.2l-1.4-.1v1l-8.2-.2-.1 2.7-2.1-.1-.5 15-9.7-.3-.1 3.2-1.6-.1.1-3.2-2.1-.1.2-3.6-15.4-.6-.1 2.2-1.4-.1-.2 3.8-2.9-.1.1-3.2-1.6-.1.1-2.7-17.4-.6.3-9.9-1.1-.1.1-3.2-3.4-.1-.1 2.1-2.5-.1-.1 1.2-.6 15.9-3-.1.5-14-2.7-.1.1-1.8-8.7-.3-.1 1.8-3-.1-.2 7.2-6.6-.2-.3 10.5-3.3-.1.1-2.7-3.3-.1-.1 2.7-2.1-.1-4.5-8.7c2.9-1.8 4.8-5 4.6-8.7-.2-4.3-3.1-7.9-7-9.1l.6-17.4c5.4-.5 9.5-5.1 9.3-10.6-.2-5.7-5-10.1-10.7-9.9-3 .1-5.7 1.5-7.4 3.6l-22.8-14c.4-1.2.6-2.4.6-3.6-.2-5.5-4.7-9.7-10.2-9.5s-9.7 4.7-9.5 10.2c.1 1.4.4 2.8 1 4l-21.6 15.1c-2-2-4.7-3.1-7.7-3.1-5.7.2-10.1 5-9.9 10.7.2 5.2 4.1 9.3 9.2 9.8l1.9 17.3c-4.2 1.2-7.2 5.2-7 9.7.1 3.3 1.8 6.1 4.3 7.8l-4.5 9.6-5.9.2-.5-15-2.1.1-.1-2.7-8.2.2v-1l-1.4.1v-1.2l-2.1.1v-.5c0-1.1-.1-2.1-.2-3.3-.2-1.1-.3-2.1-.6-3.3-.2 1.1-.3 2.2-.3 3.3-.1 1.1-.1 2.2 0 3.3v.5l-1.5.1v1.2l-1.4.1v1l-8.9.3.1 2.6-1.2.1.5 13.7-5.5.2.1 2.4-9.6.3 1.5 36c-13.1 2.2-26 4.6-38.9 7.4-102.5 21.5-202.1 59.3-306.4 67.4-11.6.9-23.3 1.4-35 1.7l-.2-46.6h-2.1V661h-2v-4.3h-2.3v-3.3h-2V650h-1.8c-.4-3.1-3.3-2.9-3.3-2.9s-2.9-.2-3.3 2.9H98v3.4h-2v3.3h-2.3v4.3h-2v4.3h-2.1l.2 46.6c-1.2 0-2.6-.1-3.9-.1v-50.7s-8.1 1-8.5-10.7h-9.7c-.3 11.6-8.5 10.7-8.5 10.7v49.6c-57.3-3.6-114.5-13.1-171.3-22.5-103.6-17.3-211.3-36.3-305.1-80.7v440.1L831.9 1032V649.2c-10.5-4.5-21-8.6-32-12zm-731 24.6h7.4v8.3h-7.4v-8.3zm0 13.6h7.4v8.3h-7.4v-8.3zm0 13.6h7.4v8.3h-7.4V689zm35.7.8H101s-.7-5.8 1.8-5.9c2.4 0 1.8 5.9 1.8 5.9zm6.3-5.8c2.4-.1 1.8 5.9 1.8 5.9h-3.6c0-.1-.7-5.8 1.8-5.9zm.5-11.2c2.4-.1 1.8 5.9 1.8 5.9h-3.6c-.2 0-.7-5.8 1.8-5.9zm-4.2-10.5c2.4-.1 1.8 5.9 1.8 5.9h-3.6s-.5-5.9 1.8-5.9zm-5.3-7.8h2.4v4.5h-2.4v-4.5zm1.3 18.3c2.4-.1 1.8 5.9 1.8 5.9h-3.6s-.6-5.8 1.8-5.9zm-4-10.5c2.6.9 1.8 5.9 1.8 5.9h-3.6s-.7-6.8 1.8-5.9zm-4.3 10.5c2.4-.1 1.8 5.9 1.8 5.9h-3.6s-.7-5.8 1.8-5.9zm-.5 11.2c2.4-.1 1.8 5.9 1.8 5.9h-3.6c.1-.1-.7-5.8 1.8-5.9zm469.2-101.1c.5-1.2.7-2.6.7-4 0-1-.2-1.9-.5-2.7l15.9-8.3c-.1.5-.1 1-.1 1.5.2 4.8 3.5 8.8 7.8 10.1l-1.3 12.6-9.7.3-12.8-9.5zm16.2-19-17.7 9.1c-1.7-2.1-4.1-3.5-6.9-3.6l-1.8-17.1c2-.5 3.7-1.5 5-3l21.4 14.6zm11.6 18.1-1.2.1-1.5-.7.1-.8 2.6-.1v1.5zm-3 .7 1.2 3.5.7-.4.1 2.7-.7-2.3-1.6 1 .3-4.5zm-.5 4.7 2.4 1.4.1 3.2-3 .1.5-4.7zm26.7-4.3-3 .1-.1-1.8-8.7.3.1 1.8-2.7.1.4 12.5-2 1.7h-1l-.6-15.9-.1-1.2-2.5.1-.1-1.7c4-1.7 6.9-5.8 6.8-10.4 0-.2 0-.5-.1-.7l15.1 7c-.1.7-.2 1.4-.2 2.1.1 1.8.6 3.5 1.5 4.9l-3.1 2.6.3-1.5zm7-35.8c1.2 1.2 2.7 1.9 4.4 2.3l-.6 17.3c-3.3.2-6.1 2.1-7.7 4.7l-17.1-8 21-16.3zm-2.8-11.4c-.5 1.2-.7 2.6-.7 4 .1 1.7.5 3.1 1.2 4.5l-21.4 16.7c-1.6-1.5-3.6-2.6-5.9-2.9l-1.2-33c2.1-.5 3.9-1.7 5.2-3.2l22.8 13.9zm-36.9-13.1c1.5 1.4 3.4 2.3 5.5 2.6l1.2 33c-2.4.4-4.5 1.6-6 3.3l-22.2-15.1c.6-1.4.9-2.9.9-4.5-.1-1.4-.4-2.8-1-4l21.6-15.3zm-27.1 66.3c2.7-.1 5.1-1.3 6.9-3.1l11.5 8.6v.8l-1.6.1.1 3.2-2.9.1-.2-3.8-1.4.1-.1-2.2-15.4.6.2 3.6-2.1.1.1 3.2-1.6.1-.1-2.9 3.9-8.3c1-.3 1.8-.2 2.7-.2zm76.8 11-3.3.1-.1-2.7-3.3.1.1 2.7-3.3.1-.3-10.5-6.6.2-.1-1.3 5.4-4.5c1.7 1.3 4 2.1 6.3 2 .5 0 1.1-.1 1.6-.2l6.4 12.4-.8 23.5h-1.1l-.9-21.9z" class="st18"/></g><g id="Deuxième_plan_copy_00000118359625675576243940000013927379842733352832_"><path d="M-1.9 1193.4h833.8v-222H-1.8z" class="st15"/><path d="M18.4 763.7h18.9v25.8H18.4zM49.4 729.3h9.3v28.9h-9.3zM138.2 789.5h22.7v45.9h-22.7zM227.9 806.6h33.9v43.2h-33.9zM250.4 758.2h22.9v42.5h-22.9z" class="st16"/><path d="M319.4 769.2h42.5v20.6h-42.5z" class="st16" transform="rotate(-76.161 340.63 779.464)"/><path d="M60.6 726.6h9.3v28.9h-9.3zM72.2 727.4h9.3v28.9h-9.3zM55.9 781.9h18.9v25.8H55.9zM93.2 764.2h18.9V790H93.2zM93.6 802.9h18.9v25.8H93.6zM95.2 838.5h18.9v25.8H95.2zM15.2 802.9h18.9v25.8H15.2zM17.9 837.9h18.9v25.8H17.9zM44.4 817.6h43.3v55.9H44.4zM43.7 877.6H87v55.9H43.7zM160.7 787.2h22.7v45.9h-22.7zM187.2 786.6h22.7v45.9h-22.7zM138.2 838.5h22.7v45.9h-22.7zM162.4 838.5h22.7v45.9h-22.7zM187.2 838.5h22.7v45.9h-22.7zM264.9 801.3h22.9v42.5h-22.9zM235.8 857.9h22.9v42.5h-22.9zM266.2 856.6h22.9v42.5h-22.9zM311.2 805.9h22.9v42.5h-22.9zM343.7 803.9h22.9v42.5h-22.9zM311.2 855.3h22.9v42.5h-22.9zM343.7 854.2h22.9v42.5h-22.9z" class="st16"/><path d="m-1.6 1193.3 833.5-2.4V931.5H-1.6z" class="st19"/><path d="M126.9 769h-5.1l-2-3.6v-10.5l-2.6-3.1h-4.6l-9.4-17.8-8.7 17.8-10.1-.1s-.7-6-1.2-10.4.7-14.3.7-14.3h-2.4v-5.8s4.5-10.8 4.3-21.3c-.2-10.4-9.7-21.8-10.7-24 1.7-1.3 1.2-3.6.8-4.2s-1.6-3.2-2.2-7.8c0 0-.6-9 .6-11.8 1.3-2.7.9-3.5-1.6-6-2.5-2.4-2.4-3.2-.6-7 1.7-3.8.7-7.9-2.6-10.9-3.7-3.4-4.2-45.8-4.2-45.8s0 42.7-4.2 45.8c-3.6 2.7-4.2 7.1-2.6 10.9 1.6 3.8 1.8 4.6-.6 7-2.4 2.4-2.8 3.2-1.6 6 1.3 2.7.6 11.8.6 11.8-.5 4.6-1.7 7.1-2.2 7.8-.4.6-1 3 .8 4.2-1 2.2-10.5 13.5-10.7 24-.2 10.4 4.3 21.3 4.3 21.3v5.8h-2.4s1.1 9.9.7 14.3-1.2 10.5-1.2 10.5H35.8L27 736.3l-9 15.4h-4.6l-2.6 3.1v10.5l-2 3.6H3.6L1.9 933.7h126.2L126.9 769zm-95.3 80.2v6.7h-6.8v-6.7s-.4-3.6 3.4-5.7c3.7 2.1 3.4 5.7 3.4 5.7zm0-33.8v6.7h-6.8v-6.7s-.4-3.6 3.4-5.7c3.7 2 3.4 5.7 3.4 5.7zm0-42.5v6.7h-6.8v-6.7s-.4-3.6 3.4-5.7c3.7 2 3.4 5.7 3.4 5.7zm42.2-37 3.9-3.2 2.1 4.3v12.3l-6-1.4v-12zm-12.2-.4 3.8-4.3 3.8 4.3v12.3h-7.6v-12.3zm3.6 54c2.4 0 4.3 2 4.3 4.3s-2 4.3-4.3 4.3-4.3-2-4.3-4.3 2-4.3 4.3-4.3zM50.7 737l2.1-4.3 3.9 3.2v11.9l-6 1.4V737zm14.5 85.5c16.4 9.6 15.9 21.5 15.9 21.5v24.6H49.4V844s-.5-11.9 15.8-21.5zm20.7 84.2v25.1H44.7v-25.1s-.4-16.8 20.6-27.6c20.9 10.8 20.6 27.6 20.6 27.6zm21.2-57.5v6.7h-6.9v-6.7s-.4-3.6 3.4-5.7c3.8 2.1 3.5 5.7 3.5 5.7zm0-33.8v6.7h-6.9v-6.7s-.4-3.6 3.4-5.7c3.8 2 3.5 5.7 3.5 5.7zm0-42.5v6.7h-6.9v-6.7s-.4-3.6 3.4-5.7c3.8 2 3.5 5.7 3.5 5.7zM203.9 775.2s-6.8-2-11.2-11.9c-4.9.2-9-6-6.4-7.2 4.2-2 1.4-3.4.1-3.6-4.1-.8-.8-10.1 3.2-11.7 2.4-.9-1.2-8.2-16.6-8.7-15.5.6-18.9 7.9-16.6 8.7 4 1.5 7.3 10.8 3.2 11.7-1.4.3-4.2 1.6.1 3.6 2.5 1.2-1.5 7.5-6.4 7.2-4.4 10-11.2 12-11.2 12-4.3.1-10.8.2-10.8.2v157.7h83.4V775.4s-6.5-.1-10.8-.2zm-46.1 95.9-12.6-.1s-3.2-26.7 5.7-26.8c8.5 0 6.9 26.9 6.9 26.9zm.4-47.5-12.6-.1s-3.2-25.8 5.7-26.8 6.9 26.9 6.9 26.9zm20.4 47.5L166 871s-3.2-23.6 5.7-26.8c8.4-3 6.9 26.9 6.9 26.9zm.3-47.5-12.6-.1s-1.6-27.8 7.3-26.8c8.5 1 5.3 26.9 5.3 26.9zm21.3 47.5-12.6-.1s-2.8-29.5 5.7-26.8c8.3 2.7 6.9 26.9 6.9 26.9zm.5-47.5-12.6-.1s.1-26.8 5.7-26.8c8.9.1 6.9 26.9 6.9 26.9zM381.4 792h-5.2v-9.8h-6.8v-8.8h-5.7v-8.2h-5v-10.1H353v-9h-5.8v-8.8h-5.5v-8.1h-5.2v8.1H331v8.8h-5.8v9h-5.7v10h-5v8.2h-5.7v8.8H302v4.7h-3.7v-4.7h-6.8v-8.8h-5.7v-8.2H281v-10h-5.7v-9h-5.8v-8.8H264v-8.1h-6.6v8.1h-5.5v8.8h-5.8v9h-5.7v10h-5v8.2h-5.7v8.8h-6.8v9.3h-3.7v140.5h163.2l-1-139.9zm-126.7 96.7-14.5-.1s-3.7-30.6 6.5-30.6c9.9-.1 8 30.7 8 30.7zm0-48.4-14.5-.1s-3.7-30.6 6.5-30.6c9.9-.1 8 30.7 8 30.7zm6.7-79.2c9.9 0 7.9 30.7 7.9 30.7l-14.5-.1c.1 0-3.6-30.6 6.6-30.6zm22.5 127.6-14.5-.1s-3.7-30.6 6.5-30.6c10-.1 8 30.7 8 30.7zm0-48.4-14.5-.1s-3.7-30.6 6.5-30.6c10-.1 8 30.7 8 30.7zm49.3 48.4-14.5-.1S315 858 325.2 858c10-.1 8 30.7 8 30.7zm0-48.4-14.5-.1s-3.7-30.6 6.5-30.6c10-.1 8 30.7 8 30.7zm6.9-79.2c9.9 0 7.9 30.7 7.9 30.7l-14.5-.1c-.1 0-3.6-30.6 6.6-30.6zm22.5 127.6-14.5-.1s-3.7-30.6 6.5-30.6c10-.1 8 30.7 8 30.7zm0-48.4-14.5-.1s-3.7-30.6 6.5-30.6c10-.1 8 30.7 8 30.7z" class="st19"/></g><path id="Avant_plan_copy_00000124122369966921316890000008208401556314662553_" d="M-1.2 1192.1h833.1V962.7H-.9z" class="st20"/></g></svg>