<svg width="36" height="27" viewBox="0 0 36 27" fill="none" xmlns="http://www.w3.org/2000/svg">
<path fill-rule="evenodd" clip-rule="evenodd" d="M32.7273 23.4C33.1613 23.4 33.5775 23.5896 33.8844 23.9272C34.1912 24.2648 34.3636 24.7226 34.3636 25.2C34.3636 25.6774 34.1912 26.1352 33.8844 26.4728C33.5775 26.8104 33.1613 27 32.7273 27H1.63637C1.20238 27 0.786168 26.8104 0.47929 26.4728C0.172412 26.1352 1.02548e-05 25.6774 1.02548e-05 25.2C1.02548e-05 24.7226 0.172412 24.2648 0.47929 23.9272C0.786168 23.5896 1.20238 23.4 1.63637 23.4H32.7273ZM18 0C23.2756 0 27.7233 1.935 30.8749 4.6602C33.9693 7.335 36 10.953 36 14.4C36 15.9156 35.5778 17.208 34.8333 18.252C34.1084 19.2708 33.1413 19.962 32.1562 20.4372C30.2155 21.3696 27.9065 21.6 26.1818 21.6H3.26292C2.83366 21.5998 2.40866 21.5064 2.01224 21.3253C1.61582 21.1441 1.25577 20.8788 0.952698 20.5444C0.649623 20.21 0.409475 19.8132 0.246001 19.3766C0.0825261 18.94 -0.00106563 18.4722 1.02548e-05 18V3.6C1.02548e-05 1.6182 1.45637 0 3.26946 0H18ZM9.81819 3.6H3.27274V9H9.81819V3.6ZM18 3.6H13.0909V9H19.6364V3.672C19.2759 3.6399 18.9147 3.61889 18.5531 3.609L18 3.6ZM22.9091 4.2894V9H30.3562C29.8903 8.45551 29.3876 7.95066 28.8524 7.4898C27.2782 6.129 25.2687 4.9788 22.9091 4.2894Z" fill="#FEFEFE"/>
</svg>
