<?xml version="1.0" encoding="UTF-8"?>
<svg id="Calque_2" data-name="Calque 2" xmlns="http://www.w3.org/2000/svg" viewBox="0 0 196.39 196.3">
  <defs>
    <style>
      .cls-1 {
        fill: #353535;
      }

      .cls-1, .cls-2, .cls-3, .cls-4, .cls-5 {
        stroke: #000;
        stroke-linecap: round;
        stroke-linejoin: round;
      }

      .cls-2 {
        fill: #fcea5c;
      }

      .cls-3 {
        fill: none;
      }

      .cls-4 {
        fill: #a8a8a8;
      }

      .cls-5 {
        fill: #f9ffc2;
      }
    </style>
  </defs>
  <g id="Snake">
    <g id="Tête_snake" data-name="Tête snake">
      <path class="cls-1" d="M.9,195.79h194.9s.09-102,.09-102c0,0-20.34-92.89-97.13-92.89S.9,93.79.9,93.79v102Z"/>
      <path class="cls-2" d="M37.96,167.48v-69.36c40.17-15.82,72.34-15.56,117.11,0v69.36s40.73,0,40.73,0l.09-73.92c-22.1-51.91-162.18-63.32-194.99,0l-.4,73.92h37.46Z"/>
      <path class="cls-4" d="M195.89,93.39c-25.35-55.43-165.64-60.44-194.99,0C.9,93.39,19.59.5,98.39.5c78.8,0,97.49,92.89,97.49,92.89Z"/>
      <rect class="cls-4" x=".5" y="167.48" width="195.3" height="28.32"/>
      <path class="cls-5" d="M155.07,52.09c-11.36-5.67-21.67-8.13-21.67-8.13l-1.96,9.74c11.34,1.79,23.64,6.74,23.64,6.74v-8.34Z"/>
      <path class="cls-5" d="M37.76,54.74s10.76-6.57,21.63-9.51l1.99,8.63c-11.28,2.1-23.44,7.39-23.44,7.39l-.18-6.51Z"/>
      <path class="cls-3" d="M.9,93.56c34.59-74.58,166.08-69.73,194.99,0"/>
      <path class="cls-3" d="M195.89,114.89c-10.95-6.73-34.39-14.17-40.82-16.78v-37.68"/>
      <path class="cls-3" d="M37.94,61.25l.02,36.86c-5.77,1.54-27.91,9.8-37.06,16.78"/>
    </g>
  </g>
</svg>