<?xml version="1.0" encoding="UTF-8"?>
<svg id="Calque_2" data-name="Calque 2" xmlns="http://www.w3.org/2000/svg" viewBox="0 0 196.3 196.39">
  <defs>
    <style>
      .cls-1 {
        fill: #353535;
      }

      .cls-1, .cls-2, .cls-3, .cls-4, .cls-5 {
        stroke: #000;
        stroke-linecap: round;
        stroke-linejoin: round;
      }

      .cls-2 {
        fill: #fcea5c;
      }

      .cls-3 {
        fill: none;
      }

      .cls-4 {
        fill: #a8a8a8;
      }

      .cls-5 {
        fill: #f9ffc2;
      }
    </style>
  </defs>
  <g id="Snake">
    <g id="Tête_snake" data-name="Tête snake">
      <path class="cls-1" d="M.51.9v194.9l102,.09s92.89-20.34,92.89-97.13S102.51.9,102.51.9H.51Z"/>
      <path class="cls-2" d="M28.82,37.96h69.36c15.82,40.17,15.56,72.34,0,117.11H28.82v40.73l73.92.09c51.91-22.1,63.32-162.18,0-194.99L28.82.5v37.46Z"/>
      <path class="cls-4" d="M102.9,195.89c55.43-25.35,60.44-165.64,0-194.99,0,0,92.89,18.69,92.89,97.49,0,78.8-92.89,97.49-92.89,97.49Z"/>
      <rect class="cls-4" x=".5" y=".5" width="28.32" height="195.3"/>
      <path class="cls-5" d="M144.2,155.07c5.67-11.36,8.13-21.67,8.13-21.67l-9.74-1.96c-1.79,11.34-6.74,23.64-6.74,23.64h8.34Z"/>
      <path class="cls-5" d="M141.55,37.76s6.57,10.76,9.51,21.63l-8.63,1.99c-2.1-11.28-7.39-23.44-7.39-23.44l6.51-.18Z"/>
      <path class="cls-3" d="M102.74.9c74.58,34.59,69.73,166.08,0,194.99"/>
      <path class="cls-3" d="M81.4,195.89c6.73-10.95,14.17-34.39,16.78-40.82h37.68"/>
      <path class="cls-3" d="M135.04,37.94l-36.86.02c-1.54-5.77-9.8-27.91-16.78-37.06"/>
    </g>
  </g>
</svg>