<?xml version="1.0" encoding="UTF-8"?>
<svg id="Calque_2" data-name="Calque 2" xmlns="http://www.w3.org/2000/svg" viewBox="0 0 196.3 196.39">
  <defs>
    <style>
      .cls-1 {
        fill: #353535;
      }

      .cls-1, .cls-2, .cls-3, .cls-4, .cls-5 {
        stroke: #000;
        stroke-linecap: round;
        stroke-linejoin: round;
      }

      .cls-2 {
        fill: #fcea5c;
      }

      .cls-3 {
        fill: none;
      }

      .cls-4 {
        fill: #a8a8a8;
      }

      .cls-5 {
        fill: #f9ffc2;
      }
    </style>
  </defs>
  <g id="Snake">
    <g id="Tête_snake" data-name="Tête snake">
      <path class="cls-1" d="M195.79,195.49V.59s-102-.09-102-.09C93.79.5.89,20.84.89,97.63s92.89,97.86,92.89,97.86h102Z"/>
      <path class="cls-2" d="M167.48,158.43h-69.36c-15.82-40.17-15.56-72.34,0-117.11h69.36s0-40.73,0-40.73l-73.92-.09c-51.91,22.1-63.32,162.18,0,194.99l73.92.4v-37.46Z"/>
      <path class="cls-4" d="M93.39.5c-55.43,25.35-60.44,165.64,0,194.99,0,0-92.89-18.69-92.89-97.49C.5,19.19,93.39.5,93.39.5Z"/>
      <rect class="cls-4" x="167.48" y=".59" width="28.32" height="195.3"/>
      <path class="cls-5" d="M52.09,41.32c-5.67,11.36-8.13,21.67-8.13,21.67l9.74,1.96c1.79-11.34,6.74-23.64,6.74-23.64h-8.34Z"/>
      <path class="cls-5" d="M54.74,158.63s-6.57-10.76-9.51-21.63l8.63-1.99c2.1,11.28,7.39,23.44,7.39,23.44l-6.51.18Z"/>
      <path class="cls-3" d="M93.56,195.49c-74.58-34.59-69.73-166.08,0-194.99"/>
      <path class="cls-3" d="M114.89.5c-6.73,10.95-14.17,34.39-16.78,40.82h-37.68"/>
      <path class="cls-3" d="M61.25,158.45l36.86-.02c1.54,5.77,9.8,27.91,16.78,37.06"/>
    </g>
  </g>
</svg>