<?xml version="1.0" encoding="UTF-8"?>
<svg id="Calque_2" data-name="Calque 2" xmlns="http://www.w3.org/2000/svg" viewBox="0 0 196.39 196.3">
  <defs>
    <style>
      .cls-1 {
        fill: #353535;
      }

      .cls-1, .cls-2, .cls-3, .cls-4, .cls-5 {
        stroke: #000;
        stroke-linecap: round;
        stroke-linejoin: round;
      }

      .cls-2 {
        fill: #fcea5c;
      }

      .cls-3 {
        fill: none;
      }

      .cls-4 {
        fill: #a8a8a8;
      }

      .cls-5 {
        fill: #f9ffc2;
      }
    </style>
  </defs>
  <g id="Snake">
    <g id="Tête_snake" data-name="Tête snake">
      <path class="cls-1" d="M195.49.51H.59s-.09,102-.09,102c0,0,20.34,92.89,97.13,92.89s97.86-92.89,97.86-92.89V.51Z"/>
      <path class="cls-2" d="M158.43,28.82v69.36c-40.17,15.82-72.34,15.56-117.11,0V28.82s-40.73,0-40.73,0l-.09,73.92c22.1,51.91,162.18,63.32,194.99,0l.4-73.92h-37.46Z"/>
      <path class="cls-4" d="M.5,102.9c25.35,55.43,165.64,60.44,194.99,0,0,0-18.69,92.89-97.49,92.89-78.8,0-97.49-92.89-97.49-92.89Z"/>
      <rect class="cls-4" x=".59" y=".5" width="195.3" height="28.32"/>
      <path class="cls-5" d="M41.32,144.2c11.36,5.67,21.67,8.13,21.67,8.13l1.96-9.74c-11.34-1.79-23.64-6.74-23.64-6.74v8.34Z"/>
      <path class="cls-5" d="M158.63,141.55s-10.76,6.57-21.63,9.51l-1.99-8.63c11.28-2.1,23.44-7.39,23.44-7.39l.18,6.51Z"/>
      <path class="cls-3" d="M195.49,102.74c-34.59,74.58-166.08,69.73-194.99,0"/>
      <path class="cls-3" d="M.5,81.4c10.95,6.73,34.39,14.17,40.82,16.78v37.68"/>
      <path class="cls-3" d="M158.45,135.04l-.02-36.86c5.77-1.54,27.91-9.8,37.06-16.78"/>
    </g>
  </g>
</svg>