<?xml version="1.0" encoding="utf-8"?>
<!-- Generator: Adobe Illustrator 28.3.0, SVG Export Plug-In . SVG Version: 6.00 Build 0)  -->
<svg version="1.1" id="Calque_1" xmlns="http://www.w3.org/2000/svg" xmlns:xlink="http://www.w3.org/1999/xlink" x="0px" y="0px"
	 viewBox="0 0 437.3 77.9" style="enable-background:new 0 0 437.3 77.9;" xml:space="preserve">
<style type="text/css">
	.st0{fill:#FFFFFF;stroke:#020203;stroke-width:0.5;stroke-linecap:round;stroke-linejoin:round;}
	.st1{fill:#20386C;stroke:#020203;stroke-width:0.5;stroke-linecap:round;stroke-linejoin:round;}
	.st2{fill:#D93120;stroke:#020203;stroke-width:0.5;stroke-linecap:round;stroke-linejoin:round;}
	.st3{fill:#B6B6B5;stroke:#020203;stroke-width:0.4996;stroke-linecap:round;stroke-linejoin:round;}
	.st4{fill:#B6B6B5;stroke:#020203;stroke-width:0.4963;stroke-linecap:round;stroke-linejoin:round;}
	.st5{fill:#B6B6B5;stroke:#020203;stroke-width:0.4984;stroke-linecap:round;stroke-linejoin:round;}
	.st6{fill:#B6B6B5;stroke:#020203;stroke-width:0.4982;stroke-linecap:round;stroke-linejoin:round;}
	.st7{fill:#819EA9;stroke:#020203;stroke-width:0.5;stroke-linecap:round;stroke-linejoin:round;}
	.st8{fill:#485D64;stroke:#020203;stroke-width:0.5;stroke-linecap:round;stroke-linejoin:round;}
	.st9{fill:none;stroke:#020203;stroke-width:0.5;stroke-linecap:round;stroke-linejoin:round;}
	.st10{fill:#888989;}
	.st11{font-family:'ArialMT';}
	.st12{font-size:7.66px;}
	.st13{fill:#777778;stroke:#020203;stroke-width:0.5;stroke-linecap:round;stroke-linejoin:round;}
	.st14{fill:#B3B2B2;stroke:#020203;stroke-width:0.5;stroke-linecap:round;stroke-linejoin:round;}
	.st15{fill:#161617;stroke:#020203;stroke-width:0.5;stroke-linecap:round;stroke-linejoin:round;}
	.st16{fill:#4A4A4A;stroke:#020203;stroke-width:0.5;stroke-linecap:round;stroke-linejoin:round;}
	.st17{fill:#A8A8A8;stroke:#020203;stroke-width:0.5;stroke-linecap:round;stroke-linejoin:round;}
	.st18{fill:#282929;stroke:#020203;stroke-width:0.5;stroke-linecap:round;stroke-linejoin:round;}
	.st19{fill:#888989;stroke:#020203;stroke-width:0.5;stroke-linecap:round;stroke-linejoin:round;}
	.st20{fill:#383938;stroke:#020203;stroke-width:0.5;stroke-linecap:round;stroke-linejoin:round;}
	.st21{fill:#353535;stroke:#020203;stroke-width:0.5;stroke-linecap:round;stroke-linejoin:round;}
</style>
<g id="Wagon_00000137823553417565689480000005978247091537761957_">
	<polygon class="st0" points="436.85,65.45 12.75,66.85 12.75,19.65 437.05,19.65 	"/>
	<polygon class="st1" points="436.85,60.75 12.75,60.75 12.75,66.85 436.85,66.85 	"/>
	<polygon class="st2" points="328.85,64.35 328.75,26.95 316.15,26.95 316.25,64.35 	"/>
	<polygon class="st2" points="316.25,64.35 316.15,26.95 303.55,26.95 303.55,64.35 	"/>
	<polygon class="st3" points="326.45,31.35 326.45,48.85 318.75,48.85 318.75,31.35 	"/>
	<polygon class="st4" points="313.55,31.35 313.55,48.85 305.95,48.85 305.95,31.35 	"/>
	<polygon class="st2" points="138.95,64.35 138.85,26.95 126.35,26.95 126.35,64.35 	"/>
	<polygon class="st2" points="126.35,64.35 126.25,26.95 113.75,26.95 113.75,64.35 	"/>
	<polygon class="st5" points="136.55,31.35 136.55,48.85 128.95,48.85 128.95,31.35 	"/>
	<polygon class="st6" points="123.75,31.35 123.75,48.85 116.05,48.85 116.05,31.35 	"/>
	<polygon class="st7" points="290.25,36.05 290.25,51.85 152.35,51.85 152.35,36.05 	"/>
	<rect x="217.55" y="36.05" class="st8" width="7.5" height="15.8"/>
	<rect x="183.25" y="36.05" class="st8" width="7.5" height="15.8"/>
	<rect x="58.35" y="31.95" class="st9" width="7.5" height="15.8"/>
	<rect x="251.85" y="36.05" class="st8" width="7.5" height="15.8"/>
	<polygon class="st7" points="97.85,31.35 26.35,31.35 26.35,47.75 97.85,47.75 	"/>
	<text transform="matrix(1 0 0 1 296.3677 39.2272)" class="st10 st11 st12">2</text>
	<text transform="matrix(1 0 0 1 331.3446 39.2354)" class="st10 st11 st12">2</text>
	<text transform="matrix(1 0 0 1 141.4765 39.2361)" class="st10 st11 st12">2</text>
	<text transform="matrix(1 0 0 1 106.5037 39.2305)" class="st10 st11 st12">2</text>
	<rect x="299.55" y="9.75" class="st13" width="8.1" height="9.9"/>
	<g>
		<rect x="281.95" y="11.25" class="st14" width="9.5" height="8.4"/>
	</g>
	<circle class="st15" cx="54.05" cy="72.85" r="4.8"/>
	<circle class="st15" cx="83.75" cy="72.85" r="4.8"/>
	<circle class="st15" cx="363.85" cy="72.85" r="4.8"/>
	<circle class="st15" cx="393.65" cy="72.85" r="4.8"/>
	<polygon class="st16" points="208.95,19.65 208.95,12.25 279.75,12.35 279.75,19.65 	"/>
	<polygon class="st17" points="124.15,19.65 124.15,11.25 172.05,11.25 172.05,19.65 	"/>
	<polygon class="st17" points="345.05,19.65 345.05,11.25 392.95,11.25 392.95,19.65 	"/>
	<polygon class="st13" points="177.45,19.65 177.45,7.65 197.85,7.65 197.85,19.65 	"/>
	<polygon class="st17" points="83.65,19.65 83.65,11.25 101.35,11.25 101.35,19.65 	"/>
	<rect x="58.25" y="31.35" class="st8" width="7.5" height="16.5"/>
	<polygon class="st7" points="414.05,31.35 342.55,31.35 342.55,47.15 414.05,47.15 	"/>
	<rect x="374.65" y="31.35" class="st8" width="7.5" height="15.8"/>
	<polygon class="st13" points="109.05,19.65 109.05,14.65 116.75,14.65 116.75,19.65 	"/>
	<rect x="272.55" y="66.85" class="st18" width="31.8" height="5.1"/>
	<rect x="140.35" y="66.85" class="st18" width="31.8" height="3.8"/>
	<polygon class="st18" points="213.75,66.85 213.75,69.85 249.15,69.85 249.15,66.85 	"/>
	<polygon class="st18" points="184.45,66.85 184.45,71.95 206.75,71.95 206.75,66.85 	"/>
	<path class="st19" d="M31.95,66.85c0,0-0.5,3.8-5.2,3.8s-14,0-14,0v-3.8h19.1H31.95z"/>
	<path class="st19" d="M418.15,66.85c0,0,0.4,3.8,5,3.8c4.7,0,13.7,0,13.7,0v-3.8H418.15L418.15,66.85z"/>
	<path class="st16" d="M414.45,66.85c0,0-0.1,5.6-12.1,5.8c-12,0.2-60.5,0.4-60.5,0.4l4.7-6.2L414.45,66.85L414.45,66.85z"/>
	<path class="st16" d="M102.35,66.85c0,0-0.1,5.6-12.1,5.8c-12,0.2-45.6,1.4-48.6,0s-7.2-5.8-7.2-5.8H102.35L102.35,66.85z"/>
	<rect x="0.25" y="25.25" class="st20" width="12.4" height="41.7"/>
	<polygon class="st21" points="376.65,11.25 376.65,7.65 360.65,7.75 360.65,11.25 	"/>
	<polygon class="st21" points="157.45,11.25 157.45,7.55 141.45,7.55 141.45,11.25 	"/>
	<polyline class="st9" points="368.45,7.65 384.55,5.35 365.95,0.85 365.85,1.25 366.05,0.35 	"/>
	<polyline class="st9" points="149.15,7.55 165.35,5.25 146.65,0.65 146.65,1.05 146.75,0.25 	"/>
	<g>
		<rect x="0.25" y="25.25" class="st9" width="12.4" height="41.7"/>
		<line class="st9" x1="10.65" y1="25.25" x2="10.65" y2="66.85"/>
		<line class="st9" x1="8.55" y1="25.25" x2="8.55" y2="66.85"/>
		<line class="st9" x1="6.55" y1="25.25" x2="6.55" y2="66.85"/>
		<line class="st9" x1="4.45" y1="25.25" x2="4.45" y2="66.85"/>
		<line class="st9" x1="2.35" y1="25.25" x2="2.35" y2="66.85"/>
	</g>
</g>
</svg>
