<?xml version="1.0" encoding="utf-8"?>
<!-- Generator: Adobe Illustrator 24.0.0, SVG Export Plug-In . SVG Version: 6.00 Build 0)  -->
<svg version="1.1" xmlns="http://www.w3.org/2000/svg" xmlns:xlink="http://www.w3.org/1999/xlink" x="0px" y="0px"
	 viewBox="0 0 256 256" enable-background="new 0 0 256 256" xml:space="preserve">
<g id="Layer_2">
</g>
<g id="Layer_1">
	<g>
	</g>
	<g>
		<path fill="#FFB69F" d="M205.31,197.1c-2.83,5.81-8.6,9.13-14.57,9.13c-12.03,0-19.91-12.8-14.44-23.54
			c2.11-4.12,5.92-7.22,10.51-8.35C200.27,170.92,211.25,185,205.31,197.1z"/>
		<path fill="#FFB69F" d="M65.26,206.23c-6.04,0-11.79-3.39-14.57-9.13c-5.94-12.1,5.04-26.18,18.5-22.76
			c4.59,1.13,8.4,4.23,10.51,8.35C85.16,193.47,77.34,206.23,65.26,206.23z"/>
		<path fill="#72C2E9" d="M229.75,168.43c-4.24,0-7.65,3.43-7.65,7.65v21.02h-16.79c-2.83,5.81-8.6,9.13-14.57,9.13
			c-12.03,0-19.91-12.8-14.44-23.54v-23.63c0-4.67-3.79-8.47-8.47-8.47c-4.663,0-8.46,3.793-8.46,8.47c0-4.67-3.79-8.47-8.47-8.47
			c-4.696,0-8.46,3.832-8.46,8.47v23.63c5.47,10.94-2.44,23.54-14.44,23.54c-11.89,0-19.95-12.52-14.44-23.54v-23.63
			c0-4.67-3.79-8.47-8.46-8.47c-4.695,0-8.47,3.828-8.47,8.47c0-4.68-3.8-8.47-8.46-8.47c-4.68,0-8.47,3.8-8.47,8.47v23.63
			c5.46,10.78-2.36,23.54-14.44,23.54c-6.04,0-11.79-3.39-14.57-9.13H33.9v-21.02c0-2.12-0.86-4.03-2.24-5.41
			c-1.39-1.39-3.3-2.24-5.41-2.24c-4.22,0-7.64,3.42-7.64,7.65v28.66c0,4.22,3.42,7.65,7.64,7.65h10.19v39.28h183.12v-39.28h10.19
			c4.22,0,7.64-3.43,7.64-7.65v-28.66C237.39,171.85,233.97,168.43,229.75,168.43z"/>
		<path fill="#FFB69F" d="M128,206.23c-11.89,0-19.95-12.52-14.44-23.54c2.69-5.25,8.15-8.84,14.44-8.84s11.75,3.59,14.44,8.84
			C147.91,193.63,140,206.23,128,206.23z"/>
		<rect x="18.61" y="22.333" fill="#FC5D3D" width="218.78" height="91.333"/>
		<polygon fill="#EFEFEF" points="128,31.458 138.07,43.269 153.842,43.903 150.628,59.016 160.225,71.867 146.146,78.652 
			142.341,94.292 128,87.39 113.659,94.292 109.854,78.652 95.775,71.867 105.372,59.016 102.158,43.903 117.93,43.269 		"/>
		<g>
			<g>
				<path fill="#C5E5FE" d="M211.214,247.167H60.548c-1.381,0-2.5-1.119-2.5-2.5s1.119-2.5,2.5-2.5h148.166v-29.834
					c0-1.381,1.119-2.5,2.5-2.5s2.5,1.119,2.5,2.5v32.334C213.714,246.048,212.595,247.167,211.214,247.167z M50.548,247.167h-5.682
					c-1.381,0-2.5-1.119-2.5-2.5s1.119-2.5,2.5-2.5h5.682c1.381,0,2.5,1.119,2.5,2.5S51.929,247.167,50.548,247.167z"/>
			</g>
			<g>
				<path fill="#FFCBC2" d="M226.39,105.167H44.724c-1.381,0-2.5-1.119-2.5-2.5s1.119-2.5,2.5-2.5H223.89V33.333
					c0-1.381,1.119-2.5,2.5-2.5s2.5,1.119,2.5,2.5v69.334C228.89,104.048,227.771,105.167,226.39,105.167z M34.724,105.167H29.61
					c-1.381,0-2.5-1.119-2.5-2.5s1.119-2.5,2.5-2.5h5.114c1.381,0,2.5,1.119,2.5,2.5S36.105,105.167,34.724,105.167z"/>
			</g>
			<path d="M16.11,176.08v28.66c0,5.597,4.549,10.15,10.14,10.15h7.69v36.779c0,1.381,1.119,2.5,2.5,2.5s2.5-1.119,2.5-2.5v-39.279
				c0-1.381-1.119-2.5-2.5-2.5H26.25c-2.834,0-5.14-2.311-5.14-5.15v-28.66c0-2.84,2.306-5.15,5.14-5.15
				c2.842,0,5.15,2.295,5.15,5.15v21.02c0,1.381,1.119,2.5,2.5,2.5h15.301c3.788,6.341,9.286,9.116,14.803,9.308
				c12.438,0.434,24.969-12.259,18.197-26.793v-23.054c0-3.292,2.678-5.971,5.97-5.971c3.286,0,5.96,2.679,5.96,5.971v92.609
				c0,1.38,1.12,2.5,2.5,2.5s2.5-1.12,2.5-2.5v-92.61c0.01-3.29,2.68-5.96,5.97-5.97c3.28,0.01,5.95,2.68,5.96,5.97v23.061
				c-5.804,12.517,3.394,26.61,16.94,26.61c13.662,0,22.704-14.165,16.94-26.61V159.06c0.01-3.29,2.68-5.96,5.96-5.97
				c3.29,0.01,5.96,2.68,5.97,5.97v50.75c0,1.38,1.12,2.5,2.5,2.5c1.38,0,2.5-1.12,2.5-2.5v-50.744c0-0.002,0-0.003,0-0.005
				c0-3.292,2.674-5.971,5.96-5.971c3.292,0,5.97,2.679,5.97,5.971v23.051c-5.745,12.273,3.222,26.619,16.94,26.619
				c6.415,0,12.582-3.282,16.06-9.131h15.3c1.381,0,2.5-1.119,2.5-2.5v-21.02c0-2.84,2.31-5.15,5.15-5.15
				c2.834,0,5.14,2.311,5.14,5.15v28.66c0,2.84-2.306,5.15-5.14,5.15h-10.19c-1.381,0-2.5,1.119-2.5,2.5v39.279
				c0,1.381,1.119,2.5,2.5,2.5s2.5-1.119,2.5-2.5v-36.779h7.69c5.591,0,10.14-4.554,10.14-10.15v-28.66
				c0-4.951-3.562-9.08-8.254-9.968v-49.945h5.754c1.381,0,2.5-1.119,2.5-2.5V22.333c0-1.381-1.119-2.5-2.5-2.5H18.61
				c-1.381,0-2.5,1.119-2.5,2.5v91.334c0,1.381,1.119,2.5,2.5,2.5h5.14v50.088C19.366,167.374,16.11,171.348,16.11,176.08z
				 M52.934,195.998c-2.351-4.789-1.683-10.388,1.744-14.611c6.526-8.045,18.488-5.968,22.792,2.433
				c4.697,9.271-2.242,20.358-12.79,19.887C59.931,203.494,55.292,200.867,52.934,195.998z M141.511,192.261
				c-1.105,6.684-6.897,11.461-13.511,11.468c-6.943-0.008-12.729-5.21-13.588-11.951c-1.049-8.025,5.197-15.429,13.588-15.429
				C136.523,176.35,142.87,183.967,141.511,192.261z M178.526,183.827c4.316-8.418,16.259-10.496,22.796-2.44
				c7.423,9.149,0.766,22.344-10.582,22.344C180.583,203.73,173.904,192.91,178.526,183.827z M21.11,24.833h213.78v86.334H21.11
				V24.833z M226.636,116.167v50.256c-4.077,1.318-7.036,5.147-7.036,9.657v18.52h-10.719c1.446-5.63,0.16-11.636-3.676-16.363
				c-6.753-8.321-18.576-9.066-26.405-2.562v-16.614c0-6.049-4.921-10.971-10.97-10.971c-3.403,0-6.449,1.562-8.461,4.005
				c-2.013-2.444-5.062-4.005-8.469-4.005c-6.04,0.01-10.96,4.93-10.96,10.97v16.589c-3.294-2.735-7.482-4.299-11.94-4.299
				c-4.456,0-8.643,1.563-11.94,4.302V159.06c0-6.05-4.92-10.97-10.96-10.97c-3.406,0.005-6.453,1.567-8.466,4.009
				c-2.012-2.446-5.058-4.009-8.463-4.009c-6.049,0-10.97,4.922-10.97,10.971v16.613c-7.754-6.445-19.603-5.821-26.405,2.563
				c-3.837,4.729-5.123,10.738-3.677,16.363H36.4v-18.52c0-4.749-3.234-8.714-7.65-9.83v-50.083H226.636z"/>
			<circle cx="159.37" cy="219.81" r="2.5"/>
			<path d="M159.37,227.31c-1.38,0-2.5,1.12-2.5,2.5v21.86c0,1.38,1.12,2.5,2.5,2.5c1.38,0,2.5-1.12,2.5-2.5v-21.86
				C161.87,228.43,160.75,227.31,159.37,227.31z"/>
			<path d="M118.956,77.83c1.381,0,2.5-1.119,2.5-2.5v-1.507c0-1.381-1.119-2.5-2.5-2.5s-2.5,1.119-2.5,2.5v1.507
				C116.456,76.711,117.575,77.83,118.956,77.83z"/>
			<path d="M118.956,67.536c1.381,0,2.5-1.119,2.5-2.5V53.275c0-1.381-1.119-2.5-2.5-2.5s-2.5,1.119-2.5,2.5v11.761
				C116.456,66.417,117.575,67.536,118.956,67.536z"/>
			<path d="M128,77.83c1.381,0,2.5-1.119,2.5-2.5v-1.507c0-1.381-1.119-2.5-2.5-2.5s-2.5,1.119-2.5,2.5v1.507
				C125.5,76.711,126.619,77.83,128,77.83z"/>
			<path d="M128,67.536c1.381,0,2.5-1.119,2.5-2.5V53.275c0-1.381-1.119-2.5-2.5-2.5s-2.5,1.119-2.5,2.5v11.761
				C125.5,66.417,126.619,67.536,128,67.536z"/>
			<path d="M137.044,77.83c1.381,0,2.5-1.119,2.5-2.5v-1.507c0-1.381-1.119-2.5-2.5-2.5s-2.5,1.119-2.5,2.5v1.507
				C134.544,76.711,135.664,77.83,137.044,77.83z"/>
			<path d="M137.044,67.536c1.381,0,2.5-1.119,2.5-2.5V53.275c0-1.381-1.119-2.5-2.5-2.5s-2.5,1.119-2.5,2.5v11.761
				C134.544,66.417,135.664,67.536,137.044,67.536z"/>
			<path d="M40.996,49.25h35.285c1.381,0,2.5-1.119,2.5-2.5s-1.119-2.5-2.5-2.5H40.996c-1.381,0-2.5,1.119-2.5,2.5
				S39.615,49.25,40.996,49.25z"/>
			<path d="M40.996,63.417h35.285c1.381,0,2.5-1.119,2.5-2.5s-1.119-2.5-2.5-2.5H40.996c-1.381,0-2.5,1.119-2.5,2.5
				S39.615,63.417,40.996,63.417z"/>
			<path d="M40.996,77.583h35.285c1.381,0,2.5-1.119,2.5-2.5s-1.119-2.5-2.5-2.5H40.996c-1.381,0-2.5,1.119-2.5,2.5
				S39.615,77.583,40.996,77.583z"/>
			<path d="M40.996,91.75h35.285c1.381,0,2.5-1.119,2.5-2.5s-1.119-2.5-2.5-2.5H40.996c-1.381,0-2.5,1.119-2.5,2.5
				S39.615,91.75,40.996,91.75z"/>
			<path d="M179.719,49.25h35.285c1.381,0,2.5-1.119,2.5-2.5s-1.119-2.5-2.5-2.5h-35.285c-1.381,0-2.5,1.119-2.5,2.5
				S178.338,49.25,179.719,49.25z"/>
			<path d="M179.719,63.417h35.285c1.381,0,2.5-1.119,2.5-2.5s-1.119-2.5-2.5-2.5h-35.285c-1.381,0-2.5,1.119-2.5,2.5
				S178.338,63.417,179.719,63.417z"/>
			<path d="M179.719,77.583h35.285c1.381,0,2.5-1.119,2.5-2.5s-1.119-2.5-2.5-2.5h-35.285c-1.381,0-2.5,1.119-2.5,2.5
				S178.338,77.583,179.719,77.583z"/>
			<path d="M179.719,91.75h35.285c1.381,0,2.5-1.119,2.5-2.5s-1.119-2.5-2.5-2.5h-35.285c-1.381,0-2.5,1.119-2.5,2.5
				S178.338,91.75,179.719,91.75z"/>
			<path d="M94.69,74.118l13.014,6.272l3.526,14.492c0.375,1.545,2.082,2.351,3.513,1.662L128,90.165l13.257,6.38
				c1.422,0.686,3.136-0.109,3.513-1.662l3.526-14.492l13.014-6.272c1.416-0.682,1.858-2.488,0.917-3.748l-8.918-11.942
				l2.979-14.004c0.323-1.518-0.802-2.957-2.345-3.019l-14.68-0.59l-9.361-10.979c-0.95-1.113-2.854-1.113-3.805,0l-9.361,10.979
				l-14.68,0.59c-1.544,0.061-2.667,1.502-2.345,3.019l2.979,14.004L93.772,70.37C92.833,71.63,93.274,73.436,94.69,74.118z
				 M107.375,60.512c0.431-0.577,0.592-1.312,0.442-2.017l-2.598-12.213l12.811-0.515c0.696-0.028,1.35-0.346,1.802-0.876
				l8.168-9.58l8.168,9.58c0.452,0.53,1.105,0.848,1.802,0.876l12.811,0.515l-2.598,12.213c-0.15,0.705,0.011,1.439,0.442,2.017
				l7.781,10.42l-11.345,5.468c-0.674,0.324-1.167,0.935-1.344,1.661l-3.075,12.64l-11.558-5.563c-0.67-0.323-1.472-0.336-2.168,0
				L115.358,90.7l-3.075-12.64c-0.177-0.727-0.67-1.337-1.344-1.661l-11.345-5.468L107.375,60.512z"/>
		</g>
	</g>
</g>
</svg>
