<?xml version="1.0" encoding="iso-8859-1"?>
<!-- Generator: Adobe Illustrator 19.0.0, SVG Export Plug-In . SVG Version: 6.00 Build 0)  -->
<svg xmlns="http://www.w3.org/2000/svg" xmlns:xlink="http://www.w3.org/1999/xlink" version="1.1" id="Layer_1" x="0px" y="0px" viewBox="0 0 511.999 511.999" style="enable-background:new 0 0 511.999 511.999;" xml:space="preserve">
<path style="fill:#8C614B;" d="M299.781,245.375c-3.083-6.997-10.519-10.272-17.6-10.272c-34.641,0-18.905,0-52.003,0  c-9.897,0-16.705,5.527-18.994,12.672l-0.001-0.001c-15.82,36.44-67.354,144.269-155.216,226.807c9.981,0,390.084,0,400.067,0  C348.483,373.55,293.5,231.123,299.781,245.375z"/>
<path style="fill:#725346;" d="M246.809,246.42L246.809,246.42c0.651-3.382,3.304-8.513,7.756-11.317c-8.145,0-14.866,0-24.388,0  c-9.897,0-16.705,5.527-18.994,12.672l-0.001-0.001c-15.82,36.44-67.354,144.269-155.216,226.807h73.505  C197.185,387.947,234.957,282.979,246.809,246.42z"/>
<path style="fill:#FF5E48;" d="M211.183,247.776L211.183,247.776c-4.873,11.222-13.138,29.221-24.802,51.161  c-0.411,3.884,3.54,6.67,7.035,5.074l39.548-18.069c21.913,22.437,20.952,22.172,23.76,22.172c2.807,0,1.84,0.272,23.759-22.172  l36.702,15.222c3.487,1.451,7.298-1.358,6.871-5.174c-11.686-22.202-19.771-40.095-24.267-50.594  c-3.608-7.215-10.372-10.292-17.609-10.292c-34.641,0-18.905,0-52.003,0C220.281,235.104,213.473,240.632,211.183,247.776z"/>
<path style="fill:#CE4542;" d="M186.381,298.937c-0.411,3.884,3.54,6.67,7.035,5.074l39.292-17.952  c6.412-16.672,11.093-30.361,14.101-39.639h0.001c0.65-3.382,3.303-8.513,7.755-11.317c-8.145,0-14.866,0-24.388,0  c-9.897,0-16.705,5.527-18.994,12.672l-0.001-0.001C203.586,265.272,193.677,285.386,186.381,298.937z"/>
<path style="fill:#95B737;" d="M504.498,492.499c0,6.627-5.372,12.001-12.001,12.001H19.502c-6.628,0-12.001-5.373-12.001-12.001  v-7.916c0-6.627,5.372-12.001,12.001-12.001h472.996c6.628,0,12.001,5.373,12.001,12.001L504.498,492.499L504.498,492.499z"/>
<path style="fill:#1C9B4F;" d="M492.497,488.541H19.502c-5.215,0-9.641-3.332-11.296-7.979c-0.888,2.491-0.705,3.436-0.705,11.937  c0,6.627,5.372,12.001,12.001,12.001h472.996c6.628,0,12.001-5.373,12.001-12.001c0-8.498,0.183-9.446-0.705-11.937  C502.138,485.208,497.713,488.541,492.497,488.541z"/>
<path d="M492.497,465.081h-33.458c-32.259-30.655-62.763-67.619-90.691-109.946c-2.28-3.458-6.933-4.413-10.392-2.129  c-3.457,2.281-4.41,6.933-2.129,10.392c25.331,38.389,52.772,72.518,81.741,101.683H379.1  c-37.742-31.791-63.965-84.344-64.291-85.003c-1.831-3.717-6.327-5.248-10.043-3.413c-3.716,1.831-5.244,6.327-3.413,10.044  c1.016,2.061,22.432,45.076,55.64,78.373H206.483c22.817-39.346,35.047-75.057,35.584-76.644c1.33-3.923-0.771-8.181-4.694-9.512  c-3.916-1.327-8.181,0.772-9.512,4.694c-14.049,41.23-38.301,80.46-38.757,81.46h-42.213c16.929-23.512,26.987-43.776,27.46-44.737  c1.83-3.714,0.303-8.209-3.411-10.041c-3.716-1.831-8.212-0.306-10.044,3.408c-0.124,0.253-12.642,25.441-32.721,51.369H74.423  c42.575-42.907,80.312-95.258,110.639-149.006l46.223-21.119l20.075,20.555c2.943,3.014,7.792,3.009,10.731,0l20.211-20.695  l42.618,17.675c5.081,9.107,10.699,18.767,16.868,28.831c2.165,3.532,6.783,4.637,10.316,2.475  c3.531-2.165,4.639-6.782,2.475-10.315c-19.668-32.085-39.324-69.981-51.137-98.861c-0.805-1.926-2.199-7.017-7.892-7.017h-79.095  c-3.093,0-5.869,1.898-6.99,4.781c-0.522,1.341-53.014,134.341-156.494,232.696H19.502C8.749,465.08,0,473.829,0,484.581v7.916  c0,10.753,8.749,19.501,19.501,19.501h107.913c4.142,0,7.5-3.357,7.5-7.5c0-4.142-3.358-7.5-7.5-7.5H19.502  c-2.481,0-4.5-2.018-4.5-4.5v-7.916c0-2.481,2.019-4.5,4.5-4.5c17.84,0,434.27,0,472.996,0c2.481,0,4.5,2.019,4.5,4.5v7.916  c0,2.482-2.019,4.5-4.5,4.5H155.418c-4.143,0-7.5,3.358-7.5,7.5c0,4.143,3.357,7.5,7.5,7.5h337.079  c10.753,0,19.501-8.749,19.501-19.501v-7.916C511.999,473.83,503.25,465.081,492.497,465.081z M290.498,242.605  c3.355,8.054,11.033,25.663,23.15,48.972l-30.292-12.563c-2.831-1.175-6.096-0.506-8.24,1.688l-18.393,18.834  c-19.952-20.429-19.663-21.094-23.762-21.094c-2.245,0-0.336-0.591-35.955,15.683c12.905-24.605,21.017-43.189,24.491-51.52H290.498  z"/>
<path d="M167.31,130.082c4.143,0,7.5-3.357,7.5-7.5c0-11.672,9.496-21.166,21.167-21.166s21.167,9.495,21.167,21.166v83.04  c0,4.143,3.357,7.5,7.5,7.5c4.143,0,7.5-3.357,7.5-7.5v-83.04c0-19.942-16.225-36.167-36.168-36.167s-36.168,16.225-36.168,36.167  C159.809,126.725,163.166,130.082,167.31,130.082z"/>
<path d="M279.853,134.528v71.094c0,4.143,3.357,7.5,7.5,7.5s7.5-3.357,7.5-7.5v-71.094c0-11.673,9.496-21.168,21.167-21.168  s21.167,9.496,21.167,21.168c0,4.143,3.357,7.5,7.5,7.5c4.143,0,7.5-3.357,7.5-7.5c0-19.943-16.225-36.169-36.168-36.169  C296.078,98.359,279.853,114.584,279.853,134.528z"/>
<path d="M255.93,213.122c4.143,0,7.5-3.357,7.5-7.5V36.169c0-11.673,9.496-21.168,21.167-21.168s21.167,9.496,21.167,21.168  c0,4.143,3.357,7.5,7.5,7.5s7.5-3.357,7.5-7.5C320.766,16.226,304.541,0,284.598,0c-19.943,0-36.168,16.226-36.168,36.169v169.452  C248.43,209.765,251.787,213.122,255.93,213.122z"/>
<path d="M167.31,161.801c4.143,0,7.5-3.357,7.5-7.5v-2.757c0-4.143-3.357-7.5-7.5-7.5c-4.142,0-7.5,3.357-7.5,7.5v2.757  C159.809,158.444,163.166,161.801,167.31,161.801z"/>
<path d="M344.689,155.527c-4.143,0-7.5,3.357-7.5,7.5v2.757c0,4.143,3.357,7.5,7.5,7.5c4.143,0,7.5-3.357,7.5-7.5v-2.757  C352.19,158.885,348.832,155.527,344.689,155.527z"/>
<g>
</g>
<g>
</g>
<g>
</g>
<g>
</g>
<g>
</g>
<g>
</g>
<g>
</g>
<g>
</g>
<g>
</g>
<g>
</g>
<g>
</g>
<g>
</g>
<g>
</g>
<g>
</g>
<g>
</g>
</svg>
