<?xml version="1.0" encoding="iso-8859-1"?>
<!-- Generator: Adobe Illustrator 19.0.0, SVG Export Plug-In . SVG Version: 6.00 Build 0)  -->
<svg xmlns="http://www.w3.org/2000/svg" xmlns:xlink="http://www.w3.org/1999/xlink" version="1.1" id="Layer_1" x="0px" y="0px" viewBox="0 0 512.001 512.001" style="enable-background:new 0 0 512.001 512.001;" xml:space="preserve">
<path style="fill:#48449E;" d="M79.568,386.332c-1.515,29.919,21.757,54.398,51.714,54.398h249.437  c29.957,0,53.228-24.479,51.714-54.398l-176.432-10.894L79.568,386.332z"/>
<path style="fill:#5D8AE1;" d="M416.154,64.83c-1.515-29.919-27.266-54.398-57.223-54.398H153.07  c-29.957,0-55.708,24.479-57.222,54.398L79.568,386.332h352.864L416.154,64.83z"/>
<polygon style="fill:#495DD9;" points="126.007,223.015 121.352,314.968 390.65,314.968 385.994,223.015 256,201.228 "/>
<polygon style="fill:#1F1A78;" points="379.093,86.732 132.908,86.733 126.007,223.015 385.994,223.015 "/>
<g>
	<path style="fill:#FFD83D;" d="M148.978,266.59h-25.176l-2.449,48.379h76.005C197.357,288.249,175.697,266.59,148.978,266.59z"/>
	<path style="fill:#FFD83D;" d="M388.2,266.59h-25.176c-26.719,0-48.379,21.66-48.379,48.379h76.005L388.2,266.59z"/>
</g>
<path d="M440.964,498.053l-32.681-32.68l-0.001-0.001l-19.294-19.294c13.531-1.802,25.854-8.011,35.311-17.959  c11.353-11.943,17.139-27.733,16.292-44.461L424.313,62.156C422.578,27.883,393.249,0,358.932,0H153.07  c-34.317,0-63.647,27.883-65.382,62.156L71.409,383.658c-0.846,16.728,4.939,32.519,16.292,44.461  c9.458,9.948,21.78,16.157,35.311,17.959l-19.294,19.294l-0.001,0.001l-32.681,32.681c-2.337,2.337-3.035,5.851-1.77,8.903  c1.264,3.053,4.244,5.044,7.548,5.044h358.373c3.304,0,6.285-1.99,7.548-5.044C443.999,503.904,443.301,500.39,440.964,498.053z   M366.441,446.639l16.34,16.339H129.22l16.34-16.339H366.441z M87.729,384.484l16.278-321.502  c1.302-25.718,23.311-46.641,49.063-46.641h205.862c25.751,0,47.761,20.923,49.063,46.641l16.278,321.502  c0.618,12.212-3.579,23.71-11.817,32.376c-8.239,8.667-19.509,13.438-31.737,13.438H142.18c-0.002,0-0.003,0-0.005,0h-10.89  c-12.228,0-23.499-4.772-31.737-13.438C91.307,408.195,87.11,396.697,87.729,384.484z M96.539,495.66l16.34-16.34h286.242  l16.34,16.34H96.539z"/>
<path d="M190.639,54.491h130.723c4.513,0,8.17-3.658,8.17-8.17s-3.657-8.17-8.17-8.17H190.639c-4.513,0-8.17,3.658-8.17,8.17  S186.127,54.491,190.639,54.491z"/>
<path d="M361.483,220.755c0-4.512-3.657-8.17-8.17-8.17H158.688c-4.513,0-8.17,3.658-8.17,8.17c0,4.512,3.657,8.17,8.17,8.17  h194.625C357.826,228.925,361.483,225.267,361.483,220.755z"/>
<path d="M121.352,320.877h76.006c2.167,0,4.244-0.861,5.778-2.393c1.532-1.532,2.392-3.61,2.392-5.777  c0-31.182-25.368-56.549-56.549-56.549h-16.583l8.28-163.518h230.651l8.28,163.518h-16.583c-31.181,0-56.549,25.368-56.549,56.549  c0,2.167,0.861,4.245,2.392,5.777c1.533,1.533,3.611,2.393,5.778,2.393h76.006c2.239,0,4.379-0.918,5.922-2.542  c1.543-1.622,2.352-3.807,2.239-6.043l-2.443-48.27c-0.003-0.077-0.008-0.155-0.012-0.231l-9.101-179.736  c-0.22-4.345-3.807-7.757-8.159-7.757H132.911c-4.352,0-7.939,3.411-8.159,7.757l-9.101,179.736  c-0.004,0.076-0.009,0.154-0.012,0.231l-2.443,48.27c-0.113,2.235,0.696,4.421,2.239,6.043  C116.973,319.959,119.113,320.877,121.352,320.877z M382.055,304.536h-58.406c3.786-18.268,20.002-32.038,39.375-32.038h17.409  L382.055,304.536z M131.569,272.499h17.409c19.372,0,35.589,13.771,39.375,32.038h-58.406L131.569,272.499z"/>
<path d="M230.038,304.538c-4.513,0-8.17,3.658-8.17,8.17c0,4.512,3.657,8.17,8.17,8.17h51.926c4.513,0,8.17-3.658,8.17-8.17  c0-4.512-3.657-8.17-8.17-8.17H230.038z"/>
<path d="M407.806,384.071c0-4.512-3.657-8.17-8.17-8.17h-287.27c-4.513,0-8.17,3.658-8.17,8.17s3.657,8.17,8.17,8.17h287.27  C404.148,392.241,407.806,388.583,407.806,384.071z"/>
<g>
</g>
<g>
</g>
<g>
</g>
<g>
</g>
<g>
</g>
<g>
</g>
<g>
</g>
<g>
</g>
<g>
</g>
<g>
</g>
<g>
</g>
<g>
</g>
<g>
</g>
<g>
</g>
<g>
</g>
</svg>
