<?xml version="1.0" encoding="iso-8859-1"?>
<!-- Generator: Adobe Illustrator 19.0.0, SVG Export Plug-In . SVG Version: 6.00 Build 0)  -->
<svg version="1.1" id="Layer_1" xmlns="http://www.w3.org/2000/svg" xmlns:xlink="http://www.w3.org/1999/xlink" x="0px" y="0px"
	 viewBox="0 0 511.998 511.998" style="enable-background:new 0 0 511.998 511.998;" xml:space="preserve">
<path style="fill:#333E48;" d="M476.515,266.518c-1.635-14.913-12.018-26.71-26.708-26.71H55.783c-14.69,0-26.71,12.019-26.71,26.71
	v54.045h133.979l10.807-13.803h150.871l34.898,13.803h123.296L476.515,266.518z"/>
<path style="fill:#D1D3D3;" d="M363.918,188.676c-7.842-12.421-26.278-22.584-40.967-22.584H134.226
	c-14.691,0-30.021,11.554-34.069,25.675l-13.708,47.829c-0.021,0.072-0.035,0.143-0.056,0.214h25.379
	c0,11.396-3.205,61.438,29.379,80.753H396.2V239.81L363.918,188.676z"/>
<polygon style="fill:#FFB819;" points="477.075,271.243 445.111,271.243 445.111,297.208 480.154,297.208 "/>
<path style="fill:#FFFFFF;" d="M451.167,297.208h-8.8c-2.049,0-3.727-1.677-3.727-3.726v-18.512c0-2.05,1.678-3.726,3.727-3.726h8.8
	V297.208z"/>
<path style="opacity:0.1;enable-background:new    ;" d="M130.529,262.1c-33.813,0-61.642,25.593-65.192,58.463h130.385
	C192.171,287.693,164.342,262.1,130.529,262.1z"/>
<circle style="fill:#333E48;" cx="130.525" cy="327.684" r="53.832"/>
<circle style="fill:#A4A9AD;" cx="130.525" cy="327.684" r="27.287"/>
<path style="opacity:0.1;enable-background:new    ;" d="M367.392,262.1c-33.814,0-61.643,25.593-65.193,58.463h130.385
	C429.034,287.693,401.205,262.1,367.392,262.1z"/>
<circle style="fill:#333E48;" cx="367.389" cy="327.684" r="53.833"/>
<g>
	<circle style="fill:#A4A9AD;" cx="367.389" cy="327.684" r="27.287"/>
	<path style="fill:#A4A9AD;" d="M504.044,323.297c0,5.466-4.471,9.938-9.938,9.938h-22.36c-5.465,0-9.938-4.472-9.938-9.938v-16.15
		c0-5.466,4.473-9.939,9.938-9.939h22.36c5.467,0,9.938,4.472,9.938,9.939V323.297z"/>
	<path style="fill:#A4A9AD;" d="M50.192,323.297c0,5.466-4.472,9.938-9.938,9.938H17.893c-5.465,0-9.937-4.472-9.937-9.938v-16.15
		c0-5.466,4.472-9.939,9.937-9.939h22.362c5.466,0,9.938,4.472,9.938,9.939C50.192,307.147,50.192,323.297,50.192,323.297z"/>
</g>
<rect x="29.074" y="271.242" style="fill:#FFB819;" width="28.905" height="25.965"/>
<path style="fill:#FFFFFF;" d="M51.918,297.208h8.799c2.051,0,3.729-1.677,3.729-3.726v-18.512c0-2.05-1.677-3.726-3.729-3.726
	h-8.799V297.208z"/>
<path style="fill:#333E48;" d="M242.387,198.742c0-5.834,4.773-10.607,10.607-10.607h71.445c5.834,0,13.211,4.001,16.393,8.891
	l16.531,25.407c3.182,4.89,1.012,8.891-4.822,8.891h-99.548c-5.834,0-10.607-4.773-10.607-10.607v-21.974H242.387z"/>
<path style="opacity:0.1;enable-background:new    ;" d="M340.833,197.027c-3.182-4.89-10.559-8.892-16.393-8.892h-71.445
	c-5.834,0-10.607,4.773-10.607,10.607v9.881c0-5.834,4.773-10.607,10.607-10.607h79.931c3.505,0,7.56,1.449,10.934,3.662
	L340.833,197.027z"/>
<path style="fill:#333E48;" d="M135.735,198.233c1.785-5.554,8.02-10.098,13.854-10.098h60.306c5.834,0,10.607,4.773,10.607,10.607
	v21.974c0,5.834-4.773,10.607-10.607,10.607h-74.192c-5.834,0-9.147-4.544-7.361-10.098L135.735,198.233z"/>
<path style="opacity:0.1;enable-background:new    ;" d="M209.895,188.135h-60.306c-5.834,0-12.069,4.545-13.854,10.098
	l-1.771,5.508c2.807-3.377,7.193-5.726,11.382-5.726h64.549c5.834,0,10.607,4.773,10.607,10.607v-9.881
	C220.502,192.908,215.729,188.135,209.895,188.135z"/>
<path style="fill:#FF5959;" d="M268.82,141.089c0-5.834-4.773-10.607-10.607-10.607H206.72c-5.834,0-10.607,4.773-10.607,10.607
	v14.395c0,5.834,4.773,10.607,10.607,10.607h51.493c5.834,0,10.607-4.773,10.607-10.607V141.089z"/>
<path style="fill:#D68231;" d="M235.321,296.809c-1.709-0.61-4.51-0.61-6.22,0l-13.189,4.69c-1.711,0.609-3.069-0.38-3.021-2.194
	l0.385-13.991c0.05-1.816-0.816-4.48-1.923-5.92l-8.537-11.092c-1.107-1.439-0.587-3.038,1.155-3.551l13.425-3.957
	c1.744-0.513,4.005-2.16,5.034-3.657l7.912-11.546c1.029-1.498,2.708-1.498,3.735,0l7.912,11.546
	c1.028,1.498,3.294,3.144,5.034,3.657l13.425,3.957c1.743,0.513,2.26,2.112,1.153,3.551l-8.534,11.092
	c-1.11,1.44-1.972,4.104-1.924,5.92l0.385,13.991c0.05,1.815-1.31,2.802-3.022,2.194L235.321,296.809z"/>
<path style="opacity:0.2;enable-background:new    ;" d="M184.188,261.67H138.21c-4.395,0-7.956-3.562-7.956-7.956
	c0-4.394,3.561-7.956,7.956-7.956h45.978c4.395,0,7.956,3.562,7.956,7.956C192.143,258.109,188.581,261.67,184.188,261.67z"/>
<path style="opacity:0.2;enable-background:new    ;" d="M340.792,261.67h-56.585c-4.395,0-7.956-3.562-7.956-7.956
	c0-4.394,3.561-7.956,7.956-7.956h56.585c4.395,0,7.956,3.562,7.956,7.956C348.747,258.109,345.186,261.67,340.792,261.67z"/>
<path style="fill:#1E252B;" d="M347.502,192.686c-4.641-7.13-14.554-12.507-23.061-12.507h-71.445
	c-10.235,0-18.563,8.328-18.563,18.563v21.974c0,10.235,8.328,18.563,18.563,18.563h99.548c5.791,0,10.452-2.469,12.786-6.775
	c2.335-4.306,1.863-9.558-1.296-14.411L347.502,192.686z M252.995,223.368c-1.437,0-2.652-1.215-2.652-2.652v-21.974
	c0-1.437,1.215-2.652,2.652-2.652h71.445c3.118,0,8.025,2.662,9.725,5.274l14.316,22.004H252.995z M494.105,289.252h-6.883
	l-2.8-23.6c-2.181-19.9-16.416-33.797-34.616-33.797h-49.219l-29.943-47.425c-9.307-14.744-30.257-26.294-47.694-26.294h-46.386
	c0.124-0.869,0.211-1.749,0.211-2.652v-14.395c0-10.235-8.327-18.563-18.563-18.563h-51.493c-10.235,0-18.563,8.328-18.563,18.563
	v14.395c0,0.903,0.087,1.783,0.212,2.652h-54.144c-18.339,0-36.663,13.81-41.717,31.438l-12.117,42.28H55.783
	c-19.114,0-34.665,15.551-34.665,34.665v22.734h-3.226C8.027,289.252,0,297.28,0,307.147v16.15c0,9.867,8.027,17.894,17.893,17.894
	h22.362c8.05,0,14.872-5.345,17.112-12.672h11.396c0.451,33.685,27.977,60.954,61.766,60.954s61.316-27.269,61.766-60.954h113.33
	c0.451,33.685,27.977,60.954,61.767,60.954s61.317-27.269,61.767-60.954h25.474c2.24,7.327,9.062,12.672,17.112,12.672h22.36
	c9.867,0,17.894-8.027,17.894-17.894v-16.15C512,297.28,503.972,289.252,494.105,289.252z M204.068,141.089
	c0-1.437,1.215-2.652,2.652-2.652h51.493c1.437,0,2.652,1.215,2.652,2.652v14.395c0,1.437-1.215,2.652-2.652,2.652H206.72
	c-1.437,0-2.652-1.215-2.652-2.652L204.068,141.089L204.068,141.089z M42.237,323.297c0,1.075-0.907,1.983-1.983,1.983H17.893
	c-1.075,0-1.981-0.908-1.981-1.983v-16.15c0-1.076,0.907-1.984,1.981-1.984h22.362c1.076,0,1.983,0.908,1.983,1.984
	C42.237,307.147,42.237,323.297,42.237,323.297z M130.529,373.561c-25.297,0-45.876-20.581-45.876-45.876
	c0-25.297,20.579-45.876,45.876-45.876s45.876,20.579,45.876,45.876C176.405,352.981,155.824,373.561,130.529,373.561z
	 M367.392,373.561c-25.297,0-45.877-20.581-45.877-45.876c0-25.297,20.581-45.876,45.877-45.876
	c25.297,0,45.877,20.579,45.877,45.876C413.269,352.981,392.689,373.561,367.392,373.561z M453.851,307.147v5.461h-26.54
	c-6.747-26.805-31.049-46.711-59.919-46.711c-28.87,0-53.172,19.906-59.919,46.711H190.447
	c-6.747-26.805-31.049-46.711-59.918-46.711s-53.171,19.906-59.918,46.711H58.148v-5.461c0-9.867-8.027-17.895-17.894-17.895H37.03
	v-22.734c0-10.341,8.413-18.754,18.754-18.754h30.609c3.541,0,6.655-2.34,7.641-5.741c0.032-0.11,0.063-0.221,0.091-0.336
	l13.679-47.73c3.094-10.793,15.193-19.911,26.421-19.911H322.95c11.892,0,27.892,8.82,34.24,18.876l32.284,51.134
	c1.457,2.308,3.996,3.708,6.727,3.708h53.605c8.288,0,17.315,6.066,18.807,19.691l2.588,21.825
	C461.588,289.57,453.851,297.463,453.851,307.147z M496.089,323.297c0,1.075-0.907,1.983-1.983,1.983h-22.36
	c-1.076,0-1.983-0.908-1.983-1.983v-16.15c0-1.076,0.907-1.984,1.983-1.984h22.36c1.076,0,1.983,0.908,1.983,1.984V323.297z
	 M209.895,180.179h-60.306c-9.354,0-18.566,6.716-21.427,15.618l-7.393,22.993c-1.639,5.095-0.922,10.29,1.967,14.253
	c2.889,3.963,7.615,6.236,12.968,6.236h74.192c10.235,0,18.563-8.328,18.563-18.563v-21.974
	C228.458,188.506,220.13,180.179,209.895,180.179z M212.547,220.716c0,1.437-1.215,2.652-2.652,2.652H136.01l7.3-22.701
	c0.729-2.267,3.898-4.576,6.28-4.576h60.306c1.437,0,2.652,1.215,2.652,2.652v21.973H212.547z M367.392,292.443
	c-19.433,0-35.243,15.809-35.243,35.241s15.809,35.241,35.243,35.241c19.432,0,35.242-15.809,35.242-35.241
	C402.634,308.252,386.825,292.443,367.392,292.443z M367.392,347.014c-10.659,0-19.332-8.672-19.332-19.33s8.673-19.33,19.332-19.33
	c10.659,0,19.331,8.672,19.331,19.33C386.723,338.343,378.051,347.014,367.392,347.014z M130.529,292.443
	c-19.432,0-35.242,15.809-35.242,35.241s15.809,35.241,35.242,35.241c19.432,0,35.242-15.809,35.242-35.241
	C165.77,308.252,149.961,292.443,130.529,292.443z M130.529,347.014c-10.659,0-19.331-8.672-19.331-19.33s8.672-19.33,19.331-19.33
	c10.659,0,19.331,8.672,19.331,19.33C149.859,338.343,141.187,347.014,130.529,347.014z"/>
<g>
</g>
<g>
</g>
<g>
</g>
<g>
</g>
<g>
</g>
<g>
</g>
<g>
</g>
<g>
</g>
<g>
</g>
<g>
</g>
<g>
</g>
<g>
</g>
<g>
</g>
<g>
</g>
<g>
</g>
</svg>
