<?xml version="1.0" encoding="iso-8859-1"?>
<!-- Generator: Adobe Illustrator 19.0.0, SVG Export Plug-In . SVG Version: 6.00 Build 0)  -->
<svg xmlns="http://www.w3.org/2000/svg" xmlns:xlink="http://www.w3.org/1999/xlink" version="1.1" id="Capa_1" x="0px" y="0px" viewBox="0 0 512 512" style="enable-background:new 0 0 512 512;" xml:space="preserve">
<g>
	<path style="fill:#707487;" d="M213.139,185.849l17.547-27.053c16.93-26.102,51.95-33.566,78.052-16.634   c26.102,16.931,33.566,51.95,16.634,78.052l-17.547,27.053c-16.93,26.102-51.949,33.566-78.052,16.634   C203.672,246.97,196.209,211.951,213.139,185.849z M298.32,202.665c7.258-11.189,4.06-26.193-7.129-33.451   c-11.189-7.258-26.193-4.06-33.451,7.129l-17.548,27.054c-7.258,11.189-4.06,26.193,7.129,33.451   c11.189,7.258,26.193,4.06,33.451-7.129L298.32,202.665z"/>
	<path style="fill:#707487;" d="M411.677,119.637l-31.538,6.722c-30.429,6.485-60.469-12.999-66.953-43.428   c-6.485-30.429,12.999-60.469,43.428-66.953l31.538-6.722c30.429-6.485,60.469,12.999,66.953,43.428   S442.105,113.151,411.677,119.637z M363.335,47.514c-13.044,2.78-21.392,15.651-18.612,28.694   c2.78,13.043,15.651,21.392,28.694,18.612l31.538-6.722c13.043-2.78,21.392-15.651,18.612-28.694   c-2.78-13.043-15.651-21.392-28.694-18.612L363.335,47.514z"/>
	<path style="fill:#707487;" d="M235.12,412.784l-6.722-31.538c-6.485-30.429,12.999-60.469,43.428-66.953   s60.469,12.999,66.953,43.428l6.722,31.538c6.485,30.429-12.999,60.469-43.428,66.953S241.605,443.212,235.12,412.784z    M307.243,364.443c-2.78-13.044-15.651-21.392-28.694-18.612c-13.043,2.78-21.392,15.651-18.612,28.694l6.722,31.538   c2.78,13.044,15.651,21.392,28.694,18.612c13.043-2.78,21.392-15.651,18.612-28.694L307.243,364.443z"/>
	<path style="fill:#707487;" d="M153.951,496.023l-31.538,6.722c-30.429,6.485-60.469-12.999-66.953-43.428   s12.999-60.469,43.428-66.953l31.538-6.722c30.429-6.485,60.469,12.999,66.953,43.428   C203.864,459.499,184.379,489.539,153.951,496.023z M105.61,423.901c-13.043,2.78-21.392,15.651-18.612,28.694   c2.78,13.043,15.651,21.392,28.694,18.612l31.538-6.722c13.043-2.78,21.392-15.651,18.612-28.694   c-2.78-13.043-15.651-21.392-28.694-18.612L105.61,423.901z"/>
</g>
<g>
	<path style="fill:#5B5D6E;" d="M150.072,439.153L150.072,439.153c-1.856-8.709,3.699-17.273,12.409-19.129l110.382-23.525   c8.709-1.856,17.273,3.699,19.129,12.409l0,0c1.856,8.709-3.699,17.273-12.409,19.129l-110.382,23.525   C160.493,453.416,151.929,447.861,150.072,439.153z"/>
	<path style="fill:#5B5D6E;" d="M251.663,219.68L251.663,219.68c8.709-1.856,17.273,3.699,19.129,12.409l23.525,110.382   c1.856,8.709-3.699,17.273-12.409,19.129l0,0c-8.709,1.856-17.273-3.699-19.129-12.409l-23.525-110.382   C237.398,230.101,242.954,221.536,251.663,219.68z"/>
	<path style="fill:#5B5D6E;" d="M361.382,61.001L361.382,61.001c7.471,4.846,9.599,14.829,4.753,22.3l-61.417,94.686   c-4.846,7.471-14.829,9.599-22.3,4.753l0,0c-7.471-4.846-9.599-14.829-4.753-22.3l61.417-94.686   C343.927,58.283,353.911,56.156,361.382,61.001z"/>
</g>
<path d="M463.843,50.794c-3.553-16.741-13.411-31.098-27.762-40.423c-14.351-9.327-31.473-12.507-48.214-8.953l-31.623,6.711  c-16.741,3.553-31.098,13.411-40.423,27.762s-12.506,31.473-8.954,48.214c0.915,4.312,2.292,8.503,4.051,12.51l-19.443,29.917  c-25.663-5.191-51.877,5.669-66.333,27.913l-17.616,27.106c-19.251,29.623-10.814,69.385,18.809,88.638  c4.417,2.871,9.141,5.167,14.074,6.867l8.359,39.391c-21.831,14.473-32.683,40.648-27.166,66.648l3.476,16.38l-29.282,6.214  c-14.479-21.791-40.757-32.661-66.638-27.167l-31.623,6.71c-16.741,3.552-31.098,13.411-40.423,27.762  c-9.326,14.35-12.506,31.473-8.953,48.214c3.552,16.741,13.411,31.098,27.762,40.423C86.44,508.467,98.448,512,110.705,512  c4.463,0,8.961-0.469,13.429-1.417l31.623-6.711c25.634-5.439,45.472-26.383,49.866-51.89l37.507-7.959  c12.286,13.816,29.594,21.488,47.697,21.487c4.46,0,8.969-0.465,13.461-1.419c16.741-3.552,31.098-13.411,40.423-27.762  c9.326-14.35,12.506-31.473,8.953-48.214l-6.71-31.624c-5.517-26-26.064-45.511-51.891-49.872l-6.804-32.062  c10.91-5.055,20.1-13.007,26.712-23.182l17.615-27.106c14.483-22.286,13.752-50.611-1.428-71.957l14.383-22.132  c7.642,3.085,15.814,4.687,24.032,4.686c4.438,0,8.888-0.459,13.267-1.389l31.623-6.71c16.741-3.552,31.098-13.411,40.423-27.762  S467.394,67.535,463.843,50.794z M360.997,78.88l-61.655,94.87c-2.604,4.005-7.981,5.146-11.986,2.543  c-4.006-2.604-5.147-7.98-2.543-11.986l61.655-94.869c1.261-1.94,3.202-3.274,5.466-3.754c2.265-0.481,4.58-0.05,6.52,1.21  c1.94,1.261,3.274,3.202,3.754,5.466C362.688,74.625,362.258,76.94,360.997,78.88z M234.51,257.61  c-22.688-14.745-29.151-45.199-14.406-67.887l17.616-27.106c9.937-15.289,27.125-23.556,44.747-22.224l-10.23,15.74  c-0.534,0.822-1.004,1.668-1.424,2.528c-7.601,1.991-14.227,6.725-18.564,13.397l-9.346,14.381  c-2.257,3.473-1.271,8.119,2.202,10.375c1.262,0.82,2.679,1.212,4.08,1.212c2.454,0,4.859-1.203,6.295-3.414l9.346-14.38  c1.206-1.856,2.761-3.41,4.538-4.637c1.522,5.277,4.866,10.053,9.821,13.273c3.974,2.582,8.439,3.815,12.857,3.815  c1.093,0,2.182-0.084,3.261-0.233c-0.399,2.123-1.189,4.176-2.394,6.031l-16.485,25.366c-1.85-3.32-4.489-6.164-7.766-8.294  c-5.3-3.444-11.625-4.619-17.806-3.306c-6.183,1.312-11.485,4.953-14.929,10.253c-3.444,5.3-4.619,11.624-3.307,17.806l3.937,18.55  C235.861,258.458,235.179,258.046,234.51,257.61z M281.046,354.552c-4.674,0.988-9.283-2.003-10.274-6.677l-23.486-110.68  c-0.991-4.673,2.004-9.282,6.677-10.274c0.604-0.128,1.212-0.191,1.816-0.191c1.658,0,3.282,0.478,4.704,1.402  c1.94,1.261,3.274,3.203,3.754,5.466l23.486,110.68C288.713,348.951,285.719,353.56,281.046,354.552z M167.975,444.638  c-2.265,0.479-4.58,0.05-6.52-1.211c-1.94-1.261-3.274-3.202-3.754-5.466c-0.48-2.264-0.05-4.58,1.211-6.52  c1.261-1.94,3.202-3.274,5.466-3.754l110.68-23.486c0.604-0.128,1.212-0.191,1.816-0.191c1.658,0,3.282,0.478,4.704,1.402  c1.94,1.261,3.274,3.203,3.754,5.466c0.48,2.264,0.05,4.579-1.211,6.52c-1.261,1.941-3.202,3.274-5.466,3.754L167.975,444.638z   M236.275,379.98c-3.792-17.872,2.509-35.853,15.924-47.365l3.899,18.373c0.203,0.956,0.48,1.876,0.79,2.778  c-3.977,6.784-5.32,14.807-3.663,22.617l3.476,16.38l-16.95,3.597L236.275,379.98z M152.646,489.2l-31.623,6.711  c-12.821,2.72-25.936,0.285-36.928-6.857c-10.991-7.143-18.541-18.138-21.263-30.96c-2.721-12.823-0.286-25.937,6.857-36.928  c7.143-10.991,18.138-18.541,30.96-21.263l31.624-6.71c17.784-3.772,35.817,2.539,47.345,15.928l-18.354,3.895  c-0.953,0.202-1.877,0.478-2.784,0.789c-6.783-3.959-14.888-5.302-22.611-3.662l-31.623,6.711  c-17.123,3.634-28.097,20.52-24.463,37.643c3.164,14.911,16.377,25.159,31.047,25.159c2.175,0,4.385-0.226,6.596-0.695l13.114-2.783  c4.052-0.859,6.64-4.841,5.78-8.893c-0.859-4.052-4.842-6.639-8.893-5.78l-13.113,2.782c-9.03,1.917-17.94-3.873-19.857-12.905  c-1.917-9.032,3.873-17.939,12.905-19.856l31.623-6.711c2.18-0.462,4.371-0.479,6.486-0.093c-2.762,4.983-3.635,10.725-2.44,16.352  c1.312,6.184,4.953,11.486,10.253,14.929c3.885,2.525,8.32,3.83,12.846,3.83c1.648,0,3.31-0.173,4.959-0.523l18.327-3.889  C184.269,472.195,170.243,485.466,152.646,489.2z M332.284,359.607l6.71,31.623c2.721,12.823,0.286,25.937-6.857,36.928  c-7.143,10.991-18.138,18.541-30.96,21.263c-14.384,3.053-28.976-0.432-40.229-9.177l20.822-4.419  c6.183-1.312,11.485-4.953,14.929-10.253c3.444-5.3,4.619-11.624,3.307-17.806c-1.312-6.184-4.953-11.486-10.253-14.929  c-5.3-3.445-11.624-4.621-17.806-3.307l-0.57,0.121l-3.476-16.38c-0.46-2.168-0.459-4.364-0.071-6.485  c3.436,1.897,7.349,2.957,11.414,2.957c1.622,0,3.269-0.168,4.917-0.518c5.79-1.229,10.632-4.495,13.946-8.884  c1.216,1.78,2.092,3.796,2.555,5.978l4.824,22.729c0.749,3.527,3.862,5.944,7.329,5.944c0.516,0,1.04-0.054,1.564-0.165  c4.052-0.86,6.639-4.841,5.779-8.894l-4.823-22.729c-1.661-7.829-6.079-14.558-12.518-19.174c-0.083-0.952-0.218-1.908-0.421-2.866  l-3.899-18.374C315.429,327.863,328.491,341.734,332.284,359.607z M320.012,216.098l-17.615,27.106  c-4.427,6.812-10.359,12.322-17.354,16.186l-3.866-18.216c2.599-2.094,4.848-4.575,6.692-7.413l17.615-27.105  c4.332-6.666,5.97-14.649,4.705-22.403c0.615-0.733,1.196-1.507,1.73-2.33l10.235-15.749  C330.542,181.736,329.968,200.779,320.012,216.098z M442.312,90.834c-7.143,10.991-18.138,18.541-30.96,21.263l-31.624,6.71  c-8.746,1.856-17.551,1.329-25.829-1.483l9.939-15.293c1.876,0.343,3.779,0.52,5.687,0.52c2.208,0,4.423-0.23,6.608-0.694  l31.623-6.711c17.123-3.634,28.097-20.52,24.463-37.644c-3.633-17.122-20.519-28.099-37.643-24.463l-9.89,2.099  c-4.052,0.86-6.64,4.841-5.78,8.893c0.859,4.052,4.844,6.642,8.893,5.78l9.89-2.098c9.029-1.921,17.94,3.872,19.857,12.904  c1.917,9.032-3.873,17.939-12.905,19.856l-31.079,6.595l0.01-0.016c3.444-5.3,4.619-11.624,3.307-17.806  c-1.312-6.184-4.954-11.486-10.253-14.929c-5.3-3.445-11.625-4.622-17.806-3.307c-6.184,1.312-11.486,4.954-14.929,10.253  l-12.456,19.166c-2.534-12.644-0.077-25.536,6.962-36.368c7.143-10.991,18.138-18.541,30.96-21.263l31.623-6.711  c12.823-2.721,25.936-0.286,36.928,6.857c10.991,7.143,18.541,18.138,21.263,30.96C451.891,66.729,449.455,79.844,442.312,90.834z"/>
<g>
</g>
<g>
</g>
<g>
</g>
<g>
</g>
<g>
</g>
<g>
</g>
<g>
</g>
<g>
</g>
<g>
</g>
<g>
</g>
<g>
</g>
<g>
</g>
<g>
</g>
<g>
</g>
<g>
</g>
</svg>
