<?xml version="1.0" encoding="iso-8859-1"?>
<!-- Generator: Adobe Illustrator 19.0.0, SVG Export Plug-In . SVG Version: 6.00 Build 0)  -->
<svg xmlns="http://www.w3.org/2000/svg" xmlns:xlink="http://www.w3.org/1999/xlink" version="1.1" id="Layer_1" x="0px" y="0px" viewBox="0 0 511.999 511.999" style="enable-background:new 0 0 511.999 511.999;" xml:space="preserve">
<polygon style="fill:#30D8B8;" points="337.883,157.893 284.676,178.185 276.089,169.598 203.717,97.238 152.487,46.008   187.311,44.088 189.231,9.252 "/>
<path style="fill:#00C6A5;" d="M276.089,115.657v53.941l-72.372-72.36c10.774-8.936,24.597-14.312,39.641-14.312  c8.75,0,16.975,3.41,23.154,9.588C272.691,98.692,276.089,106.919,276.089,115.657z"/>
<path style="fill:#C7C5CC;" d="M252.822,373.525h-48.332v-27.084V145.068c0-21.463,17.406-38.869,38.869-38.869  c2.609,0,4.982,1.054,6.696,2.767c1.714,1.714,2.767,4.087,2.767,6.696v121.611V346.44V373.525z"/>
<rect x="204.486" y="237.275" style="fill:#ADACB2;" width="48.337" height="118.241"/>
<path style="fill:#FF318E;" d="M217.507,353.284c-41.272,0-74.731,33.459-74.731,74.731s33.459,74.731,74.731,74.731  s74.731-33.459,74.731-74.731S258.779,353.284,217.507,353.284z M217.507,463.688c-19.702,0-35.673-15.971-35.673-35.673  c0-19.702,15.971-35.673,35.673-35.673s35.673,15.971,35.673,35.673C253.179,447.717,237.208,463.688,217.507,463.688z"/>
<path style="fill:#EA1F8E;" d="M292.238,428.018c0,41.27-33.463,74.733-74.733,74.733s-74.733-33.463-74.733-74.733  c0-5.596,0.616-11.054,1.781-16.289c7.436,33.44,37.28,58.444,72.954,58.444s65.518-25.004,72.954-58.444  C291.621,416.964,292.238,422.422,292.238,428.018z"/>
<path style="fill:#C7C5CC;" d="M414.315,277.143c0,5.084-0.977,9.948-2.758,14.405c-4.479,11.216-14.032,19.861-25.83,23.085  c-3.27,0.907-6.725,1.385-10.286,1.385l-184.582,0.011h-43.876v-48.333h38.268l153.528-0.011h66.077c2.606,0,4.98,1.059,6.69,2.769  C413.257,272.163,414.315,274.537,414.315,277.143z"/>
<path style="fill:#ADACB2;" d="M405.481,301.793c2.523-3.076,4.601-6.548,6.078-10.246c1.781-4.456,2.757-9.319,2.757-14.405  c0-2.606-1.058-4.98-2.769-6.69c-1.71-1.71-4.085-2.769-6.69-2.769H338.78l23.864,23.864h-171.62  c-0.94-8.228-2.869-16.229-5.775-23.855h-38.261v23.855h-0.004v24.481h43.876l184.582-0.012c3.559,0,6.996-0.505,10.27-1.4  C393.401,312.676,400.458,307.904,405.481,301.793C405.61,301.635,405.063,302.302,405.481,301.793z"/>
<path style="fill:#FF318E;" d="M92.496,228.273c-41.272,0-74.731,33.459-74.731,74.731s33.459,74.731,74.731,74.731  s74.731-33.459,74.731-74.731C167.227,261.732,133.769,228.273,92.496,228.273z M92.496,267.333  c19.702,0,35.673,15.971,35.673,35.673s-15.971,35.673-35.673,35.673s-35.673-15.971-35.673-35.673  C56.824,283.304,72.795,267.333,92.496,267.333z"/>
<path style="fill:#EA1F8E;" d="M167.23,303.002c0,41.27-33.463,74.733-74.733,74.733c-41.27,0.001-74.733-33.463-74.733-74.733  c0-5.596,0.616-11.054,1.781-16.289c7.434,33.44,37.28,58.444,72.954,58.444s65.518-25.004,72.954-58.444  C166.613,291.949,167.23,297.406,167.23,303.002z"/>
<polygon style="fill:#30D8B8;" points="378.503,198.52 494.234,314.252 459.405,316.171 457.485,351.001 325.299,218.814 "/>
<path d="M172.58,428.016c0,24.772,20.154,44.925,44.925,44.925s44.925-20.153,44.925-44.925c0-24.772-20.154-44.925-44.925-44.925  S172.58,403.244,172.58,428.016z M243.926,428.016c0,14.568-11.852,26.419-26.419,26.419c-14.568,0-26.419-11.852-26.419-26.419  c0-14.567,11.852-26.419,26.419-26.419C232.074,401.596,243.926,413.448,243.926,428.016z"/>
<path d="M92.496,258.079c-24.772,0-44.925,20.153-44.925,44.925c0,24.772,20.154,44.925,44.925,44.925s44.925-20.153,44.925-44.925  C137.422,278.232,117.268,258.079,92.496,258.079z M92.496,329.425c-14.568,0-26.419-11.852-26.419-26.419  c0-14.568,11.852-26.419,26.419-26.419s26.419,11.852,26.419,26.419S107.064,329.425,92.496,329.425z"/>
<path d="M232.234,282.292h-8.191c-5.111,0-9.254,4.142-9.254,9.253c0,5.111,4.143,9.254,9.254,9.254h8.191  c5.111,0,9.254-4.142,9.254-9.254C241.487,286.434,237.344,282.292,232.234,282.292z"/>
<path d="M500.778,307.709l-46.917-46.917c-3.613-3.612-9.472-3.612-13.085,0c-3.614,3.614-3.614,9.472,0,13.087l32.275,32.274  l-14.152,0.781c-4.709,0.259-8.471,4.02-8.73,8.729l-0.781,14.153L341.941,222.369l34.259-13.067l37.512,37.513  c3.613,3.614,9.472,3.613,13.085,0.001c3.614-3.614,3.614-9.472,0-13.085l-41.751-41.752c-2.579-2.58-6.43-3.4-9.841-2.103  l-53.204,20.294c-2.931,1.118-5.096,3.645-5.751,6.712c-0.655,3.068,0.288,6.259,2.506,8.477l33.077,33.077h-89.757v-89.755  l16.055,16.055c1.768,1.768,4.134,2.709,6.544,2.709c1.107,0,2.225-0.199,3.296-0.607l53.204-20.295  c2.931-1.118,5.096-3.645,5.751-6.712c0.655-3.068-0.288-6.259-2.506-8.477L195.779,2.71c-2.58-2.58-6.438-3.403-9.847-2.1  c-3.41,1.303-5.733,4.49-5.935,8.133l-1.463,26.556l-26.556,1.465c-3.644,0.2-6.83,2.526-8.133,5.934  c-1.304,3.41-0.481,7.266,2.1,9.848L207,113.602c-7.317,8.444-11.76,19.443-11.76,31.467v46.089c0,5.111,4.143,9.254,9.254,9.254  c5.111,0,9.254-4.142,9.254-9.254v-46.089c0-16.332,13.287-29.619,29.619-29.619c0.113,0,0.206,0.093,0.206,0.206v142.778h-29.825  v-31.949c0-5.111-4.143-9.254-9.254-9.254c-5.111,0-9.254,4.142-9.254,9.254v31.949h-31.612  c-14.873-23.651-41.189-39.414-71.132-39.414c-46.31,0-83.985,37.675-83.985,83.984c0,46.31,37.675,83.985,83.985,83.985  c38.601,0,71.182-26.185,80.966-61.719h21.779v21.78c-35.534,9.784-61.718,42.364-61.718,80.965  c0,46.309,37.675,83.984,83.985,83.984c33.634,0,63.939-19.973,77.207-50.884c2.016-4.697-0.157-10.137-4.854-12.152  c-4.695-2.016-10.137,0.157-12.152,4.854c-10.346,24.103-33.976,39.678-60.201,39.678c-36.105,0-65.479-29.374-65.479-65.478  s29.373-65.477,65.479-65.477c33.176,0,61.128,24.801,65.02,57.688c0.601,5.074,5.203,8.689,10.277,8.101  c5.075-0.601,8.703-5.203,8.102-10.278c-3.082-26.038-17.923-48.112-38.828-61.21v-31.567h113.364  c12.025,0,23.021-4.446,31.464-11.764l44.037,44.037c1.768,1.768,4.134,2.709,6.544,2.709c1.109,0,2.229-0.199,3.303-0.609  c3.41-1.304,5.733-4.489,5.935-8.133l1.464-26.556l26.555-1.464c3.645-0.2,6.831-2.526,8.133-5.934  C504.181,314.147,503.359,310.29,500.778,307.709z M243.365,96.944c-7.794,0-15.154,1.875-21.673,5.177l-48.019-48.019l14.154-0.781  c4.709-0.259,8.47-4.02,8.73-8.729l0.779-14.153l123.901,123.9l-34.259,13.069l-24.901-24.901v-26.851  C262.077,105.339,253.683,96.944,243.365,96.944z M92.496,368.484c-36.104,0-65.479-29.374-65.479-65.479  s29.374-65.477,65.479-65.477s65.479,29.374,65.479,65.477C157.975,339.11,128.601,368.484,92.496,368.484z M243.571,348.175  c-8.23-2.685-16.992-4.143-26.064-4.143c-1.261,0-2.513,0.04-3.761,0.095v-18.856h29.825V348.175z M375.442,306.765H176.386  c0.055-1.248,0.095-2.499,0.095-3.761c0-9.098-1.473-17.853-4.161-26.064h198.02l23.435,23.435  C388.728,304.37,382.363,306.765,375.442,306.765z"/>
<path d="M361.972,144.503c0.258,0.022,0.513,0.031,0.767,0.031c4.767,0,8.815-3.66,9.212-8.496l2.173-26.464  c0.419-5.093-3.371-9.561-8.465-9.979c-5.096-0.431-9.562,3.371-9.979,8.465l-2.173,26.464  C353.09,139.617,356.88,144.085,361.972,144.503z"/>
<path d="M385.226,154.853c2.05,0,4.114-0.678,5.829-2.071l22.41-18.206c3.966-3.222,4.569-9.051,1.347-13.017  c-3.222-3.965-9.049-4.566-13.016-1.347l-22.409,18.206c-3.966,3.222-4.57,9.051-1.347,13.017  C379.867,153.685,382.535,154.853,385.226,154.853z"/>
<path d="M384.985,167.992c-0.88,5.034,2.488,9.828,7.522,10.707l26.156,4.571c0.538,0.095,1.075,0.14,1.604,0.14  c4.412,0,8.318-3.166,9.104-7.661c0.88-5.033-2.488-9.828-7.522-10.707l-26.156-4.571  C390.665,159.581,385.865,162.958,384.985,167.992z"/>
<g>
</g>
<g>
</g>
<g>
</g>
<g>
</g>
<g>
</g>
<g>
</g>
<g>
</g>
<g>
</g>
<g>
</g>
<g>
</g>
<g>
</g>
<g>
</g>
<g>
</g>
<g>
</g>
<g>
</g>
</svg>
