<?xml version="1.0" encoding="iso-8859-1"?>
<!-- Generator: Adobe Illustrator 19.0.0, SVG Export Plug-In . SVG Version: 6.00 Build 0)  -->
<svg xmlns="http://www.w3.org/2000/svg" xmlns:xlink="http://www.w3.org/1999/xlink" version="1.1" id="Layer_1" x="0px" y="0px" viewBox="0 0 512 512" style="enable-background:new 0 0 512 512;" xml:space="preserve">
<path style="fill:#FF9203;" d="M410.158,461.428l9.887-63.857l-30.361-27.03l-36.744,17.391l-9.866,63.717  C365.514,453.837,388.238,457.004,410.158,461.428z"/>
<path style="fill:#FF9C01;" d="M410.158,461.428l9.887-63.857l-30.361-27.03l-36.744,17.391l-9.866,63.717  C365.514,453.837,388.238,457.004,410.158,461.428z"/>
<path style="fill:#EF8114;" d="M371.937,408.831l39.668-18.773l-21.922-19.517l-36.744,17.391l-9.866,63.717  c7.416,0.724,14.699,1.548,21.854,2.455L371.937,408.831z"/>
<path style="fill:#3E464C;" d="M388.856,457.55l4.3-24.979c0.963-6.702-3.688-12.915-10.39-13.878  c-6.704-0.963-12.917,3.688-13.879,10.391l-4.301,24.973C372.867,455.102,380.974,456.262,388.856,457.55z"/>
<path style="fill:#97C9FF;" d="M331.681,189.007c0-22.281,9.948-41.254,19.982-54.73l-0.005-0.001c0,0,0.018-0.02,0.047-0.056  c9.59-12.89,6.652-21.686-11.775-21.686c-79.869,0-187.818,0-232.11,0c-18.408,0-19.426,11.598-18.979,16.718  c14.547,94.97,151.722,108.647,151.722,156.758c0,50.804-46.122,39.867-46.122,93.147c0,53.283,55.12,66.354,55.12,66.354  c-53.996-96.65,110.343-79.12,110.343-158.595C359.905,239.915,331.681,233.965,331.681,189.007z"/>
<path style="fill:#95B737;" d="M152.337,405.217l-24.176-18.354c0.007-0.003,9.527-3.558,9.521-3.557  c2.626-0.982,3.962-3.907,2.979-6.536c-0.701-1.874,1.016-0.202-31.835-25.141l7.325-2.734c3.899-1.457,4.471-6.739,1.01-9.006  l-37.633-28.567c-3.58-2.721-7.69-3.508-11.282-2.166c-3.588,1.341-6.175,4.632-7.096,9.033l-9.749,46.578  c-0.819,3.913,3.005,7.195,6.751,5.8l7.31-2.732l-7.75,37.031c-0.379,1.814,0.256,3.689,1.663,4.895  c2.865,2.464,5.066,0.913,14.591-2.646l-6.215,29.707c-0.819,3.922,3.012,7.196,6.751,5.799l76.541-28.599  C154.785,412.624,155.518,407.635,152.337,405.217z"/>
<path style="fill:#84A316;" d="M88.875,428.947l6.215-29.707c-9.403,3.514-11.694,5.138-14.591,2.646  c-1.407-1.206-2.042-3.081-1.663-4.895l7.75-37.031l-7.31,2.732c-3.747,1.396-7.57-1.887-6.751-5.8l9.19-43.909  c-2.269-1.722-7.198-6.17-13.47-3.827c-3.588,1.341-6.175,4.632-7.096,9.033l-9.749,46.578c-0.819,3.913,3.005,7.195,6.751,5.8  l7.31-2.732l-7.75,37.031c-0.379,1.814,0.256,3.689,1.663,4.895c2.865,2.464,5.066,0.913,14.591-2.646l-6.215,29.707  c-0.819,3.922,3.012,7.196,6.751,5.799l20.882-7.803C91.661,436.003,88.083,432.74,88.875,428.947z"/>
<path style="fill:#8C614B;" d="M501.956,493.036c-81.839-63.035-409.815-63.237-491.919,0c-2.304,1.775-3.132,4.646-2.074,7.197  c1.061,2.552,3.781,4.244,6.824,4.244h482.419C503.94,504.477,507.056,496.961,501.956,493.036z"/>
<path style="fill:#725346;" d="M159.998,493.036c28.588-31.606,97.347-43.622,140.417-46.495  c-96.833-4.497-239.062,6.972-290.377,46.495c-5.091,3.923-1.988,11.441,4.75,11.441h148.519  C158.634,504.477,156.436,496.974,159.998,493.036z"/>
<path style="fill:#1C9B4F;" d="M57.712,404.867c-0.379,1.814,0.256,3.689,1.663,4.895c2.865,2.464,5.066,0.913,14.591-2.646  l-6.215,29.707c-0.819,3.922,3.012,7.196,6.751,5.799l76.541-28.599c3.742-1.398,4.476-6.387,1.295-8.805l-24.176-18.354  c0.068-0.025,9.521-3.557,9.521-3.557c3.905-1.461,4.463-6.738,1.01-9.005l-29.866-22.672l-43.364,16.205L57.712,404.867z"/>
<path style="fill:#20894A;" d="M88.875,428.947l6.215-29.707c-9.403,3.514-11.694,5.138-14.591,2.646  c-1.407-1.206-2.042-3.081-1.663-4.895l7.75-37.031c-1.771,0.662-11.083,4.122-21.124,7.875l-7.75,37.031  c-0.817,3.91,3.003,7.198,6.75,5.8l9.504-3.552l-6.215,29.707c-0.819,3.922,3.012,7.196,6.751,5.799l20.881-7.803  C91.661,436.003,88.083,432.74,88.875,428.947z"/>
<path style="fill:#008212;" d="M152.337,405.217l-24.176-18.354l-54.196,20.25l-6.215,29.707c-0.819,3.922,3.012,7.196,6.751,5.799  l76.541-28.599C154.785,412.624,155.518,407.635,152.337,405.217z"/>
<path style="fill:#036D0C;" d="M88.875,428.947l6.215-29.707c-11.281,4.216-9.842,3.659-21.124,7.875l-6.215,29.707  c-0.819,3.922,3.012,7.196,6.751,5.799l20.881-7.803C91.661,436.003,88.083,432.74,88.875,428.947z"/>
<path style="fill:#76B4FF;" d="M203.506,209.897c-0.003-0.003-0.006-0.006-0.01-0.009c-56.636-50.395-11.153-96.355-11.153-96.355  c-5.591-1.39,5.185-1-84.521-1c-18.409,0-19.426,11.598-18.979,16.718c14.539,94.951,151.722,108.656,151.722,156.758  c0,50.804-46.122,39.867-46.122,93.147c0,46.271,41.561,62.215,52.501,65.61c-70.223-47.471,0.11-104.585,0.132-104.602  c3.453-4.206,5.851-6.616,5.851-6.616l0.002,0.003c8.385-10.556,16.097-22.101,16.097-48.027  C269.024,255.844,235.513,237.873,203.506,209.897z"/>
<path d="M506.531,487.093c-17.492-13.471-47.418-24.999-86.949-33.56l5.901-41.078c4.276,3.807,5.689,5.637,9.183,5.637  c6.844,0,10.148-8.51,4.99-13.102c-48.626-43.293-46.296-42.591-51.095-41.865c-1.539,0.233,2.793-1.675-56.529,26.403  c-3.743,1.772-5.342,6.244-3.57,9.988c1.773,3.743,6.244,5.343,9.988,3.57l5.08-2.404l-5.867,40.841  c-26.657-2.365-54.561-3.561-83.597-3.503c-7.469-14.568-9.616-26.535-6.536-36.475c14.758-47.633,142.713-44.255,116.62-140.727  c-1.082-3.999-5.204-6.36-9.198-5.282c-3.999,1.082-6.363,5.2-5.282,9.198c1.841,6.805,2.735,14.06,2.735,22.182  c0,67.951-147.381,58.698-117.399,144.786c-14.394-7.691-33.065-23.305-33.065-52.547c0-48.873,46.122-38.253,46.122-93.147  c0-55.526-137.432-65.773-151.767-157.628c-0.323-4.671,1.653-6.712,5.726-7.724c8.197-0.86-14.648-0.624,237.908-0.624  c7.09,0,9.215,1.407,9.587,1.709c0.105,0.871-0.666,3.642-3.143,7.092c-13.118,17.201-22.193,38.179-22.193,60.173  c0,25.91,8.664,39.942,16.38,54.278c1.963,3.648,6.51,5.015,10.158,3.051c3.647-1.963,5.014-6.511,3.051-10.158  c-7.239-13.455-14.589-25.214-14.589-47.171c0-18.794,7.746-36.063,19.188-51.168c10.644-13.646,9.244-32.806-18.438-32.806H238.447  c126.099-15.776,133.281-20.109,132.859-29.986c-0.592-13.836-14.816-10.266-190.337-13.069  c37.521-3.321,119.198-11.175,155.787-20.487c11.602-2.953,22.913-6.598,22.734-15.699c-0.23-11.759-13.61-19.514-163.498-25.763  c-4.114-0.17-7.633,3.042-7.806,7.181c-0.172,4.139,3.043,7.634,7.181,7.806c87.519,3.649,124.391,8.186,139.91,11.374  c-52.973,14.268-197.789,23.266-231.723,27.683c-10.19,1.327-21.362,2.226-21.06,11.006c0.457,13.296,14.501,10.069,235.781,13.755  C245.385,90.523,98.17,106.115,99.17,105.911c-12.946,2.638-19.359,13.795-17.742,24.475  c14.945,97.571,151.635,115.313,151.635,155.622c0,45.923-46.122,36.167-46.122,93.147c0,25.216,11.383,45.544,31.179,59.598  c-31.627,1.236-61.974,4.017-89.878,8.25l-5.396-14.441l30.819-11.515c9.887-3.694,10.577-16.89,3.205-21.804l-13.718-10.414  c7.141-5.041,7.069-15.674-0.089-20.622l-19.875-15.089c3.338-3.279,4.808-8.456,2.963-13.393  c-1.693-4.518-0.631-2.904-42.089-34.375c-11.908-9.048-27.194-3.335-30.256,11.303l-9.75,46.579  c-1.572,7.52,3.904,14.659,11.537,15.13l-5.226,24.97c-1.747,8.36,5.159,15.939,13.567,15.092l-3.525,16.864  c-2.028,9.708,7.468,17.816,16.717,14.358l31.671-11.833l4.358,11.664c-32.834,5.796-81.228,17.234-107.694,37.619  c-5.017,3.864-6.795,10.3-4.423,16.018c2.238,5.385,7.636,8.865,13.75,8.865h482.418  C511.126,511.977,517.286,495.372,506.531,487.093z M75.992,434.057l4.47-21.364l24.569-9.18c3.88-1.449,5.85-5.771,4.401-9.65  c-1.45-3.881-5.769-5.851-9.651-4.4c-60.44,22.581-16.007,5.979-33.828,12.641l6.004-28.688l14.889-5.563  c3.88-1.449,5.851-5.771,4.4-9.65c-1.449-3.881-5.769-5.849-9.65-4.4c-0.093,0.035-21.952,8.203-21.953,8.203l8.849-42.278  c0.793-3.789,3.367-4.812,6.502-2.43l34.403,26.115c-3.186,1.19-7.261,2.172-7.99,7.128c-0.397,2.704,0.708,5.411,2.886,7.064  l26.636,20.221c-4.911,1.834-9.413,2.686-10.187,7.948c-0.397,2.705,0.708,5.411,2.886,7.064l20.675,15.696L75.992,434.057z   M352.608,442.984l7.182-49.997l28.614-13.544l23.643,21.05l-7.193,50.069c-0.749-0.14-5.401-0.984-6.536-1.183l2.261-15.742  c1.55-10.784-5.963-20.817-16.747-22.367c-10.841-1.55-20.819,5.959-22.368,16.748l-2.257,15.706  C358.819,443.678,352.889,443.014,352.608,442.984z M385.733,431.505l-2.22,15.459c-2.379-0.358-7.922-1.152-9.422-1.358  l2.221-15.457c0.374-2.603,2.784-4.408,5.389-4.032C384.297,426.49,386.106,428.907,385.733,431.505z M17.342,496.977  c82.417-57.7,392.735-59.211,477.312,0H17.342z"/>
<g>
</g>
<g>
</g>
<g>
</g>
<g>
</g>
<g>
</g>
<g>
</g>
<g>
</g>
<g>
</g>
<g>
</g>
<g>
</g>
<g>
</g>
<g>
</g>
<g>
</g>
<g>
</g>
<g>
</g>
</svg>
