<svg xmlns="http://www.w3.org/2000/svg" viewBox="0 0 48 48"><defs><style>.cls-1{fill:#9fdbf3;}.cls-2{fill:#b2e5fb;}.cls-3{fill:#6fabe6;}.cls-4{fill:#82bcf4;}.cls-5{fill:#5b9ad8;}.cls-6{fill:#8bd1ea;}</style></defs><title>41. IceBerg</title><g id="_41._IceBerg" data-name="41. IceBerg"><path class="cls-1" d="M45,23l-3,9H5L3,27l3-8c5.53-3.15,4.41-2.52,6-3.42.33-1.4,0,.11,2-8.58l7-6c1.82,6.09,1.34,4.49,1.79,6L29,2l5,4c1.52,8.11,1,6.85,2.39,7.34L41,15Z"/><path class="cls-2" d="M45,23l-2.33,7h-22A11.84,11.84,0,0,1,8.86,17.36c6.9-3.94-.44,0,6.12-3.78L17,5l4.14-3.55L22.79,7,29,2l5,4,1.3,7L41,15Z"/><path class="cls-3" d="M43,38l-6,1-5,6-2-3-4.45-1.49c-1.39-.46-.43-.95-4.55,2.49l-7-6L6,36,5,32H42Z"/><path class="cls-4" d="M43,38l-6,1-3.15,3.78L32,40l-5.57-1.86L23,41l-7-6-5.95-.74A3,3,0,0,1,7.5,32H42Z"/><path class="cls-5" d="M28.89,36.45c-1.38,2.76-.64,1.81-3.34,4.06-1.34-.44-.92-.54-1.89.27a1,1,0,0,1,.13-1.41c3-2.49,2.17-1.51,3.32-3.82A1,1,0,0,1,28.89,36.45Z"/><path class="cls-6" d="M30.22,23c-1.36.17-1.09-.28-3.09-9.3l-3.58-1.79c-.52-.26-.42-.29-1.72-4.62A1,1,0,0,1,22.5,6l.29,1c1.08-.87.6-1.5,2,3.32l3.62,1.81c.6.29.4.09,2.53,9.67A1,1,0,0,1,30.22,23Z"/><path class="cls-6" d="M13,15.81C10.86,24.71,11.07,25,10,25a1,1,0,0,1-1-1.23l1.77-7.51c1.42-.82,1.12-.43,1.41-1.65A1,1,0,0,1,13,15.81Z"/><path class="cls-6" d="M38,21.82A1,1,0,0,1,37,23c-1.13,0-.9-.41-2.68-9.87a1,1,0,0,1,.8-1.16c.23,1.23-.06.89,1.27,1.37Z"/><path class="cls-6" d="M22,21.16C21,27.23,21.14,28,20,28a1,1,0,0,1-1-1.16l.93-5.56-3.72-4.66c-.46-.55-.46.13,3.43-14.47.1,0-.29.26,1.35-1.15.73,2.45,1.11-.24-2.9,14.77C22.17,20.86,22.07,20.57,22,21.16Z"/><path class="cls-4" d="M7,48c-3.58,0-5,.35-5-1s1.36-1,5-1A1,1,0,0,1,7,48Z"/><path class="cls-4" d="M9,42c-3.58,0-5,.35-5-1s1.36-1,5-1A1,1,0,0,1,9,42Z"/><path class="cls-4" d="M16,45c-3.58,0-5,.35-5-1s1.36-1,5-1A1,1,0,0,1,16,45Z"/><path class="cls-4" d="M45,44c-3.58,0-5,.35-5-1s1.36-1,5-1A1,1,0,0,1,45,44Z"/><path class="cls-4" d="M47,33c-49.72,0-47,.43-47-1s-2.71-1,47-1A1,1,0,0,1,47,33Z"/></g></svg>