<?xml version="1.0" encoding="utf-8"?>
<!-- Generator: Adobe Illustrator 24.0.0, SVG Export Plug-In . SVG Version: 6.00 Build 0)  -->
<svg version="1.1" xmlns="http://www.w3.org/2000/svg" xmlns:xlink="http://www.w3.org/1999/xlink" x="0px" y="0px"
	 viewBox="0 0 64 64" enable-background="new 0 0 64 64" xml:space="preserve">
<g id="Captions">
</g>
<g id="Icons">
	<g>
		<g>
			<path fill="#FAB400" d="M40.124,35.752L40,36v-7.522c0-0.16-0.015-0.318-0.018-0.478h-0.613c-1.426,0-2.712-0.732-3.439-1.958
				c-0.728-1.226-0.755-2.706-0.072-3.958l2.153-3.947c-0.72-1.811-1.621-3.554-2.713-5.192L32,8l-3.297,4.946
				C25.636,17.546,24,22.95,24,28.478V36l-0.124-0.248C21.36,30.72,17.28,26.64,12.248,24.124L12,24v16c0,11.046,8.954,20,20,20
				s20-8.954,20-20V28h-5.928C43.635,30.176,41.604,32.793,40.124,35.752z"/>
		</g>
		<g>
			<path fill="#DC9600" d="M16,40V26.425c-1.179-0.865-2.43-1.64-3.752-2.301L12,24v16c0,11.046,8.954,20,20,20
				c0.675,0,1.342-0.036,2-0.101C23.894,58.895,16,50.37,16,40z"/>
		</g>
		<g>
			<path fill="#FA6450" d="M32,36l-5.951,15.301C24.422,55.487,27.509,60,32,60h0c4.491,0,7.578-4.513,5.95-8.699L32,36z"/>
		</g>
		<g>
			<path fill="#FA6450" d="M46.244,7.219l-8.631,15.823C36.886,24.375,37.851,26,39.369,26h17.262c1.518,0,2.483-1.625,1.756-2.958
				L49.756,7.219C48.998,5.829,47.002,5.829,46.244,7.219z"/>
		</g>
		<g>
			<path fill="#DC4632" d="M38.98,23.042L47.61,7.219c0.251-0.459,0.641-0.752,1.073-0.908c-0.874-0.315-1.931-0.023-2.439,0.908
				l-8.631,15.823C36.886,24.375,37.851,26,39.369,26h1.366C39.217,26,38.253,24.375,38.98,23.042z"/>
		</g>
		<g>
			<path fill="#F0F0F0" d="M48,18L48,18c-0.552,0-1-0.448-1-1v-4c0-0.552,0.448-1,1-1l0,0c0.552,0,1,0.448,1,1v4
				C49,17.552,48.552,18,48,18z"/>
		</g>
		<g>
			<path fill="#F0F0F0" d="M48,22L48,22c-0.552,0-1-0.448-1-1v0c0-0.552,0.448-1,1-1l0,0c0.552,0,1,0.448,1,1v0
				C49,21.552,48.552,22,48,22z"/>
		</g>
	</g>
</g>
</svg>
