<svg xmlns="http://www.w3.org/2000/svg" viewBox="0 0 512 512"><title>Artboard 152</title><g id="Atomic_Blast" data-name="Atomic Blast"><path d="M426.66667,149.33333c0-35.34635-38.20443-64-85.33334-64,0-35.34635-38.20442-64-85.33333-64s-85.33333,28.65365-85.33333,64c-47.12891,0-85.33334,28.65365-85.33334,64a64,64,0,1,0,0,128,63.89422,63.89422,0,0,0,125.96355,15.26693,167.74091,167.74091,0,0,0,89.40624,0,63.83214,63.83214,0,1,0,121.93881-36.9388c1.35677.07161,2.64583.33854,4.02474.33854,35.34635,0,64-23.87891,64-53.33333C490.66667,173.21094,462.013,149.33333,426.66667,149.33333Z" style="fill:#ec590a"/><path d="M426.66667,277.33333a63.99994,63.99994,0,0,0-64-64h-.09994l-.03646.00017-.0638.00016-.04.00016-.06087.00016-.03906.00033-.06185.00033-.04069.00016-.05957.00049-.04.00032-.06185.00049-.03776.00033-.06413.00081-.03515.00033-.06609.00081-.03548.00032-.069.001-.02864.00049-.0765.00114-.02376.00032-.08464.00147-.01465.00016-.0944.00179h-.00651q-1.8042.03443-3.58138.16716l-.001.00016-.095.00716-.015.00114-.082.00635-.02311.00179-.07227.0057-.03125.00244-.0638.005-.03939.00326-.05371.00439-.0472.00375-.04492.00374-.05664.00488-.027.00228q-.32081.0271-.641.05745a21.336,21.336,0,0,0-19.32162,21.21306q0,1.01075.09668,2.03841A21.33359,21.33359,0,0,0,360.5778,256.098q1.03125-.09765,2.08887-.098A21.35746,21.35746,0,0,1,384,277.33333h0a21.35747,21.35747,0,0,1-21.33333,21.33334l-.61817-.00847q-.0747-.00122-.14941-.00162c-.08366-.00472-.1683-.00912-.25228-.013a21.09152,21.09152,0,0,1-6.87858-1.47444,21.33331,21.33331,0,0,0-15.88867,39.59782,63.74563,63.74563,0,0,0,20.89974,4.50244l.15429.006.05079.00277c.29882.01237.59309.02246.89322.0306h.00066l.09863.0026.01985.00065.06153.00147.05859.00146.00423.00016c.307.00717.61524.01237.92286.0153h.00488l.09505.00082.01595.00016.08561.00065.029.00016.07422.00033.04134.00016.06348.00033.05925.00016h.04654l.10743.00016a63.99994,63.99994,0,0,0,64-64Z" style="fill:#d34000"/><path d="M362.3335,194.34049q-.92139,0-1.85515.08008A21.33311,21.33311,0,0,0,341.055,217.50618q.14893,1.73194.21875,3.48536l.00033.00455.00456.11752h0c.00439.11946.00862.23828.01269.35774l.00016.00586.00358.1084.00049.01693.0031.099.00048.01888.0031.10384.00032.01139c.00228.07845.0044.15658.00635.235l.00016.01074.00261.10319.00048.02409.00212.09017.00065.02767.002.08886.00049.02767.002.096.00032.01791c.00147.07682.00277.154.00407.23079l.00033.02474.0013.08854.00049.03288.00114.08008.00048.03743.001.08138.00033.03125.001.10091.00017.0127.001.11491.00016.02409.00066.08756.00016.03874.00049.07682.00016.03874.00033.07389.00016.042.00016.0765v.03679l.00016.1123h0l-.00016.1097v.01758l-.00016.10482-.00016.02018-.00033.1071-.00016.00976-.00049.10352-.00016.01464-.00066.10547-.00016.02019-.001.10416-.00017.01856-.00114.10872v.0013l-.0013.10775-.00016.01856-.00147.10546-.00016.01693-.00163.10742-.00032.01335-.00163.10156-.00016.01335-.002.10351-.00048.02409-.002.10059-.00049.02181-.00227.10677v.00065l-.00245.10742-.00048.01921-.00245.10189-.00065.02376-.0026.10254-.00049.016-.00277.099-.00032.01367-.00309.10612-.00065.01855-.0031.10384-.00065.01986-.00358.10742v.001l-.00358.10677-.00065.01921-.00374.10449-.00066.01758-.0039.10579-.00065.01563-.00391.099-.00049.01368-.00423.10416-.00081.02116-.0044.10352-.00065.01725-.00472.10872-.00016.001-.00488.1084-.00065.01562-.00489.10352-.001.02213-.00505.10254-.00081.01693-.00472.09635-.00082.01563-.00537.10384-.00114.01986-.00537.10351-.001.01791-.00585.10807-.00017.001-.006.10742-.001.01693-.006.10514-.001.016-.00634.1071-.00082.01269-.00634.10449-.00049.00782-.00651.10449-.00147.02213-.00651.10124-.0013.01986-.00684.10612-.00032.00358-.007.10416-.0013.01823-.00684.10091-.00163.02312-.00716.10123-.0013.01758-.007.097-.001.01334-.00765.10417-.00147.01921-.00749.10058-.00179.02344-.008.10319-.00049.00586-.008.10124-.00146.0192-.00814.10156-.00163.02051-.0083.10222-.00162.01822-.00831.09961-.00065.00847-.009.10514-.00163.01921-.00878.10286-.00163.01725-.00944.1071-.00017.00325-.00976.10743-.001.01237-.0096.10481-.00163.01758-.00976.1058-.00114.01106-.00993.10547-.00065.00651-.01026.1071-.00146.016-.01009.10352-.002.01888-.01041.10514-.00049.00553-.01025.10189-.00179.01725-.01058.10385-.00163.01562-.01107.10547-.0013.01367-.01107.10449-.00065.00521-.01123.10547-.002.01855-.01123.10287-.00179.01628-.01189.10709-.00016.00261-.012.10742-.0013.01172-.01189.10416-.00211.01823-.012.10449-.0013.0114-.01253.10709-.00033.00326-.01318.11133-.001.00846-.013.10807-.00146.013c-.00895.0739-.01791.14747-.02718.22136l-.00082.00749-.01351.10742-.00162.01367-.01335.10514-.00179.01433-.01318.10351-.00082.00521-.01383.10742-.00179.01335-.01384.10644-.00163.01172-.02962.22136-.00081.00683-.01465.10677-.002.01465-.01433.10417-.002.01465-.01449.10416-.00048.00358-.01514.10677-.00212.015-.01464.10384-.00212.01432c-.01058.07324-.021.14518-.03174.21843l-.00114.00814-.01579.10774-.00162.01107-.016.10742-.00147.00977-.01644.10937-.00016.00033-.016.10547-.00277.01758-.01546.10123-.0026.0166-.01628.10482-.001.00619-.0166.10579-.00114.00781-.0166.10417-.0026.01693-.0166.10384-.0018.01074c-.01171.07292-.02376.14681-.03564.21973l-.0013.00748-.01742.1058-.0026.0153c-.01221.07422-.02442.14648-.037.2207l-.00032.002-.01856.11-.00146.00846-.01856.10775-.00163.00944c-.01253.07259-.02522.14583-.03792.21843l-.00163.00976-.01888.10677-.00179.00977c-.01953.11035-.03971.2233-.05973.33333l-.002.01107-.01953.10612-.00163.00911c-.01335.07259-.02686.14616-.04037.21843l-.00162.00846-.02.10645-.002.01074c-.01367.07226-.02767.14616-.0415.21842l-.0013.00684-.02051.10677-.002.01009-.02067.10612-.00179.00977c-.01416.07226-.02816.14388-.04248.21614l-.00212.01009-.02083.10515-.00228.01106-.02165.10775-.00016.001-.0223.11035-.00081.00423-.02116.10384-.00326.01628-.02116.10254-.00211.01041c-.01481.07194-.03011.14519-.04509.2168l-.00146.00716-.0223.10547-.00244.01205q-.03492.16552-.0708.33072l-.00114.00586-.02344.10775-.00179.00847c-.01595.07291-.0319.14615-.048.21907l-.00082.00358-.02425.10905-.00146.00651c-.02442.11-.04932.2207-.07439.33073l-.00211.00911-.02425.10678-.00147.00586c-.01693.07421-.03385.14746-.0511.22167l-.00017.00066-.02571.1097-.00131.00618q-.05248.22364-.10612.44694l-.00032.001q-.02661.11084-.05371.22135l-.001.00456-.02653.1084-.00114.00456q-.04077.166-.08235.33138l-.00114.00488-.02751.1097-.00033.001c-.02815.11165-.05582.22037-.08447.3317l-.002.00749c-.03809.14811-.07634.29492-.1154.44238l-.00016.00065c-.0293.11133-.05908.223-.08887.334l-.00016.00032c-.0695.25847-.14128.51953-.21338.77669l-.00049.002q-.15552.55321-.31917,1.10416h0l-.03288.11v.00033q-.04932.16455-.09928.32877l-.00065.002c-.04411.14551-.0892.29167-.13428.43653l-.001.00325a74.74811,74.74811,0,0,1-23.64046,35.26726l-.00212.00162-.08414.06967-.0031.0026c-.08593.07129-.17008.14062-.25634.21126l-.00228.002c-.08627.07063-.17123.14-.25782.21061l-.0026.002-.084.06836-.00472.00358c-.05616.04557-.11263.09115-.16879.13639l-.00423.00358-.08268.06641-.00651.00521-.08285.06641-.00406.00325c-.05632.04525-.11231.08984-.16879.13477l-.00651.0052-.08252.06543-.006.00489-.16813.13281-.00635.00521-.07975.0625-.012.00944-.07959.0625-.008.00618-.083.06511h-.00016l-.08545.06673-.005.00391c-.028.02181-.055.043-.083.06445l-.008.00618-.07959.06185a21.33334,21.33334,0,1,0,26.11426,33.74154A116.60191,116.60191,0,0,0,384,224q0-5.13232-.43587-10.15592a21.33669,21.33669,0,0,0-21.23063-19.50359Z" style="fill:#b22a00"/><path d="M341.33333,85.33333c47.12826,0,85.33334,28.65365,85.33334,64s-38.20508,64-85.33334,64S256,184.67969,256,149.33333h0a21.33333,21.33333,0,0,1,42.66667,0c0,7.52116,16.19905,21.33334,42.66666,21.33334S384,156.85449,384,149.33333,367.80094,128,341.33333,128a21.33333,21.33333,0,0,1,0-42.66667Z" style="fill:#d34000"/><path d="M426.66667,149.33333h-.11914l-.06755.00033h-.02881l-.08366.00032h-.04166l-.04346.00033-.05127.00033h-.03141c-.03288.00032-.06576.00065-.09864.00065l-.029.00032-.05582.00033-.03353.00032-.06071.00065-.07031.00066-.03028.00032c-.26237.00293-.52653.00716-.78808.01237a21.13951,21.13951,0,0,0-20.55388,21.48242,21.52738,21.52738,0,0,0,21.48959,21.17188c.05387,0,.109,0,.16292-.00065L426.66667,192c.24593-.00195.49007-.00781.734-.0179q.36377.03027.73063.04817l.52685.02572c.0739.00391.14828.00684.22217.00977.09994.00878.20068.0166.30111.02376C441.59749,192.98275,448,199.9082,448,202.66667c0,3.25813-8.05973,10.66666-21.33333,10.66666-9.30925,0-16.05225-3.595-19.25863-6.95963a21.33337,21.33337,0,1,0-30.88688,29.43554q.96166,1.00929,1.97933,1.97754l.00114.001c.12125.11556.24153.22884.36393.34342l.0026.00261.068.06315.00765.00716.06738.06283.00374.00358c.0975.09049.19629.18164.29444.27148l.00032.00033.06966.0638.01058.00944.06283.05729.00993.00912.06608.06022.00586.00521c.098.08886.19612.17708.29492.26562l.00977.00846.06184.05534.01465.013.05729.05111.01742.01563.0612.054.00976.00879q.11109.09814.22282.19629l.00814.00684.06527.05729.01334.01139.05876.05143.0179.01563.05648.04883.01758.0153.05924.05143.01384.012.1499.12891.00228.00195.07031.06022.01628.014.05713.04883.02051.01758.05354.04557.02084.01758.05387.04557.02116.0179.06006.05079.01269.01074c.05013.04232.09978.084.14991.126l.01546.013.05827.04882.02116.01758.05436.04557.02181.01791.05192.04329.02392.01953.054.04493.02018.0166.06266.05175.01172.00977.076.0625.00586.00488.068.05567.02311.01888.05208.04232.02393.01953.05192.04231.02506.02051.04981.04037.0262.02116.04948.04.02653.02149.06722.054.006.00488.07569.06087.02067.0166.05468.04362.02751.02181.04671.03744.03093.02441.04606.03678.02978.02377.04607.03613.02962.02344.05159.041.0236.01856.07064.05534.00521.00423.07471.05859.02767.02149.04785.03743.03222.02507.04428.0345.03173.02474.04427.03418.0337.02637.04362.03353.03173.02474.04737.03613.02962.02311.07406.05664.02408.01856.05111.03906.034.026.04378.0332.03353.02572.04215.0319.03614.02734.04052.0306.03776.02865.03516.02669.04248.0319.0332.02507.05844.04394.05615.042.03743.028.03972.02962.03873.029.0376.028.0402.02995.03809.028.03825.02832.03906.029.03939.029.03727.02766.0402.0293.03109.02311.09163.06706.027.01986.04362.03157.033.02442.04362.03157.035.02539.04281.03093.03369.02441.04362.03158.03581.026.04232.03027.03222.02311.04639.03353.01465.01042.10775.07715.02669.0192.04834.03418.02946.02116.04573.03223.03369.02409.04379.03092.03548.02507.04248.02994.0345.02442.04623.03255.02441.01693c.05827.041.11784.08268.17611.12337l.02816.01953.04915.03418.02832.01953.04932.03418.03043.02116.0472.03255.03256.02246.04541.03125.034.02344.04672.0319.02115.01465q.09058.062.18116.1237l.02848.0192.05046.03418.028.01921.05062.03418.028.01888.05176.03483.028.01888.04964.03353.02978.01986c.06706.04492.133.08886.2002.13379l.00146.001.05583.03679.026.01757.05111.03386.02832.01855.05078.03353.03011.01986.05.03288.02864.01888.05193.03385.02441.016c.063.04134.12532.082.18864.123l.021.01367.05225.03385.02865.01856.05273.03418.02734.01758.05144.0332.02994.01921.05176.0332.02653.01693.05453.03483.01513.00976q.10011.064.20052.12728l.01937.01237.054.03418.02865.01823.0524.03288.02784.01757.05354.03353.02833.01791.05224.03255.03044.0192.05094.03158.026.01628.11866.07389.012.00749.056.0345.02685.0166.05241.03223.02963.01823.05338.03288.02783.01692.05388.03321.02636.016.0573.03515.01757.01075c.06788.04134.13672.083.20492.12434l.01562.00944.06006.03614.02132.01269.05713.03451.02735.01627.05468.03288.0267.016.056.03353.02636.01563.05632.03352.02067.01237c.0638.03776.1307.07748.1945.11491l.02767.01628.05322.03125.03044.01823.05159.02995.0319.01888.054.03157.027.01563.056.03255.0262.0153.05827.03385.00618.00358.15088.08724.00163.00065.05876.03386.02669.0153.05387.03092.0306.01758.05257.02995.03223.01855.05387.0306.02637.015.05843.0332.021.01172c.06641.03776.1359.07682.20247.11426l.02181.01237.05567.03092.02995.01693.05436.03027.0306.01725.05306.0293.0319.0179.05517.0306.02572.01433.05941.03287.01562.00847c.07015.03873.141.07747.21143.11621l.01953.01074.05924.03223.02718.015.05681.0306.02783.0153.05762.03125.0275.015.05843.03158.02263.012.06347.03418.001.00065c.07585.04069.15072.08073.22689.12142l.01986.01042.06022.03223.02653.014.05843.03093.02783.01465.05648.02994.03011.016.05778.03028.02295.012q.1018.05372.2041.10677l.02506.013.05713.02963.02865.015.05762.02962.02978.01563.05664.02929.02979.0153.056.02865.03287.01693.05485.028.02474.0127c.06674.03418.13233.06738.19939.10156l.03206.01628.054.02734.0332.0166.054.02734.03336.01661.05615.02832.02995.015.057.02865.02962.01464.0599.02995.008.00391c.07259.03613.14486.07194.21761.10775l.03109.0153.05485.027.03288.01628.05468.02669.03467.01693.05469.02669.03092.0153.05827.02832.028.01335c.07129.03483.141.06836.2124.10286l.01725.00814.05762.02767.03271.01563.05551.02669.03352.016.05534.02637.03256.01562.0581.02767.02816.01335.06071.02864.02083.00977.21517.10123.0236.01107.05664.02637.03483.01628.0542.02506.03516.01628.0542.02506.03759.01758.05225.02409.03662.01693.05436.02506.03158.01432c.0459.02116.08724.04.13314.06088l.00814.0039.0568.02572.03548.01627.04981.02247.04215.0192.05029.02279.03988.0179.05159.02311.03809.01726.0542.02408.03548.016.05453.02441.03173.01432.11215.04981.03206.014.05648.02507.03385.015.05485.02409.03841.01693.05339.02344.03581.01562.056.02442.0358.01562.05518.02409.03548.01562c.06445.028.12972.056.19417.084l.03956.01693.05175.02213.04053.01725.05013.02149.043.01855.05094.02149.04086.01758.05094.02148.04167.01758.05192.02213.03987.0166.1281.054.00911.00391.05583.02311.03841.01628.05306.02181.03857.01627.05388.02214.04.0166.054.02246.03548.01465.05746.02376.03467.014.0581.02409.02474.01009.11556.04687.0389.016.05176.02084.04167.01692.05192.02116.0428.01726.04834.0192.04688.01888.04883.01953.04394.01758.04981.01986.043.01725.19239.07617.04.01563.05371.02116.0415.01627.05176.02051.04215.01628.05127.02018.04509.01758.04964.0192.04329.0166.05192.02019.04053.01562.11654.04492.0249.00944.05387.02051.04167.016.05013.01921.04541.01725.04948.01855.0472.01791.04671.01758.04867.01855.04883.01823.04459.0166.05046.01888.05045.01888.08025.03.05485.02051.04736.01725.04752.01758.04932.01823.04769.01758.0472.01725.04981.01823.04541.0166.054.01986.04248.01529.05469.01986.04232.0153.09228.0332.03483.0127.06136.02181.04427.016.05225.01855.0459.01661.0498.01757.048.01693.05224.01856.04151.01464.05859.02084.04037.014.0638.02246.03239.01139.09375.03255.03906.01367.05941.02051.04183.01465.054.01855.04509.01563.0542.01855.04346.015.05371.01823.0441.015.0586.01986.03873.01334.07308.02474.04476.015.07422.02506.041.01367.0568.01921.04443.01465.0542.01823.0433.01432.0555.01823.04378.01465.05681.01888.0402.013.061.02018.03906.0127.09473.03092.03093.01009.06656.02149.04183.01367.05778.01855.04248.01368.05534.0179.04509.01432.05452.01758.04411.014.05729.01823.04086.013.06575.02083.03369.01042.0944.02995.04427.01367.055.01725.0441.01367.05567.01758.04525.014.054.0166.0446.01367.0568.01758.04281.01335.061.01855.03744.01139.07308.02246.04655.014.07666.02311.04459.01335.05306.01628.04916.01464.05192.01563.047.014.05224.01562.0472.014.056.0166.043.0127.064.01888.03515.01009.09912.02929.01726.00489.08252.02409.0371.01074.06267.01823.0428.01237.05632.016.04622.01334.055.016.04475.0127.05811.0166.04232.01172.07536.02148.02311.00651.09928.028.03613.01009.06511.01823.04215.01172.05746.016.04508.01237.05664.01562.04606.0127.05372.015.04687.0127.05973.01627.04021.01107.0804.02181.02.00554.1001.027.03385.00912.06689.0179.04118.01074.0612.01661.0402.01041.06218.0166.04183.01107.06152.01628.03923.01009.06787.0179.03466.00912c.06755.01758.13444.03483.202.05208l.035.00912.06739.01725.0402.01041.06055.0153.04329.01107.06071.0153.042.01074.06039.0153.04248.01042.06884.01725.03256.00814.09977.02507.03467.00846.0677.0166.04183.01042.05974.01465.04606.01139.05713.01367.04459.01107.05941.01432.04378.01042.06332.0153.03825.00911.08414.02018.01823.00424.102.02441.03451.00814.06689.01562.04444.01042.05875.01367.0446.01042.05941.014.04345.01009.063.01465.04.00911.06706.0153.03646.00846.10172.02311.01367.00293.08985.02051.03727.00847.06462.01432.04508.01009.05778.013.04655.01009.05973.01335.04232.00944.06413.014.04.00878.0734.016.02979.00651c.0345.00748.06836.015.1027.02213l.02409.00521.08138.01758.034.00716.068.01465.04215.00879.06234.01334.04427.00944.05843.01205.04606.00976.0625.013.04118.00847.07829.01627.02506.00521.10238.02116.03516.00716.06966.014.04183.00846.06152.0127.04574.00911.05859.01172.047.00944.05908.01172.04427.00879.06283.01237.043.00846.10205.02019.00553.001.09912.01921.03239.00618.07438.01433.03581.00683.06738.013.04248.00814.06381.012.042.00782.06494.01237.04.00748.0734.01368.03223.00585.10335.01921.02735.00488.07877.01465.03532.00651.07031.0127.04037.00716.06527.01172.04231.00781.063.01107.04362.00781.06885.01237.035.00586.08724.0153.019.00358.10661.01855.02279.00391.082.014.03678.00651.0708.012.0376.00619.06836.01172.03988.00683.06917.0114.03711.00618.077.0127.029.00488c.07031.01172.14323.02376.2137.03515l.03093.00489.0747.012.03923.00619.06771.01106.04134.00652.06592.01041.0415.00651.06689.01042.04037.00651.08154.01237.02295.00358.10726.0166.02067.00326.08773.01334.03109.00456.07519.01139.03809.00554.07.01041.04021.00619.0638.00944.04606.00651.06364.00944.04248.00618.07878.0114.02734.0039.10579.015.03077.00456.07649.01074.04.00553.06771.00944.04053.00554.06836.00944.04118.00585.06689.00912.04118.00553.06885.00944.03955.00521.21338.02832.0319.00423.07649.00977.03728.00488.07047.00912.03971.0052.07081.00879.03808.00489.07145.00911.03744.00456c.0262.00325.05306.00683.07926.00976l.02881.00391c.03695.00423.071.00846.10791.013l.01644.002.09163.01107.03532.00423.07211.00879.043.00521.06511.00749.04378.00521.06592.00781.04329.00488.06739.00781.04085.00456.08057.00912.02718.00325c.0358.00391.07161.00781.10758.012l.02995.00325.07715.00846.04362.00489.06494.00683.04476.00489.06527.00716.04313.00455.06917.00717.03955.00423.07064.00749.03955.0039.09342.00977.014.0013c.03613.00391.07178.00749.10775.01107l.03613.00358.07276.00716.0428.00423.06462.00651.047.00456.06526.00618.04183.00391.06934.00684.041.0039.07552.00684.033.00325.10791.00977.02214.00195.08773.00814.036.00325.07357.00652.04069.00358.06933.00586.042.00358.06836.00618.04151.00326.07243.00618.03759.00326.082.00683.02751.00228.10938.00879.02376.00195.08561.00684.03874.00293.0708.00553.04215.00326.06755.00521.04476.00358.06706.00488.042.00325.0695.00489.04231.00325.08676.00619.02148.00163c.03646.0026.07129.0052.10758.00748l.03988.00293.0708.00488.04411.00293.06527.00456.04655.00293.06543.00423.04427.00293.06982.00456.03955.0026.07634.00489.03515.00228.10856.00651.01921.0013.09115.00521.03824.00228.07178.00423.04509.0026.06445.00358.04769.00293.063.00326.04817.0026.06787.00391.04021.00195.07942.00423.03256.00163.10774.00553.03939.002.0695.00358.04915.00228.06315.00293.047.00227.0638.00293.04753.00228.06673.00293.043.002.0721.00293.0389.00162c.0319.00163.0612.00261.09294.00391l.01774.001.11035.00423.03434.0013.07634.00293.04329.00163.06641.0026.04964.002.061.002.0498.00195.0625.00195.0485.00163.06918.00228.04085.0013.10107.00326.02751.00065.09163.00293.04021.001.07161.002.0433.0013.069.002.04427.001.067.00163.04623.0013.068.00163.04313.001.08155.00163.0288.00065c.03695.001.07553.00163.11247.00228l.01823.00033.09212.00195.04069.00065.07178.0013.04167.00065.07129.001.04329.00065.0695.001.04264.00065.07259.001.04053.00065.09554.001h.01449c.03841.00065.074.001.1123.0013l.03141.00033.08155.00065.03987.00033.07064.00032.04558.00033.06884.00032.04379.00033.06917.00032h.04378l.0765.00033h.1473c35.34619,0,64-23.87826,64-53.33333v-.084l-.00017-.03-.00016-.05371-.00016-.03613-.00016-.04818-.00033-.03678-.00033-.04688-.00032-.03938-.00033-.0446-.00032-.03841-.00049-.04623-.00049-.03808-.00049-.04557-.00065-.03842-.00065-.04524-.00049-.04037-.00081-.04329-.00065-.03906-.00082-.04525-.00065-.03972-.001-.04329-.00082-.04-.001-.04394-.00082-.04037-.00114-.04394-.001-.03907-.00114-.04655-.001-.03711-.0013-.04882-.001-.03418-.00146-.04883-.001-.03613-.00163-.05176-.001-.03093-.00277-.08235-.00065-.01791-.00244-.06738-.00082-.02506-.00211-.0573-.0013-.0332-.00212-.05143-.00114-.03158-.00212-.05175-.00146-.03353-.00212-.05046-.00162-.03483-.00212-.04687-.00179-.03907-.002-.04492-.00179-.03711-.00228-.04687-.00179-.03581-.00244-.0485-.00179-.03516-.00245-.04687-.00211-.03744-.00244-.04687-.002-.03581-.00276-.04785-.002-.03516-.00293-.0498-.00195-.03353-.00277-.04785-.00227-.03614-.00293-.04883-.00212-.03385-.00358-.055-.00179-.02767-.0044-.069-.001-.014-.0057-.08333-.00081-.01335-.00489-.07031-.00146-.02051-.00456-.06315-.00179-.026-.00423-.05567-.00244-.0345-.00358-.04785-.00293-.03711-.00358-.04558-.00277-.03645-.00374-.0472-.00293-.03581-.00375-.04688-.00293-.0358-.0039-.04688-.00309-.03711-.00391-.0459-.00293-.03548-.00423-.04752-.00309-.03646-.00407-.04525-.00326-.03744-.00407-.04394-.00358-.04037-.00391-.042-.00358-.03906-.00439-.04622-.00342-.03614-.00456-.04752-.00341-.03483-.00489-.04948-.00309-.03321-.00732-.07226-.00082-.00912-.00846-.08268-.00228-.02213-.00635-.06055-.00325-.03093-.00537-.05045-.00358-.03418-.00537-.04948-.00342-.0319-.00554-.04981-.00374-.0345-.00537-.04785-.00391-.03516-.00537-.04655-.0039-.03515-.0057-.04883-.00374-.03255-.0057-.04883-.00407-.03483-.0057-.0472-.00423-.03549-.00553-.04492-.00456-.03808-.00553-.04525-.0044-.03581-.00586-.04655-.00456-.0358-.00585-.04655-.0044-.03549-.00618-.0472-.0044-.03418-.00683-.05273-.00375-.02865-.00732-.05468-.00358-.02767-.00977-.07227-.00114-.00911-.01123-.08171-.00342-.02539-.00781-.05631-.00423-.0306-.00732-.05144-.00424-.02994-.00732-.05241-.00423-.0293-.00749-.05208-.00472-.03158-.00732-.05078-.00456-.0306-.00733-.05045-.005-.03353-.007-.0472-.00537-.03516-.00684-.04525-.00569-.03776-.00684-.04427-.00553-.03515-.00733-.04753-.00537-.03418-.00749-.04818-.0052-.03255-.00782-.04915-.00537-.03288-.008-.05013-.00489-.03027-.00862-.05306-.00472-.02865-.00944-.05762-.00391-.02278-.01058-.06348-.00309-.01823c-.00928-.05566-.01823-.1084-.02767-.16374l-.00179-.00944-.01237-.07259-.00309-.01725-.01074-.06185-.00537-.03027-.009-.05111-.00569-.03125-.00879-.04915-.00586-.03288-.00879-.04818-.00619-.03483-.00813-.04427-.007-.03776-.008-.04395-.00667-.03548-.00863-.04622-.00618-.0332-.00912-.04916-.00618-.0319-.00895-.04785-.00635-.0332-.0096-.04916-.00586-.03092-.00977-.05078-.00586-.02963-.01042-.05338-.00537-.02734-.01058-.05306-.00553-.028-.01188-.0599-.00407-.01985c-.01644-.08236-.03255-.16113-.04964-.24349l-.00212-.01009-.01448-.07032-.00407-.0192-.01286-.0612-.00488-.02376-.01188-.05632-.00586-.02734-.01123-.05241-.00635-.02962-.01107-.05143-.006-.02767-.0114-.05274-.00634-.02864-.0114-.05209-.006-.02767-.01155-.05241-.00651-.02864-.01172-.05274-.00586-.02636-.01221-.05436-.006-.0267-.01221-.05371-.006-.02637-.01253-.05436-.00586-.02571-.01368-.05957-.00455-.01921-.015-.06445-.00374-.016-.01644-.07032-.00228-.00944c-.0192-.0817-.03825-.16113-.05794-.24251l-.00244-.01009-.01677-.06934-.00537-.02213-.01383-.05664-.00651-.02669-.01351-.054-.00619-.02539-.01334-.05339-.007-.028-.013-.05209-.00716-.02832-.0127-.05045-.00749-.0293-.013-.05143-.00716-.028-.01286-.05045-.00781-.03-.01286-.05013-.00748-.029-.01319-.05078-.00748-.028-.01416-.054-.00635-.02474-.01481-.05567-.00619-.02343-.01562-.05892-.00537-.02019-.01709-.0638-.00407-.015-.02-.07389-.0013-.00521c-.022-.08073-.04379-.16016-.06609-.24089l-.00179-.00651-.02018-.07259-.00374-.01335-.01839-.06575-.005-.01791-.01725-.06119-.00537-.01921-.01693-.05924-.00651-.02312-.01611-.056-.00635-.02246-.01628-.05664-.00683-.02311-.01612-.056-.00667-.02278-.01595-.055-.00781-.02637-.0153-.05175-.00765-.02637-.01595-.05371-.00733-.02474-.01676-.056-.00635-.02148-.01709-.0573-.00683-.02246-.0184-.0612-.00488-.01595-.02-.06608-.0039-.01269c-.03256-.10677-.06462-.21094-.098-.31738l-.00065-.00228-.02392-.07618-.0031-.00976-.02132-.06738-.00537-.01726-.01986-.06217-.0052-.01628-.01953-.06152-.006-.01855-.01937-.0599-.00634-.01986-.0184-.057-.00748-.02279-.01823-.05632-.00716-.02148-.01839-.05631-.00717-.02181-.019-.05762-.00667-.02018-.01905-.0573-.007-.02115-.02-.06023-.00554-.0166-.02164-.06412-.0044-.01335-.02327-.069-.00293-.00847-.02377-.07-.00309-.00879c-.05387-.1582-.10775-.3138-.16341-.47136l-.00179-.00488-.02539-.07161-.00407-.01172-.02262-.0638-.00733-.02019-.02034-.057-.00733-.02018-.02051-.0573-.00764-.02116-.02051-.05664-.00733-.02018-.0205-.056-.00814-.02278-.02084-.05664-.00667-.01823-.02181-.05925-.00716-.0192-.02165-.0586-.00667-.01823-.02116-.05664-.00814-.02181-.02344-.06282-.00455-.012-.02556-.06771-.00358-.00976c-.03938-.10417-.07845-.20638-.11849-.31055l-.0013-.00325-.02816-.07292-.00455-.01172-.02491-.06413-.00651-.0166-.02376-.06087-.006-.01563-.02376-.06054-.00717-.01791-.02278-.05794-.00814-.02051-.02214-.05566-.0083-.02051-.02278-.05762-.00733-.01822-.02311-.05762-.00781-.01921-.02295-.05729-.008-.01953-.023-.057-.00781-.0192-.02474-.06055-.00586-.01432-.02685-.06543-.00423-.01042-.0306-.07454-.00017-.00033c-.0638-.15462-.12793-.30827-.19336-.46224l-.00146-.00325-.03076-.07227-.00358-.00846-.02865-.06706-.00472-.01074-.02783-.06478-.00586-.01335-.02653-.06185-.00667-.0153-.026-.05989-.00733-.0166-.02588-.0599-.00683-.01562-.02572-.0586-.00814-.01823-.02588-.05892-.00683-.0153-.02767-.0625-.00537-.01236-.0306-.06869-.00228-.00521-.0319-.07129-.00212-.00488c-.09114-.20345-.18245-.40365-.27653-.60612l-.00325-.00716-.0319-.068-.00358-.00781-.03077-.06575-.00586-.0127-.02946-.0625-.00634-.01334-.028-.05957-.008-.01693-.02849-.0599-.00634-.01334-.03011-.06316-.00489-.01009-.0319-.067-.00358-.00749-.03223-.06673-.0039-.00847-.03418-.07063-.00147-.00293q-.12768-.26367-.2583-.52539l-.00016-.00066-.03678-.07356-.00212-.00391-.035-.06966-.00407-.00846-.03288-.06511-.00586-.01172-.03076-.06087-.00814-.01562-.02995-.05892-.007-.01368-.03076-.06022-.00732-.01432-.03076-.0599-.00684-.01334-.03043-.05925-.00814-.016-.03125-.06022-.006-.01172-.03287-.06315-.00537-.01042-.03451-.06608-.00358-.00683-.03613-.069-.00228-.00456c-.10417-.19792-.208-.39258-.31478-.58952l-.00358-.00651-.03695-.068-.00211-.00391-.03679-.06738-.005-.00944-.03532-.06445-.00472-.00814-.03483-.06348-.006-.01107-.03549-.06412-.0039-.00717-.036-.06445-.00521-.00944-.03565-.06413-.00488-.00879-.03646-.0651-.0039-.00716-.03955-.07031-.00065-.00131c-.10987-.19531-.22054-.389-.33318-.583l-.00227-.00391-.03988-.06868-.0026-.00424-.03956-.06771-.00325-.00553-.03825-.06543-.0057-.00976-.03662-.06218-.00537-.00911-.03743-.06348-.00521-.00846-.03809-.06446-.00407-.00683-.03808-.06413-.00537-.00879-.03988-.06706-.00163-.0026-.04215-.07-.001-.00195q-.217-.36134-.4401-.71843l-.00033-.00065-.04427-.071-.00049-.00065-.04345-.06934-.00277-.00423-.04248-.06738-.00212-.00358-.04118-.06511-.00537-.00846-.04069-.06445-.00342-.00489-.04248-.067-.00211-.00326c-.03044-.04752-.0599-.09375-.09033-.141v-.00032q-.25148-.39113-.50977-.77767l-.001-.00131-.04492-.06705-.0039-.00586-.04362-.06478-.00277-.00423-.04395-.06511-.0039-.00586-.04362-.06445-.00326-.00488-.04492-.06608-.00211-.00293c-.1906-.28028-.38314-.55729-.57976-.83464l-.00114-.00163c-.03271-.04622-.06445-.09049-.09733-.13671l-.001-.00131-.04883-.06836h0l-.049-.068-.00114-.00163q-.44653-.62109-.91227-1.23014h-.00017c-.0345-.04525-.068-.08919-.10286-.13444l-.0013-.00163q-.36426-.47362-.7391-.9388l-.00081-.001-.0529-.06575-.00081-.001-.051-.06282-.00455-.00554-.05127-.06347-.001-.001q-.40527-.498-.82275-.98763l-.00082-.00065c-10.6014-12.42318-27.42741-20.89811-46.6888-22.26465-.12614-.00846-.25081-.016-.37663-.02246-.09114-.00749-.182-.01432-.27344-.02083-.146-.00912-.29052-.01791-.43684-.026l-.01237-.00065q-.17773-.01025-.3558-.01953l-.01628-.00065-.04313-.00228c-.40576-.02083-.8094-.03841-1.21712-.05273q-.30151-.00831-.60172-.00847-.2793,0-.5573.00716c-.3846-.02571-.77067-.04134-1.16064-.04654-.15072-.001-.30078-.00131-.45182-.00131Z" style="fill:#d34000"/><circle cx="181.33333" cy="224" r="53.33333" style="fill:#d34000"/><circle cx="149.33333" cy="277.33333" r="64" style="fill:#d34000"/><path d="M298.66667,277.33333v128A42.7921,42.7921,0,0,0,341.33333,448h128a21.33331,21.33331,0,0,1,21.33332,21.33331v0a21.33332,21.33332,0,0,1-21.33332,21.33332H42.66665a21.33332,21.33332,0,0,1-21.33332-21.33332v0A21.33331,21.33331,0,0,1,42.66665,448h128a42.7921,42.7921,0,0,0,42.66666-42.66667v-128Z" style="fill:#ec590a"/><path d="M256,384v21.33333a85.33333,85.33333,0,0,0,85.33333,85.33334H427.1766a21.33334,21.33334,0,0,0,0-42.66667H341.33333a42.7921,42.7921,0,0,1-42.66666-42.66667V384a21.33331,21.33331,0,0,0-21.33332-21.33331h0A21.33331,21.33331,0,0,0,256,384Z" style="fill:#b22a00"/><rect x="256" y="277.33333" width="42.66667" height="128" rx="21.33331" ry="21.33331" style="fill:#b22a00"/><rect x="213.33333" y="277.33333" width="85.33333" height="42.66667" rx="21.33331" ry="21.33331" style="fill:#b22a00"/><circle cx="298.66667" cy="384" r="21.33333" style="fill:#ec590a"/><circle cx="256" cy="384" r="42.66667" style="fill:#ff690b"/><circle cx="234.66667" cy="362.66667" r="21.33333" style="fill:#ff7a27"/><path d="M278.5918,350.67025a10.66667,10.66667,0,0,0-7.5306,18.221,21.335,21.335,0,0,1-27.82178,32.20833,10.66654,10.66654,0,0,0-12.78516,17.07747q.5835.437,1.18278.8545l.00212.00162.16536.11459.007.00455.03728.02572.00748.00521.03793.026.00455.00326c.04167.02864.08285.05664.12468.085l.00163.0013.03808.02571.0083.00586.03776.02539.00554.00391c.041.02767.08284.056.12386.08333l.00276.002.03435.02311.01367.00911.03092.02084.01758.01172.03076.0205.01628.01075.04655.03092.02767.01855.023.015.02783.01855.02246.01465.02441.01628.02572.01693.02458.016.02392.01562.0459.03027.01725.01107.03207.02116.02018.013.02978.01953.02116.01367.03239.02116.01514.00944.04753.03093.00293.002.0498.0319.01562.01009.03305.02149.0192.012.03418.02214.01563.00976.04345.02767.006.00391.05306.03385.00147.001.05029.0319.00733.00456.04524.02832.008.00521.049.03092.0026.00163.10547.06608.00879.00553.04541.028.00619.0039q.10766.0669.21533.13314l.00146.001a42.39208,42.39208,0,0,0,16.78711,5.92578h.00017l.06315.00814.00586.00065.26172.03255.00585.00065.19792.02344h.00016l.0625.00716.00928.001.05811.00651.00618.00065c.0433.00488.08806.01009.13135.01465l.00212.00032.06087.00651.01172.00131.05306.00585.01172.001.06.00651.0031.00033c.04329.00455.08642.00911.12988.01334l.01172.00131.05241.0052.01318.00131.057.00553.00569.00065c.04476.00456.08643.00846.13135.0127l.00586.00065.05924.00553.00847.00065.05762.00554.0083.00065c.04362.00423.0874.00814.131.012l.00407.00033.05957.00521.0122.001.05323.00456.01139.001c.06478.00553.13086.01106.1958.01627l.00749.00065.05566.00456.01367.001.05372.00423.01009.001.12972.00977.0109.00065.05176.00391.01676.0013.051.00358.01269.001.05843.00423.0057.00032.0651.00456.00847.00033.05436.0039.01855.001.04525.00293.01872.0013.04932.00326.01416.001.12858.00782.01286.00065.05078.00325.01692.001.04834.0026.016.001.06088.00358h.00276l.064.00358.015.00065.04883.00261.01823.001.04573.00261.02.001.05323.00261.00879.00032.0638.00326.01383.00065.05062.00228.01839.00065.04525.00228.01986.00065.04931.00228.014.00065.12777.00521.01774.00065.04525.00195.02213.00065.0446.00163.01806.00065.05469.002.00944.00033.063.00228.01807.00065.04476.0013.02213.00065.04427.00163.01986.00033.04785.00162.016.00033.06234.00163.01725.00065.04557.001.02507.00065.03874.001.02474.00065.04166.001.02165.00065.12516.00228.02132.00065.04346.00065.02214.00033.043.001.02084.00033.05371.00065h.00976l.06267.001.02116.00032.04264.00033.0223.00032.04427.00065h.02034l.04867.00033.01514.00032.063.00033.01579.00033h.0485l.022.00032h.06526l.04346.00033H256A42.6667,42.6667,0,0,0,298.66667,384l-.00017-.11621V383.862l-.00016-.01823-.00081-.16764-.00082-.085v-.00489l-.00048-.0459-.00017-.02343-.00049-.03841-.00032-.03028-.00082-.05273-.00016-.01595-.00065-.03972-.00049-.02962-.00049-.03808-.00065-.0306-.00048-.03451-.00066-.0345-.00065-.03386-.00081-.0345-.00065-.03386-.00082-.03548-.00065-.03288-.00081-.03548-.00114-.042-.00065-.02637-.00114-.04329-.00065-.02572-.00163-.05729-.00016-.01042-.00179-.05859-.00033-.01009-.00146-.05078-.00065-.01823-.00147-.04753-.00081-.02116-.0013-.04231-.001-.02637-.00163-.0472-.00081-.02084-.00163-.04622-.001-.02246-.00146-.03939-.00114-.02962-.00147-.03646-.0013-.03157-.002-.04623-.00081-.02181-.00245-.05306-.00065-.015-.00211-.04981-.001-.01888-.00228-.04948-.00081-.01855-.00293-.0599-.00033-.00781-.00293-.05762-.00048-.01074-.00359-.06706v-.00032l-.00341-.06511-.00017-.00325-.00325-.0599-.00049-.00879-.00342-.06185-.00032-.00585c-.00391-.06674-.00782-.13412-.012-.20085l-.00016-.00326-.00374-.06119-.00049-.00684-.00375-.05827-.00065-.01009-.00358-.055-.001-.013-.00375-.057-.00081-.01074-.00407-.06022-.00049-.00749-.00456-.06445-.00016-.00293-.00456-.0625-.00048-.00554-.00472-.06445-.00017-.00325-.00472-.0625-.00049-.00521-.005-.06641v-.001l-.01074-.13444v-.001l-.00537-.06511-.00017-.0026-.00537-.06315-.00032-.00456-.00554-.0651-.00016-.00228-.00521-.0599-.00065-.00846-.00586-.06543v-.001a42.43587,42.43587,0,0,0-7.92692-21.18782l-.00163-.00228-.03629-.04981-.00082-.0013-.036-.04915-.00569-.00781c-.0236-.03256-.04688-.06446-.07064-.09668l-.00293-.00424-.03532-.04785-.00195-.0026-.03467-.0472-.00928-.01237-.02946-.04-.00683-.00912-.0306-.04134-.01026-.01334-.02881-.03874-.00846-.01139-.02848-.03809-.015-.02018-.02408-.03223-.014-.01855-.02376-.03158-.01726-.02311-.02132-.02832-.02-.02637-.0179-.02376-.02149-.02832-.01757-.02311-.02409-.03158-.01384-.01823-.02588-.03385-.01334-.01758-.03125-.041-.00668-.00846-.02718-.03548-.01334-.01725-.027-.03516-.01123-.01465-.0293-.03776-.00993-.013-.0734-.09473-.00472-.00586-.0376-.0485-.0013-.00163-.03679-.04687-.00309-.00391a42.86685,42.86685,0,0,0-3.48795-3.93131,10.63221,10.63221,0,0,0-7.5306-3.11263Z" style="fill:#d34000"/><circle cx="64" cy="448" r="21.33333" style="fill:#ec590a"/><circle cx="128" cy="448" r="42.66667" style="fill:#ec590a"/><path d="M189.7526,444.44727a21.71446,21.71446,0,0,0-20.74186,15.36425q-.05346.186-.10872.37175l-.00309.01009-.0153.05143-.009.02995-.01009.03353q-.03075.102-.062.2041l-.00293.00944-.01774.05794-.00439.01433-.01612.05208-.00586.01888-.01448.04622-.00765.02474-.01156.03679-.01058.03385-.007.02246-.03336.10514a21.69356,21.69356,0,0,0,14.15381,26.87989,21.19872,21.19872,0,0,0,6.42627,1.00325,20.97631,20.97631,0,0,0,20.08317-14.96256l.68229-2.25489a20.97946,20.97946,0,0,0-14.32487-26.31347,21.48117,21.48117,0,0,0-5.939-.83919Z" style="fill:#b22a00"/><circle cx="106.66667" cy="426.66667" r="21.33333" style="fill:#ffaf7d"/><path d="M97.83011,478.16989a42.66667,42.66667,0,0,0,60.33978-60.33978h0l-.04627-.04627-.01588-.01588-.03073-.03027-.01853-.01853-.028-.028-.01934-.01888-.0275-.0275-.0198-.01934-.02808-.02762L157.918,417.58l-.03015-.02923-.01738-.01738-.03177-.03084-.01461-.01462-.03695-.036-.01082-.01036-.047-.04558-.01036-.01035-.03637-.035-.016-.01554-.03177-.03084-.01726-.0168-.02889-.028-.01934-.01841-.02934-.02843-.0175-.01657-.03107-.0297-.01611-.01565-.03407-.03222-.01358-.01312-.03717-.03534-.01059-.01012-.04788-.04558-.004-.00357-.04419-.04189-.01174-.01128-.03533-.033-.01623-.01531-.03165-.0298-.01738-.01646-.0313-.029-.016-.01508-.03268-.03085-.016-.01461-.03441-.03211-.01278-.01186-.03982-.03705-.0084-.00795-.09852-.09069-.00368-.00368-.04523-.04155-.00794-.007-.0404-.03717-.01059-.00967-.03913-.0359-.01047-.00956-.03786-.03418-.012-.01105-.03982-.03614-.00863-.00771-.04339-.03924-.00553-.00507c-.06755-.06111-.13281-.11992-.20071-.18045l-.00357-.00311-.04661-.04155-.00414-.00368-.04685-.04132-.00368-.00322-.0488-.04328-.00069-.00069q-.1785-.15778-.35827-.31315h0a42.442,42.442,0,0,0-10.2054-6.53913,10.6666,10.6666,0,0,0-8.80765,19.43013,21.33842,21.33842,0,1,1-23.93551,34.50851,10.66667,10.66667,0,0,0-15.08495,15.08495Z" style="fill:#d34000"/><circle cx="192" cy="448" r="21.33333" style="fill:#ec590a"/><circle cx="202.66667" cy="458.66667" r="10.66667" style="fill:#d34000"/><circle cx="74.66667" cy="458.66667" r="10.66667" style="fill:#d34000"/><circle cx="320" cy="448" r="21.33333" style="fill:#ec590a"/><circle cx="448" cy="448" r="21.33333" style="fill:#ec590a"/><circle cx="384" cy="448" r="42.66667" style="fill:#ec590a"/><circle cx="373.33333" cy="437.33333" r="32" style="fill:#ff7a27"/><circle cx="352" cy="437.33333" r="10.66667" style="fill:#ffaf7d"/><circle cx="384" cy="426.66667" r="21.33333" style="fill:#ffaf7d"/><path d="M414.16989,478.16989l.04753-.04753.01842-.01842.02934-.0298.01922-.01922.02866-.02866.02026-.02072.0267-.02716.02163-.02164.02636-.02681.01968-.02014.02774-.0282.02025-.02071.0267-.02717.02083-.02129.02636-.02681.02163-.02256.02532-.02578.02153-.022.0252-.02613.02256-.02348.024-.02451.02233-.02325.02451-.02543.02268-.0236.02416-.02508.022-.02291.02462-.02555.0221-.02348.025-.02589.02106-.022.02474-.02613.02244-.02382.02337-.02428.02244-.02383.02463-.026.02164-.023.02439-.02578.02153-.0229.022-.02336.02509-.02647.01692-.0183.02819-.03.02095-.02233.03924-.042.03085-.03315.0183-.01968.02635-.02866.02383-.02566.02209-.02394.02164-.02348.02394-.02578.02037-.02221.02543-.02774.02026-.02209.02428-.02659.0221-.02394.02336-.02566.02129-.02314.02394-.02624.02049-.02278.0252-.02751.02049-.02279.02267-.025.023-.02578.02256-.02486.02129-.02359.02371-.02648.0206-.0229.0244-.02716.02071-.023.023-.02578.02129-.024.02429-.02705.02-.02278.02394-.0267.02025-.023.02406-.02728.02094-.02325.02072-.02394.02382-.02658.01991-.02267.02383-.02751.01956-.02187.02417-.02785.02187-.02509.02164-.02486.024-.02727.029-.03361.03361-.03867.01715-.01991.02658-.03073.01945-.02221.02382-.028.02268-.02635.01991-.02313.0244-.02809.01956-.02278.021-.02463.02256-.02624.02129-.02544.02117-.02486.02164-.02532.02175-.02543.02106-.02521.02222-.02589.01979-.02348.02313-.02728.02106-.0252.02049-.02417.02256-.02716.01956-.02325.02371-.02831.01865-.02233.02255-.02716.02095-.02509.02187-.026.02048-.02509.021-.02509.02187-.02647.02094-.02509.02175-.02635.01957-.02371.02267-.02774.02026-.02486.0183-.022.02393-.02946.01439-.01761.02843-.03487.005-.00587.03567-.044.009-.01128c.04776-.05835.0946-.1167.14179-.1754l.0137-.01692.02509-.03153.01565-.01934.025-.03142.01634-.02048.02475-.03073.01611-.02026.02336-.02934.01853-.0236.02106-.02658.01968-.02475.0213-.02727.01979-.02486.02118-.0267.01933-.02486.02083-.02636.02049-.02647.01991-.02543.02014-.02567.021-.02693.0191-.02463.022-.028.01727-.02233.0229-.02981.01864-.02371.02107-.0275.01887-.0244.02152-.028.01842-.02394.02152-.028.01772-.02325.02256-.02946.01772-.02325.02152-.02843.018-.02348.02233-.02923.01461-.01922.02509-.03338.00771-.01c.03315-.04373.06652-.08816.09944-.13212l.00955-.01278.02509-.03337.01416-.01922.02278-.03015.01658-.02256.023-.03085.01588-.0214.024-.03234.01439-.01945.025-.03372.01381-.01888.02486-.0336.01335-.01842.02567-.03441.01346-.01853.02417-.03291.01439-.01992.024-.0328.01462-.02014.02278-.03107.016-.02244.023-.03131.01473-.02071.02325-.032.01473-.02025.02394-.03361.01392-.019.02371-.03291.01393-.01945.025-.03511.01209-.01714.0244-.03407.015-.02095.02336-.033.01347-.01853.02382-.03349.01346-.01945.02521-.03533.005-.00725.032-.04535.003-.00437c.05892-.08378.11647-.16619.17482-.25032l.00586-.00863.02521-.03625.01266-.01819.02578-.03729.01-.01461.02509-.0366.01255-.01853.02405-.0351.01185-.01738.02429-.03533.01289-.01888.02405-.03556.01151-.017.02428-.0358.01278-.01875.02348-.03453.013-.01945.022-.03257.0152-.02256.02163-.03222.01335-.0198.02268-.03418.01346-.01991.02325-.03476.01116-.01669.02475-.03717.01058-.01611.02613-.03948.006-.00874.03-.04569.00288-.00426c.10358-.157.20532-.31351.30648-.47175l.00322-.00507.02624-.041.00967-.01473.02452-.03832.00978-.01577.02555-.04028.00851-.01312.0259-.04109.00852-.01358.02509-.03936.00955-.01508.02486-.03959.0092-.01473.02521-.0404.00829-.01289.02589-.04154.00852-.01358.02428-.03948.01013-.01611.02428-.039.00909-.01461.025-.04017.00806-.01312.02589-.042.00725-.01231.0259-.04155.00805-.01358.02567-.04178.00633-.01047.02716-.04419.005-.00817q.1614-.265.31868-.53183l.00276-.0046.03015-.05133.00127-.00265.02946-.04972.00334-.0061.02889-.04914.00287-.00518.0274-.04673.00587-.01047.02658-.04546.00449-.00817.02751-.0473.00425-.00748.02763-.04788.00368-.00645.02762-.04787.0046-.00829.02716-.04742.00334-.0061.02843-.0496.00219-.004q.2163-.38.42456-.76384l.00253-.00484.02785-.05133.002-.00379.0267-.04972.0038-.007.02681-.04938.00276-.00552.02659-.0496.00345-.00622.02774-.05213.00057-.001.02843-.05375.0015-.00287c.21591-.4065.4233-.81368.625-1.22582l.00069-.00161.027-.05513.00035-.00034.027-.05605.00012-.00011.02681-.05536.00127-.00219.026-.05409.00115-.00253a42.7639,42.7639,0,0,0,3.74327-24.93668l-.00011-.00035q-.0915-.60663-.20037-1.21016l-.00023-.00115c-.06917-.3829-.14317-.76327-.22259-1.14421l-.00034-.0015-.01139-.054-.002-.0091-.01093-.05213-.00162-.0076-.01093-.05213-.002-.0091-.01116-.0519-.00173-.00794-.011-.05156-.00231-.01013-.01139-.0526-.00115-.00483-.01174-.05455-.00161-.0076-.01174-.05317-.0015-.00633-.01162-.05282-.00219-.01025-.01174-.05179-.0008-.00379c-.044-.19635-.08977-.39407-.1365-.58995l-.00195-.00817-.01094-.04569-.0038-.016-.01047-.04339-.00414-.01749-.01071-.04362L425.45,437.857l-.01059-.04328-.00471-.01922-.0091-.03648-.00644-.0267-.00875-.03453-.00621-.02555-.009-.0366-.00575-.02278-.00979-.03856-.00575-.02325-.00909-.036-.00622-.02463-.00967-.03775-.00575-.02278-.00932-.03672-.0061-.02382-.0099-.038-.00587-.02359-.00932-.0358-.00656-.0252-.00955-.03694-.0053-.02049-.01047-.03971-.0053-.02048-.01081-.04074-.005-.019-.01082-.04074-.00564-.02107c-.01726-.0656-.03441-.129-.05214-.19461l-.00713-.02693-.00771-.0282-.00863-.03142-.00979-.03579-.00679-.02451-.0107-.039-.00564-.0206-.00978-.03533-.00771-.02774-.00863-.031-.00795-.02889-.00909-.03234-.00817-.02911-.009-.032-.00759-.02693-.00955-.03372-.00818-.02866-.009-.03153-.00806-.02831-.00932-.03211-.0084-.02981-.00875-.02992-.00875-.03085-.00863-.02958-.00932-.03211-.00829-.02854-.00909-.03142-.00852-.02877-.00966-.03315-.00817-.02773-.00956-.03234-.00817-.02774-.01024-.03441-.00794-.02659-.01-.03372-.00795-.02658-.01162-.03856-.00644-.02163-.01439-.04731-.00368-.01289-.03706-.12176-.00415-.01335-.01461-.04753-.00461-.01519-.01415-.04569-.00576-.01865-.01277-.04108-.00679-.02176-.01243-.03959-.00622-.02048-.01277-.04017-.00621-.02-.01289-.04052-.0068-.02175-.01231-.03924-.00633-.01945-.01312-.04167-.00621-.0191-.01335-.04189-.00564-.01784-.0137-.04247-.00633-.01945-.0137-.04247-.00529-.01634-.01462-.04477-.00529-.01634-.0145-.04443-.0053-.01588-.01473-.04511-.00529-.01589-.01485-.045-.00506-.01519-.01611-.04879-.00357-.01071-.01934-.058-.00034-.001-.01945-.05789-.00127-.0038c-.055-.16365-.11014-.32489-.16722-.48786l-.0015-.004-.04108-.11727-.002-.00541-.02014-.05674-.00046-.00184-.02037-.057-.00242-.00679-.01968-.0549-.00173-.00472-.01991-.05559-.002-.0054-.02014-.05582-.0015-.00449-.0198-.05432-.00287-.00771-.0206-.05674-.00046-.00138c-.11106-.30418-.22523-.60618-.34343-.90829l-.00092-.0023c-.02382-.06042-.04673-.119-.07066-.17931l-.00035-.00057-.02325-.0587-.001-.00264c-.03223-.08057-.06307-.15745-.09553-.23778l-.00126-.00288a42.43329,42.43329,0,0,0-7.33716-11.93334,10.66733,10.66733,0,0,0-15.018-1.01992q-.288.25067-.55346.51617a10.66814,10.66814,0,0,0-.50087,14.53206,21.38038,21.38038,0,0,1-1.04766,29.0465h0a21.44775,21.44775,0,0,1-25.27929,3.66789,10.66656,10.66656,0,1,0-10.20494,18.734,42.67943,42.67943,0,0,0,22.86542,5.109l.00207-.00023q.89286-.05111,1.78227-.13972l.00057-.00012c.10485-.01047.20808-.02117.3127-.03234l.00253-.00023c.08712-.00932.1724-.01864.25964-.02854l.00115-.00023.05156-.006.00035.00011c.08724-.0099.1739-.02014.2609-.03073l.001-.00011.05018-.006.00529-.00069c.06756-.00817.13362-.01668.20106-.0252l.00679-.00081.04742-.006.00529-.00069c.08494-.01082.16942-.0221.25435-.03338l.00679-.0008.04811-.00668.00311-.00034c.06836-.00944.13776-.019.20635-.02866l.00035.00011.04925-.0069.006-.00092c.08482-.01209.17022-.02429.25481-.03706l.00471-.00058.04811-.00713.00541-.00081c.08574-.013.17091-.02589.25665-.03936h.00092l.05029-.00794.00484-.00069c.06721-.01059.13523-.02152.20267-.03234l.00322-.00046.05018-.00829.00161-.00023c.08678-.014.17194-.02831.25849-.043l.001-.00011c.08551-.01462.17171-.02947.25711-.04443l.00333-.00057.04546-.00818.011-.00184.04535-.008.00345-.00069c.06825-.01209.13684-.02452.20474-.03718h.00046l.05145-.00955h.00046q.25774-.04782.51456-.0984l.0053-.00115.04764-.00944.00507-.00092c.084-.0168.16952-.03418.25354-.05144l.00391-.0007.04972-.01012.00184-.00046q.10185-.02106.20336-.0427l.00277-.00046.0458-.0099.01036-.00207.04523-.00978.00391-.00069q.10012-.02142.19991-.04339l.006-.00138.04638-.01.00725-.00172c.06755-.01508.13373-.0297.2014-.04489l.00081-.00034.04834-.01105.00529-.00115.04661-.01071.0076-.00161c.0656-.015.13258-.03038.19784-.04592l.0046-.00092.04684-.01093.00691-.00184.04672-.01082.0038-.001.19715-.04707.00955-.00218.045-.01094.00621-.00161c.0663-.01611.13063-.03211.197-.04834l.00633-.00172.04338-.01071.01186-.0031.04419-.011.0053-.00115.14915-.03775.00115-.00023.04707-.01209.00587-.00172.045-.0114.01082-.003.043-.01082.00828-.0023c.04707-.01208.09437-.0244.14133-.03683l.00737-.00184.04385-.01162.01012-.00277.042-.01116.01289-.00322.18875-.05064.01151-.00322.04062-.01117.01312-.00345.04247-.01162.00714-.00208c.06387-.01737.12924-.03533.19312-.05317l.00966-.00276.04362-.01231.0099-.00254.04362-.01231.00529-.00161c.04995-.014.09794-.02751.14778-.04189l.00126-.00035.04443-.01266.01208-.00334.0427-.01231.00736-.0023c.06468-.01865.1304-.03787.1952-.05663l.00494-.00172.04616-.01347.00656-.002c.06675-.0198.13327-.03936.19979-.05939l.00011-.00012.04593-.01369.00828-.00276.04212-.01266.01451-.00438.04108-.01254.001-.00012.1442-.04431.01013-.00322.042-.013.01139-.00357.0419-.01289.01127-.00345c.06227-.01945.12522-.03913.18737-.05893l.01139-.00357.04121-.01312.01162-.00379.043-.01359.00426-.00149c.04845-.01531.0961-.03073.14455-.0465l.00484-.00161.04016-.013.01692-.00541.03879-.01255.01173-.00391c.06307-.02072.126-.04132.189-.06238l.00737-.0023.042-.01393.01335-.0046.04144-.01381.00667-.00207c.04719-.01588.09633-.03234.1434-.04857l.00334-.001.044-.015.00956-.0031.042-.01439.0114-.004c.06192-.02094.12234-.04178.18391-.0633l.01416-.005.04085-.01415.0099-.00346.044-.01542.00587-.00218c.064-.0221.12672-.04431.19036-.067l.00932-.00333.04282-.01519.01012-.00369.04213-.015.00874-.00322c.0625-.02244.12441-.04477.18679-.06756l.01243-.0046.0404-.01462.01093-.004c.0625-.0229.12361-.04534.186-.06859l.00966-.00368.04086-.01508.01266-.00483.04166-.01543.00679-.00264c.06238-.02325.126-.0473.1884-.071l.00967-.00368.04086-.01554.01335-.00507c.06111-.02336.12406-.04764.18506-.07135l.00783-.00276.04189-.01658.01093-.004.04178-.01646.00817-.00311c.062-.02428.12464-.04868.18656-.07331l.0099-.00391.04247-.01669.00817-.00357.04488-.01772.00138-.00046c.065-.0259.12844-.05156.19335-.0778l.0061-.00242.0465-.01888.00138-.00046c.06594-.02681.12982-.05294.19565-.0801l.00161-.00069.04454-.0183.00932-.0038.04259-.01772.007-.00288.18771-.0786.007-.00288.0412-.01726.01289-.00553.04155-.01761.00069-.00023.13787-.05869.01232-.00541.03878-.01669.01278-.00541.0397-.01715.0114-.00494c.06053-.026.11923-.05156.17954-.0778l.01392-.0061.03729-.01658.01531-.00656.03625-.016.01669-.00749.12683-.05593.00932-.00426.0366-.01634.01818-.00806.03591-.01611.01335-.006.04005-.018.006-.00276c.044-.01956.08816-.03982.1319-.05961l.01312-.00576.0374-.01715.0145-.00667.03971-.01807.0084-.0038.13684-.06272.00368-.00184.0412-.01911.01048-.005.03844-.01772.01634-.0076.0366-.0168.01139-.00541.12372-.05789.01658-.00783.03544-.017.01715-.00794.03418-.01623.019-.00886.03453-.01657.01542-.00714c.03913-.01887.08-.03809.11923-.05708l.01842-.00875.032-.01542.02164-.01059.03107-.015.0221-.01059.03211-.01554.00173-.0008.08-.039.01853-.00886.02981-.01461.0244-.012.03073-.01508.01991-.00978.03349-.01646.01416-.00725c.04028-.01957.07975-.03925.11992-.05916l.01772-.009.03269-.01612.02117-.01058.03211-.016.01853-.00932.03418-.01715.01255-.00656c.02624-.01289.05167-.0259.07768-.039l.00806-.00391.03729-.01888.015-.00759.03556-.01807.01554-.00817.03809-.01922.00737-.00368.1251-.06434.01669-.0084.03384-.01772.01668-.00841.03637-.01887.01416-.00725.03752-.01957.00759-.00391.12844-.06721.01151-.006.03821-.02025.01324-.00679.036-.019.01738-.00909.12119-.06457.01058-.00552.03361-.018.0206-.01093.03061-.01634.02164-.01151.03038-.01657.02072-.011.113-.061.01715-.00932.03268-.018.01968-.01047.03246-.01772.01922-.01048.03211-.01783.01427-.00783c.02589-.01393.05087-.02785.07653-.042l.00679-.00357.03626-.02014.01507-.00817.03372-.019.01888-.01013.03372-.019.01243-.0069c.03936-.02187.07975-.04431.119-.06652l.0168-.00944.03269-.01841.01876-.01048.03176-.01795.01968-.01093.03292-.01865.016-.00909.07952-.045.001-.00058.03372-.01945.01807-.01024.03222-.01841.01888-.01105.03222-.01842.01957-.01127.03211-.0183.0122-.00714.0633-.0366.02278-.01312.02659-.01553.02532-.01474.02877-.0168.02187-.01266.02969-.01726.02164-.01289.053-.031.02406-.01393.02946-.01749.0206-.01231.0313-.01842.02107-.01231.02946-.0175.02382-.01415.02624-.01565.02889-.01738.04684-.028.02371-.014.02774-.01669.02486-.01473.02543-.01531.0267-.01611.0267-.01611.0244-.01473.02636-.01623.02347-.01427.05122-.031.02486-.01519.0267-.01612.02371-.0145.02773-.01714.02452-.01485.02762-.017.02152-.01324.055-.03384.02072-.01289.02739-.0168.02428-.01508.02808-.01749.02314-.01438.02658-.01646.025-.01577.02808-.01749.02106-.01324.05006-.03119.02532-.01611.02636-.01669.02658-.01646.02429-.01553.02658-.01692.025-.01577.02877-.01818.02256-.01427.048-.0305.02371-.01542.02635-.01669.02774-.01761.02221-.01439.02981-.01922.0206-.01323.02843-.0183.02555-.01634.04419-.02855.02808-.01841.02521-.01646.02509-.01634.02624-.017.0252-.01646.0267-.01749.021-.01358.03073-.02015.005-.0031.07331-.04846.01577-.01024.03142-.02083.019-.01254.029-.01934.02256-.01473.02762-.01841.02739-.01819.02175-.01438.0473-.03165.02428-.01646.02682-.01807.02451-.01623.02648-.01772.02393-.01611.02693-.01819.02486-.017.02578-.0175.041-.02762.03-.02037.02222-.0153.02877-.01957.02359-.01623.02682-.01807.02371-.01634.02681-.01853.02428-.01646.04742-.03268.01669-.01162.03291-.02279.02279-.01588.02762-.01888.02406-.01669.02589-.01807.02406-.01668.03049-.0213.02613-.01829.0404-.02843.02129-.01485.03015-.0214.01991-.01393.03084-.02164.02095-.015.03188-.02267.018-.01243.04926-.035.00783-.00552.04339-.031.01588-.01128.03234-.02313.02244-.016.02889-.02106.02026-.01427.033-.02383.01749-.01243.04719-.03429.02048-.015.02946-.02118.02187-.01588.02958-.02129.01956-.01451.03234-.02359.01819-.01312.04062-.02958.01255-.00932.04316-.03165.024-.01761.02693-.02.022-.016.02832-.021.02117-.01565.03234-.024.01727-.01266.04776-.03579.01519-.01105.0343-.02555.02048-.01542.02866-.0213.02244-.01691.02843-.02153.01991-.01484.03372-.02544.01634-.0122.04719-.03567.01772-.01358.03177-.02394.01933-.01473.03177-.0244.0183-.0137.03107-.02371.01933-.01473.0419-.03222.015-.01128.04016-.031.01658-.01289.03245-.02509.01911-.0145.02969-.02325.021-.01588.035-.02716.01243-.00967.04869-.03809.01358-.01036.03579-.028.01795-.01427.0305-.02359.02026-.01612.02923-.02278.02037-.01623.03349-.02613.016-.01277.04592-.03625.01749-.01381.0305-.02452.022-.01738.02636-.02083.02233-.01772.02773-.02221.02083-.01669.04581-.0366.01749-.01427.03-.024.02256-.01842.026-.021.02233-.01772.02785-.02279.01968-.016.03107-.02509.0183-.01508.04512-.03637.0214-.01772.02647-.02141.02152-.01784.0282-.02313.01991-.01623.03038-.02486.01784-.01461.03994-.033.0137-.0114.042-.03464.01542-.01312.03177-.02624.01933-.01611.02924-.02417.02014-.01692.02865-.02405.019-.01577.04558-.03821.01542-.01312.03338-.02785.01749-.01473.03153-.02647.01612-.01381.03372-.02866.01577-.013.04189-.0359.00518-.00426.04753-.04063.0145-.0122.0343-.02923.01645-.01416.03039-.02624.01876-.016.03291-.02832.01416-.01231.04765-.04074.00517-.00472.04259-.0366.01473-.01289.03211-.028.01841-.01611.031-.02681.01588-.014.03442-.02981.01438-.01255.04592-.04039.01358-.01174.03292-.02924.01807-.01576.0313-.02762.01623-.01439.03257-.02889.01519-.01335.04546-.04039.00127-.00127.04684-.04178.01577-.01392.03118-.028.01784-.016.03016-.02693.01761-.01576.03349-.03027.01289-.01151.04557-.041.01634-.015.03108-.02785.01807-.01668.02831-.02555.01956-.01773.02878-.02647.01807-.01623.03418-.03142.012-.01058.04626-.04259.01105-.01012.03579-.033.01623-.01485.02946-.02716.01876-.01738.02831-.026.01865-.01726.045-.04178.004-.004.04108-.03832.01842-.017.02819-.02635.019-.01761.02832-.02647.01761-.01669.03383-.032.01232-.0114.04557-.04281.01266-.0122.03269-.03084.01818-.01727.02785-.02647.01934-.01841.02842-.027.017-.01611.0359-.03453.01-.00955.04534-.0435.01324-.01232.03176-.03084.01819-.01727.02865-.02773.01715-.01669.03177-.03084.01369-.01324.04558-.04419.00644-.006.03879-.03786.01634-.01588.02981-.02935.01611-.01565.03165-.03073.0145-.0145.039-.0381.0061-.0061.04534-.04488.01335-.01289.03246-.03246.01611-.01565.02935-.02935.01691-.01692.03073-.03026.01485-.01485.04477-.04477Z" style="fill:#d34000"/><circle cx="213.33333" cy="384" r="21.33333" style="fill:#ff8d45"/><path d="M181.33333,85.33333h-.15494l-.10124.00033c-.278.00032-.55046.00163-.828.00358l-.06885.00065-.228.00195a21.33362,21.33362,0,0,0,.46029,42.66374l.08675-.00032.834-.00326a21.33383,21.33383,0,0,0,.20427-42.66667Zm47.39079,10.19922a21.3367,21.3367,0,0,0-9.394,40.49968c11.66357,5.70866,15.33659,12.02311,15.33659,13.3011,0,4.07357-17.77572,21.33334-53.33334,21.33334-28.68506,0-48.10156-11.56511-52.727-19.77735a21.33343,21.33343,0,0,0-37.20687,20.88314A62.31927,62.31927,0,0,0,104.405,187.62533l.00032.00032q.60474.53907,1.22494,1.06869l.0013.001.13216.11263.0013.001c.04444.03776.08627.07324.131.111l.00472.00423c.07259.0612.147.124.21989.1849l.0013.0013.04345.03646.00472.00391.08448.07063.0026.00228c.043.03581.08724.07259.13037.10873l.00684.00553c.04134.03451.0848.07064.1263.10482l.01286.01074.12565.10352.01009.00846.07845.06445.00684.00586.04118.03353.01171.00977.06967.057.01953.016.03629.02963.01774.01464.064.05209.02083.01692.03532.029.01969.01562.06185.05046.02556.0205.035.02832.04671.03777.03044.02473.02995.02409.04769.03841.03011.02409.0332.027.02978.02376.04965.03972.02881.02311.03385.027.03109.02474.05094.04069.02181.01758.03857.03059.0031.00228.07715.06153.0249.01985.05078.04.03255.02572.03207.02539.02929.02311.04134.03288.03939.03092.03141.02442.03028.02409.05013.03906.03125.02474.03206.02506.02767.02149.05469.043.02864.02213.029.02279.0485.03776.034.02637.03386.02636.02816.02181.05322.04134.02783.02116.03662.02865.0249.0192.054.04167.02686.02051.04394.03385.03076.02377.04167.0319.03174.02441.04313.03288.03092.02376.04118.03158.02751.02083.05566.04232.02181.0166.042.0319.02571.01953.05518.042.02539.01921.0402.0306.02441.01823.05534.042.0267.02018.03938.02963.03467.026.04818.03613.02262.01693.05111.03841.02458.01823.04785.03613.02392.0179.05339.03972.02848.02116.041.0306.0249.01855.05745.04264.02474.01856.03923.029.02669.01953.05469.04069.02864.02116.04151.0306.02181.016.05989.04427.02051.015.12956.09506.019.014.0638.04655.01026.00749.056.04069.02.01465.062.04525.01644.012.05257.03809.01725.01237.06332.04589.01757.0127.05632.04069.01188.00846.06624.04785.01482.01075.06038.04329.0096.00716.06511.04655.016.0114.06689.04785.00814.00586.06022.043.01725.01237.06429.0459.01661.01172.05127.03646.02018.01432.0638.04525.01465.01042.06331.04459.006.00424.0695.04915.01286.00911c.04639.03256.09326.06576.13981.09831l.01286.00912c.048.03385.09408.06608.14225.0996l.01009.00717.14649.10188.00521.00359.07389.05143.00472.00325.06966.04818.00684.00488.0734.05078.00488.00326.07325.05045.002.00163.0708.0485.013.00912.07048.04818.002.00162.07259.04948.00781.00554.14942.10189.005.00358.07422.05045.0057.00358.07422.05046.00049.00032.07584.05144.006.00423c.04916.0332.10173.06868.15088.10156l.00554.00391q.78369.52734,1.58675,1.04362l.0013.001.15869.10189.00277.00163.15983.10221.00065.00033c13.24837,8.4375,30.113,14.37207,48.8877,16.66569h.00179c.07633.00944.15039.01855.22672.02767l.00277.00032.22526.027.005.00065c.0765.00912.14844.01758.22494.02637l.00325.00032c.0765.00912.14942.01758.22608.02637l.00358.00033c.11475.01334.22559.026.34066.03906l.00651.00065c.07177.00814.14957.01693.22151.02474l.00977.0013c.07194.00781.14909.0166.221.02442l.008.00065c.036.00423.07455.00846.11068.01237l.00293.00032c.03841.00391.07162.00749.11.01172l.005.00065.11247.012.00244.00032c.07455.00781.14942.016.224.02377l.01318.0013c.07227.00781.14632.0153.21843.02278l.01009.00131c.07454.00748.14779.0153.22249.02278l.00537.00065.22575.02279.00537.00065.22282.02214.00961.001.11165.01075.00244.00032c.07487.00749.151.01465.22575.02214l.01025.001.221.02084.00993.001c.07243.00684.15023.01433.22282.02084l.008.001.11019.01009.0083.00065c.03386.00326.07211.00684.106.00977l.00635.00065.11116.01009.00847.00065c.03629.00358.07275.00684.10905.01009h.00228l.11084.0101.012.001c.07275.00651.14648.013.21924.01921l.01269.0013.21843.01855.01432.00131.22445.0192.00358.00033.11458.00944h.00195c.03646.00325.07341.00618.10987.00911l.0083.00065c.03646.00326.07324.00619.1097.00912l.01058.001c.07291.00585.14453.01171.21745.01725l.02115.00195c.034.0026.06869.00521.10287.00814l.00488.00032c.03646.00293.0695.00554.106.00814l.01546.0013c.07308.00586.14828.0114.22136.01726l.00895.00065.10954.00814.01237.001c.03417.00261.06673.00521.10091.00749l.01139.001.10807.00813.01465.001.10091.00749.00928.00065c.03662.0026.06917.00488.10579.00781l.01888.0013.21582.0153.01693.0013c.07324.00521.14356.0101.2168.015l.01627.0013c.03679.00228.07357.00488.11036.00749h.00048l.11345.00781.00586.00033c.03662.00227.074.00488.11068.00748l.01334.00065.09782.00651.015.001c.03435.00228.07162.00488.1058.00684l.01758.0013c.0734.00488.14437.00911.21793.014l.01547.001.10937.00684h.00016l.10791.00651.01677.0013.10774.00651.01058.00065.09978.00586.01611.001c.03434.00228.07357.00456.10807.00651l.01188.00065c.03435.00195.0682.00391.10254.00619l.01058.00065.10742.00618.01742.001.10433.00586.00456.00032.10579.00586.02328.0013.21093.01172.02409.0013.10189.00521.01937.00131c.02962.0013.05713.00292.08675.00455l.02783.0013.103.00554.01367.00065.09912.00488.01416.001.10661.00521.01888.001.09342.00456.01807.001c.03451.00163.06917.00325.10368.00521l.02246.001.10482.00489.001.00032.10808.00488.01969.001.106.00488.013.00065.095.00424.02344.001.1027.00489.01953.00065.09294.00423.0179.00065.105.00456.02035.001.1014.00423.00635.00033.10709.00423.02344.001.09749.0039.00961.00066.09977.0039.03255.0013.1014.00391.008.00033.09847.00358.02621.001.10335.00391.01319.00065.09488.00326.02247.001c.03466.0013.07063.00261.1053.00358l.01546.00065.10336.00358.00813.00033c.03728.0013.07357.0026.11084.00358l.01563.00065.09961.00326.01253.00032.10482.00358.02295.00065.10335.00326.013.00033c.03239.0013.06429.00227.09652.00325l.02555.00065.104.00293.01481.00065.09212.00261.02588.00065.1001.00293.02636.00065.08692.0026.02295.00065.09944.00261.03109.00065.09343.0026h.00911c.03483.001.06885.002.10368.00261l.02913.00065.10091.0026h.00407l.105.00261.027.00065c.03483.00065.06771.0013.1027.00228l.01547.00032.09293.00195.0236.00066.1058.002.01611.00032.0918.002.02636.00065.10384.00195.01709.00033.10222.002h.00895l.1123.00195.01156.00033c.07487.0013.14876.00228.22363.00358l.0197.00033.10888.00162h.005l.10075.00163.02588.00033.10237.0013.022.00032.09114.001.022.00033c.035.00065.06934.001.10433.0013l.021.00032.09619.001.01449.00033.1027.001.03027.00033c.03255.00032.06348.00065.096.00065l.00895.00032.10824.001h.02132l.10856.001h.00212l.10156.00065.02962.00032.10319.00033.01612.00032.09391.00033.02392.00033.10645.00032h.015c.03256.00033.0625.00033.09506.00033l.02181.00032c.03515,0,.06868,0,.10384.00033h.13541c.03272.00032.0708.00032.10336.00032h.13248c53.01937,0,96-28.65364,96-64h0v-.07682l-.00016-.03776v-.02344l-.00016-.0345-.00016-.02311-.00017-.03679-.00016-.02148-.00033-.05567v-.00065l-.00048-.05729-.00017-.0179-.00032-.04134-.00017-.01888-.00048-.03809-.00017-.02149-.00048-.04-.00017-.01726-.00163-.11556-.00032-.01692-.00065-.04037-.00033-.02181-.00065-.03678-.00049-.02051-.00065-.03906-.00049-.01986-.001-.05176-.00017-.00488-.00113-.05469-.00066-.026-.00081-.03288-.00065-.02474-.00081-.03222-.00049-.02507-.001-.03646-.00065-.02018-.00146-.055v-.00163l-.0018-.05794-.00048-.0166-.00114-.04037-.00082-.02246-.00114-.03483-.00065-.02246-.0013-.03678-.00065-.02181-.00179-.05013-.00016-.00586-.00212-.05664-.00065-.01823-.00146-.04069-.00082-.01986-.00146-.03646-.00082-.02246-.00162-.03809-.00082-.0192-.002-.0459-.00049-.01172-.00228-.05534-.001-.02213-.00162-.03483-.00114-.02474-.00163-.03451-.001-.02116-.00179-.03873-.001-.01954-.00244-.04915-.00033-.00749-.00293-.05631-.00081-.01823-.00212-.04036-.00114-.02019-.002-.03613-.00114-.02214-.00212-.03841-.00114-.01953-.00293-.054-.00016-.002-.00342-.05827-.00081-.01367-.00244-.043-.0013-.0205-.00228-.03809-.00114-.01888-.00244-.03939-.00131-.02018-.00309-.04883-.00049-.00716-.00358-.05664-.00114-.0166-.00276-.042-.00114-.01823-.00261-.03842-.00146-.02115-.00277-.03972-.00114-.0166-.0083-.11686-.00049-.00684-.00374-.04948-.00114-.0166-.00326-.04362-.001-.013-.00358-.04655-.00114-.01334-.009-.11524-.00114-.01367-.00358-.04492-.00131-.016-.00325-.04-.00179-.02084-.00326-.03938-.00146-.01726-.00407-.04915-.00065-.00781-.005-.05794-.00114-.01237-.00374-.04265-.00212-.02409-.00293-.03255-.00211-.02376-.00293-.03288-.00228-.026-.00325-.03516-.0018-.01953-.0052-.05566-.00147-.01563-.00407-.04231-.00179-.01921-.00342-.03548-.00244-.02474-.00325-.03288-.00228-.02376-.00391-.03972-.00162-.016-.00554-.05534-.00211-.01985-.00359-.03548-.0026-.026-.00342-.03222-.00228-.02246-.00374-.03614-.00228-.02148-.00423-.03971-.00179-.01693-.00586-.054-.00228-.02213-.0039-.03548-.00245-.02181-.0039-.03516-.00244-.02181-.00424-.03841-.00211-.01823-.00472-.04232-.00179-.015-.00635-.05567-.00179-.01627-.00472-.04037-.0026-.02148-.00407-.03483-.00277-.02279-.00407-.03418-.00277-.02311-.00472-.03971-.002-.016-.00667-.05534-.00212-.01693-.00488-.03971-.00277-.02214-.00407-.03288-.00325-.026-.00391-.0306-.00325-.02506-.00472-.03711-.00228-.01856-.007-.05468-.00261-.01986-.00472-.03581-.00309-.02376-.00455-.03386-.00293-.02181-.00456-.03483-.00326-.02376-.00455-.03418-.00293-.02148-.00717-.05274-.00325-.02441-.00456-.03288-.00342-.02409-.00439-.03125-.00342-.02539-.00472-.0332-.00309-.02246-.00586-.04037-.00212-.0153-.00813-.05631-.00147-.01107-.00667-.04525-.00277-.0192-.00537-.03679-.00309-.02116-.00521-.0358-.00326-.02181-.00667-.04427-.00146-.01009-.00879-.05795-.001-.00651-.00765-.0511-.00212-.01335-.00634-.04134-.0031-.01953-.006-.03907-.0026-.01757-.00733-.04688-.00146-.00911-.00879-.056-.00293-.01791-.006-.03776-.00358-.02278-.0057-.03516-.00309-.01953-.00635-.03874-.00309-.01888-.00635-.03939-.00293-.01725-.009-.054-.00277-.01726-.00667-.04036-.00326-.01921-.006-.03548-.00374-.02311-.00586-.03451-.00374-.02213-.00619-.03614-.00342-.01953-.00928-.05371-.00358-.02116-.00586-.03352-.00472-.02767-.00488-.02767-.00472-.027-.00521-.0293-.00488-.02734-.005-.02865-.00472-.02571-.00928-.05209-.00423-.02376-.00586-.03255-.005-.02735-.00456-.02506-.00586-.03223-.00423-.02278-.00569-.03125-.00472-.0254-.00538-.02864-.0096-.05176-.00472-.02539-.00553-.02962-.005-.02637-.00586-.03125-.00423-.02181-.00667-.03516L276.554,141.14l-.00684-.03515-.00391-.02018-.00862-.04525-.00586-.02995-.00684-.03451-.00423-.02213-.00635-.0319-.00521-.02637-.00585-.03-.00505-.02539-.00635-.03157-.00455-.02311-.01075-.05339-.00342-.0166-.00781-.03874-.00488-.02376-.00619-.03028-.00537-.027-.00569-.02735-.00586-.029-.00619-.0293-.00488-.02376-.01107-.05338-.00309-.01465-.00895-.04232-.00358-.0179-.00782-.03679-.00455-.02148-.00782-.03679-.00406-.01855-.00863-.04037-.00326-.01562-.01171-.054-.00407-.01888-.00782-.03613-.00537-.02474-.00683-.03125L276.31982,140l-.00748-.03385-.00521-.02344-.007-.03223-.00505-.02278-.0109-.04916-.005-.02213-.0083-.03744-.005-.02213-.007-.03158-.0057-.02474-.00748-.03288-.005-.02246-.00781-.03385-.00472-.02116-.01237-.05371-.00326-.01367-.00944-.04134-.00521-.02247-.00765-.03287-.0052-.02246-.00765-.03256-.00586-.02474-.00765-.03287-.00505-.02084-.01155-.04882-.005-.02084-.00928-.03971-.00537-.02181-.00716-.03-.00684-.02865-.00667-.02734-.00635-.02637-.00748-.03092-.0057-.02344-.00944-.03874-.00928-.03808-.00716-.029-.007-.02832-.00667-.027-.00619-.02474-.008-.03223-.006-.02409-.00749-.02994-.00619-.02507-.00634-.02474-.01449-.05794-.0057-.02214-.00765-.02994-.006-.02377-.00765-.03027-.00634-.02474-.00749-.0293-.00667-.02571-.00717-.02767-.0083-.03223-.01253-.04818-.00618-.02376-.008-.0306-.00635-.02409-.00732-.02832-.00684-.026-.008-.03-.00651-.02441-.00733-.028-.01139-.04264-.006-.02311-.0114-.042-.00553-.02084-.0083-.03092-.00749-.028-.00732-.02669-.00749-.02767-.00732-.027-.00716-.02636-.009-.03256-.01367-.05013-.00586-.02083-.00911-.03353-.0057-.02051-.00814-.02929-.00748-.02735-.00765-.027-.0083-.02963-.00635-.02311-.00944-.03385-.01237-.04362-.00814-.02865-.00749-.02669-.00748-.02669-.008-.02767-.008-.028-.00749-.026-.0083-.029-.007-.02474-.01221-.04232-.007-.02441-.01139-.03906-.007-.02442-.00879-.02995-.00716-.02441-.00879-.03-.00749-.026-.00927-.03158-.006-.0205-.01368-.04623-.00537-.0179-.01286-.04362-.00732-.02441-.008-.027-.00862-.02865-.0083-.02767-.00749-.02506-.00944-.03158-.00667-.02181-.01351-.0446-.00537-.0179-.01351-.04427-.006-.01986-.01123-.03678-.005-.0166-.01188-.03874-.00586-.01888-.01139-.03678-.00538-.01758-.01285-.04134-.00782-.02507-.013-.042-.00618-.01986-.01009-.03222-.00814-.02572-.00879-.02832-.00846-.02669-.00879-.028-.00781-.02441-.01124-.03516-.01123-.0358-.01106-.03451-.008-.02506-.00911-.02833-.00814-.02539-.00912-.02832-.00878-.02734-.00879-.02734-.00814-.02507-.0114-.03515-.00927-.02833-.014-.04329-.006-.01823-.01107-.03385-.00814-.02442-.00976-.02994-.00814-.02474-.00993-.02995-.00765-.02311-.0109-.03288-.01482-.0446-.00895-.02669-.00911-.027-.00912-.02734-.008-.02409-.01074-.0319-.00765-.02246-.01091-.03256-.00716-.02083-.01253-.03711-.00912-.02669-.01481-.0433-.006-.0179-.01188-.0345-.008-.02312-.0109-.0319-.00765-.02246-.01091-.03157-.00781-.02246-.01221-.03549-.01025-.02962-.014-.04-.008-.02246-.01058-.0306-.00895-.02539-.00944-.027-.00977-.02767-.00944-.02669-.00911-.026-.00993-.028-.01465-.04135-.01237-.0345-.00912-.02572-.00895-.02506-.01074-.02962-.00879-.02507-.00976-.027-.00977-.027-.00944-.026-.01221-.03418-.00781-.02148-.01725-.0472-.00879-.02442-.01091-.02994-.0083-.02279-.01155-.03125-.00863-.02344-.01107-.02995-.00862-.02409-.00912-.02408-.02083-.05664-.00814-.02214-.0096-.02572-.01009-.027-.00993-.027-.01026-.027-.00944-.02539-.01106-.02962-.00863-.02279-.01563-.04167-.00423-.01106-.01953-.05176-.00781-.02084-.0127-.0332-.00813-.02116-.01189-.03125-.00927-.02441-.012-.03158-.00765-.01985-.01871-.04883-.00147-.00391-.02132-.05566-.00326-.00781-.01692-.04395-.00733-.01888-.014-.03613-.007-.01791-.01433-.03678-.00667-.01725-.01774-.04492-.00326-.00847-.02034-.05176-.00846-.02148-.01286-.03255-.00781-.02019-.01368-.03417-.0083-.02116-.01286-.03223-.0083-.02083-.01562-.03907-.00554-.014-.02132-.05339-.00488-.01237-.01562-.03874-.00879-.02181-.01335-.03287-.00814-.02051-.01351-.03288-.0083-.02051-.01644-.04069-.005-.01237-.02116-.05208-.00684-.0166-.015-.03678-.00814-.01954-.01351-.03287-.00944-.02312-.01253-.02994-.00912-.02246-.0135-.03256-.00863-.02083-.02132-.05143-.00716-.01725-.01384-.03288-.01058-.02539-.0122-.0293-.00944-.02246-.01335-.0319-.00863-.02051-.01676-.03971-.00554-.01335-.02213-.05208-.00619-.01465-.01643-.03874-.007-.0166-.01612-.03743-.00765-.01823-.0153-.03581-.00732-.01725-.01628-.03776-.00716-.01661-.0223-.05208-.00553-.01237-.0166-.03874-.00912-.02115-.01448-.03353-.0083-.01888-.01563-.03581-.00732-.01693-.02-.0459-.00309-.00683-.02344-.05371-.00521-.012-.01774-.04036-.008-.01791-.01513-.03418-.00961-.02213-.01464-.03288-.008-.0179-.01953-.04395-.00374-.00879-.04753-.10612-.00716-.016-.01758-.03906-.00618-.014-.0184-.04069-.00586-.01334-.02148-.0472-.0026-.00619-.02426-.05306-.0052-.01172-.01953-.043-.00521-.01139-.01921-.042-.00683-.015-.01807-.03971-.00619-.01335-.02067-.04492-.0039-.00846-.04883-.1058-.00765-.0166-.01709-.03711-.008-.01692-.01692-.03646-.00765-.0166-.02149-.04558-.00293-.00651-.02522-.05371-.00407-.00879-.02051-.04362-.00716-.0153-.01791-.03776-.0083-.01757-.01774-.03744-.00667-.01432-.02083-.044-.00456-.00944-.02572-.054-.00114-.00228-.02246-.04688-.00976-.02083-.01661-.03451-.008-.0166-.01839-.03808-.00668-.014-.02343-.0485-.00179-.00391-.02621-.054-.00374-.00781-.0223-.04557-.00505-.01074-.02132-.04362-.00586-.012-.02034-.04166-.00586-.012-.01921-.03906-.008-.01628-.0249-.05078-.006-.01237-.019-.03841-.00977-.01986-.0166-.03353-.00976-.01985-.01644-.03321-.009-.0179-.02051-.04134-.00553-.01074-.02637-.05306-.00261-.00521-.0236-.04688-.00683-.01367-.019-.03808-.00927-.01823-.01856-.03711-.00683-.01335-.02263-.04492-.00407-.00814-.05354-.10514-.00749-.01465-.019-.03776-.00879-.01693-.01856-.03646-.008-.01562-.021-.04069-.00618-.012-.02653-.05143-.00554-.01074-.02148-.04167-.00733-.01432-.02018-.03906-.00814-.01563-.01937-.03711-.00781-.015-.021-.04036-.00651-.0127-.05485-.10482-.00586-.01107-.02165-.04134-.00749-.01432-.02067-.03906-.007-.013-.02311-.044-.00472-.00911-.05583-.10482-.00618-.01172-.022-.04134-.00733-.01367-.02116-.03939-.007-.013-.02262-.04232-.0057-.01042-.05582-.10384-.008-.01464-.02116-.03907-.00683-.01269-.02263-.04167-.00569-.01042-.026-.04785-.00261-.00488-.05892-.10775-.00211-.0039-.02735-.04981-.00358-.00651-.02555-.04622-.0044-.00814-.02539-.0459-.00439-.00781-.05827-.10515-.00553-.01009-.02393-.043-.00667-.012-.02214-.03939-.00732-.01334-.02523-.04493-.00391-.00683c-.01985-.03548-.03841-.06869-.05843-.10384l-.0083-.015-.02-.03548-.01188-.02083-.01741-.03093-.01042-.01823-.02214-.03906-.00683-.012-.05876-.10287-.00765-.01334-.02246-.03939-.008-.014-.02214-.03841L271,126.42415l-.02393-.04166-.00634-.01075-.02979-.05175-.001-.00163-.0288-.04981-.00619-.01041-.0249-.0433-.00619-.01041-.02408-.04134-.00668-.0114-.02474-.04264-.006-.01009-.06071-.10384-.006-.01009-.02507-.04232-.00651-.01139-.02441-.041-.00635-.01107-.0293-.04948-.00065-.001-.06364-.1071-.00358-.00586-.02669-.04492-.00749-.01237-.02441-.041-.00586-.00976-.02783-.04623-.00358-.00586c-.02165-.03645-.04151-.06933-.06348-.10546l-.00358-.00619-.02865-.04753-.00341-.00553-.02832-.04655-.0044-.00749-.03011-.04948-.00146-.00227-.06576-.10775h0l-.03157-.05143-.00391-.00651-.02865-.04655-.00374-.00619-.02734-.04427-.00619-.01009-.0638-.10319-.00472-.00781-.02865-.0459-.00341-.00586-.02914-.04655-.00407-.00651c-.04411-.071-.08789-.14095-.13248-.21159l-.00245-.00391c-.06722-.10644-.13525-.21386-.20328-.32031l-.00017-.00032c-.04573-.07162-.09065-.14128-.13688-.21289l-.0026-.00424-.03174-.04882-.00212-.00358c-.04638-.07129-.09163-.141-.13834-.21224l-.00049-.001-.03369-.05143-.00179-.00261q-.06885-.10547-.13867-.21061l-.00342-.00521-.03207-.04817-.00228-.00359-.03352-.05045-.00131-.002-.07-.10482-.00277-.00423-.03271-.04883-.00212-.00326-.033-.04915-.00244-.00358c-.07162-.10645-.14225-.21094-.21468-.31706l-.00017-.00032c-.04834-.07064-.09635-.141-.14485-.21127l-.00065-.001c-.04867-.07064-.09668-.14-.14567-.21062l-.00147-.00195c-.196-.2819-.39355-.56087-.59554-.84049l-.00065-.001q-.303-.41943-.61426-.835h-.00016c-.05192-.06934-.10368-.138-.15593-.20736l-.00081-.001c-.05225-.069-.10449-.1377-.15706-.20671l-.00017-.00033c-.07893-.10351-.15722-.2054-.23714-.30859l-.00211-.0026c-.06657-.08627-.13217-.17058-.19922-.25619l-.00049-.00065-.03923-.05013-.0013-.00163q-1.21-1.54394-2.54-3.03646l-.00049-.00065q-2.21679-2.48828-4.7539-4.82649l-.00114-.001c-.16895-.15593-.33822-.31022-.50912-.46517l-.00065-.00065c-.16992-.15365-.342-.30762-.51383-.46029l-.00391-.00358c-.067-.05957-.13607-.12044-.20345-.18l-.00716-.00619-.04541-.04-.00505-.00455-.04427-.03874-.00781-.00684-.10091-.08854-.00716-.00618-.04248-.03711-.01107-.00977-.03939-.03418-.01188-.01041-.0446-.03907-.00309-.0026c-.05143-.0446-.1014-.08822-.15316-.13281l-.01058-.00912-.0415-.0358-.0096-.00847-.03841-.0332-.01416-.01205-.04786-.04134-.00048-.00032-.10271-.08822-.00944-.00814-.03987-.03385-.014-.012-.04183-.03581-.006-.00521c-.05094-.04362-.10238-.08724-.15348-.13086l-.01221-.01009-.04134-.03516-.00944-.00813-.04232-.03581-.00895-.00749-.104-.08789-.00227-.00195-.04753-.04-.01221-.01009-.03792-.0319-.01546-.013-.03858-.03222-.01074-.00912-.04232-.03548-.01025-.00879-.05046-.042-.00813-.00684-.04183-.03483-.01481-.01237-.03695-.03092-.01628-.01335-.03255-.027-.01888-.016-.03988-.03287-.00976-.00814-.05192-.043-.00505-.00423-.04264-.03548-.02214-.01823-.02636-.02149-.0267-.02213-.02457-.02018-.02295-.01888-.03109-.02572-.02018-.0166-.04834-.03972-.01758-.01432-.03109-.02539-.02246-.01855-.03109-.02539-.0192-.01563-.0306-.02506-.02148-.01758-.02979-.02409-.02148-.01758-.04753-.03874-.01986-.016-.03157-.02571-.01856-.015-.03483-.02832-.01627-.01334-.03939-.03158-.01091-.00879-.04378-.03548-.00976-.00781-.05079-.041-.0179-.01432-.03092-.02507-.02539-.02018-.026-.02116-.02685-.02148-.02084-.0166-.02978-.02377-.02132-.01725-.07-.05566-.00553-.00456-.02783-.02214-.0223-.0179-.02881-.02279-.02116-.01692-.03109-.02474-.019-.0153-.02946-.02311-.022-.01758-.11589-.0918-.008-.00618-.03353-.02637-.01921-.0153-.03222-.02539-.01579-.01237-.03418-.02669-.01433-.0114-.12744-.09993-.00179-.00163-.03857-.02995-.0127-.00976-.03727-.0293-.01107-.00879-.03792-.0293-.00895-.00716c-.05843-.04557-.11507-.08952-.17383-.13476l-.012-.00944-.03825-.02963-.00912-.00716-.04069-.03125-.00586-.00455-.13232-.10189-.00521-.00391-.04248-.03288-.00618-.00455-.04232-.03256-.00684-.0052-.04118-.03158-.00862-.00651-.17823-.13607-.00765-.00553-.04231-.03223-.00505-.0039c-.07926-.06023-.15511-.11752-.23454-.17741l-.0013-.001-.04638-.03483-.00212-.00163-.04476-.03385-.00618-.00456a93.67857,93.67857,0,0,0-15.1364-9.19075,21.248,21.248,0,0,0-9.299-2.14584Z" style="fill:#d34000"/><ellipse cx="160" cy="149.33333" rx="32" ry="21.33333" style="fill:#ff7a27"/><path d="M256,21.33333h-.16178c-.03858.00033-.07732.00033-.11605.00033h-.0472l-.08073.00032-.07634.00033h-.01074c-.10628.00065-.21045.001-.31657.002h-.02539l-.08268.00065-.10921.001h-.002l-.14615.0013h-.00635l-.25847.00293A21.20286,21.20286,0,0,0,233.708,42.7793a21.46446,21.46446,0,0,0,21.4388,21.22493l.11019-.00032L256,64h0c26.46761,0,42.66667,13.81217,42.66667,21.33333,0,7.51563-16.18881,21.3239-42.64014,21.33334a21.33333,21.33333,0,0,0-.00293,42.66666c.17546,0,.353-.00032.52816-.0013h.00016c.13786-.00065.27507-.00163.41292-.0026h.00114l.06739-.00065h.002l.06461-.00066h.00684c.0459-.00065.08724-.001.133-.0013h.00179l.13281-.00162h.00928l.06022-.001h.0083l.05843-.00065.01172-.00033.061-.00065h.00277l.06234-.001h.01123l.06022-.001h.00537l.06038-.001.01189-.00032.05892-.001h.00748l.05746-.001.01611-.00032.05273-.00065.01807-.00033.04622-.001.02474-.00032.04672-.001.02116-.00032.04475-.001.02393-.00033.048-.001.02-.00033.04607-.001.02229-.00033.049-.001.019-.00065.04655-.001.02278-.00033.051-.001.01253-.00032.05208-.0013.022-.00033.0472-.0013.02148-.00033.04362-.001.02686-.00065.04524-.00131.021-.00032.04378-.0013.0293-.00065.03808-.001.03467-.001.03044-.00065.03516-.001.03971-.001.02425-.00065.04216-.001.029-.001.04036-.001.028-.001.03645-.001.03516-.001.03564-.001.03288-.001.03239-.001.03581-.001.0345-.001.03695-.0013.02751-.001.03825-.001.036-.0013.03027-.001.03418-.001.03939-.0013.02685-.00065.04769-.00163.01628-.00065.048-.00163.02572-.00065.04-.00162.0275-.00066.04151-.00162.02718-.001.04378-.0013.02051-.001.04964-.00163.01953-.00065.04981-.002.016-.00065.055-.002.01237-.00033.06038-.00228.00424-.00032.05843-.00228.01465-.00033.05159-.00195.01709-.00065.05029-.00228.0184-.00065.05078-.00195.01595-.00066.05338-.00227.01433-.00033.055-.00228.012-.00065.05469-.00228.015-.00065.05778-.00228.006-.00032.05778-.00261.01464-.00065.05567-.00228.00944-.00032.05615-.00261.01465-.00065.05794-.0026.0057-.00033.0612-.0026.00813-.00033.06185-.00293.0044-.00032.06429-.00293h.00342l.0651-.00326h.00228l.06624-.00325h.00131c.09065-.00423.1774-.00847.2679-.013l.0057-.00033c34.94938-1.75683,64.13265-19.2946,74.99511-43.19433l.00114-.00228.02-.04395.001-.00228c.021-.04622.041-.09049.06185-.137l.00162-.00358.01921-.04265.00244-.00553.01856-.04167.00032-.00065c.04167-.09277.08268-.18554.12386-.27864v-.00033l.02035-.0459.0013-.00293.03971-.09049.00082-.002.01937-.04428.00179-.00423.01839-.04232.00244-.00553.01807-.04167.001-.00195.01921-.04459.00146-.00326.03874-.08984.00293-.00684.01709-.03971.00325-.00749.01693-.03939.00277-.00651.01741-.04069.00082-.00195.0192-.04492.00065-.00163.0389-.0918.00163-.00358.03825-.09049.00033-.001.03906-.09277.00016-.00065.01937-.04623.00081-.00195.01888-.04492.00049-.00131.03825-.09212.00391-.00944.01513-.03646.0057-.014.01383-.03321.00521-.01269.01416-.03451.00456-.01139.01465-.03516.00651-.01627.01253-.0306.006-.01465.01351-.03288.0057-.01432.01318-.0319.00684-.01726.01237-.03027.00667-.0166.01253-.0306.00554-.014.01335-.0332.006-.015.01318-.03256.00456-.01139.01416-.03548.007-.01693.01172-.02929.00716-.01823.01188-.02995.00472-.01172.01448-.03646.002-.00456.01644-.04166.00537-.01335.01351-.03418.00374-.00976.01465-.03679.00716-.01823.01123-.02832.00684-.01758.012-.03059.005-.013.01351-.03483.0039-.00976.01449-.03679.00488-.013.01383-.03548.00163-.00423.0166-.04232.00407-.01074.01433-.03711.00227-.00618.01612-.04135.00179-.00455.01627-.04265.00212-.00553.01628-.042.00179-.00488.01611-.04232.0026-.00684.0153-.04.00375-.01009.01465-.03808.0013-.00359.01644-.04329.00374-.00977.01416-.03776.00423-.01106.01351-.03614.00456-.01171.01367-.03646.002-.00554.01563-.04166.00358-.00944.01416-.03809.00342-.00911.01432-.03809.00391-.01074.01367-.03711.00309-.00781.01481-.04.00179-.00489.01563-.04264.00228-.00586.0153-.04167.00179-.0052c.03418-.0931.06868-.1875.10237-.28093l.001-.00293.01627-.04525h0c.02865-.07942.05681-.15852.08513-.23828l.001-.00293.04948-.1403.00131-.0039.04882-.14.00049-.0013.01612-.04622.00065-.00228.01578-.04557.00163-.00456.015-.04362.00016-.00033.01611-.04687.00244-.00684.01416-.04166.00082-.00228.01546-.04558.00146-.0039.01482-.04362.00211-.00651.01416-.04134.00277-.00879.01334-.03906.00326-.00977.01286-.03841.00358-.01074.01253-.03679.00391-.01172.0122-.03645.00342-.01042.01286-.03841.00081-.00261.01482-.04459.0052-.01563.01042-.03157.00586-.01791.01042-.03125.0039-.012.01188-.03581.00359-.01107.0122-.03743.00293-.00879.013-.03971.002-.00619.01334-.041.00489-.015.0109-.03353.00277-.00846.02848-.08854.00179-.00489.01384-.04329.00179-.00586.0135-.04167.00342-.01106.01172-.03679.00488-.015.01058-.03353.00472-.015.01042-.03288.0057-.01758.0096-.03092.00521-.01661.00993-.03125.00569-.01855.00961-.03027.00423-.01368.01074-.03418.00537-.01757.00977-.03125.005-.01628.00977-.03125.00846-.02734.00635-.02051.00781-.02539.00733-.02344.006-.01953.00911-.02962.00407-.01367.01058-.03451.00635-.02051.00814-.027.00879-.029.00586-.0192.00862-.02832.00619-.02051.00732-.02442.00732-.02441.00668-.02213.008-.02637.00651-.02181.008-.02637.00667-.02279.00781-.026.00521-.01758.00944-.0319.00261-.00879.012-.04036.00065-.0026.01335-.04493.00374-.01269.01058-.03613.00293-.0101.01139-.03873.00261-.00879.01139-.03906.00456-.016.0096-.03256.00472-.0166.00928-.03222.00472-.016.00928-.03222.005-.01725.00912-.03223.00309-.01074.01074-.03711.0044-.01563.0096-.03385.00325-.01107.01042-.03711.00423-.015.00961-.03386.00341-.012.01042-.03678.00326-.0114.01025-.03678.00423-.015.0096-.03418.0031-.01139.01041-.03711.00391-.01432.0096-.03451.00375-.01334.00992-.03614.00131-.00488.012-.04362.00326-.01139.01009-.03711.00341-.0127.00977-.0358.005-.01791.0083-.03092.00537-.01953.00781-.029.00651-.02409.00651-.02442.00733-.027.00585-.02181.00814-.03028.00489-.01823.00765-.02864.00537-.02051.00748-.02767.00554-.02116.007-.02669.006-.02246.00683-.026.006-.02279.00667-.02507.00618-.02408.00668-.02507.00618-.02376.0057-.02214.00716-.027.00684-.027.00569-.02149.00765-.02962.00505-.01953.00749-.0293.005-.01953.008-.03125.00455-.01758.00847-.0332.00407-.016.00748-.02995.005-.01953.00635-.02507.006-.02441.00618-.02409.006-.02441.00748-.0293.00489-.01986.00537-.02148.00716-.02832.00455-.01888.00749-.02995.0044-.01758.00781-.0319.0057-.02311.00618-.02507.00667-.027.00554-.02247.00879-.03613.00293-.012.00846-.03451.00358-.0153.034-.14127.00146-.00554.0083-.03483.00358-.0153.00668-.02832.00521-.02148.00406-.01725.00765-.03288.00521-.02181.006-.02572.00684-.02864.00488-.02149.00456-.01953.00716-.0306.00277-.01172.00846-.03678.00668-.02865.00472-.01985.00569-.02539.0057-.02474.00472-.02019.00667-.02962.00375-.01627.00748-.03288.00375-.016.00748-.03353.00358-.016.00749-.03288.00635-.02832.00472-.02083.005-.02279.00619-.02767.00521-.02376.00553-.02442.00554-.02474.00553-.02571.00472-.02116.00618-.02767.00456-.02148.00635-.02832.00358-.01693.00732-.0332.00277-.013.00781-.0358.00391-.01823.007-.0319.00244-.01172.008-.03744.00342-.016.00733-.03418.00293-.01367.00732-.0345.006-.028.00456-.02181.00521-.02441.00521-.02507.00439-.02083.00619-.02962.00358-.01726.00651-.03125.01823-.08821.00228-.01074.00585-.02865.00456-.02181.00407-.02018.006-.0293.00391-.01953.00635-.03093.00244-.01237.00749-.03645.00455-.02312.00537-.02669.00407-.02051.00586-.02929.0044-.02214.00553-.02767.00374-.0192.006-.0306.00488-.02409.00488-.02507.005-.026.00472-.02376.005-.02572.00456-.02409.00537-.028.00423-.02148.006-.03093.00358-.01888.00618-.03223.00326-.01725.00667-.0345.00293-.01563.00765-.04036.00163-.00879.00781-.04167.00163-.00814.006-.03287.00342-.01758.00683-.03679.00228-.01269.00472-.02572.00472-.02539.00309-.01627.006-.03321.00358-.01985.00553-.02995.00488-.027.00424-.02279.00537-.03027.00358-.01921.0039-.02213.00521-.0293.00082-.0039.00813-.0459.00212-.01172.00667-.03776.00244-.01433.00635-.0358.00277-.016.006-.03386.00326-.01888.00537-.03092.0039-.02246.00472-.02735.00391-.02213.00472-.028.00407-.02409.00456-.026.00374-.02181.00472-.028.00391-.02344.00455-.02669.00375-.02214.00472-.028.00358-.02116.00472-.029.0026-.016.0057-.03418.0039-.02344.00424-.026.00472-.02832.00358-.02214.00374-.02343.00439-.027.00277-.01628.00537-.03385.00342-.02084.00456-.029.00358-.02246.00439-.028.006-.03744.00179-.01172.00586-.03711.00211-.01334.00505-.0319.00276-.01856.00375-.02344.00423-.02734.00309-.02051.00456-.02929.00407-.02637.00358-.02376.00407-.02735.00358-.02311.00537-.03548.00211-.014.00521-.03516.00244-.01562.00456-.03125.00277-.01888.0057-.03776.00179-.01237.00423-.0293.00325-.02148.00358-.02507.00375-.02506.00358-.02572.00358-.02441.00439-.0306.00277-.01986.00309-.02083.00423-.03028.00131-.00944.00586-.041.00195-.01432.005-.03516.00619-.04492.00065-.00489.00439-.0319.00277-.0192.00293-.02246.00391-.02832.0039-.02832.00293-.02149.00456-.0345.00228-.016.00391-.0293.00276-.02116.00554-.042.00114-.00781.00488-.03776.00179-.013.00439-.03352.00212-.01726.00488-.03776.00163-.01237.01221-.0944.00081-.00651.00456-.03613.00179-.015.00325-.02507.0031-.02572.00211-.01627.00423-.03483.00082-.00651.00553-.04362.001-.00944.01123-.09213.00081-.00683.00521-.0433.00163-.013.00439-.03743.00163-.013.01025-.08789.0101-.08822.00146-.013c.0153-.13281.03011-.26725.04411-.40039l.00049-.00488.00407-.03809.0013-.01269.00325-.03158.00212-.01953.00244-.02376.00277-.02735.00146-.01432.00375-.03646.00162-.0166.00342-.03386.00407-.04036.001-.01009.00228-.02376.00781-.07845.00179-.01823.00309-.03223.00179-.01953.00309-.0319.001-.01009.00374-.04037.00131-.01334.00358-.03809.00016-.00195.00456-.04883.00081-.00944.00374-.041.00114-.01172.008-.09049.00016-.001.0044-.0498.00048-.00619.00391-.04492.00065-.00781.00374-.043.001-.01074.00342-.04.00114-.01432.00309-.03679.001-.012.00325-.03874.001-.01139.00325-.03972.00066-.00879.00341-.04231.00065-.00749.00342-.04362v-.001l.01188-.15169.00293-.03906.00082-.01139.00276-.03679.00114-.01465.002-.02636.00179-.02507.001-.014.00277-.03743.00016-.00358.00342-.04688.00114-.01758.00244-.03385.00065-.00911.00293-.04167.00261-.04037.00081-.01041.00619-.09408.00065-.00814.00927-.14518.00049-.00846.00277-.04525.00032-.00586.0018-.02767.00146-.02409.00049-.01009.00244-.041.0013-.01986.00179-.03125.0013-.02441.00163-.0267.00163-.02864.0013-.02246.00147-.02865.0013-.02279.00163-.02929.00114-.02181.00065-.013.00472-.08985.00081-.01465.00195-.03678.00033-.00911c.0026-.04916.00488-.09538.00716-.14454l.001-.02083.00146-.0306.00391-.08659.00065-.016.00423-.09537.00033-.00717.00048-.01432c.00212-.0472.00391-.0931.0057-.1403v-.00065c.00212-.05111.00391-.10221.00586-.15364l.00033-.00945.00146-.04166.00049-.0127c.00212-.06412.00423-.1289.00618-.19336l.00049-.012.00114-.03939.00065-.02148.00082-.02995.00065-.02507.00081-.02636.00065-.02377.00065-.028.00065-.01953.00082-.0319.002-.085c.00261-.1097.00488-.21778.00667-.32748l.00033-.01562.00114-.07292.00195-.141.00082-.0804.00016-.01042c.00163-.168.0026-.33854.0026-.50684,0-35.34635-38.20507-64-85.33333-64Z" style="fill:#d34000"/><ellipse cx="330.66667" cy="128" rx="32" ry="21.33333" style="fill:#ff7a27"/><ellipse cx="224" cy="85.33333" rx="32" ry="21.33333" style="fill:#ff7a27"/><path d="M288.3999,92.37077a21.05732,21.05732,0,0,0-11.08724,3.16146,21.61477,21.61477,0,0,0-7.1556,29.47721l.08073.13151.03321.05436.00374.00619.03385.05534.00326.0052.07047.11589.0127.02116.016.02637q.17749.29394.35107.58919a21.60153,21.60153,0,0,0,29.39812,7.47624,21.054,21.054,0,0,0,7.39518-29.07911l-1.08415-1.80143A21.05049,21.05049,0,0,0,288.3999,92.37077Z" style="fill:#b22a00"/><circle cx="202.66667" cy="74.66667" r="10.66667" style="fill:#ffaf7d"/><circle cx="352" cy="117.33333" r="10.66667" style="fill:#ffaf7d"/><circle cx="149.33333" cy="128" r="21.33333" style="fill:#ffaf7d"/><path d="M125.69857,177.61719a21.21743,21.21743,0,0,0-7.12272,1.238,21.57252,21.57252,0,0,0-13.1281,27.31836l.12582.36361c.01692.04915.03385.09766.0511.14648.0223.07357.04476.14616.06788.2194a21.38308,21.38308,0,0,1-20.35922,27.76368,21.05972,21.05972,0,0,1-9.389-2.16114A21.33335,21.33335,0,0,0,57.02669,270.749a63.5724,63.5724,0,0,0,21.76237,6.25391h.00147c.13444.01367.26692.02669.40153.03971h.00309c.10107.00977.20036.01888.30159.028h.00017l.1001.00911.00227.00033c.10124.00879.19939.01725.30079.02571l.00325.00033.09782.00814.005.00065q.14893.01221.29786.02376l.00683.00033.09587.00748.00635.00066q.14916.01122.2985.02181l.00472.00032c.03385.00261.06348.00456.09749.00684l.00521.00032c.06576.00489.13314.00944.19889.01367l.00228.00033.09717.00618.008.00066c.0319.002.0638.0039.0957.00618l.006.00033c.06592.00423.13249.00813.19841.012l.00244.00033.09863.00586.00521.00032.09749.00553.0057.00033c.0638.00358.13053.00749.1945.01074l.01009.00065.09114.00489.01465.00065.09131.00488.01042.00033.09424.00488h.00114l.09456.00456.012.00065.09229.00423.012.00065.0931.00423.00847.00033c.064.0026.1276.00553.19173.00813l.013.00066.09163.00358.01237.00032c.03207.0013.06071.00261.09278.00358l.0096.00065.19206.00684.01139.00033.09391.00325.00912.00033.09537.00325h.00733l.09505.00293.00358.00033.09554.0026.01123.00033.09229.0026.01367.00033.09261.0026h.0083l.08968.00228.01025.00032.09164.002.01465.00032.09131.002.01318.00032.09391.002h.00537l.09213.00163.01025.00033.09228.0013.01417.00033c.03011.00065.06233.001.09244.0013l.01107.00032.09505.0013h.00521l.09212.001.01058.00033.0905.001h.01806l.089.001h.015l.09066.00065h.01041l.08545.00065h.0166l.08822.00033h.019l.08838.00032h.10921a63.99993,63.99993,0,0,0,64-64v-.09342l-.00016-.02832-.00016-.06706v-.03027l-.00033-.08334-.00016-.00944-.00049-.09244-.00016-.02995-.00049-.06543-.00016-.03093-.00065-.0778-.00017-.015-.001-.0931-.00033-.02637-.00081-.06673-.00033-.03287-.00114-.07357-.00016-.01823-.00146-.0931-.00033-.02376-.00114-.07162-.00049-.02832-.00146-.07291-.00033-.02149-.00179-.09375-.00049-.0166-.00162-.07715-.00066-.02865-.00146-.06966-.00065-.02506-.00228-.09147-.00049-.02116-.00195-.07357-.00082-.02832-.00195-.07161-.00065-.02247-.00277-.09537v-.00033l-.00293-.09245-.00081-.02636-.00228-.07227-.00081-.02246-.00651-.18978-.00082-.02148-.00276-.07357-.001-.02507c-.00228-.06185-.00488-.12727-.00749-.18912l-.00065-.01823-.00342-.0791-.00081-.01986-.00374-.08594-.00049-.00976-.00423-.09636-.00082-.015-.00358-.0791-.00114-.02344-.0039-.08138-.00065-.013-.00472-.09473-.001-.0179-.00391-.07683-.0013-.02376-.00423-.08008-.00081-.01432-.00521-.09733-.00033-.00358-.005-.08985-.00114-.0205-.00472-.08171-.00082-.01367q-.00561-.0957-.01155-.19141l-.00114-.01953-.005-.07975-.001-.01693-.01253-.192-.001-.01433-.0057-.08431-.001-.01465-.01334-.193-.001-.01335-.00619-.084-.00113-.01563c-.00472-.06575-.00944-.12825-.01433-.19368l-.00081-.00912-.00667-.08854-.001-.01269c-.00521-.06576-.01025-.13021-.01563-.19564l-.00032-.00521-.00749-.09049-.00114-.01433-.00781-.09407v-.00033l-.00863-.10091v-.001l-.0083-.0957-.001-.01042-.0083-.09407-.00017-.00228c-.006-.06738-.01172-.13118-.0179-.19857l-.00065-.00716-.009-.097h-.00017c-.00618-.06739-.01253-.13347-.019-.20085l-.00033-.00326-.00944-.097-.00032-.00326-.01986-.19856-.00049-.00554-.00992-.0957-.00017-.0026c-.01041-.10059-.02083-.19955-.03174-.30013l-.00016-.00163a63.65671,63.65671,0,0,0-2.59831-12.38314c-.03011-.0944-.06119-.18913-.09244-.28288-.01758-.05729-.035-.1136-.05306-.1709-.06446-.19824-.12907-.39388-.19532-.59179l-.02832-.08366-.01823-.05436-.01025-.03-.021-.06218-.00667-.01985c-.01986-.058-.03939-.11556-.05941-.17351l-.00488-.014-.02653-.07748-.00374-.01041c-.13265-.38412-.27018-.77051-.41-1.15137a21.096,21.096,0,0,0-19.73388-13.66341Z" style="fill:#d34000"/><circle cx="74.66667" cy="202.66667" r="32" style="fill:#ff7a27"/><circle cx="64" cy="192" r="21.33333" style="fill:#ffaf7d"/><path d="M122.28092,201.98535a21.47787,21.47787,0,0,0-19.814,13.17741,21.199,21.199,0,0,0,11.50146,27.806l1.49594.61589q.376.15478.75455.29427.36818.15869.74561.30533l1.50081.58171a21.18934,21.18934,0,0,0,27.501-12.21712,21.46529,21.46529,0,0,0-12.27995-27.64193q-.54907-.21-1.09375-.42415c-.18294-.071-.36719-.13933-.55094-.20508-.17839-.0791-.35759-.15593-.53923-.23047q-.53027-.21533-1.056-.4349l-.0013-.00032-.02637-.01107a21.33115,21.33115,0,0,0-8.13786-1.61556Z" style="fill:#b22a00"/><circle cx="266.66667" cy="224" r="74.66667" style="fill:#d34000"/><path d="M444.002,151.36361a21.341,21.341,0,0,0-20.13248,14.28385c-7.38428,21.071-28.7334,37.89649-56.17855,44.57455a21.33332,21.33332,0,1,0,10.0874,41.457c41.86133-10.18555,74.14421-37.07227,86.35677-71.9209A21.34771,21.34771,0,0,0,444.002,151.36361Z" style="fill:#b22a00"/><ellipse cx="245.33333" cy="213.33333" rx="32" ry="21.33333" style="fill:#ff7a27"/><circle cx="224" cy="394.66667" r="10.66667" style="fill:#b22a00"/><circle cx="330.66667" cy="458.66667" r="10.66667" style="fill:#d34000"/><circle cx="458.66667" cy="458.66667" r="10.66667" style="fill:#d34000"/><circle cx="437.33333" cy="437.33333" r="10.66667" style="fill:#ff7a27"/><circle cx="245.33333" cy="373.33333" r="10.66667" style="fill:#b22a00"/><circle cx="309.33333" cy="394.66667" r="10.66667" style="fill:#b22a00"/><circle cx="202.66667" cy="373.33333" r="10.66667" style="fill:#ffaf7d"/><circle cx="309.33333" cy="437.33333" r="10.66667" style="fill:#ff7a27"/><circle cx="224" cy="352" r="10.66667" style="fill:#ffaf7d"/></g></svg>