<?xml version="1.0" encoding="iso-8859-1"?>
<!-- Generator: Adobe Illustrator 19.0.0, SVG Export Plug-In . SVG Version: 6.00 Build 0)  -->
<svg xmlns="http://www.w3.org/2000/svg" xmlns:xlink="http://www.w3.org/1999/xlink" version="1.1" id="Capa_1" x="0px" y="0px" viewBox="0 0 511.999 511.999" style="enable-background:new 0 0 511.999 511.999;" xml:space="preserve">
<path style="fill:#64DCA0;" d="M360.196,376.238c-9.394,0-17.913-5.466-21.845-13.966c-2.595-5.609-7.549-10.034-13.728-10.171  c-13.143-0.292-20.379,12.214-15.863,22.548c10.298,23.548,35.521,37.499,61.712,32.719c24.999-4.563,44.238-26.425,45.735-51.793  c1.904-32.258-23.616-59.146-55.388-59.494c-13.575-0.148-24.672-10.34-24.672-23.917v-6.387c0-16.187,2.885-32.29,9.064-47.251  c9.507-23.018,14.984-48.987,14.984-74.754C360.195,68.511,313.54,7.5,255.986,7.5S151.777,68.511,151.777,143.773  c0,25.768,5.477,51.736,14.984,74.755c6.179,14.961,9.064,31.058,9.064,47.245v5.408c0,14.497-11.166,24.753-24.672,24.901  c-34.951,0.382-62.334,32.879-53.973,69.311c4.232,18.442,18.094,33.798,36.028,39.83c28.483,9.582,57.555-4.038,69.372-29.179  c3.398-7.229,1.51-16.823-5.182-21.184c-8.549-5.571-19.649-2.002-23.564,6.943c-4.967,11.364-18.041,17.52-30.692,12.877  c-7.011-2.573-12.553-8.605-14.508-15.813c-4.371-16.116,7.711-30.726,23.144-30.726c25.628,0,47.27-17.276,53.949-40.79  c0.311-1.094,1.954-0.84,1.957,0.297c0.086,37.398,0.206,159.784,0.206,159.784c0,11.63-7.838,22.314-19.255,24.531  c-15.353,2.982-28.841-8.753-28.841-23.582c0-9.583-8.41-17.204-18.251-15.883c-7.64,1.025-13.924,9.044-13.806,16.752  c0.496,32.509,28.775,58.4,62.091,54.931c28.881-3.007,50.127-28.688,50.127-57.725V293.855c5.24,1.322,10.566,2.221,16.032,2.221  c5.467,0,10.793-0.899,16.032-2.221v152.602c0,29.037,21.246,54.718,50.127,57.725c32.651,3.4,60.463-21.4,62.028-52.991  c0.479-9.666-6.22-18.803-15.897-18.841c-8.628-0.034-15.68,6.748-16.08,15.269c-0.571,12.186-9.007,23.187-21.12,24.635  c-14.571,1.741-26.994-9.641-26.994-23.872c0,0,0.121-123.575,0.206-160.904c0.003-1.163,1.616-1.331,1.932-0.212  c6.589,23.335,27.905,40.547,53.244,40.871c9.052,0.116,18.001,4.181,21.964,12.32C390.185,358.436,377.232,376.238,360.196,376.238  z"/>
<path style="fill:#7DF5A5;" d="M308.092,264.013c9.832,0,19.31-1.85,28.364-5.035c0.703-13.876,3.445-27.592,8.757-40.452  c9.507-23.018,14.984-48.987,14.984-74.754C360.196,68.511,313.541,7.5,255.987,7.5c-3.077,0-6.106,0.26-9.115,0.602  c-28.371,25.29-46.998,67.624-46.998,115.631C199.875,201.208,248.325,264.013,308.092,264.013z"/>
<g>
	<circle style="fill:#50BE8E;" cx="207.897" cy="215.918" r="32.06"/>
	<circle style="fill:#50BE8E;" cx="304.086" cy="215.918" r="32.06"/>
</g>
<g>
	<path style="fill:#C99196;" d="M151.779,328.142c18.042,0,34.126-8.555,44.356-21.848c2.775-3.606,1.649-8.939-2.137-11.463l0,0   c-3.55-2.367-8.191-1.402-10.826,1.953c-7.509,9.562-19.222,15.64-32.406,15.313c-15.708-0.39-30.21,9.415-35.944,24.045   c-11.291,28.806,9.643,56.129,36.958,56.129c21.987,0,39.797-17.716,40.037-39.646c-7.278-1.531-14.879,2.094-17.98,9.179   c-4.967,11.365-18.044,17.521-30.696,12.875c-7.009-2.574-12.549-8.605-14.504-15.811   C124.264,342.75,136.346,328.142,151.779,328.142z"/>
	<path style="fill:#C99196;" d="M207.892,447.434c0,11.63-7.838,22.314-19.255,24.531c-15.353,2.982-28.842-8.753-28.842-23.582   c0-0.22-0.004-0.439-0.013-0.657c-0.414-10.24-16.019-9.591-16.019,0.657l0,0c0,22.136,17.945,40.081,40.081,40.081l0,0   c22.136,0,40.081-17.945,40.081-40.081V320.3c0-8.951-7.256-16.206-16.206-16.206l0,0   C207.798,352.211,207.892,447.434,207.892,447.434z"/>
	<path style="fill:#C99196;" d="M304.084,447.434c0,11.63,7.838,22.314,19.255,24.531c15.353,2.982,28.842-8.753,28.842-23.582   c0-0.22,0.004-0.439,0.013-0.657c0.414-10.24,16.019-9.591,16.019,0.657l0,0c0,22.136-17.945,40.081-40.081,40.081l0,0   c-22.136,0-40.081-17.945-40.081-40.081V320.3c0-8.951,7.256-16.206,16.206-16.206l0,0   C304.178,352.211,304.084,447.434,304.084,447.434z"/>
	<path style="fill:#C99196;" d="M360.196,328.142c-18.042,0-34.094-8.492-44.324-21.785c-2.775-3.606-1.681-9.002,2.105-11.526l0,0   c3.55-2.367,8.191-1.402,10.826,1.953c7.509,9.562,19.222,15.64,32.406,15.313c15.708-0.39,30.21,9.415,35.944,24.045   c11.291,28.806-9.643,56.129-36.958,56.129c-21.987,0-39.797-17.716-40.037-39.646c7.406-2.038,14.879,2.094,17.98,9.179   c4.967,11.365,18.044,17.521,30.696,12.875c7.009-2.574,12.549-8.605,14.504-15.811   C387.711,342.75,375.628,328.142,360.196,328.142z"/>
</g>
<path d="M406.715,308.84c-11.828-12.685-28.526-20.069-45.813-20.258c-9.836-0.108-17.254-7.166-17.254-16.417v-6.387  c0-15.804,2.859-30.739,8.497-44.388c10.174-24.633,15.552-51.472,15.552-77.617c0-38.037-11.387-73.876-32.064-100.915  C314.498,15.22,286.213,0,255.987,0c-30.225,0-58.51,15.22-79.644,42.858c-20.677,27.039-32.064,62.878-32.064,100.915  c0,26.146,5.378,52.985,15.552,77.618c5.638,13.65,8.497,28.583,8.497,44.382v5.408c0,9.813-7.417,17.294-17.254,17.401  c-19.321,0.211-37.286,9.071-49.287,24.309c-11.982,15.214-16.325,34.962-11.915,54.179c4.83,21.047,20.52,38.39,40.946,45.261  c6.856,2.306,13.841,3.407,20.72,3.406c18.748-0.001,36.675-8.183,48.797-22.452c0.034,29.727,0.057,53.612,0.058,54.147  c0,8.328-5.668,15.709-13.186,17.169c-5.055,0.982-9.98-0.241-13.867-3.446c-3.841-3.167-6.044-7.822-6.044-12.774  c0-6.787-2.932-13.245-8.043-17.716c-5.108-4.469-11.926-6.508-18.706-5.6c-11.187,1.501-20.486,12.629-20.308,24.3  c0.271,17.771,8.078,34.754,21.419,46.595c11.792,10.466,26.532,16.04,42.094,16.04c2.269,0,4.558-0.119,6.855-0.358  c15.759-1.64,30.254-9.341,40.816-21.685c10.34-12.083,16.035-27.532,16.035-43.5V302.973c5.919,0.81,11.146,0.81,17.064,0v143.485  c0,15.968,5.694,31.417,16.035,43.5c10.562,12.343,25.057,20.044,40.815,21.685c17.64,1.84,34.728-3.476,48.122-14.96  c13.234-11.347,21.316-27.792,22.175-45.12c0.363-7.315-2.218-14.452-7.079-19.581c-4.336-4.574-10.118-7.107-16.279-7.132  c-0.032,0-0.063,0-0.096,0c-12.599,0-22.915,9.83-23.505,22.418c-0.424,9.06-6.666,16.6-14.519,17.539  c-4.811,0.572-9.436-0.863-13.024-4.048c-3.546-3.147-5.58-7.659-5.58-12.37c0-0.547,0.024-24.889,0.058-55.051  c14.429,17.071,37.141,25.612,60.178,21.407c28.355-5.175,50.172-29.875,51.874-58.728  C424.732,338.45,418.702,321.695,406.715,308.84z M181.796,345.684c-6.647,1.986-12.053,6.765-14.834,13.117  c-3.571,8.172-12.7,11.971-21.235,8.84c-4.755-1.745-8.531-5.859-9.854-10.735c-1.438-5.305-0.461-10.54,2.752-14.741  c3.17-4.145,7.965-6.521,13.154-6.521c19.011,0,36.61-8.595,48.453-22.501c0.016,10.429,0.033,22.354,0.048,34.695  C194.651,344.623,187.992,343.833,181.796,345.684z M408.722,355.134c-1.301,22.042-17.954,40.906-39.595,44.856  c-22.409,4.09-44.408-7.565-53.493-28.344c-1.174-2.686-0.898-5.746,0.736-8.185c0.997-1.487,3.409-3.96,8.087-3.862  c3.274,0.073,5.808,3.055,7.088,5.822c5.147,11.127,16.394,18.317,28.652,18.317c10.942,0,20.947-5.554,26.765-14.857  c5.95-9.515,6.392-21.072,1.213-31.708c-4.887-10.036-15.85-16.373-28.611-16.536c-21.347-0.273-40.313-14.834-46.123-35.409  c-1.169-4.14-5.108-6.724-9.351-6.138c-4.219,0.579-7.289,4.099-7.299,8.371c-0.085,36.908-0.205,159.678-0.207,160.921  c0,9.003,3.872,17.604,10.623,23.596c6.741,5.983,15.764,8.801,24.762,7.723c15.288-1.827,26.946-15.172,27.722-31.73  c0.214-4.561,3.954-8.121,8.523-8.121c0.012,0,0.023,0,0.035,0c2.084,0.008,3.918,0.833,5.453,2.451  c2.027,2.138,3.142,5.323,2.984,8.519c-0.656,13.231-6.836,25.797-16.957,34.475c-10.235,8.775-23.307,12.832-36.805,11.428  c-24.339-2.534-43.404-24.613-43.404-50.266V293.856c0-2.313-1.067-4.496-2.891-5.917c-1.825-1.422-4.203-1.922-6.444-1.355  c-5.388,1.36-9.898,1.993-14.197,1.993c-4.299,0-8.809-0.633-14.197-1.993c-2.244-0.566-4.62-0.066-6.444,1.355  c-1.824,1.421-2.891,3.604-2.891,5.917v152.602c0,25.653-19.065,47.732-43.404,50.266c-13.821,1.436-27.113-2.817-37.438-11.981  c-10.201-9.054-16.171-22.032-16.378-35.605c-0.062-4.065,3.625-8.71,7.305-9.204c0.41-0.055,0.816-0.083,1.219-0.083  c2.081,0,4.041,0.728,5.615,2.105c1.856,1.623,2.92,3.965,2.92,6.426c0,9.447,4.192,18.322,11.502,24.348  c7.299,6.017,16.875,8.422,26.269,6.596c14.675-2.85,25.326-16.263,25.326-31.901c-0.001-1.224-0.121-122.82-0.206-159.793  c-0.009-4.28-3.101-7.813-7.351-8.401c-4.234-0.586-8.154,1.967-9.32,6.07c-5.911,20.807-25.129,35.34-46.735,35.34  c-9.899,0-19.036,4.523-25.068,12.408c-6.028,7.881-7.966,18.007-5.314,27.781c2.575,9.493,9.917,17.497,19.162,20.89  c15.827,5.809,33.465-1.62,40.146-16.91c1.007-2.301,2.97-4.034,5.385-4.755c2.45-0.732,5.013-0.346,7.214,1.089  c3.26,2.124,4.423,7.596,2.489,11.71c-10.53,22.403-36.407,33.262-60.192,25.26c-15.518-5.22-27.437-18.401-31.109-34.399  c-3.39-14.772-0.081-29.914,9.079-41.544c9.178-11.653,22.907-18.429,37.667-18.591c17.994-0.197,32.09-14.428,32.09-32.4v-5.408  c0-6.836-0.484-13.535-1.438-20.074c6.959,6.084,16.054,9.783,26.002,9.783c21.816,0,39.564-17.749,39.564-39.564  s-17.749-39.564-39.564-39.564c-18.141,0-33.459,12.277-38.108,28.956c-6.884-19.889-10.504-40.95-10.504-61.536  C159.279,72.767,202.663,15,255.987,15s96.708,57.767,96.708,128.773c0,20.587-3.621,41.648-10.504,61.536  c-4.649-16.679-19.967-28.956-38.108-28.956c-21.816,0-39.564,17.749-39.564,39.564s17.749,39.564,39.564,39.564  c9.948,0,19.043-3.699,26.003-9.783c-0.954,6.54-1.438,13.241-1.438,20.08v6.387c0,17.419,14.096,31.219,32.09,31.416  c13.398,0.146,25.831,5.647,35.007,15.488C404.906,328.894,409.515,341.702,408.722,355.134z M311.696,347.817  c0.016-12.356,0.032-24.281,0.048-34.709c11.678,13.704,28.956,22.289,47.627,22.529c5.532,0.071,12.46,2.237,15.317,8.104  c3.925,8.06,1.406,14.229-0.445,17.188c-3.058,4.89-8.309,7.81-14.046,7.81c-6.433,0-12.336-3.774-15.038-9.615  c-4.056-8.767-11.86-14.331-20.368-14.521c-0.208-0.005-0.416-0.007-0.623-0.007C319.605,344.596,315.351,345.719,311.696,347.817z   M183.327,215.917c0-13.545,11.02-24.564,24.564-24.564c13.544,0,24.564,11.02,24.564,24.564c0,13.544-11.02,24.564-24.564,24.564  C194.347,240.481,183.327,229.462,183.327,215.917z M328.648,215.917c0,13.545-11.02,24.564-24.564,24.564  c-13.544,0-24.564-11.02-24.564-24.564c0-13.544,11.02-24.564,24.564-24.564C317.629,191.353,328.648,202.373,328.648,215.917z"/>
<path d="M223.407,215.917c0-4.142-3.358-7.5-7.5-7.5h-16.032c-4.142,0-7.5,3.358-7.5,7.5c0,4.142,3.358,7.5,7.5,7.5h16.032  C220.049,223.417,223.407,220.06,223.407,215.917z"/>
<path d="M288.568,215.917c0,4.142,3.358,7.5,7.5,7.5H312.1c4.142,0,7.5-3.358,7.5-7.5c0-4.142-3.358-7.5-7.5-7.5h-16.032  C291.926,208.417,288.568,211.775,288.568,215.917z"/>
<path d="M280.004,53.248c2.69,0,5.291-1.452,6.636-3.995c1.937-3.662,0.538-8.2-3.124-10.136c-5.896-3.118-12.043-5.23-18.269-6.277  c-4.086-0.687-7.953,2.068-8.64,6.152c-0.687,4.085,2.067,7.953,6.152,8.64c4.643,0.781,9.267,2.377,13.744,4.745  C277.623,52.968,278.822,53.248,280.004,53.248z"/>
<path d="M319.784,128.577c0.43,3.832,3.676,6.664,7.444,6.664c0.279,0,0.562-0.016,0.846-0.048c4.117-0.462,7.079-4.174,6.617-8.29  c-2.741-24.421-11.491-47.359-24.637-64.59c-2.513-3.294-7.219-3.925-10.512-1.414c-3.293,2.512-3.926,7.219-1.414,10.512  C309.651,86.514,317.342,106.816,319.784,128.577z"/>
<g>
</g>
<g>
</g>
<g>
</g>
<g>
</g>
<g>
</g>
<g>
</g>
<g>
</g>
<g>
</g>
<g>
</g>
<g>
</g>
<g>
</g>
<g>
</g>
<g>
</g>
<g>
</g>
<g>
</g>
</svg>
